<?xml version="1.0" encoding="utf-8"?>
<!-- Generator: Adobe Illustrator 16.0.3, SVG Export Plug-In . SVG Version: 6.00 Build 0)  -->
<!DOCTYPE svg PUBLIC "-//W3C//DTD SVG 1.1//EN" "http://www.w3.org/Graphics/SVG/1.1/DTD/svg11.dtd">
<svg version="1.1" id="Layer_1" xmlns="http://www.w3.org/2000/svg" xmlns:xlink="http://www.w3.org/1999/xlink" x="0px" y="0px"
	 width="67px" height="67px" viewBox="0 0 67 67" enable-background="new 0 0 67 67" xml:space="preserve">
<g>
	<g>
		<path fill="#385DAA" d="M64.213,25.12h-5.561c-0.393-1.19-0.877-2.368-1.438-3.494l3.924-3.924l0,0
			c1.087-1.086,1.087-2.853,0-3.951l-7.889-7.903l0,0c-1.086-1.086-2.853-1.086-3.951,0l-3.926,3.925
			c-1.124-0.563-2.289-1.047-3.492-1.439V2.787C41.88,1.256,40.636,0,39.093,0H27.932c-1.543,0-2.799,1.256-2.799,2.787v5.561
			c-1.19,0.393-2.368,0.876-3.494,1.439l-3.925-3.925l0,0c-1.085-1.086-2.852-1.086-3.951,0l-7.889,7.902
			c-1.086,1.086-1.086,2.852,0,3.951l3.925,3.925c-0.563,1.125-1.046,2.29-1.439,3.494H2.799c-1.53-0.013-2.786,1.243-2.786,2.773
			v11.161c0,1.543,1.256,2.8,2.786,2.8H8.36c0.393,1.19,0.876,2.368,1.439,3.492l-3.925,3.926l0,0c-1.086,1.086-1.086,2.853,0,3.951
			l7.889,7.902l0,0c1.086,1.086,2.852,1.086,3.951,0l3.925-3.925c1.125,0.563,2.29,1.046,3.494,1.439v5.561
			c0,1.543,1.256,2.786,2.786,2.786H39.08c1.543,0,2.786-1.256,2.786-2.786v-5.561c1.19-0.394,2.368-0.877,3.493-1.439l3.926,3.925
			l0,0c1.085,1.086,2.852,1.086,3.95,0l7.89-7.902c1.086-1.086,1.086-2.853,0-3.951L57.2,45.359
			c0.563-1.124,1.046-2.289,1.438-3.492H64.2c1.543,0,2.786-1.257,2.786-2.787V27.92C67,26.376,65.756,25.12,64.213,25.12z
			 M57.618,39.08c-0.627,0-1.177,0.419-1.347,1.021c-0.484,1.688-1.152,3.323-2.002,4.866c-0.301,0.55-0.209,1.218,0.235,1.663
			l4.645,4.644l-7.89,7.89l-4.644-4.645c-0.445-0.444-1.113-0.536-1.663-0.235c-1.543,0.85-3.165,1.518-4.866,2.002
			c-0.602,0.17-1.007,0.72-1.007,1.347v6.582H27.919v-6.582c0-0.627-0.405-1.164-1.007-1.347c-1.687-0.484-3.323-1.152-4.867-2.002
			c-0.209-0.118-0.432-0.17-0.68-0.17c-0.367,0-0.733,0.144-0.995,0.405l-4.645,4.645l-7.89-7.89l4.645-4.644
			c0.445-0.445,0.536-1.113,0.235-1.663c-0.851-1.543-1.518-3.165-2.001-4.866c-0.17-0.602-0.72-1.007-1.348-1.007H2.799V27.933
			H9.38c0.628,0,1.165-0.405,1.348-1.007c0.484-1.687,1.151-3.323,2.002-4.867c0.301-0.55,0.209-1.217-0.235-1.662l-4.645-4.645
			l7.89-7.89l4.645,4.645c0.445,0.445,1.112,0.536,1.662,0.235c1.544-0.851,3.167-1.518,4.867-2.002
			c0.602-0.17,1.007-0.719,1.007-1.347V2.787H39.08v6.581c0,0.628,0.405,1.165,1.007,1.348c1.688,0.484,3.323,1.151,4.866,2.001
			c0.55,0.301,1.218,0.209,1.663-0.235l4.644-4.645l7.89,7.889l-4.645,4.645c-0.444,0.445-0.536,1.113-0.235,1.662
			c0.85,1.544,1.518,3.167,2.002,4.867c0.17,0.602,0.72,1.007,1.347,1.007H64.2v11.161h-6.582V39.08z"/>
	</g>
</g>
<g>
	<g>
		<path fill="#385DAA" d="M41.841,19.193c-0.733-3.192-3.232-5.691-6.425-6.424c-4.605-1.06-9.185,1.819-10.244,6.424
			c-0.026,0.104-0.039,0.222-0.039,0.34v2.748c0,6.28,3.676,11.212,8.373,11.212c4.697,0,8.374-4.919,8.374-11.212v-2.748
			C41.88,19.429,41.866,19.311,41.841,19.193z M39.093,22.281L39.093,22.281c0,4.644-2.499,8.412-5.587,8.412
			s-5.587-3.768-5.587-8.412V19.73l0,0c0.511-2.08,2.133-3.703,4.213-4.213c3.087-0.758,6.188,1.138,6.948,4.213L39.093,22.281
			L39.093,22.281z"/>
	</g>
</g>
<g>
	<g>
		<path fill="#385DAA" d="M40.479,33.493c-0.118,0.014-0.223,0.014-0.341,0c-1.452-0.091-2.551-1.347-2.446-2.787h-2.787
			c0,0.105,0,0.209,0,0.314c0.092,2.996,2.591,5.352,5.587,5.26c2.315,0,4.188,1.871,4.188,4.187v11.16h2.786v-11.16
			C47.453,36.621,44.339,33.493,40.479,33.493z"/>
	</g>
</g>
<g>
	<g>
		<path fill="#385DAA" d="M32.106,30.707h-2.787c0.013,0.118,0.013,0.223,0,0.34c-0.092,1.452-1.348,2.552-2.787,2.446
			c-3.846,0-6.973,3.128-6.973,6.974v11.16h2.787v-11.16c0-2.315,1.871-4.187,4.187-4.187c0.105,0,0.209,0,0.314,0
			C29.843,36.202,32.198,33.702,32.106,30.707z"/>
	</g>
</g>
<g>
	<g>
		<rect x="25.133" y="41.867" fill="#385DAA" width="2.786" height="9.773"/>
	</g>
</g>
<g>
	<g>
		<rect x="39.093" y="41.867" fill="#385DAA" width="2.787" height="9.773"/>
	</g>
</g>
<g>
	<g>
		<rect x="5.599" y="32.093" fill="#385DAA" width="2.787" height="2.787"/>
	</g>
</g>
</svg>
