<?xml version="1.0" encoding="utf-8"?>
<!-- Generator: Adobe Illustrator 16.0.3, SVG Export Plug-In . SVG Version: 6.00 Build 0)  -->
<!DOCTYPE svg PUBLIC "-//W3C//DTD SVG 1.1//EN" "http://www.w3.org/Graphics/SVG/1.1/DTD/svg11.dtd">
<svg version="1.1" id="Layer_1" xmlns="http://www.w3.org/2000/svg" xmlns:xlink="http://www.w3.org/1999/xlink" x="0px" y="0px"
	 width="22px" height="17px" viewBox="0 0 22 17" enable-background="new 0 0 22 17" xml:space="preserve">
<g>
	<g>
		<path fill="#3A5EAB" d="M19.314,0H2.69C1.207,0,0,1.225,0,2.731v11.537C0,15.775,1.207,17,2.69,17H19.31
			c1.484,0,2.69-1.225,2.69-2.731V2.736C22.005,1.229,20.798,0,19.314,0z M20.775,14.269c0,0.817-0.655,1.483-1.461,1.483H2.69
			c-0.806,0-1.461-0.666-1.461-1.483V2.736c0-0.818,0.656-1.484,1.461-1.484H19.31c0.806,0,1.462,0.666,1.462,1.484L20.775,14.269
			L20.775,14.269z"/>
		<path fill="#3A5EAB" d="M13.875,8.356l5.38-4.899c0.251-0.231,0.273-0.624,0.046-0.883c-0.228-0.254-0.614-0.277-0.869-0.046
			l-7.42,6.762L9.564,7.978C9.559,7.973,9.555,7.968,9.555,7.964c-0.032-0.032-0.063-0.06-0.1-0.088l-5.89-5.353
			c-0.255-0.231-0.642-0.208-0.87,0.051S2.49,3.226,2.745,3.457l5.444,4.941l-5.421,5.153c-0.246,0.236-0.259,0.629-0.027,0.883
			c0.123,0.13,0.287,0.199,0.451,0.199c0.15,0,0.3-0.056,0.419-0.167l5.503-5.228l1.493,1.354c0.118,0.106,0.264,0.157,0.409,0.157
			c0.146,0,0.297-0.056,0.41-0.162l1.534-1.396l5.472,5.278c0.118,0.115,0.272,0.171,0.423,0.171c0.164,0,0.323-0.064,0.446-0.194
			c0.231-0.249,0.224-0.646-0.022-0.883L13.875,8.356z"/>
	</g>
</g>
</svg>
