<?xml version="1.0" encoding="utf-8"?>
<!-- Generator: Adobe Illustrator 16.0.0, SVG Export Plug-In . SVG Version: 6.00 Build 0)  -->
<!DOCTYPE svg PUBLIC "-//W3C//DTD SVG 1.1//EN" "http://www.w3.org/Graphics/SVG/1.1/DTD/svg11.dtd">
<svg version="1.1" id="Layer_1" xmlns="http://www.w3.org/2000/svg" xmlns:xlink="http://www.w3.org/1999/xlink" x="0px" y="0px"
	 width="455px" height="247.55px" viewBox="0 0 455 247.55" enable-background="new 0 0 455 247.55" xml:space="preserve">
<g>
	<g>
		<g>
			<path fill="#C7C7C7" d="M63.646,182.061H4.859c-2.84,0-5.159,2.318-5.159,5.206v37.439v5.206c0,2.84,2.319,5.207,5.159,5.207
				h20.59c0.142,2.036-0.71,4.024-2.319,5.159l-2.083,1.468c-0.142,0.094-0.237,0.188-0.331,0.331
				c-1.467,0.143-2.603,1.373-2.603,2.84c0,1.609,1.277,2.888,2.887,2.888h26.506c1.609,0,2.887-1.278,2.887-2.888
				c0-1.467-1.136-2.697-2.603-2.84c-0.095-0.143-0.189-0.237-0.332-0.331l-2.083-1.468c-1.609-1.135-2.508-3.123-2.319-5.159
				h20.589c2.84,0,5.16-2.318,5.16-5.207v-5.206v-37.487C68.805,184.379,66.485,182.061,63.646,182.061z M2.019,187.219
				c0-1.608,1.278-2.887,2.888-2.887h58.787c1.609,0,2.887,1.278,2.887,2.887v35.121H2.019V187.219z M47.505,245.391H21
				c-0.332,0-0.568-0.284-0.568-0.567c0-0.285,0.284-0.568,0.568-0.568h0.852h24.85h0.852c0.332,0,0.568,0.283,0.568,0.568
				C48.121,245.106,47.837,245.391,47.505,245.391z M40.737,235.025c-0.142,2.697,0.994,5.301,3.124,6.909H24.597
				c2.13-1.608,3.313-4.212,3.124-6.909H40.737z M66.533,229.865c0,1.609-1.278,2.887-2.888,2.887H43.53H24.975H4.859
				c-1.609,0-2.887-1.277-2.887-2.887v-5.206h64.514v5.206H66.533z"/>
		</g>
		<g>
			<path fill="#C7C7C7" d="M5.474,193.562c0.284,0,0.568-0.095,0.805-0.331l4.591-4.592c0.474-0.473,0.474-1.183,0-1.608
				c-0.473-0.474-1.183-0.474-1.609,0l-4.591,4.591c-0.473,0.474-0.473,1.184,0,1.609C4.859,193.467,5.143,193.562,5.474,193.562z"
				/>
		</g>
		<g>
			<path fill="#C7C7C7" d="M5.474,199.336c0.284,0,0.568-0.095,0.805-0.331l2.319-2.318c0.473-0.474,0.473-1.184,0-1.61
				c-0.473-0.473-1.183-0.473-1.609,0l-2.319,2.32c-0.473,0.473-0.473,1.183,0,1.608C4.859,199.194,5.143,199.336,5.474,199.336z"/>
		</g>
		<g>
			<path fill="#C7C7C7" d="M9.261,192.757c-0.19,0.236-0.332,0.521-0.332,0.805c0,0.285,0.142,0.615,0.332,0.805
				c0.237,0.19,0.52,0.332,0.804,0.332s0.616-0.142,0.805-0.332c0.189-0.236,0.332-0.52,0.332-0.805
				c0-0.283-0.142-0.615-0.332-0.805C10.444,192.331,9.687,192.331,9.261,192.757z"/>
		</g>
		<g>
			<path fill="#C7C7C7" d="M11.533,192.095c0.237,0.236,0.521,0.332,0.805,0.332c0.284,0,0.567-0.096,0.804-0.332l3.456-3.456
				c0.473-0.473,0.473-1.183,0-1.608c-0.474-0.474-1.184-0.474-1.609,0l-3.456,3.455C11.107,190.911,11.107,191.621,11.533,192.095z
				"/>
		</g>
		<g>
			<path fill="#C7C7C7" d="M14.988,192.757L4.623,203.123c-0.474,0.473-0.474,1.183,0,1.609c0.236,0.236,0.521,0.331,0.805,0.331
				c0.284,0,0.568-0.095,0.804-0.331l10.366-10.366c0.473-0.473,0.473-1.183,0-1.609C16.171,192.283,15.461,192.283,14.988,192.757z
				"/>
		</g>
		<g>
			<path fill="#C7C7C7" d="M17.308,190.438c-0.189,0.236-0.332,0.521-0.332,0.805c0,0.283,0.142,0.615,0.332,0.804
				c0.236,0.189,0.521,0.332,0.805,0.332c0.331,0,0.615-0.143,0.804-0.332c0.19-0.236,0.332-0.521,0.332-0.804
				c0-0.284-0.142-0.616-0.332-0.805C18.538,190.012,17.733,190.012,17.308,190.438z"/>
		</g>
		<g>
			<path fill="#C7C7C7" d="M20.763,186.982l-1.136,1.137c-0.473,0.473-0.473,1.183,0,1.609c0.237,0.236,0.521,0.331,0.805,0.331
				c0.284,0,0.568-0.095,0.805-0.331l1.136-1.137c0.473-0.473,0.473-1.184,0-1.609C21.898,186.557,21.236,186.557,20.763,186.982z"
				/>
		</g>
	</g>
	<g>
		<path fill="#C7C7C7" d="M144.773,199.81c0.284,0,0.521-0.095,0.757-0.331l4.212-4.212c0.426-0.427,0.426-1.09,0-1.516
			c-0.426-0.426-1.089-0.426-1.515,0l-4.213,4.213c-0.426,0.426-0.426,1.089,0,1.515C144.205,199.668,144.489,199.81,144.773,199.81
			z"/>
	</g>
	<g>
		<path fill="#C7C7C7" d="M144.773,205.063c0.284,0,0.521-0.095,0.757-0.331l2.13-2.13c0.426-0.427,0.426-1.089,0-1.515
			c-0.426-0.427-1.088-0.427-1.515,0l-2.13,2.13c-0.426,0.426-0.426,1.088,0,1.515C144.205,204.969,144.489,205.063,144.773,205.063
			z"/>
	</g>
	<g>
		<path fill="#C7C7C7" d="M148.229,199.053c-0.189,0.188-0.284,0.474-0.284,0.757c0,0.284,0.095,0.568,0.284,0.758
			c0.189,0.188,0.474,0.284,0.757,0.284c0.284,0,0.568-0.096,0.758-0.284c0.189-0.189,0.284-0.474,0.284-0.758
			c0-0.283-0.095-0.568-0.284-0.757C149.317,198.626,148.654,198.626,148.229,199.053z"/>
	</g>
	<g>
		<path fill="#C7C7C7" d="M150.358,198.438c0.189,0.188,0.474,0.331,0.758,0.331c0.283,0,0.52-0.095,0.757-0.331l3.171-3.171
			c0.426-0.427,0.426-1.09,0-1.516c-0.426-0.426-1.088-0.426-1.515,0l-3.171,3.172C149.932,197.349,149.932,198.011,150.358,198.438
			z"/>
	</g>
	<g>
		<path fill="#C7C7C7" d="M153.53,199.053l-9.514,9.513c-0.426,0.427-0.426,1.09,0,1.515c0.189,0.19,0.474,0.332,0.758,0.332
			c0.284,0,0.521-0.095,0.757-0.332l9.514-9.513c0.426-0.427,0.426-1.089,0-1.515C154.618,198.626,153.908,198.626,153.53,199.053z"
			/>
	</g>
	<g>
		<path fill="#C7C7C7" d="M155.612,196.923c-0.189,0.188-0.284,0.474-0.284,0.757c0,0.284,0.095,0.568,0.284,0.758
			c0.189,0.188,0.474,0.283,0.757,0.283s0.568-0.095,0.757-0.283c0.19-0.189,0.284-0.474,0.284-0.758
			c0-0.283-0.094-0.568-0.284-0.757C156.748,196.544,156.038,196.544,155.612,196.923z"/>
	</g>
	<g>
		<path fill="#C7C7C7" d="M158.784,193.751l-1.042,1.042c-0.426,0.426-0.426,1.088,0,1.514c0.189,0.189,0.474,0.332,0.757,0.332
			c0.284,0,0.521-0.095,0.757-0.332l1.041-1.04c0.427-0.427,0.427-1.09,0-1.516C159.872,193.325,159.209,193.325,158.784,193.751z"
			/>
	</g>
	<g>
		<path fill="#C7C7C7" d="M172.273,183.954h-27.547c-2.319,0-4.165,1.893-4.165,4.165v2.129v3.172c-0.568,0-1.042,0.474-1.042,1.041
			v1.042c0,0.567,0.473,1.041,1.042,1.041v1.041c-0.568,0-1.042,0.474-1.042,1.041v1.042c0,0.568,0.473,1.041,1.042,1.041v1.042
			c-0.568,0-1.042,0.473-1.042,1.041v1.041c0,0.567,0.473,1.041,1.042,1.041v33.796v4.26c0,2.318,1.893,4.165,4.165,4.165h27.547
			c2.32,0,4.166-1.894,4.166-4.165v-4.26v-48.373v-2.131C176.438,185.799,174.593,183.954,172.273,183.954z M158.5,244.16
			c-1.183,0-2.13-0.947-2.13-2.13c0-1.184,0.947-2.13,2.13-2.13c1.184,0,2.13,0.946,2.13,2.13
			C160.582,243.213,159.636,244.16,158.5,244.16z M142.644,192.379h31.712v44.396h-31.712V192.379z M142.644,243.166v-4.26h13.063
			c-0.899,0.757-1.467,1.894-1.467,3.171s0.568,2.414,1.467,3.171h-11.028C143.59,245.201,142.644,244.302,142.644,243.166z
			 M174.356,243.166c0,1.136-0.947,2.082-2.083,2.082h-11.028c0.9-0.757,1.467-1.894,1.467-3.171s-0.567-2.414-1.467-3.171h13.111
			V243.166z M142.644,190.297v-2.131c0-1.136,0.946-2.082,2.082-2.082h27.547c1.136,0,2.083,0.946,2.083,2.082v2.131H142.644z"/>
	</g>
	<g>
		<path fill="#C7C7C7" d="M162.712,187.125h-5.301c-0.567,0-1.041,0.474-1.041,1.041s0.474,1.041,1.041,1.041h5.301
			c0.568,0,1.042-0.474,1.042-1.041S163.28,187.125,162.712,187.125z"/>
	</g>
	<g>
		<path fill="#C7C7C7" d="M154.287,187.125h-1.041c-0.568,0-1.042,0.474-1.042,1.041s0.474,1.041,1.042,1.041h1.041
			c0.568,0,1.042-0.474,1.042-1.041S154.855,187.125,154.287,187.125z"/>
	</g>
	<g>
		<path fill="#C7C7C7" d="M263.86,200.188c0.285,0,0.568-0.095,0.759-0.331l4.307-4.308c0.426-0.427,0.426-1.089,0-1.515
			s-1.089-0.426-1.514,0l-4.309,4.308c-0.425,0.426-0.425,1.089,0,1.515C263.294,200.094,263.577,200.188,263.86,200.188z"/>
	</g>
	<g>
		<path fill="#C7C7C7" d="M263.86,205.537c0.285,0,0.568-0.095,0.759-0.331l2.13-2.13c0.425-0.427,0.425-1.089,0-1.516
			c-0.427-0.426-1.089-0.426-1.516,0l-2.13,2.131c-0.425,0.426-0.425,1.088,0,1.515C263.294,205.442,263.577,205.537,263.86,205.537
			z"/>
	</g>
	<g>
		<path fill="#C7C7C7" d="M267.363,199.432c-0.189,0.189-0.331,0.473-0.331,0.757s0.095,0.567,0.331,0.758
			c0.19,0.188,0.474,0.331,0.757,0.331c0.285,0,0.568-0.095,0.759-0.331c0.189-0.19,0.331-0.474,0.331-0.758
			s-0.095-0.567-0.331-0.757C268.5,199.053,267.789,199.053,267.363,199.432z"/>
	</g>
	<g>
		<path fill="#C7C7C7" d="M269.541,198.816c0.189,0.188,0.474,0.331,0.758,0.331c0.283,0,0.567-0.095,0.757-0.331l3.219-3.22
			c0.426-0.426,0.426-1.088,0-1.514c-0.426-0.427-1.089-0.427-1.515,0l-3.219,3.218C269.115,197.728,269.115,198.39,269.541,198.816
			z"/>
	</g>
	<g>
		<path fill="#C7C7C7" d="M272.712,199.432l-9.656,9.655c-0.425,0.426-0.425,1.089,0,1.515c0.19,0.189,0.474,0.332,0.758,0.332
			c0.285,0,0.568-0.095,0.758-0.332l9.655-9.655c0.427-0.427,0.427-1.089,0-1.515C273.849,199.005,273.139,199.005,272.712,199.432z
			"/>
	</g>
	<g>
		<path fill="#C7C7C7" d="M274.89,197.301c-0.189,0.19-0.331,0.474-0.331,0.758s0.095,0.567,0.331,0.758
			c0.189,0.188,0.474,0.331,0.757,0.331c0.285,0,0.568-0.095,0.758-0.331c0.188-0.19,0.332-0.474,0.332-0.758
			s-0.096-0.567-0.332-0.758C275.979,196.875,275.269,196.875,274.89,197.301z"/>
	</g>
	<g>
		<path fill="#C7C7C7" d="M278.108,194.083l-1.089,1.088c-0.427,0.426-0.427,1.089,0,1.516c0.189,0.188,0.474,0.331,0.757,0.331
			c0.284,0,0.568-0.095,0.758-0.331l1.089-1.09c0.426-0.426,0.426-1.088,0-1.514C279.196,193.656,278.534,193.656,278.108,194.083z"
			/>
	</g>
	<g>
		<path fill="#C7C7C7" d="M284.214,186.272h-1.088c-0.568,0-1.089,0.474-1.089,1.089s0.474,1.089,1.089,1.089h1.088
			c0.568,0,1.089-0.474,1.089-1.089S284.782,186.272,284.214,186.272z"/>
	</g>
	<g>
		<path fill="#C7C7C7" d="M301.443,183.054h-38.765c-2.321,0-4.166,1.894-4.166,4.26v2.178v49.272v4.308
			c0,2.318,1.894,4.26,4.166,4.26h38.765c2.319,0,4.164-1.894,4.164-4.26v-4.308v-49.272v-2.178
			C305.655,184.947,303.763,183.054,301.443,183.054z M283.126,244.113c-1.184,0-2.13-0.947-2.13-2.13c0-1.184,0.946-2.13,2.13-2.13
			c1.183,0,2.13,0.946,2.13,2.13C285.256,243.166,284.309,244.113,283.126,244.113z M260.643,191.621h42.835v45.013h-42.835V191.621
			z M260.643,243.071v-4.308h19.69c-0.9,0.805-1.467,1.941-1.467,3.22c0,1.276,0.566,2.413,1.467,3.218h-17.654
			C261.542,245.201,260.643,244.255,260.643,243.071z M303.478,243.071c0,1.136-0.898,2.083-2.034,2.083h-15.525
			c0.899-0.805,1.468-1.941,1.468-3.22c0-1.277-0.568-2.413-1.468-3.218h17.56V243.071z M260.643,189.491v-2.178
			c0-1.135,0.899-2.082,2.036-2.082h38.765c1.136,0,2.034,0.947,2.034,2.082v2.178H260.643z"/>
	</g>
	<g>
		<path fill="#C7C7C7" d="M382.807,204.874c0.379,0,0.758-0.142,1.042-0.425l5.964-5.965c0.567-0.568,0.567-1.515,0-2.083
			c-0.568-0.568-1.515-0.568-2.083,0l-5.964,5.965c-0.568,0.567-0.568,1.515,0,2.083
			C382.05,204.732,382.429,204.874,382.807,204.874z"/>
		<path fill="#FFFFFF" d="M382.807,205.274c-0.502,0-0.973-0.192-1.323-0.542c-0.352-0.352-0.545-0.821-0.545-1.325
			c0-0.503,0.193-0.974,0.544-1.325l5.964-5.964c0.702-0.701,1.947-0.701,2.65,0c0.729,0.73,0.729,1.919,0,2.648l-5.965,5.966
			C383.782,205.082,383.312,205.274,382.807,205.274z M388.771,196.375c-0.29,0-0.559,0.11-0.758,0.311l-5.965,5.964
			c-0.2,0.199-0.31,0.468-0.31,0.758s0.109,0.559,0.31,0.758c0.399,0.399,1.122,0.397,1.516,0l5.965-5.964
			c0.411-0.411,0.411-1.105,0-1.518C389.33,196.485,389.062,196.375,388.771,196.375z"/>
	</g>
	<g>
		<path fill="#C7C7C7" d="M382.807,212.354c0.379,0,0.758-0.143,1.042-0.427l2.981-2.981c0.568-0.568,0.568-1.515,0-2.083
			s-1.515-0.568-2.082,0l-2.982,2.981c-0.568,0.568-0.568,1.515,0,2.083C382.05,212.211,382.429,212.354,382.807,212.354z"/>
		<path fill="#FFFFFF" d="M382.807,212.754c-0.502,0-0.973-0.193-1.323-0.543c-0.731-0.731-0.731-1.92-0.001-2.65l2.983-2.981
			c0.698-0.701,1.945-0.701,2.647,0c0.351,0.351,0.544,0.821,0.544,1.324c0,0.504-0.193,0.975-0.544,1.325l-2.981,2.982
			C383.781,212.561,383.311,212.754,382.807,212.754z M385.789,206.836c-0.29,0-0.56,0.109-0.757,0.309l-2.984,2.983
			c-0.41,0.41-0.41,1.104,0.001,1.516c0.398,0.4,1.119,0.398,1.516,0l2.982-2.981c0.2-0.199,0.31-0.469,0.31-0.759
			c0-0.289-0.109-0.559-0.31-0.758C386.348,206.945,386.078,206.836,385.789,206.836z"/>
	</g>
	<g>
		<path fill="#C7C7C7" d="M387.729,203.833c-0.284,0.284-0.426,0.663-0.426,1.041c0,0.379,0.142,0.758,0.426,1.042
			c0.284,0.283,0.662,0.426,1.042,0.426c0.378,0,0.757-0.143,1.041-0.426c0.284-0.284,0.426-0.663,0.426-1.042
			c0-0.378-0.142-0.757-0.426-1.041C389.292,203.313,388.25,203.313,387.729,203.833z"/>
		<path fill="#FFFFFF" d="M388.771,206.742c-0.504,0-0.974-0.192-1.325-0.543c-0.351-0.35-0.543-0.82-0.543-1.325
			c0-0.503,0.192-0.974,0.543-1.325c0.646-0.643,2.003-0.645,2.649,0c0.35,0.353,0.543,0.823,0.543,1.325
			c0,0.505-0.193,0.975-0.542,1.325C389.744,206.55,389.273,206.742,388.771,206.742z M388.771,203.843
			c-0.305,0-0.588,0.103-0.758,0.273c-0.2,0.199-0.31,0.468-0.31,0.758c0,0.291,0.109,0.56,0.309,0.758
			c0.397,0.399,1.116,0.4,1.518,0c0.198-0.198,0.308-0.467,0.308-0.758c0-0.29-0.109-0.559-0.309-0.759
			C389.358,203.945,389.074,203.843,388.771,203.843z"/>
	</g>
	<g>
		<path fill="#C7C7C7" d="M390.712,202.98c0.284,0.284,0.663,0.427,1.041,0.427c0.379,0,0.757-0.142,1.042-0.427l4.449-4.449
			c0.567-0.567,0.567-1.515,0-2.082c-0.568-0.568-1.515-0.568-2.083,0l-4.449,4.449C390.144,201.466,390.144,202.413,390.712,202.98
			z"/>
		<path fill="#FFFFFF" d="M391.753,203.808c-0.503,0-0.973-0.192-1.324-0.543c-0.351-0.352-0.544-0.821-0.544-1.325
			s0.193-0.974,0.543-1.325l4.451-4.448c0.7-0.7,1.946-0.7,2.648,0c0.35,0.351,0.542,0.82,0.542,1.324s-0.192,0.975-0.542,1.325
			l-4.449,4.449C392.727,203.615,392.257,203.808,391.753,203.808z M396.202,196.424c-0.289,0-0.559,0.109-0.758,0.31l-4.45,4.448
			c-0.411,0.41-0.411,1.105,0.001,1.516c0.398,0.401,1.117,0.399,1.516,0l4.449-4.449c0.412-0.411,0.412-1.104,0-1.515
			C396.762,196.533,396.492,196.424,396.202,196.424z"/>
	</g>
	<g>
		<path fill="#C7C7C7" d="M382.807,219.784c0.379,0,0.758-0.143,1.042-0.426l13.396-13.396c0.567-0.567,0.567-1.514,0-2.082
			c-0.568-0.568-1.515-0.568-2.083,0l-13.396,13.395c-0.568,0.567-0.568,1.515,0,2.083
			C382.05,219.642,382.429,219.784,382.807,219.784z"/>
		<path fill="#FFFFFF" d="M382.807,220.185c-0.502,0-0.973-0.192-1.323-0.543c-0.352-0.352-0.545-0.821-0.545-1.325
			c0-0.503,0.193-0.974,0.544-1.325l13.395-13.395c0.703-0.7,1.948-0.7,2.65,0c0.729,0.732,0.729,1.92,0,2.649l-13.396,13.396
			C383.781,219.992,383.311,220.185,382.807,220.185z M396.202,203.854c-0.289,0-0.559,0.109-0.758,0.31l-13.396,13.395
			c-0.2,0.199-0.31,0.468-0.31,0.758s0.109,0.559,0.31,0.758c0.398,0.4,1.119,0.399,1.516,0l13.396-13.396
			c0.411-0.409,0.411-1.104,0-1.516C396.762,203.964,396.492,203.854,396.202,203.854z"/>
	</g>
	<g>
		<path fill="#C7C7C7" d="M398.143,202.98c0.285,0.284,0.663,0.427,1.042,0.427c0.378,0,0.757-0.142,1.041-0.427
			c0.283-0.283,0.426-0.662,0.426-1.041s-0.143-0.757-0.426-1.041c-0.568-0.567-1.562-0.567-2.13,0
			c-0.284,0.284-0.427,0.662-0.427,1.041S397.859,202.697,398.143,202.98z"/>
		<path fill="#FFFFFF" d="M399.185,203.808c-0.503,0-0.974-0.192-1.324-0.543c-0.377-0.375-0.592-0.859-0.592-1.325
			c0-0.504,0.193-0.974,0.544-1.325c0.69-0.688,2.005-0.688,2.695,0c0.351,0.353,0.543,0.822,0.543,1.325
			c0,0.505-0.192,0.975-0.542,1.325C400.158,203.615,399.688,203.808,399.185,203.808z M399.161,200.873
			c-0.302,0-0.586,0.112-0.783,0.309c-0.199,0.199-0.309,0.468-0.309,0.758c0,0.252,0.134,0.536,0.356,0.758
			c0.398,0.401,1.118,0.399,1.517,0c0.199-0.198,0.309-0.467,0.309-0.758c0-0.29-0.109-0.559-0.309-0.759
			C399.746,200.985,399.461,200.873,399.161,200.873z"/>
	</g>
	<g>
		<path fill="#C7C7C7" d="M402.166,200.425c0.378,0,0.758-0.142,1.041-0.426l1.468-1.468c0.567-0.567,0.567-1.514,0-2.082
			s-1.515-0.568-2.083,0l-1.468,1.467c-0.567,0.568-0.567,1.516,0,2.083C401.409,200.283,401.787,200.425,402.166,200.425z"/>
		<path fill="#FFFFFF" d="M402.166,200.825c-0.503,0-0.973-0.193-1.324-0.542c-0.729-0.731-0.729-1.92-0.001-2.649l1.469-1.468
			c0.7-0.7,1.946-0.7,2.649,0c0.729,0.731,0.729,1.919,0,2.649l-1.468,1.468C403.141,200.632,402.67,200.825,402.166,200.825z
			 M403.634,196.424c-0.29,0-0.559,0.109-0.758,0.31l-1.469,1.467c-0.41,0.41-0.41,1.104,0.001,1.517
			c0.398,0.397,1.12,0.397,1.516-0.001l1.468-1.468c0.411-0.41,0.411-1.104,0-1.516
			C404.192,196.533,403.924,196.424,403.634,196.424z"/>
	</g>
	<g>
		<path fill="#C7C7C7" d="M451.912,237.628h-2.13v-47.521c0-3.36-2.698-6.058-6.059-6.058h-68.253c-3.361,0-6.058,2.697-6.058,6.058
			v47.521h-2.132c-1.276,0-2.366,1.042-2.366,2.367v4.212c0,1.277,1.042,2.367,2.366,2.367h86.099c1.277,0,0.852-1.041,0.852-2.367
			v-4.212C454.278,238.717,453.237,237.628,451.912,237.628z M372.395,190.106c0-1.704,1.372-3.076,3.076-3.076h68.301
			c1.704,0,3.076,1.372,3.076,3.076v47.521h-29.488l-0.331,0.994c-0.094,0.236-0.331,0.521-0.71,0.521h-11.928
			c-0.332,0-0.615-0.238-0.71-0.521l-0.332-0.994h-30.954V190.106L372.395,190.106z M451.297,243.592h-83.353v-2.981h1.469h32.043
			c0.71,0.899,1.799,1.467,2.982,1.467h11.928c1.183,0,2.271-0.567,2.981-1.467h30.529h1.467v2.981H451.297z"/>
		<path fill="#FFFFFF" d="M453.38,246.975h-86.099c-1.524,0-2.767-1.241-2.767-2.768v-4.212c0-1.525,1.242-2.767,2.767-2.767h1.731
			v-47.122c0-3.561,2.896-6.458,6.458-6.458h68.253c3.562,0,6.459,2.897,6.459,6.458v47.122h1.729c0.752,0,1.451,0.296,1.971,0.834
			c0.51,0.529,0.775,1.221,0.749,1.947v4.197c0,0.275,0.021,0.538,0.037,0.779c0.048,0.664,0.089,1.238-0.275,1.631
			C454.17,246.857,453.839,246.975,453.38,246.975z M367.281,238.028c-1.084,0-1.966,0.883-1.966,1.967v4.212
			c0,1.084,0.882,1.967,1.966,1.967h86.099c0.215,0,0.366-0.036,0.428-0.102c0.127-0.137,0.095-0.591,0.063-1.028
			c-0.019-0.26-0.039-0.542-0.039-0.837v-4.212c0.02-0.522-0.168-1.006-0.525-1.377c-0.366-0.38-0.86-0.59-1.394-0.59h-2.53v-47.922
			c0-3.119-2.538-5.657-5.658-5.657h-68.253c-3.119,0-5.658,2.538-5.658,5.657v47.922H367.281z M451.744,243.992h-84.2v-3.782
			h34.105l0.12,0.152c0.66,0.835,1.633,1.314,2.669,1.314h11.928c1.036,0,2.008-0.479,2.668-1.314l0.119-0.152h32.591V243.992z
			 M368.345,243.191h82.599v-2.181h-31.407c-0.808,0.935-1.952,1.467-3.17,1.467h-11.928c-1.219,0-2.363-0.532-3.171-1.467h-32.923
			V243.191z M416.318,239.544h-11.928c-0.485,0-0.934-0.327-1.09-0.795l-0.24-0.721h-31.066v-47.922c0-1.917,1.56-3.477,3.477-3.477
			h68.301c1.917,0,3.477,1.56,3.477,3.477v47.922h-29.6l-0.241,0.721C417.259,239.127,416.891,239.544,416.318,239.544z
			 M372.795,237.229h30.843l0.422,1.267c0.041,0.121,0.176,0.248,0.331,0.248h11.928c0.22,0,0.319-0.225,0.338-0.27l0.414-1.245
			h29.377v-47.122c0-1.475-1.201-2.676-2.676-2.676h-68.301c-1.476,0-2.676,1.201-2.676,2.676V237.229z"/>
	</g>
	<g>
		<path fill="#C7C7C7" d="M445.333,188.545h-71.472v47.615h71.472V188.545z M442.352,233.179h-65.461v-41.699h65.508v41.699H442.352
			z"/>
		<path fill="#FFFFFF" d="M445.733,236.561h-72.272v-48.416h72.272V236.561z M374.262,235.76h70.671v-46.814h-70.671V235.76z
			 M442.798,233.579H376.49v-42.5h66.308V233.579z M377.291,232.778h64.707V191.88h-64.707V232.778z"/>
	</g>
	<g enable-background="new    ">
		<path fill="#CDCDCE" d="M31.623,137.779c0-0.447,0.301-0.76,0.723-0.76c0.422,0,0.711,0.313,0.711,0.76
			c0,0.434-0.276,0.758-0.723,0.758C31.912,138.537,31.623,138.213,31.623,137.779z"/>
		<path fill="#CDCDCE" d="M34.118,137.779c0-0.447,0.301-0.76,0.723-0.76c0.421,0,0.711,0.313,0.711,0.76
			c0,0.434-0.277,0.758-0.723,0.758C34.406,138.537,34.118,138.213,34.118,137.779z"/>
		<path fill="#CDCDCE" d="M36.612,137.779c0-0.447,0.301-0.76,0.723-0.76s0.711,0.313,0.711,0.76c0,0.434-0.277,0.758-0.723,0.758
			C36.901,138.537,36.612,138.213,36.612,137.779z"/>
		<path fill="#CDCDCE" d="M39.107,137.779c0-0.447,0.301-0.76,0.723-0.76c0.422,0,0.711,0.313,0.711,0.76
			c0,0.434-0.277,0.758-0.723,0.758C39.396,138.537,39.107,138.213,39.107,137.779z"/>
		<path fill="#CDCDCE" d="M41.602,137.779c0-0.447,0.301-0.76,0.723-0.76c0.421,0,0.711,0.313,0.711,0.76
			c0,0.434-0.277,0.758-0.723,0.758C41.891,138.537,41.602,138.213,41.602,137.779z"/>
		<path fill="#CDCDCE" d="M44.097,137.779c0-0.447,0.301-0.76,0.723-0.76c0.421,0,0.711,0.313,0.711,0.76
			c0,0.434-0.277,0.758-0.723,0.758C44.386,138.537,44.097,138.213,44.097,137.779z"/>
		<path fill="#CDCDCE" d="M46.591,137.779c0-0.447,0.301-0.76,0.723-0.76s0.711,0.313,0.711,0.76c0,0.434-0.277,0.758-0.723,0.758
			C46.88,138.537,46.591,138.213,46.591,137.779z"/>
		<path fill="#CDCDCE" d="M49.086,137.779c0-0.447,0.301-0.76,0.723-0.76c0.422,0,0.711,0.313,0.711,0.76
			c0,0.434-0.277,0.758-0.723,0.758C49.375,138.537,49.086,138.213,49.086,137.779z"/>
		<path fill="#CDCDCE" d="M51.581,137.779c0-0.447,0.301-0.76,0.723-0.76c0.421,0,0.711,0.313,0.711,0.76
			c0,0.434-0.277,0.758-0.723,0.758C51.87,138.537,51.581,138.213,51.581,137.779z"/>
		<path fill="#CDCDCE" d="M54.076,137.779c0-0.447,0.301-0.76,0.723-0.76s0.711,0.313,0.711,0.76c0,0.434-0.277,0.758-0.723,0.758
			C54.365,138.537,54.076,138.213,54.076,137.779z"/>
		<path fill="#CDCDCE" d="M56.571,137.779c0-0.447,0.301-0.76,0.723-0.76c0.422,0,0.711,0.313,0.711,0.76
			c0,0.434-0.276,0.758-0.723,0.758C56.859,138.537,56.571,138.213,56.571,137.779z"/>
		<path fill="#CDCDCE" d="M59.065,137.779c0-0.447,0.301-0.76,0.723-0.76c0.421,0,0.711,0.313,0.711,0.76
			c0,0.434-0.277,0.758-0.723,0.758C59.354,138.537,59.065,138.213,59.065,137.779z"/>
		<path fill="#CDCDCE" d="M61.56,137.779c0-0.447,0.301-0.76,0.723-0.76s0.711,0.313,0.711,0.76c0,0.434-0.277,0.758-0.723,0.758
			C61.849,138.537,61.56,138.213,61.56,137.779z"/>
		<path fill="#CDCDCE" d="M64.055,137.779c0-0.447,0.301-0.76,0.723-0.76s0.711,0.313,0.711,0.76c0,0.434-0.277,0.758-0.723,0.758
			C64.344,138.537,64.055,138.213,64.055,137.779z"/>
		<path fill="#CDCDCE" d="M66.55,137.779c0-0.447,0.301-0.76,0.723-0.76c0.422,0,0.711,0.313,0.711,0.76
			c0,0.434-0.277,0.758-0.723,0.758C66.838,138.537,66.55,138.213,66.55,137.779z"/>
		<path fill="#CDCDCE" d="M69.044,137.779c0-0.447,0.301-0.76,0.723-0.76c0.421,0,0.711,0.313,0.711,0.76
			c0,0.434-0.277,0.758-0.723,0.758C69.333,138.537,69.044,138.213,69.044,137.779z"/>
		<path fill="#CDCDCE" d="M71.538,137.779c0-0.447,0.302-0.76,0.724-0.76s0.711,0.313,0.711,0.76c0,0.434-0.277,0.758-0.723,0.758
			C71.828,138.537,71.538,138.213,71.538,137.779z"/>
		<path fill="#CDCDCE" d="M74.033,137.779c0-0.447,0.302-0.76,0.724-0.76c0.422,0,0.711,0.313,0.711,0.76
			c0,0.434-0.277,0.758-0.723,0.758C74.323,138.537,74.033,138.213,74.033,137.779z"/>
		<path fill="#CDCDCE" d="M76.528,137.779c0-0.447,0.302-0.76,0.724-0.76c0.421,0,0.711,0.313,0.711,0.76
			c0,0.434-0.277,0.758-0.723,0.758C76.817,138.537,76.528,138.213,76.528,137.779z"/>
		<path fill="#CDCDCE" d="M79.022,137.779c0-0.447,0.302-0.76,0.724-0.76c0.421,0,0.711,0.313,0.711,0.76
			c0,0.434-0.277,0.758-0.723,0.758C79.313,138.537,79.022,138.213,79.022,137.779z"/>
		<path fill="#CDCDCE" d="M81.517,137.779c0-0.447,0.302-0.76,0.724-0.76s0.711,0.313,0.711,0.76c0,0.434-0.277,0.758-0.723,0.758
			C81.807,138.537,81.517,138.213,81.517,137.779z"/>
		<path fill="#CDCDCE" d="M84.012,137.779c0-0.447,0.302-0.76,0.723-0.76c0.422,0,0.711,0.313,0.711,0.76
			c0,0.434-0.277,0.758-0.723,0.758C84.302,138.537,84.012,138.213,84.012,137.779z"/>
		<path fill="#CDCDCE" d="M86.507,137.779c0-0.447,0.302-0.76,0.724-0.76c0.421,0,0.711,0.313,0.711,0.76
			c0,0.434-0.277,0.758-0.723,0.758C86.797,138.537,86.507,138.213,86.507,137.779z"/>
		<path fill="#CDCDCE" d="M89.001,137.779c0-0.447,0.302-0.76,0.724-0.76s0.711,0.313,0.711,0.76c0,0.434-0.277,0.758-0.723,0.758
			C89.292,138.537,89.001,138.213,89.001,137.779z"/>
		<path fill="#CDCDCE" d="M91.496,137.779c0-0.447,0.302-0.76,0.724-0.76c0.422,0,0.711,0.313,0.711,0.76
			c0,0.434-0.277,0.758-0.723,0.758C91.786,138.537,91.496,138.213,91.496,137.779z"/>
		<path fill="#CDCDCE" d="M93.991,137.779c0-0.447,0.302-0.76,0.724-0.76c0.421,0,0.711,0.313,0.711,0.76
			c0,0.434-0.277,0.758-0.723,0.758C94.281,138.537,93.991,138.213,93.991,137.779z"/>
		<path fill="#CDCDCE" d="M96.486,137.779c0-0.447,0.302-0.76,0.724-0.76c0.421,0,0.711,0.313,0.711,0.76
			c0,0.434-0.277,0.758-0.723,0.758C96.776,138.537,96.486,138.213,96.486,137.779z"/>
		<path fill="#CDCDCE" d="M98.98,137.779c0-0.447,0.302-0.76,0.724-0.76s0.711,0.313,0.711,0.76c0,0.434-0.277,0.758-0.723,0.758
			C99.271,138.537,98.98,138.213,98.98,137.779z"/>
		<path fill="#CDCDCE" d="M101.476,137.779c0-0.447,0.302-0.76,0.723-0.76c0.422,0,0.711,0.313,0.711,0.76
			c0,0.434-0.277,0.758-0.723,0.758C101.765,138.537,101.476,138.213,101.476,137.779z"/>
		<path fill="#CDCDCE" d="M103.97,137.779c0-0.447,0.302-0.76,0.724-0.76c0.421,0,0.711,0.313,0.711,0.76
			c0,0.434-0.277,0.758-0.723,0.758C104.26,138.537,103.97,138.213,103.97,137.779z"/>
		<path fill="#CDCDCE" d="M106.465,137.779c0-0.447,0.302-0.76,0.724-0.76s0.711,0.313,0.711,0.76c0,0.434-0.277,0.758-0.723,0.758
			C106.755,138.537,106.465,138.213,106.465,137.779z"/>
		<path fill="#CDCDCE" d="M108.96,137.779c0-0.447,0.302-0.76,0.723-0.76c0.422,0,0.711,0.313,0.711,0.76
			c0,0.434-0.277,0.758-0.723,0.758C109.25,138.537,108.96,138.213,108.96,137.779z"/>
		<path fill="#CDCDCE" d="M111.455,137.779c0-0.447,0.302-0.76,0.724-0.76c0.421,0,0.711,0.313,0.711,0.76
			c0,0.434-0.277,0.758-0.723,0.758C111.744,138.537,111.455,138.213,111.455,137.779z"/>
		<path fill="#CDCDCE" d="M113.949,137.779c0-0.447,0.302-0.76,0.724-0.76s0.711,0.313,0.711,0.76c0,0.434-0.277,0.758-0.723,0.758
			C114.239,138.537,113.949,138.213,113.949,137.779z"/>
		<path fill="#CDCDCE" d="M116.444,137.779c0-0.447,0.302-0.76,0.724-0.76c0.422,0,0.711,0.313,0.711,0.76
			c0,0.434-0.277,0.758-0.723,0.758C116.734,138.537,116.444,138.213,116.444,137.779z"/>
		<path fill="#CDCDCE" d="M118.939,137.779c0-0.447,0.302-0.76,0.723-0.76c0.422,0,0.711,0.313,0.711,0.76
			c0,0.434-0.277,0.758-0.723,0.758C119.229,138.537,118.939,138.213,118.939,137.779z"/>
		<path fill="#CDCDCE" d="M121.434,137.779c0-0.447,0.302-0.76,0.724-0.76c0.421,0,0.711,0.313,0.711,0.76
			c0,0.434-0.277,0.758-0.723,0.758C121.724,138.537,121.434,138.213,121.434,137.779z"/>
		<path fill="#CDCDCE" d="M123.928,137.779c0-0.447,0.302-0.76,0.724-0.76s0.711,0.313,0.711,0.76c0,0.434-0.277,0.758-0.723,0.758
			C124.218,138.537,123.928,138.213,123.928,137.779z"/>
		<path fill="#CDCDCE" d="M126.423,137.779c0-0.447,0.302-0.76,0.723-0.76c0.422,0,0.711,0.313,0.711,0.76
			c0,0.434-0.277,0.758-0.723,0.758C126.713,138.537,126.423,138.213,126.423,137.779z"/>
		<path fill="#CDCDCE" d="M128.918,137.779c0-0.447,0.302-0.76,0.724-0.76c0.421,0,0.711,0.313,0.711,0.76
			c0,0.434-0.277,0.758-0.723,0.758C129.208,138.537,128.918,138.213,128.918,137.779z"/>
		<path fill="#CDCDCE" d="M131.413,137.779c0-0.447,0.302-0.76,0.724-0.76s0.711,0.313,0.711,0.76c0,0.434-0.277,0.758-0.723,0.758
			C131.703,138.537,131.413,138.213,131.413,137.779z"/>
		<path fill="#CDCDCE" d="M133.907,137.779c0-0.447,0.302-0.76,0.724-0.76c0.422,0,0.711,0.313,0.711,0.76
			c0,0.434-0.277,0.758-0.723,0.758C134.197,138.537,133.907,138.213,133.907,137.779z"/>
		<path fill="#CDCDCE" d="M136.402,137.779c0-0.447,0.302-0.76,0.724-0.76c0.421,0,0.711,0.313,0.711,0.76
			c0,0.434-0.277,0.758-0.723,0.758C136.692,138.537,136.402,138.213,136.402,137.779z"/>
		<path fill="#CDCDCE" d="M138.897,137.779c0-0.447,0.302-0.76,0.724-0.76c0.421,0,0.711,0.313,0.711,0.76
			c0,0.434-0.277,0.758-0.723,0.758C139.187,138.537,138.897,138.213,138.897,137.779z"/>
		<path fill="#CDCDCE" d="M141.392,137.779c0-0.447,0.302-0.76,0.724-0.76s0.711,0.313,0.711,0.76c0,0.434-0.277,0.758-0.723,0.758
			C141.682,138.537,141.392,138.213,141.392,137.779z"/>
		<path fill="#CDCDCE" d="M143.887,137.779c0-0.447,0.302-0.76,0.723-0.76c0.422,0,0.711,0.313,0.711,0.76
			c0,0.434-0.277,0.758-0.723,0.758C144.176,138.537,143.887,138.213,143.887,137.779z"/>
		<path fill="#CDCDCE" d="M146.381,137.779c0-0.447,0.302-0.76,0.724-0.76c0.421,0,0.711,0.313,0.711,0.76
			c0,0.434-0.277,0.758-0.723,0.758C146.671,138.537,146.381,138.213,146.381,137.779z"/>
		<path fill="#CDCDCE" d="M148.876,137.779c0-0.447,0.302-0.76,0.724-0.76s0.711,0.313,0.711,0.76c0,0.434-0.277,0.758-0.723,0.758
			C149.166,138.537,148.876,138.213,148.876,137.779z"/>
		<path fill="#CDCDCE" d="M151.371,137.779c0-0.447,0.302-0.76,0.723-0.76c0.422,0,0.711,0.313,0.711,0.76
			c0,0.434-0.277,0.758-0.723,0.758C151.661,138.537,151.371,138.213,151.371,137.779z"/>
		<path fill="#CDCDCE" d="M153.866,137.779c0-0.447,0.301-0.76,0.723-0.76c0.421,0,0.711,0.313,0.711,0.76
			c0,0.434-0.277,0.758-0.723,0.758C154.154,138.537,153.866,138.213,153.866,137.779z"/>
		<path fill="#CDCDCE" d="M156.36,137.779c0-0.447,0.301-0.76,0.723-0.76c0.421,0,0.711,0.313,0.711,0.76
			c0,0.434-0.277,0.758-0.723,0.758C156.649,138.537,156.36,138.213,156.36,137.779z"/>
		<path fill="#CDCDCE" d="M158.855,137.779c0-0.447,0.301-0.76,0.723-0.76s0.711,0.313,0.711,0.76c0,0.434-0.277,0.758-0.723,0.758
			C159.144,138.537,158.855,138.213,158.855,137.779z"/>
		<path fill="#CDCDCE" d="M161.35,137.779c0-0.447,0.301-0.76,0.723-0.76c0.422,0,0.711,0.313,0.711,0.76
			c0,0.434-0.277,0.758-0.723,0.758C161.639,138.537,161.35,138.213,161.35,137.779z"/>
		<path fill="#CDCDCE" d="M163.845,137.779c0-0.447,0.301-0.76,0.723-0.76c0.421,0,0.711,0.313,0.711,0.76
			c0,0.434-0.277,0.758-0.723,0.758C164.133,138.537,163.845,138.213,163.845,137.779z"/>
		<path fill="#CDCDCE" d="M166.339,137.779c0-0.447,0.301-0.76,0.723-0.76s0.711,0.313,0.711,0.76c0,0.434-0.277,0.758-0.723,0.758
			C166.628,138.537,166.339,138.213,166.339,137.779z"/>
		<path fill="#CDCDCE" d="M168.834,137.779c0-0.447,0.301-0.76,0.723-0.76c0.422,0,0.711,0.313,0.711,0.76
			c0,0.434-0.277,0.758-0.723,0.758C169.123,138.537,168.834,138.213,168.834,137.779z"/>
		<path fill="#CDCDCE" d="M171.329,137.779c0-0.447,0.301-0.76,0.723-0.76c0.421,0,0.711,0.313,0.711,0.76
			c0,0.434-0.277,0.758-0.723,0.758C171.618,138.537,171.329,138.213,171.329,137.779z"/>
		<path fill="#CDCDCE" d="M173.824,137.779c0-0.447,0.301-0.76,0.723-0.76s0.711,0.313,0.711,0.76c0,0.434-0.277,0.758-0.723,0.758
			C174.113,138.537,173.824,138.213,173.824,137.779z"/>
		<path fill="#CDCDCE" d="M176.318,137.779c0-0.447,0.302-0.76,0.723-0.76c0.422,0,0.711,0.313,0.711,0.76
			c0,0.434-0.277,0.758-0.723,0.758C176.607,138.537,176.318,138.213,176.318,137.779z"/>
		<path fill="#CDCDCE" d="M178.813,137.779c0-0.447,0.301-0.76,0.723-0.76c0.422,0,0.711,0.313,0.711,0.76
			c0,0.434-0.277,0.758-0.723,0.758C179.102,138.537,178.813,138.213,178.813,137.779z"/>
		<path fill="#CDCDCE" d="M181.308,137.779c0-0.447,0.301-0.76,0.723-0.76c0.421,0,0.711,0.313,0.711,0.76
			c0,0.434-0.277,0.758-0.723,0.758C181.597,138.537,181.308,138.213,181.308,137.779z"/>
		<path fill="#CDCDCE" d="M183.803,137.779c0-0.447,0.301-0.76,0.723-0.76s0.711,0.313,0.711,0.76c0,0.434-0.277,0.758-0.723,0.758
			C184.092,138.537,183.803,138.213,183.803,137.779z"/>
		<path fill="#CDCDCE" d="M186.298,137.779c0-0.447,0.301-0.76,0.723-0.76c0.422,0,0.711,0.313,0.711,0.76
			c0,0.434-0.276,0.758-0.723,0.758C186.586,138.537,186.298,138.213,186.298,137.779z"/>
		<path fill="#CDCDCE" d="M188.792,137.779c0-0.447,0.301-0.76,0.723-0.76c0.421,0,0.711,0.313,0.711,0.76
			c0,0.434-0.277,0.758-0.723,0.758C189.081,138.537,188.792,138.213,188.792,137.779z"/>
		<path fill="#CDCDCE" d="M191.287,137.779c0-0.447,0.301-0.76,0.723-0.76c0.421,0,0.711,0.313,0.711,0.76
			c0,0.434-0.277,0.758-0.723,0.758C191.576,138.537,191.287,138.213,191.287,137.779z"/>
		<path fill="#CDCDCE" d="M193.782,137.779c0-0.447,0.301-0.76,0.723-0.76s0.711,0.313,0.711,0.76c0,0.434-0.277,0.758-0.723,0.758
			C194.071,138.537,193.782,138.213,193.782,137.779z"/>
		<path fill="#CDCDCE" d="M196.277,137.779c0-0.447,0.301-0.76,0.723-0.76c0.422,0,0.711,0.313,0.711,0.76
			c0,0.434-0.277,0.758-0.723,0.758C196.565,138.537,196.277,138.213,196.277,137.779z"/>
		<path fill="#CDCDCE" d="M198.771,137.779c0-0.447,0.301-0.76,0.723-0.76c0.421,0,0.711,0.313,0.711,0.76
			c0,0.434-0.277,0.758-0.723,0.758C199.061,138.537,198.771,138.213,198.771,137.779z"/>
		<path fill="#CDCDCE" d="M201.266,137.779c0-0.447,0.301-0.76,0.723-0.76s0.711,0.313,0.711,0.76c0,0.434-0.277,0.758-0.723,0.758
			C201.555,138.537,201.266,138.213,201.266,137.779z"/>
		<path fill="#CDCDCE" d="M203.761,137.779c0-0.447,0.301-0.76,0.723-0.76c0.422,0,0.711,0.313,0.711,0.76
			c0,0.434-0.277,0.758-0.723,0.758C204.05,138.537,203.761,138.213,203.761,137.779z"/>
		<path fill="#CDCDCE" d="M206.256,137.779c0-0.447,0.301-0.76,0.723-0.76c0.421,0,0.711,0.313,0.711,0.76
			c0,0.434-0.277,0.758-0.723,0.758C206.544,138.537,206.256,138.213,206.256,137.779z"/>
		<path fill="#CDCDCE" d="M208.75,137.779c0-0.447,0.301-0.76,0.723-0.76s0.711,0.313,0.711,0.76c0,0.434-0.277,0.758-0.723,0.758
			C209.04,138.537,208.75,138.213,208.75,137.779z"/>
		<path fill="#CDCDCE" d="M211.245,137.779c0-0.447,0.302-0.76,0.723-0.76c0.422,0,0.711,0.313,0.711,0.76
			c0,0.434-0.277,0.758-0.723,0.758C211.534,138.537,211.245,138.213,211.245,137.779z"/>
		<path fill="#CDCDCE" d="M213.74,137.779c0-0.447,0.301-0.76,0.723-0.76c0.422,0,0.711,0.313,0.711,0.76
			c0,0.434-0.277,0.758-0.723,0.758C214.029,138.537,213.74,138.213,213.74,137.779z"/>
		<path fill="#CDCDCE" d="M216.235,137.779c0-0.447,0.301-0.76,0.723-0.76c0.421,0,0.711,0.313,0.711,0.76
			c0,0.434-0.277,0.758-0.723,0.758C216.523,138.537,216.235,138.213,216.235,137.779z"/>
		<path fill="#CDCDCE" d="M218.729,137.779c0-0.447,0.301-0.76,0.723-0.76s0.711,0.313,0.711,0.76c0,0.434-0.277,0.758-0.723,0.758
			C219.019,138.537,218.729,138.213,218.729,137.779z"/>
		<path fill="#CDCDCE" d="M221.225,137.779c0-0.447,0.301-0.76,0.723-0.76c0.422,0,0.711,0.313,0.711,0.76
			c0,0.434-0.276,0.758-0.723,0.758C221.513,138.537,221.225,138.213,221.225,137.779z"/>
		<path fill="#CDCDCE" d="M223.719,137.779c0-0.447,0.301-0.76,0.722-0.76c0.423,0,0.711,0.313,0.711,0.76
			c0,0.434-0.276,0.758-0.722,0.758C224.008,138.537,223.719,138.213,223.719,137.779z"/>
		<path fill="#CDCDCE" d="M226.214,137.779c0-0.447,0.302-0.76,0.723-0.76c0.422,0,0.711,0.313,0.711,0.76
			c0,0.434-0.276,0.758-0.723,0.758C226.503,138.537,226.214,138.213,226.214,137.779z"/>
		<path fill="#CDCDCE" d="M228.709,137.779c0-0.447,0.301-0.76,0.723-0.76s0.711,0.313,0.711,0.76c0,0.434-0.276,0.758-0.723,0.758
			C228.998,138.537,228.709,138.213,228.709,137.779z"/>
		<path fill="#CDCDCE" d="M231.202,137.779c0-0.447,0.302-0.76,0.724-0.76s0.711,0.313,0.711,0.76c0,0.434-0.277,0.758-0.724,0.758
			C231.492,138.537,231.202,138.213,231.202,137.779z"/>
		<path fill="#CDCDCE" d="M233.697,137.779c0-0.447,0.302-0.76,0.724-0.76c0.421,0,0.711,0.313,0.711,0.76
			c0,0.434-0.277,0.758-0.724,0.758C233.987,138.537,233.697,138.213,233.697,137.779z"/>
		<path fill="#CDCDCE" d="M236.192,137.779c0-0.447,0.301-0.76,0.724-0.76c0.421,0,0.711,0.313,0.711,0.76
			c0,0.434-0.277,0.758-0.724,0.758C236.481,138.537,236.192,138.213,236.192,137.779z"/>
		<path fill="#CDCDCE" d="M238.687,137.779c0-0.447,0.302-0.76,0.724-0.76c0.421,0,0.711,0.313,0.711,0.76
			c0,0.434-0.277,0.758-0.724,0.758C238.977,138.537,238.687,138.213,238.687,137.779z"/>
		<path fill="#CDCDCE" d="M241.182,137.779c0-0.447,0.301-0.76,0.724-0.76c0.421,0,0.711,0.313,0.711,0.76
			c0,0.434-0.277,0.758-0.724,0.758C241.472,138.537,241.182,138.213,241.182,137.779z"/>
		<path fill="#CDCDCE" d="M243.677,137.779c0-0.447,0.301-0.76,0.723-0.76s0.712,0.313,0.712,0.76c0,0.434-0.277,0.758-0.724,0.758
			C243.966,138.537,243.677,138.213,243.677,137.779z"/>
		<path fill="#CDCDCE" d="M246.171,137.779c0-0.447,0.302-0.76,0.724-0.76c0.421,0,0.711,0.313,0.711,0.76
			c0,0.434-0.277,0.758-0.724,0.758C246.461,138.537,246.171,138.213,246.171,137.779z"/>
		<path fill="#CDCDCE" d="M248.666,137.779c0-0.447,0.301-0.76,0.724-0.76c0.421,0,0.711,0.313,0.711,0.76
			c0,0.434-0.277,0.758-0.724,0.758C248.956,138.537,248.666,138.213,248.666,137.779z"/>
		<path fill="#CDCDCE" d="M251.161,137.779c0-0.447,0.301-0.76,0.723-0.76s0.711,0.313,0.711,0.76c0,0.434-0.276,0.758-0.723,0.758
			C251.45,138.537,251.161,138.213,251.161,137.779z"/>
		<path fill="#CDCDCE" d="M253.655,137.779c0-0.447,0.302-0.76,0.724-0.76c0.421,0,0.711,0.313,0.711,0.76
			c0,0.434-0.277,0.758-0.724,0.758C253.945,138.537,253.655,138.213,253.655,137.779z"/>
		<path fill="#CDCDCE" d="M256.15,137.779c0-0.447,0.301-0.76,0.724-0.76c0.421,0,0.711,0.313,0.711,0.76
			c0,0.434-0.277,0.758-0.724,0.758C256.44,138.537,256.15,138.213,256.15,137.779z"/>
		<path fill="#CDCDCE" d="M258.645,137.779c0-0.447,0.302-0.76,0.724-0.76s0.711,0.313,0.711,0.76c0,0.434-0.277,0.758-0.723,0.758
			C258.935,138.537,258.645,138.213,258.645,137.779z"/>
		<path fill="#CDCDCE" d="M261.14,137.779c0-0.447,0.302-0.76,0.724-0.76c0.421,0,0.711,0.313,0.711,0.76
			c0,0.434-0.277,0.758-0.724,0.758C261.43,138.537,261.14,138.213,261.14,137.779z"/>
		<path fill="#CDCDCE" d="M263.635,137.779c0-0.447,0.301-0.76,0.724-0.76c0.421,0,0.711,0.313,0.711,0.76
			c0,0.434-0.277,0.758-0.724,0.758C263.925,138.537,263.635,138.213,263.635,137.779z"/>
		<path fill="#CDCDCE" d="M266.129,137.779c0-0.447,0.302-0.76,0.724-0.76s0.711,0.313,0.711,0.76c0,0.434-0.277,0.758-0.724,0.758
			C266.419,138.537,266.129,138.213,266.129,137.779z"/>
		<path fill="#CDCDCE" d="M268.624,137.779c0-0.447,0.302-0.76,0.724-0.76s0.711,0.313,0.711,0.76c0,0.434-0.277,0.758-0.724,0.758
			C268.914,138.537,268.624,138.213,268.624,137.779z"/>
		<path fill="#CDCDCE" d="M271.119,137.779c0-0.447,0.301-0.76,0.724-0.76c0.422,0,0.711,0.313,0.711,0.76
			c0,0.434-0.277,0.758-0.724,0.758C271.408,138.537,271.119,138.213,271.119,137.779z"/>
		<path fill="#CDCDCE" d="M273.613,137.779c0-0.447,0.302-0.76,0.724-0.76c0.423,0,0.711,0.313,0.711,0.76
			c0,0.434-0.277,0.758-0.724,0.758C273.903,138.537,273.613,138.213,273.613,137.779z"/>
		<path fill="#CDCDCE" d="M276.108,137.779c0-0.447,0.302-0.76,0.724-0.76s0.711,0.313,0.711,0.76c0,0.434-0.277,0.758-0.724,0.758
			C276.398,138.537,276.108,138.213,276.108,137.779z"/>
		<path fill="#CDCDCE" d="M278.604,137.779c0-0.447,0.301-0.76,0.723-0.76c0.423,0,0.712,0.313,0.712,0.76
			c0,0.434-0.277,0.758-0.724,0.758C278.893,138.537,278.604,138.213,278.604,137.779z"/>
		<path fill="#CDCDCE" d="M281.098,137.779c0-0.447,0.302-0.76,0.724-0.76c0.423,0,0.711,0.313,0.711,0.76
			c0,0.434-0.277,0.758-0.724,0.758C281.388,138.537,281.098,138.213,281.098,137.779z"/>
		<path fill="#CDCDCE" d="M283.593,137.779c0-0.447,0.301-0.76,0.724-0.76c0.422,0,0.711,0.313,0.711,0.76
			c0,0.434-0.277,0.758-0.724,0.758C283.883,138.537,283.593,138.213,283.593,137.779z"/>
		<path fill="#CDCDCE" d="M286.088,137.779c0-0.447,0.301-0.76,0.723-0.76c0.423,0,0.711,0.313,0.711,0.76
			c0,0.434-0.276,0.758-0.723,0.758C286.377,138.537,286.088,138.213,286.088,137.779z"/>
		<path fill="#CDCDCE" d="M288.582,137.779c0-0.447,0.302-0.76,0.724-0.76s0.711,0.313,0.711,0.76c0,0.434-0.277,0.758-0.724,0.758
			C288.872,138.537,288.582,138.213,288.582,137.779z"/>
		<path fill="#CDCDCE" d="M291.077,137.779c0-0.447,0.301-0.76,0.724-0.76c0.422,0,0.711,0.313,0.711,0.76
			c0,0.434-0.277,0.758-0.724,0.758C291.367,138.537,291.077,138.213,291.077,137.779z"/>
		<path fill="#CDCDCE" d="M293.572,137.779c0-0.447,0.301-0.76,0.723-0.76c0.423,0,0.711,0.313,0.711,0.76
			c0,0.434-0.277,0.758-0.723,0.758C293.861,138.537,293.572,138.213,293.572,137.779z"/>
		<path fill="#CDCDCE" d="M296.066,137.779c0-0.447,0.302-0.76,0.724-0.76s0.711,0.313,0.711,0.76c0,0.434-0.277,0.758-0.724,0.758
			C296.356,138.537,296.066,138.213,296.066,137.779z"/>
		<path fill="#CDCDCE" d="M298.562,137.779c0-0.447,0.301-0.76,0.724-0.76c0.422,0,0.711,0.313,0.711,0.76
			c0,0.434-0.277,0.758-0.724,0.758C298.852,138.537,298.562,138.213,298.562,137.779z"/>
		<path fill="#CDCDCE" d="M301.056,137.779c0-0.447,0.302-0.76,0.724-0.76c0.423,0,0.711,0.313,0.711,0.76
			c0,0.434-0.277,0.758-0.723,0.758C301.346,138.537,301.056,138.213,301.056,137.779z"/>
		<path fill="#CDCDCE" d="M303.551,137.779c0-0.447,0.302-0.76,0.724-0.76s0.711,0.313,0.711,0.76c0,0.434-0.277,0.758-0.724,0.758
			C303.841,138.537,303.551,138.213,303.551,137.779z"/>
		<path fill="#CDCDCE" d="M306.046,137.779c0-0.447,0.301-0.76,0.724-0.76c0.422,0,0.711,0.313,0.711,0.76
			c0,0.434-0.277,0.758-0.724,0.758C306.336,138.537,306.046,138.213,306.046,137.779z"/>
		<path fill="#CDCDCE" d="M308.54,137.779c0-0.447,0.302-0.76,0.724-0.76c0.423,0,0.711,0.313,0.711,0.76
			c0,0.434-0.277,0.758-0.724,0.758C308.83,138.537,308.54,138.213,308.54,137.779z"/>
		<path fill="#CDCDCE" d="M311.035,137.779c0-0.447,0.302-0.76,0.724-0.76s0.711,0.313,0.711,0.76c0,0.434-0.277,0.758-0.724,0.758
			C311.325,138.537,311.035,138.213,311.035,137.779z"/>
		<path fill="#CDCDCE" d="M313.53,137.779c0-0.447,0.301-0.76,0.724-0.76c0.422,0,0.711,0.313,0.711,0.76
			c0,0.434-0.277,0.758-0.724,0.758C313.819,138.537,313.53,138.213,313.53,137.779z"/>
		<path fill="#CDCDCE" d="M316.024,137.779c0-0.447,0.302-0.76,0.724-0.76c0.423,0,0.711,0.313,0.711,0.76
			c0,0.434-0.277,0.758-0.724,0.758C316.314,138.537,316.024,138.213,316.024,137.779z"/>
		<path fill="#CDCDCE" d="M318.52,137.779c0-0.447,0.301-0.76,0.724-0.76c0.422,0,0.711,0.313,0.711,0.76
			c0,0.434-0.277,0.758-0.724,0.758C318.81,138.537,318.52,138.213,318.52,137.779z"/>
		<path fill="#CDCDCE" d="M321.015,137.779c0-0.447,0.301-0.76,0.724-0.76c0.422,0,0.711,0.313,0.711,0.76
			c0,0.434-0.277,0.758-0.724,0.758C321.304,138.537,321.015,138.213,321.015,137.779z"/>
		<path fill="#CDCDCE" d="M323.509,137.779c0-0.447,0.302-0.76,0.724-0.76s0.711,0.313,0.711,0.76c0,0.434-0.277,0.758-0.724,0.758
			C323.799,138.537,323.509,138.213,323.509,137.779z"/>
		<path fill="#CDCDCE" d="M326.004,137.779c0-0.447,0.301-0.76,0.724-0.76c0.422,0,0.711,0.313,0.711,0.76
			c0,0.434-0.277,0.758-0.724,0.758C326.294,138.537,326.004,138.213,326.004,137.779z"/>
		<path fill="#CDCDCE" d="M328.499,137.779c0-0.447,0.301-0.76,0.723-0.76c0.423,0,0.712,0.313,0.712,0.76
			c0,0.434-0.277,0.758-0.724,0.758C328.788,138.537,328.499,138.213,328.499,137.779z"/>
		<path fill="#CDCDCE" d="M330.993,137.779c0-0.447,0.302-0.76,0.724-0.76s0.711,0.313,0.711,0.76c0,0.434-0.277,0.758-0.724,0.758
			C331.283,138.537,330.993,138.213,330.993,137.779z"/>
		<path fill="#CDCDCE" d="M333.488,137.779c0-0.447,0.301-0.76,0.724-0.76c0.422,0,0.711,0.313,0.711,0.76
			c0,0.434-0.277,0.758-0.724,0.758C333.778,138.537,333.488,138.213,333.488,137.779z"/>
		<path fill="#CDCDCE" d="M335.982,137.779c0-0.447,0.302-0.76,0.724-0.76c0.423,0,0.711,0.313,0.711,0.76
			c0,0.434-0.277,0.758-0.723,0.758C336.272,138.537,335.982,138.213,335.982,137.779z"/>
		<path fill="#CDCDCE" d="M338.478,137.779c0-0.447,0.302-0.76,0.724-0.76s0.711,0.313,0.711,0.76c0,0.434-0.277,0.758-0.724,0.758
			C338.768,138.537,338.478,138.213,338.478,137.779z"/>
		<path fill="#CDCDCE" d="M340.973,137.779c0-0.447,0.301-0.76,0.724-0.76c0.422,0,0.711,0.313,0.711,0.76
			c0,0.434-0.277,0.758-0.724,0.758C341.263,138.537,340.973,138.213,340.973,137.779z"/>
		<path fill="#CDCDCE" d="M343.467,137.779c0-0.447,0.302-0.76,0.724-0.76c0.423,0,0.711,0.313,0.711,0.76
			c0,0.434-0.277,0.758-0.724,0.758C343.757,138.537,343.467,138.213,343.467,137.779z"/>
		<path fill="#CDCDCE" d="M345.962,137.779c0-0.447,0.302-0.76,0.724-0.76s0.711,0.313,0.711,0.76c0,0.434-0.277,0.758-0.724,0.758
			C346.252,138.537,345.962,138.213,345.962,137.779z"/>
		<path fill="#CDCDCE" d="M348.457,137.779c0-0.447,0.301-0.76,0.724-0.76c0.422,0,0.711,0.313,0.711,0.76
			c0,0.434-0.277,0.758-0.724,0.758C348.746,138.537,348.457,138.213,348.457,137.779z"/>
		<path fill="#CDCDCE" d="M350.951,137.779c0-0.447,0.302-0.76,0.724-0.76c0.423,0,0.711,0.313,0.711,0.76
			c0,0.434-0.277,0.758-0.724,0.758C351.241,138.537,350.951,138.213,350.951,137.779z"/>
		<path fill="#CDCDCE" d="M353.446,137.779c0-0.447,0.302-0.76,0.724-0.76s0.711,0.313,0.711,0.76c0,0.434-0.277,0.758-0.724,0.758
			C353.736,138.537,353.446,138.213,353.446,137.779z"/>
		<path fill="#CDCDCE" d="M355.941,137.779c0-0.447,0.301-0.76,0.724-0.76c0.422,0,0.711,0.313,0.711,0.76
			c0,0.434-0.277,0.758-0.724,0.758C356.23,138.537,355.941,138.213,355.941,137.779z"/>
		<path fill="#CDCDCE" d="M358.436,137.779c0-0.447,0.302-0.76,0.724-0.76c0.423,0,0.711,0.313,0.711,0.76
			c0,0.434-0.277,0.758-0.724,0.758C358.726,138.537,358.436,138.213,358.436,137.779z"/>
		<path fill="#CDCDCE" d="M360.931,137.779c0-0.447,0.301-0.76,0.724-0.76c0.422,0,0.711,0.313,0.711,0.76
			c0,0.434-0.277,0.758-0.724,0.758C361.221,138.537,360.931,138.213,360.931,137.779z"/>
		<path fill="#CDCDCE" d="M363.426,137.779c0-0.447,0.301-0.76,0.723-0.76c0.423,0,0.712,0.313,0.712,0.76
			c0,0.434-0.277,0.758-0.724,0.758C363.715,138.537,363.426,138.213,363.426,137.779z"/>
		<path fill="#CDCDCE" d="M365.92,137.779c0-0.447,0.302-0.76,0.724-0.76s0.711,0.313,0.711,0.76c0,0.434-0.277,0.758-0.724,0.758
			C366.21,138.537,365.92,138.213,365.92,137.779z"/>
		<path fill="#CDCDCE" d="M368.415,137.779c0-0.447,0.301-0.76,0.724-0.76c0.422,0,0.711,0.313,0.711,0.76
			c0,0.434-0.277,0.758-0.724,0.758C368.705,138.537,368.415,138.213,368.415,137.779z"/>
		<path fill="#CDCDCE" d="M370.91,137.779c0-0.447,0.301-0.76,0.723-0.76c0.423,0,0.711,0.313,0.711,0.76
			c0,0.434-0.277,0.758-0.723,0.758C371.199,138.537,370.91,138.213,370.91,137.779z"/>
		<path fill="#CDCDCE" d="M373.404,137.779c0-0.447,0.302-0.76,0.724-0.76s0.711,0.313,0.711,0.76c0,0.434-0.277,0.758-0.724,0.758
			C373.694,138.537,373.404,138.213,373.404,137.779z"/>
		<path fill="#CDCDCE" d="M375.899,137.779c0-0.447,0.301-0.76,0.724-0.76c0.422,0,0.711,0.313,0.711,0.76
			c0,0.434-0.277,0.758-0.724,0.758C376.189,138.537,375.899,138.213,375.899,137.779z"/>
		<path fill="#CDCDCE" d="M378.394,137.779c0-0.447,0.302-0.76,0.724-0.76c0.423,0,0.711,0.313,0.711,0.76
			c0,0.434-0.277,0.758-0.723,0.758C378.684,138.537,378.394,138.213,378.394,137.779z"/>
		<path fill="#CDCDCE" d="M380.889,137.779c0-0.447,0.302-0.76,0.724-0.76s0.711,0.313,0.711,0.76c0,0.434-0.277,0.758-0.724,0.758
			C381.179,138.537,380.889,138.213,380.889,137.779z"/>
		<path fill="#CDCDCE" d="M383.384,137.779c0-0.447,0.301-0.76,0.724-0.76c0.422,0,0.711,0.313,0.711,0.76
			c0,0.434-0.277,0.758-0.724,0.758C383.674,138.537,383.384,138.213,383.384,137.779z"/>
		<path fill="#CDCDCE" d="M385.878,137.779c0-0.447,0.302-0.76,0.724-0.76c0.423,0,0.711,0.313,0.711,0.76
			c0,0.434-0.277,0.758-0.723,0.758C386.168,138.537,385.878,138.213,385.878,137.779z"/>
		<path fill="#CDCDCE" d="M388.373,137.779c0-0.447,0.302-0.76,0.724-0.76s0.711,0.313,0.711,0.76c0,0.434-0.277,0.758-0.724,0.758
			C388.663,138.537,388.373,138.213,388.373,137.779z"/>
		<path fill="#CDCDCE" d="M390.868,137.779c0-0.447,0.301-0.76,0.724-0.76c0.422,0,0.711,0.313,0.711,0.76
			c0,0.434-0.277,0.758-0.724,0.758C391.158,138.537,390.868,138.213,390.868,137.779z"/>
		<path fill="#CDCDCE" d="M393.362,137.779c0-0.447,0.302-0.76,0.724-0.76c0.423,0,0.711,0.313,0.711,0.76
			c0,0.434-0.277,0.758-0.724,0.758C393.652,138.537,393.362,138.213,393.362,137.779z"/>
		<path fill="#CDCDCE" d="M395.857,137.779c0-0.447,0.301-0.76,0.724-0.76c0.422,0,0.711,0.313,0.711,0.76
			c0,0.434-0.277,0.758-0.724,0.758C396.147,138.537,395.857,138.213,395.857,137.779z"/>
		<path fill="#CDCDCE" d="M398.353,137.779c0-0.447,0.301-0.76,0.724-0.76c0.422,0,0.711,0.313,0.711,0.76
			c0,0.434-0.277,0.758-0.724,0.758C398.642,138.537,398.353,138.213,398.353,137.779z"/>
		<path fill="#CDCDCE" d="M400.847,137.779c0-0.447,0.302-0.76,0.724-0.76s0.711,0.313,0.711,0.76c0,0.434-0.277,0.758-0.724,0.758
			C401.137,138.537,400.847,138.213,400.847,137.779z"/>
		<path fill="#CDCDCE" d="M403.342,137.779c0-0.447,0.301-0.76,0.724-0.76c0.422,0,0.711,0.313,0.711,0.76
			c0,0.434-0.277,0.758-0.724,0.758C403.632,138.537,403.342,138.213,403.342,137.779z"/>
		<path fill="#CDCDCE" d="M405.837,137.779c0-0.447,0.301-0.76,0.723-0.76c0.423,0,0.712,0.313,0.712,0.76
			c0,0.434-0.277,0.758-0.724,0.758C406.126,138.537,405.837,138.213,405.837,137.779z"/>
		<path fill="#CDCDCE" d="M408.331,137.779c0-0.447,0.302-0.76,0.724-0.76s0.711,0.313,0.711,0.76c0,0.434-0.277,0.758-0.724,0.758
			C408.621,138.537,408.331,138.213,408.331,137.779z"/>
	</g>
	<g enable-background="new    ">
		<path fill="#CDCDCE" d="M221.017,92.119c0.446,0,0.759,0.301,0.759,0.723c0,0.421-0.313,0.711-0.759,0.711
			c-0.434,0-0.759-0.277-0.759-0.723C220.258,92.408,220.583,92.119,221.017,92.119z"/>
		<path fill="#CDCDCE" d="M221.017,94.613c0.446,0,0.759,0.301,0.759,0.724c0,0.421-0.313,0.711-0.759,0.711
			c-0.434,0-0.759-0.277-0.759-0.724C220.258,94.903,220.583,94.613,221.017,94.613z"/>
		<path fill="#CDCDCE" d="M221.017,97.108c0.446,0,0.759,0.301,0.759,0.724c0,0.421-0.313,0.711-0.759,0.711
			c-0.434,0-0.759-0.277-0.759-0.724C220.258,97.398,220.583,97.108,221.017,97.108z"/>
		<path fill="#CDCDCE" d="M221.017,99.603c0.446,0,0.759,0.301,0.759,0.724c0,0.421-0.313,0.711-0.759,0.711
			c-0.434,0-0.759-0.277-0.759-0.723C220.258,99.893,220.583,99.603,221.017,99.603z"/>
		<path fill="#CDCDCE" d="M221.017,102.098c0.446,0,0.759,0.301,0.759,0.724c0,0.421-0.313,0.711-0.759,0.711
			c-0.434,0-0.759-0.277-0.759-0.724C220.258,102.387,220.583,102.098,221.017,102.098z"/>
		<path fill="#CDCDCE" d="M221.017,104.592c0.446,0,0.759,0.301,0.759,0.724c0,0.421-0.313,0.711-0.759,0.711
			c-0.434,0-0.759-0.277-0.759-0.724C220.258,104.882,220.583,104.592,221.017,104.592z"/>
		<path fill="#CDCDCE" d="M221.017,107.087c0.446,0,0.759,0.301,0.759,0.724c0,0.421-0.313,0.711-0.759,0.711
			c-0.434,0-0.759-0.277-0.759-0.724C220.258,107.377,220.583,107.087,221.017,107.087z"/>
		<path fill="#CDCDCE" d="M221.017,109.582c0.446,0,0.759,0.301,0.759,0.723c0,0.421-0.313,0.711-0.759,0.711
			c-0.434,0-0.759-0.277-0.759-0.724C220.258,109.872,220.583,109.582,221.017,109.582z"/>
		<path fill="#CDCDCE" d="M221.017,112.077c0.446,0,0.759,0.301,0.759,0.724c0,0.421-0.313,0.711-0.759,0.711
			c-0.434,0-0.759-0.277-0.759-0.724C220.258,112.366,220.583,112.077,221.017,112.077z"/>
		<path fill="#CDCDCE" d="M221.017,114.571c0.446,0,0.759,0.301,0.759,0.724c0,0.421-0.313,0.711-0.759,0.711
			c-0.434,0-0.759-0.277-0.759-0.724C220.258,114.861,220.583,114.571,221.017,114.571z"/>
		<path fill="#CDCDCE" d="M221.017,117.066c0.446,0,0.759,0.302,0.759,0.724c0,0.421-0.313,0.711-0.759,0.711
			c-0.434,0-0.759-0.277-0.759-0.723C220.258,117.356,220.583,117.066,221.017,117.066z"/>
		<path fill="#CDCDCE" d="M221.017,119.561c0.446,0,0.759,0.301,0.759,0.724c0,0.421-0.313,0.711-0.759,0.711
			c-0.434,0-0.759-0.277-0.759-0.724C220.258,119.851,220.583,119.561,221.017,119.561z"/>
		<path fill="#CDCDCE" d="M221.017,122.056c0.446,0,0.759,0.301,0.759,0.724c0,0.421-0.313,0.711-0.759,0.711
			c-0.434,0-0.759-0.277-0.759-0.724C220.258,122.346,220.583,122.056,221.017,122.056z"/>
		<path fill="#CDCDCE" d="M221.017,124.55c0.446,0,0.759,0.301,0.759,0.723s-0.313,0.711-0.759,0.711
			c-0.434,0-0.759-0.277-0.759-0.723C220.258,124.84,220.583,124.55,221.017,124.55z"/>
		<path fill="#CDCDCE" d="M221.017,127.045c0.446,0,0.759,0.302,0.759,0.724c0,0.421-0.313,0.712-0.759,0.712
			c-0.434,0-0.759-0.277-0.759-0.725C220.258,127.335,220.583,127.045,221.017,127.045z"/>
		<path fill="#CDCDCE" d="M221.017,129.54c0.446,0,0.759,0.302,0.759,0.724c0,0.421-0.313,0.711-0.759,0.711
			c-0.434,0-0.759-0.277-0.759-0.724C220.258,129.83,220.583,129.54,221.017,129.54z"/>
		<path fill="#CDCDCE" d="M221.017,132.035c0.446,0,0.759,0.301,0.759,0.723s-0.313,0.711-0.759,0.711
			c-0.434,0-0.759-0.277-0.759-0.723C220.258,132.324,220.583,132.035,221.017,132.035z"/>
		<path fill="#CDCDCE" d="M221.017,134.529c0.446,0,0.759,0.302,0.759,0.723c0,0.422-0.313,0.711-0.759,0.711
			c-0.434,0-0.759-0.276-0.759-0.723C220.258,134.818,220.583,134.529,221.017,134.529z"/>
	</g>
	<g enable-background="new    ">
		<path fill="#CDCDCE" d="M32.188,137.316c0.446,0,0.759,0.302,0.759,0.723c0,0.422-0.313,0.712-0.759,0.712
			c-0.434,0-0.759-0.277-0.759-0.724C31.43,137.605,31.755,137.316,32.188,137.316z"/>
		<path fill="#CDCDCE" d="M32.188,139.811c0.446,0,0.759,0.303,0.759,0.725c0,0.421-0.313,0.711-0.759,0.711
			c-0.434,0-0.759-0.277-0.759-0.724C31.43,140.101,31.755,139.811,32.188,139.811z"/>
		<path fill="#CDCDCE" d="M32.188,142.306c0.446,0,0.759,0.302,0.759,0.724s-0.313,0.711-0.759,0.711
			c-0.434,0-0.759-0.277-0.759-0.723C31.43,142.596,31.755,142.306,32.188,142.306z"/>
		<path fill="#CDCDCE" d="M32.188,144.801c0.446,0,0.759,0.302,0.759,0.723c0,0.422-0.313,0.711-0.759,0.711
			c-0.434,0-0.759-0.277-0.759-0.723C31.43,145.09,31.755,144.801,32.188,144.801z"/>
		<path fill="#CDCDCE" d="M32.188,147.295c0.446,0,0.759,0.303,0.759,0.725c0,0.421-0.313,0.711-0.759,0.711
			c-0.434,0-0.759-0.277-0.759-0.724C31.43,147.585,31.755,147.295,32.188,147.295z"/>
		<path fill="#CDCDCE" d="M32.188,149.79c0.446,0,0.759,0.302,0.759,0.724s-0.313,0.711-0.759,0.711
			c-0.434,0-0.759-0.277-0.759-0.723C31.43,150.08,31.755,149.79,32.188,149.79z"/>
		<path fill="#CDCDCE" d="M32.188,152.285c0.446,0,0.759,0.302,0.759,0.723c0,0.422-0.313,0.711-0.759,0.711
			c-0.434,0-0.759-0.277-0.759-0.723C31.43,152.574,31.755,152.285,32.188,152.285z"/>
		<path fill="#CDCDCE" d="M32.188,154.779c0.446,0,0.759,0.303,0.759,0.724c0,0.422-0.313,0.712-0.759,0.712
			c-0.434,0-0.759-0.277-0.759-0.724C31.43,155.069,31.755,154.779,32.188,154.779z"/>
		<path fill="#CDCDCE" d="M32.188,157.274c0.446,0,0.759,0.302,0.759,0.724s-0.313,0.711-0.759,0.711
			c-0.434,0-0.759-0.277-0.759-0.723C31.43,157.564,31.755,157.274,32.188,157.274z"/>
		<path fill="#CDCDCE" d="M32.188,159.77c0.446,0,0.759,0.301,0.759,0.723s-0.313,0.711-0.759,0.711
			c-0.434,0-0.759-0.277-0.759-0.723C31.43,160.059,31.755,159.77,32.188,159.77z"/>
		<path fill="#CDCDCE" d="M32.188,162.264c0.446,0,0.759,0.303,0.759,0.724c0,0.422-0.313,0.711-0.759,0.711
			c-0.434,0-0.759-0.277-0.759-0.723C31.43,162.554,31.755,162.264,32.188,162.264z"/>
		<path fill="#CDCDCE" d="M32.188,164.759c0.446,0,0.759,0.302,0.759,0.724s-0.313,0.711-0.759,0.711
			c-0.434,0-0.759-0.277-0.759-0.723C31.43,165.049,31.755,164.759,32.188,164.759z"/>
		<path fill="#CDCDCE" d="M32.188,167.254c0.446,0,0.759,0.301,0.759,0.723s-0.313,0.711-0.759,0.711
			c-0.434,0-0.759-0.277-0.759-0.723C31.43,167.543,31.755,167.254,32.188,167.254z"/>
		<path fill="#CDCDCE" d="M32.188,169.748c0.446,0,0.759,0.303,0.759,0.724c0,0.422-0.313,0.711-0.759,0.711
			c-0.434,0-0.759-0.277-0.759-0.723C31.43,170.038,31.755,169.748,32.188,169.748z"/>
		<path fill="#CDCDCE" d="M32.188,172.243c0.446,0,0.759,0.302,0.759,0.724s-0.313,0.711-0.759,0.711
			c-0.434,0-0.759-0.277-0.759-0.724C31.43,172.533,31.755,172.243,32.188,172.243z"/>
		<path fill="#CDCDCE" d="M32.188,174.738c0.446,0,0.759,0.301,0.759,0.723s-0.313,0.711-0.759,0.711
			c-0.434,0-0.759-0.277-0.759-0.723C31.43,175.027,31.755,174.738,32.188,174.738z"/>
		<path fill="#CDCDCE" d="M32.188,177.232c0.446,0,0.759,0.302,0.759,0.724c0,0.421-0.313,0.711-0.759,0.711
			c-0.434,0-0.759-0.277-0.759-0.724C31.43,177.522,31.755,177.232,32.188,177.232z"/>
		<path fill="#CDCDCE" d="M32.188,179.728c0.446,0,0.759,0.301,0.759,0.723s-0.313,0.711-0.759,0.711
			c-0.434,0-0.759-0.276-0.759-0.723C31.43,180.016,31.755,179.728,32.188,179.728z"/>
	</g>
	<g enable-background="new    ">
		<path fill="#CDCDCE" d="M158.744,139.325c0.446,0,0.759,0.302,0.759,0.724c0,0.421-0.313,0.711-0.759,0.711
			c-0.434,0-0.759-0.277-0.759-0.724C157.985,139.613,158.31,139.325,158.744,139.325z"/>
		<path fill="#CDCDCE" d="M158.744,141.82c0.446,0,0.759,0.301,0.759,0.723s-0.313,0.711-0.759,0.711
			c-0.434,0-0.759-0.277-0.759-0.723C157.985,142.109,158.31,141.82,158.744,141.82z"/>
		<path fill="#CDCDCE" d="M158.744,144.314c0.446,0,0.759,0.302,0.759,0.723c0,0.422-0.313,0.711-0.759,0.711
			c-0.434,0-0.759-0.275-0.759-0.723C157.985,144.604,158.31,144.314,158.744,144.314z"/>
		<path fill="#CDCDCE" d="M158.744,146.81c0.446,0,0.759,0.302,0.759,0.724c0,0.421-0.313,0.711-0.759,0.711
			c-0.434,0-0.759-0.277-0.759-0.724C157.985,147.098,158.31,146.81,158.744,146.81z"/>
		<path fill="#CDCDCE" d="M158.744,149.305c0.446,0,0.759,0.301,0.759,0.723s-0.313,0.711-0.759,0.711
			c-0.434,0-0.759-0.277-0.759-0.723C157.985,149.594,158.31,149.305,158.744,149.305z"/>
		<path fill="#CDCDCE" d="M158.744,151.799c0.446,0,0.759,0.301,0.759,0.723s-0.313,0.711-0.759,0.711
			c-0.434,0-0.759-0.276-0.759-0.723C157.985,152.088,158.31,151.799,158.744,151.799z"/>
		<path fill="#CDCDCE" d="M158.744,154.294c0.446,0,0.759,0.302,0.759,0.723c0,0.422-0.313,0.712-0.759,0.712
			c-0.434,0-0.759-0.277-0.759-0.724C157.985,154.582,158.31,154.294,158.744,154.294z"/>
		<path fill="#CDCDCE" d="M158.744,156.789c0.446,0,0.759,0.301,0.759,0.723s-0.313,0.711-0.759,0.711
			c-0.434,0-0.759-0.277-0.759-0.723C157.985,157.077,158.31,156.789,158.744,156.789z"/>
		<path fill="#CDCDCE" d="M158.744,159.283c0.446,0,0.759,0.301,0.759,0.723s-0.313,0.711-0.759,0.711
			c-0.434,0-0.759-0.276-0.759-0.723C157.985,159.572,158.31,159.283,158.744,159.283z"/>
		<path fill="#CDCDCE" d="M158.744,161.778c0.446,0,0.759,0.302,0.759,0.723c0,0.422-0.313,0.711-0.759,0.711
			c-0.434,0-0.759-0.276-0.759-0.723C157.985,162.066,158.31,161.778,158.744,161.778z"/>
		<path fill="#CDCDCE" d="M158.744,164.273c0.446,0,0.759,0.301,0.759,0.723s-0.313,0.711-0.759,0.711
			c-0.434,0-0.759-0.277-0.759-0.723C157.985,164.562,158.31,164.273,158.744,164.273z"/>
		<path fill="#CDCDCE" d="M158.744,166.768c0.446,0,0.759,0.301,0.759,0.723s-0.313,0.711-0.759,0.711
			c-0.434,0-0.759-0.276-0.759-0.723C157.985,167.057,158.31,166.768,158.744,166.768z"/>
		<path fill="#CDCDCE" d="M158.744,169.263c0.446,0,0.759,0.301,0.759,0.723s-0.313,0.711-0.759,0.711
			c-0.434,0-0.759-0.276-0.759-0.723C157.985,169.551,158.31,169.263,158.744,169.263z"/>
		<path fill="#CDCDCE" d="M158.744,171.757c0.446,0,0.759,0.302,0.759,0.724s-0.313,0.711-0.759,0.711
			c-0.434,0-0.759-0.277-0.759-0.724C157.985,172.046,158.31,171.757,158.744,171.757z"/>
		<path fill="#CDCDCE" d="M158.744,174.252c0.446,0,0.759,0.302,0.759,0.723c0,0.422-0.313,0.711-0.759,0.711
			c-0.434,0-0.759-0.276-0.759-0.723C157.985,174.541,158.31,174.252,158.744,174.252z"/>
		<path fill="#CDCDCE" d="M158.744,176.747c0.446,0,0.759,0.301,0.759,0.722c0,0.423-0.313,0.712-0.759,0.712
			c-0.434,0-0.759-0.276-0.759-0.723C157.985,177.035,158.31,176.747,158.744,176.747z"/>
		<path fill="#CDCDCE" d="M158.744,179.24c0.446,0,0.759,0.302,0.759,0.724c0,0.421-0.313,0.711-0.759,0.711
			c-0.434,0-0.759-0.277-0.759-0.724C157.985,179.53,158.31,179.24,158.744,179.24z"/>
		<path fill="#CDCDCE" d="M158.744,181.735c0.446,0,0.759,0.301,0.759,0.724c0,0.421-0.313,0.711-0.759,0.711
			c-0.434,0-0.759-0.277-0.759-0.724C157.985,182.025,158.31,181.735,158.744,181.735z"/>
	</g>
	<g enable-background="new    ">
		<path fill="#CDCDCE" d="M281.281,138.32c0.446,0,0.76,0.302,0.76,0.724c0,0.421-0.313,0.711-0.76,0.711
			c-0.434,0-0.759-0.277-0.759-0.724C280.522,138.609,280.848,138.32,281.281,138.32z"/>
		<path fill="#CDCDCE" d="M281.281,140.814c0.446,0,0.76,0.303,0.76,0.725c0,0.421-0.313,0.711-0.76,0.711
			c-0.434,0-0.759-0.277-0.759-0.724C280.522,141.105,280.848,140.814,281.281,140.814z"/>
		<path fill="#CDCDCE" d="M281.281,143.31c0.446,0,0.76,0.302,0.76,0.724s-0.313,0.711-0.76,0.711c-0.434,0-0.759-0.277-0.759-0.723
			C280.522,143.6,280.848,143.31,281.281,143.31z"/>
		<path fill="#CDCDCE" d="M281.281,145.805c0.446,0,0.76,0.302,0.76,0.723c0,0.422-0.313,0.712-0.76,0.712
			c-0.434,0-0.759-0.277-0.759-0.724C280.522,146.094,280.848,145.805,281.281,145.805z"/>
		<path fill="#CDCDCE" d="M281.281,148.299c0.446,0,0.76,0.303,0.76,0.725c0,0.421-0.313,0.711-0.76,0.711
			c-0.434,0-0.759-0.277-0.759-0.724C280.522,148.589,280.848,148.299,281.281,148.299z"/>
		<path fill="#CDCDCE" d="M281.281,150.794c0.446,0,0.76,0.302,0.76,0.724s-0.313,0.711-0.76,0.711
			c-0.434,0-0.759-0.277-0.759-0.723C280.522,151.084,280.848,150.794,281.281,150.794z"/>
		<path fill="#CDCDCE" d="M281.281,153.289c0.446,0,0.76,0.302,0.76,0.723c0,0.422-0.313,0.711-0.76,0.711
			c-0.434,0-0.759-0.277-0.759-0.723C280.522,153.578,280.848,153.289,281.281,153.289z"/>
		<path fill="#CDCDCE" d="M281.281,155.783c0.446,0,0.76,0.303,0.76,0.725c0,0.421-0.313,0.711-0.76,0.711
			c-0.434,0-0.759-0.277-0.759-0.724C280.522,156.073,280.848,155.783,281.281,155.783z"/>
		<path fill="#CDCDCE" d="M281.281,158.278c0.446,0,0.76,0.302,0.76,0.724s-0.313,0.711-0.76,0.711
			c-0.434,0-0.759-0.277-0.759-0.723C280.522,158.568,280.848,158.278,281.281,158.278z"/>
		<path fill="#CDCDCE" d="M281.281,160.773c0.446,0,0.76,0.301,0.76,0.723s-0.313,0.711-0.76,0.711
			c-0.434,0-0.759-0.277-0.759-0.723C280.522,161.063,280.848,160.773,281.281,160.773z"/>
		<path fill="#CDCDCE" d="M281.281,163.268c0.446,0,0.76,0.303,0.76,0.724c0,0.422-0.313,0.712-0.76,0.712
			c-0.434,0-0.759-0.277-0.759-0.724C280.522,163.558,280.848,163.268,281.281,163.268z"/>
		<path fill="#CDCDCE" d="M281.281,165.763c0.446,0,0.76,0.302,0.76,0.724s-0.313,0.711-0.76,0.711
			c-0.434,0-0.759-0.277-0.759-0.723C280.522,166.053,280.848,165.763,281.281,165.763z"/>
		<path fill="#CDCDCE" d="M281.281,168.258c0.446,0,0.76,0.301,0.76,0.723s-0.313,0.711-0.76,0.711
			c-0.434,0-0.759-0.277-0.759-0.723C280.522,168.547,280.848,168.258,281.281,168.258z"/>
		<path fill="#CDCDCE" d="M281.281,170.752c0.446,0,0.76,0.303,0.76,0.724c0,0.422-0.313,0.711-0.76,0.711
			c-0.434,0-0.759-0.277-0.759-0.723C280.522,171.042,280.848,170.752,281.281,170.752z"/>
		<path fill="#CDCDCE" d="M281.281,173.247c0.446,0,0.76,0.302,0.76,0.724s-0.313,0.711-0.76,0.711
			c-0.434,0-0.759-0.277-0.759-0.723C280.522,173.537,280.848,173.247,281.281,173.247z"/>
		<path fill="#CDCDCE" d="M281.281,175.742c0.446,0,0.76,0.301,0.76,0.723s-0.313,0.711-0.76,0.711
			c-0.434,0-0.759-0.276-0.759-0.723C280.522,176.031,280.848,175.742,281.281,175.742z"/>
		<path fill="#CDCDCE" d="M281.281,178.236c0.446,0,0.76,0.302,0.76,0.724c0,0.421-0.313,0.711-0.76,0.711
			c-0.434,0-0.759-0.277-0.759-0.724C280.522,178.526,280.848,178.236,281.281,178.236z"/>
		<path fill="#CDCDCE" d="M281.281,180.731c0.446,0,0.76,0.301,0.76,0.723s-0.313,0.711-0.76,0.711
			c-0.434,0-0.759-0.276-0.759-0.723C280.522,181.021,280.848,180.731,281.281,180.731z"/>
	</g>
	<g enable-background="new    ">
		<path fill="#CDCDCE" d="M408.84,139.325c0.446,0,0.76,0.302,0.76,0.724c0,0.421-0.313,0.711-0.76,0.711
			c-0.434,0-0.759-0.277-0.759-0.724C408.081,139.613,408.406,139.325,408.84,139.325z"/>
		<path fill="#CDCDCE" d="M408.84,141.82c0.446,0,0.76,0.301,0.76,0.723s-0.313,0.711-0.76,0.711c-0.434,0-0.759-0.277-0.759-0.723
			C408.081,142.109,408.406,141.82,408.84,141.82z"/>
		<path fill="#CDCDCE" d="M408.84,144.314c0.446,0,0.76,0.302,0.76,0.723c0,0.422-0.313,0.711-0.76,0.711
			c-0.434,0-0.759-0.275-0.759-0.723C408.081,144.604,408.406,144.314,408.84,144.314z"/>
		<path fill="#CDCDCE" d="M408.84,146.81c0.446,0,0.76,0.302,0.76,0.724c0,0.421-0.313,0.711-0.76,0.711
			c-0.434,0-0.759-0.277-0.759-0.724C408.081,147.098,408.406,146.81,408.84,146.81z"/>
		<path fill="#CDCDCE" d="M408.84,149.305c0.446,0,0.76,0.301,0.76,0.723s-0.313,0.711-0.76,0.711c-0.434,0-0.759-0.277-0.759-0.723
			C408.081,149.594,408.406,149.305,408.84,149.305z"/>
		<path fill="#CDCDCE" d="M408.84,151.799c0.446,0,0.76,0.301,0.76,0.723s-0.313,0.711-0.76,0.711c-0.434,0-0.759-0.276-0.759-0.723
			C408.081,152.088,408.406,151.799,408.84,151.799z"/>
		<path fill="#CDCDCE" d="M408.84,154.294c0.446,0,0.76,0.302,0.76,0.723c0,0.422-0.313,0.712-0.76,0.712
			c-0.434,0-0.759-0.277-0.759-0.724C408.081,154.582,408.406,154.294,408.84,154.294z"/>
		<path fill="#CDCDCE" d="M408.84,156.789c0.446,0,0.76,0.301,0.76,0.723s-0.313,0.711-0.76,0.711c-0.434,0-0.759-0.277-0.759-0.723
			C408.081,157.077,408.406,156.789,408.84,156.789z"/>
		<path fill="#CDCDCE" d="M408.84,159.283c0.446,0,0.76,0.301,0.76,0.723s-0.313,0.711-0.76,0.711c-0.434,0-0.759-0.276-0.759-0.723
			C408.081,159.572,408.406,159.283,408.84,159.283z"/>
		<path fill="#CDCDCE" d="M408.84,161.778c0.446,0,0.76,0.302,0.76,0.723c0,0.422-0.313,0.711-0.76,0.711
			c-0.434,0-0.759-0.276-0.759-0.723C408.081,162.066,408.406,161.778,408.84,161.778z"/>
		<path fill="#CDCDCE" d="M408.84,164.273c0.446,0,0.76,0.301,0.76,0.723s-0.313,0.711-0.76,0.711c-0.434,0-0.759-0.277-0.759-0.723
			C408.081,164.562,408.406,164.273,408.84,164.273z"/>
		<path fill="#CDCDCE" d="M408.84,166.768c0.446,0,0.76,0.301,0.76,0.723s-0.313,0.711-0.76,0.711c-0.434,0-0.759-0.276-0.759-0.723
			C408.081,167.057,408.406,166.768,408.84,166.768z"/>
		<path fill="#CDCDCE" d="M408.84,169.263c0.446,0,0.76,0.301,0.76,0.723s-0.313,0.711-0.76,0.711c-0.434,0-0.759-0.276-0.759-0.723
			C408.081,169.551,408.406,169.263,408.84,169.263z"/>
		<path fill="#CDCDCE" d="M408.84,171.757c0.446,0,0.76,0.302,0.76,0.724s-0.313,0.711-0.76,0.711c-0.434,0-0.759-0.277-0.759-0.724
			C408.081,172.046,408.406,171.757,408.84,171.757z"/>
		<path fill="#CDCDCE" d="M408.84,174.252c0.446,0,0.76,0.302,0.76,0.723c0,0.422-0.313,0.711-0.76,0.711
			c-0.434,0-0.759-0.276-0.759-0.723C408.081,174.541,408.406,174.252,408.84,174.252z"/>
		<path fill="#CDCDCE" d="M408.84,176.747c0.446,0,0.76,0.301,0.76,0.722c0,0.423-0.313,0.712-0.76,0.712
			c-0.434,0-0.759-0.276-0.759-0.723C408.081,177.035,408.406,176.747,408.84,176.747z"/>
		<path fill="#CDCDCE" d="M408.84,179.24c0.446,0,0.76,0.302,0.76,0.724c0,0.421-0.313,0.711-0.76,0.711
			c-0.434,0-0.759-0.277-0.759-0.724C408.081,179.53,408.406,179.24,408.84,179.24z"/>
		<path fill="#CDCDCE" d="M408.84,181.735c0.446,0,0.76,0.301,0.76,0.724c0,0.421-0.313,0.711-0.76,0.711
			c-0.434,0-0.759-0.277-0.759-0.724C408.081,182.025,408.406,181.735,408.84,181.735z"/>
	</g>
	<g>
		<path fill="#295ABF" d="M223.155,0.257c1.467,0.284,2.935,0.521,4.354,0.852c8.52,2.13,15.525,9.893,16.662,18.602
			c0.283,2.177,0.283,4.355,0.33,6.58c0.047,2.461,0,4.922,0,7.478c1.231,0,2.413,0,3.598,0c5.255,0,9.229,3.928,9.229,9.136
			c0,13.158,0,26.316,0,39.474c0,5.207-3.929,9.136-9.136,9.136c-17.891,0-35.782,0-53.721,0c-5.207,0-9.135-3.929-9.135-9.136
			c0-13.158,0-26.316,0-39.474c0-5.208,3.929-9.089,9.135-9.136c1.183,0,2.367,0,3.691,0c0-0.332,0-0.663,0-0.947
			c0-2.935,0-5.869,0-8.804c0.047-8.142,3.267-14.626,9.846-19.454c3.171-2.319,6.768-3.644,10.697-4.117
			c0.284-0.048,0.568-0.095,0.852-0.19C220.789,0.257,221.972,0.257,223.155,0.257z M199.3,87.916c0.284,0,0.426,0.048,0.567,0.048
			c16.141,0,32.234,0,48.374,0c3.361,0,5.586-2.319,5.586-5.728c0-13.016,0-26.08,0-39.096c0-3.551-2.272-5.775-5.822-5.775
			c-17.702,0-35.405,0-53.06,0c-3.786,0-5.964,2.177-5.964,5.963c0,10.934,0,21.868,0,32.754c0,2.177-0.047,4.401,0,6.579
			c0.095,3.502,3.455,6.058,6.721,5.112c0-5.348,0-10.745,0-16.093c0-0.379,0-0.71,0.048-1.089c0.142-0.852,0.852-1.42,1.656-1.467
			c0.804-0.047,1.514,0.473,1.704,1.278c0.094,0.378,0.142,0.805,0.142,1.23c0,5.064,0,10.129,0,15.241
			C199.3,87.206,199.3,87.491,199.3,87.916z M240.904,33.768c0-3.976,0.189-7.904-0.046-11.786
			c-0.569-8.993-7.386-16.329-16.236-17.797c-11.075-1.846-21.44,5.869-22.671,17.04c-0.379,3.502-0.142,7.1-0.189,10.649
			c0,0.615,0,1.23,0,1.893c10.271,0,20.4,0,30.623,0c0-1.751,0-3.503,0-5.207c-0.047-2.271,0.096-4.591-0.188-6.863
			c-0.616-5.018-5.16-8.994-10.224-9.23c-5.254-0.237-10.035,3.219-11.265,8.236c-0.142,0.616-0.237,1.278-0.426,1.893
			c-0.237,0.805-1.042,1.326-1.846,1.231c-0.852-0.095-1.515-0.758-1.562-1.657c0-0.426,0.047-0.899,0.095-1.325
			c1.467-8.047,9.277-13.301,17.277-11.644c6.768,1.372,11.596,7.289,11.69,14.341c0.047,3.125,0,6.248,0,9.373
			c0,0.332,0,0.615,0,0.946C237.734,33.768,239.296,33.768,240.904,33.768z"/>
	</g>
	<g>
		<path fill="#295ABF" d="M215.677,68.132c0-0.285,0-0.616,0-0.899c0.142-1.657-0.19-2.935-1.373-4.308
			c-2.177-2.603-2.414-5.774-0.994-8.898c1.326-2.981,3.74-4.781,7.053-5.159c3.929-0.474,7.43,1.515,9.182,5.159
			c1.515,3.218,0.758,7.336-1.846,9.939c-0.283,0.332-0.521,0.852-0.521,1.278c-0.047,1.846,0,3.691-0.047,5.538
			c-0.096,3.076-2.226,5.348-5.302,5.68c-2.698,0.285-5.396-1.704-5.964-4.543c-0.236-1.231-0.142-2.556-0.236-3.834
			C215.63,68.132,215.63,68.132,215.677,68.132z M219.227,67.232L219.227,67.232c0,1.088,0,2.177,0,3.313
			c0,1.42,0.947,2.414,2.177,2.414s2.13-0.994,2.13-2.46c0-1.846,0.094-3.693,0-5.538c-0.095-1.468,0.331-2.556,1.562-3.55
			c1.704-1.326,2.083-4.024,1.136-6.059c-0.993-2.083-3.266-3.36-5.443-3.03c-2.319,0.38-3.881,1.657-4.497,3.881
			c-0.662,2.273,0.142,4.213,1.988,5.681c0.663,0.567,1.041,1.183,0.994,2.035C219.227,65.054,219.227,66.144,219.227,67.232z"/>
	</g>
	<g>
		<path fill="#295ABF" d="M199.3,63.634c0,0.947-0.805,1.751-1.751,1.751c-0.994,0-1.798-0.852-1.751-1.845
			c0.047-0.946,0.805-1.705,1.799-1.705C198.495,61.884,199.3,62.688,199.3,63.634z"/>
	</g>
	<g>
		<path fill="#295ABF" d="M210.329,28.845c0,0.947-0.853,1.751-1.799,1.705c-0.947,0-1.751-0.852-1.751-1.798S207.63,27,208.577,27
			C209.523,27.047,210.376,27.947,210.329,28.845z"/>
	</g>
</g>
</svg>
