<?xml version="1.0" encoding="utf-8"?>
<!-- Generator: Adobe Illustrator 16.0.0, SVG Export Plug-In . SVG Version: 6.00 Build 0)  -->
<!DOCTYPE svg PUBLIC "-//W3C//DTD SVG 1.1//EN" "http://www.w3.org/Graphics/SVG/1.1/DTD/svg11.dtd">
<svg version="1.1" id="Layer_1" xmlns="http://www.w3.org/2000/svg" xmlns:xlink="http://www.w3.org/1999/xlink" x="0px" y="0px"
	 width="709px" height="527.88px" viewBox="0 0 709 527.88" enable-background="new 0 0 709 527.88" xml:space="preserve">
<g>
	<g>
		<g>
			<g>
				<g>
					<path fill="#0074DE" d="M411.229,81.591L411.229,81.591L411.229,81.591v-3.43c0-4.662-3.82-8.417-8.418-8.417l-92.186,0.195
						c-2.266,0-4.337,0.907-5.956,2.461c-1.619,1.619-2.459,3.69-2.459,5.957v3.43l0,0l0,0l0.128,58.07
						c0,4.662,3.82,8.414,8.416,8.414l0,0l92.184-0.192c4.662,0,8.418-3.82,8.418-8.417L411.229,81.591z M402.938,144.839
						l-57.743,0.13c-0.648,0.26-1.36,0.452-2.137,0.452c-5.308,0.065-12.106,1.944-17.284,0.585c-0.713-0.195-1.36-0.52-2.007-0.972
						h-12.948v1.619v-1.619c-2.848,0-5.242-2.331-5.242-5.244l-0.13-56.45l20.715-0.065c0.325-0.065,0.648-0.13,0.972-0.13
						c0.582-0.195,1.166-0.257,1.683-0.195c0.26,0,0.454,0,0.712,0c0.519,0,0.972,0.065,1.424,0.195
						c2.526-0.257,5.179-0.195,7.704,0.13l59.106-0.13c0.904,0,1.616-0.712,1.616-1.619c0-0.904-0.712-1.616-1.616-1.616l0,0
						l-92.381,0.257v-1.811c0-1.359,0.519-2.721,1.554-3.69c0.97-0.972,2.331-1.554,3.69-1.554l92.186-0.195
						c2.849,0,5.241,2.331,5.241,5.244v1.814h-3.492c-0.909,0-1.622,0.712-1.622,1.616c0,0.907,0.713,1.619,1.622,1.619l0,0h3.492
						l0.13,56.45C408.182,142.508,405.786,144.839,402.938,144.839z"/>
				</g>
			</g>
		</g>
		<g>
			<rect x="322.277" y="144.969" fill="#0074DE" width="26.671" height="3.173"/>
		</g>
		<g>
			<rect x="314.962" y="81.464" fill="#0074DE" width="26.348" height="1.876"/>
		</g>
	</g>
	<g>
		<g>
			<path fill="#0074DE" d="M364.099,104.056c-0.194,0.582-0.324,1.229-0.52,1.811c-2.396,6.021-4.789,12.042-7.186,17.999
				c-0.582,1.424-1.682,2.136-3.106,2.136c-1.36,0.065-2.526-0.582-3.173-1.814c-0.582-1.099-0.454-2.201,0-3.235
				c1.23-3.043,2.459-6.086,3.625-9.129c1.166-2.979,2.397-5.957,3.562-8.935c0.582-1.489,1.685-2.266,3.238-2.458
				c1.355-0.13,2.978,0.969,3.3,2.328C363.969,103.214,364.031,103.601,364.099,104.056z M360.601,102.307
				c-0.773,0-1.294,0.39-1.615,1.167c-1.555,3.947-3.174,7.897-4.728,11.779c-0.842,2.201-1.748,4.34-2.59,6.542
				c-0.388,1.034,0,2.006,0.971,2.328c0.907,0.325,1.749-0.127,2.136-1.034c2.005-4.984,4.015-10.036,6.021-15.021
				c0.517-1.229,1.037-2.458,1.424-3.755C362.545,103.344,361.765,102.307,360.601,102.307z"/>
		</g>
		<g>
			<path fill="#0074DE" d="M371.609,113.377c-1.362-0.842-2.656-1.619-3.95-2.331c-1.554-0.842-2.331-2.588-1.749-4.402
				c0.325-0.907,0.907-1.489,1.811-1.876c1.167-0.52,2.334-0.39,3.434,0.257c2.848,1.749,5.696,3.433,8.609,5.179
				c1.164,0.712,1.943,1.619,2.074,2.978c0.062,1.167-0.325,2.266-1.362,2.978c-1.229,0.842-2.526,1.554-3.752,2.331
				c-1.88,1.164-3.82,2.266-5.699,3.43c-1.167,0.712-2.719,0.647-3.886-0.192c-1.164-0.907-1.554-2.074-1.294-3.563
				c0.195-0.904,0.65-1.616,1.424-2.071c1.295-0.842,2.656-1.616,3.95-2.393C371.281,113.638,371.411,113.508,371.609,113.377z
				 M375.102,113.377c-0.192,0.13-0.258,0.195-0.388,0.26c-2.136,1.294-4.271,2.523-6.408,3.817
				c-0.842,0.52-1.099,1.489-0.646,2.331c0.452,0.777,1.485,1.102,2.328,0.582c3.046-1.811,6.086-3.625,9.129-5.501
				c1.167-0.712,1.167-2.136,0.065-2.913c-0.391-0.26-0.843-0.517-1.232-0.777c-2.588-1.554-5.176-3.108-7.768-4.663
				c-0.906-0.517-2.006-0.322-2.461,0.455c-0.514,0.842-0.191,1.811,0.712,2.331c0.78,0.452,1.555,0.904,2.335,1.359
				C372.191,111.628,373.615,112.536,375.102,113.377z"/>
		</g>
		<g>
			<path fill="#0074DE" d="M341.894,113.442c0.712,0.387,1.294,0.777,1.941,1.164c0.907,0.52,1.813,1.037,2.655,1.684
				c1.035,0.712,1.424,1.814,1.359,2.978c-0.128,1.489-0.971,2.588-2.459,3.043c-1.036,0.322-2.006,0.13-2.913-0.455
				c-2.913-1.746-5.826-3.495-8.739-5.241c-1.359-0.777-2.073-1.944-1.878-3.563c0.13-1.229,0.777-2.071,1.813-2.718
				c2.978-1.811,5.956-3.625,8.934-5.374c1.748-0.969,3.949-0.517,4.919,1.297c0.777,1.424,0.389,3.365-0.905,4.337
				c-1.23,0.842-2.525,1.554-3.82,2.331C342.476,113.053,342.217,113.183,341.894,113.442z M338.397,113.442
				c0.388-0.26,0.712-0.452,1.035-0.647c1.943-1.167,3.885-2.266,5.763-3.433c0.712-0.387,0.971-1.034,0.841-1.811
				c-0.128-0.582-0.647-1.164-1.294-1.229c-0.454,0-0.972,0.065-1.424,0.322c-1.295,0.712-2.524,1.489-3.755,2.266
				c-1.683,1.037-3.367,2.006-5.049,3.043c-1.295,0.777-1.36,2.266-0.13,3.043c3.043,1.811,6.084,3.69,9.127,5.436
				c0.324,0.195,0.777,0.26,1.101,0.195c0.712-0.13,1.166-0.517,1.359-1.229c0.195-0.777-0.129-1.424-0.841-1.814
				c-1.166-0.712-2.396-1.424-3.562-2.136C340.598,114.737,339.498,114.09,338.397,113.442z"/>
		</g>
	</g>
	<g>
		<rect x="198.825" y="281.109" fill="#D3E8FF" width="328.735" height="120.281"/>
	</g>
	<g>
		<rect x="103.984" y="388.574" fill="#D3E8FF" width="43.633" height="13.983"/>
	</g>
	<g id="_x31_">
		<g>
			<path fill="#D3E8FF" d="M52.26,400.552c3.69-11.135,12.817-13.856,18.515-13.271c5.696,0.582,10.552,6.604,12.106,9.646
				c4.984-2.461,4.142,0.969,7.962,4.529c6.668-0.322,23.823,0.194,23.823,0.194l5.956-2.718l129.279-6.086l16.638,1.684
				c0,0-2.59-13.983,23.758-17.221c11.524-22.593,19.228-20.132,31.657-19.939c12.364,0.194,26.542,7.314,30.879,24.666
				c0-16.831-0.777-76.649-0.777-76.649h75.158l92.252,0.13l0.322,43.699l44.473-0.065v39.229h-45.12l0.585,14.373l44.474,0.257
				v17.417l11.652-0.455c0,0,1.294-9.191,11.392-8.223c7.12-10.811,20.717-12.169,28.939-4.207
				c6.408,0.712,10.036,5.179,11.522,12.43c7.899-0.257,33.21,0.26,45.058,0.517C629.52,289.332,502.506,194.3,352.574,194.3
				c-142.227,0-263.867,85.581-312.937,206.252H52.26z"/>
		</g>
	</g>
	<g>
		<g>
			<path fill="#0074DE" d="M356.329,171.252c-29.196,0-58.457,0.065-87.654-0.065c-5.502-0.065-11.264-0.452-16.573-1.876
				c-13.658-3.755-23.888-12.172-30.296-24.858c-10.293-20.395-5.373-44.733,12.171-59.429c9.258-7.771,19.938-11.717,32.174-11.2
				c5.049,0.26,6.668-0.842,8.546-5.439c5.438-13.463,14.954-22.979,28.483-28.159c3.949-1.489,8.288-2.201,12.495-2.591
				c4.079-0.387,8.286,0.065,12.429,0.39c3.302,0.257,5.502-0.907,7.187-3.82c7.962-13.531,19.291-23.24,33.923-29.066
				c8.935-3.628,18.32-4.467,27.837-4.015c19.875,0.972,35.799,9.646,48.355,24.859c6.346,7.64,10.556,16.379,12.819,25.96
				c1.427,5.891,2.009,11.913,1.619,17.996c-0.192,3.303,1.033,5.179,4.271,6.733c4.21,2.071,8.612,3.95,12.364,6.668
				c11.652,8.479,18.516,19.875,19.745,34.44c1.619,19.484-5.956,34.635-21.942,45.575c-7.188,4.919-15.343,7.637-24.147,7.637
				c-31.27,0.065-62.539,0-93.806,0C356.329,171.057,356.329,171.187,356.329,171.252z M356.523,164.649c29.843,0,59.688,0,89.531,0
				c6.019,0,11.782-0.907,17.349-3.235c15.862-6.733,24.667-18.906,26.413-35.867c1.164-11.067-2.458-21.104-9.517-29.713
				c-5.436-6.603-12.299-11.005-20.456-13.596c-6.929-2.201-6.86-2.263-6.733-9.386c0.064-4.467,0.455-8.996-0.257-13.398
				c-2.461-15.732-9.712-28.874-22.336-38.845c-10.229-8.154-21.945-12.364-34.96-13.142c-8.154-0.452-16.116,1.037-23.757,3.95
				c-8.481,3.238-15.732,8.222-22.075,14.695c-4.919,5.049-8.544,11.07-11.976,17.218c-1.684,3.108-1.748,2.917-5.31,2.201
				c-4.207-0.839-8.48-1.941-12.688-1.811c-10.682,0.325-20.198,4.012-28.16,11.331c-6.733,6.213-10.488,14.11-13.142,22.723
				c-1.101,3.625-1.23,3.56-5.05,3.105c-3.172-0.387-6.473-1.229-9.517-0.777c-5.179,0.777-10.552,1.749-15.342,3.755
				c-10.875,4.597-18.451,12.689-22.658,23.89c-4.791,12.816-3.56,25.115,3.56,36.576c8.416,13.528,21.04,20.197,36.901,20.262
				C296.447,164.714,326.486,164.649,356.523,164.649z"/>
			<path fill="#0074DE" d="M312.509,172.854c-14.62,0-29.236-0.017-43.841-0.082c-4.397-0.053-10.93-0.308-16.976-1.93
				c-14.129-3.883-24.657-12.522-31.301-25.674c-10.617-21.035-5.448-46.267,12.567-61.359c9.764-8.192,20.918-12.087,33.259-11.568
				c4.302,0.204,5.314-0.3,7.012-4.455c5.639-13.963,15.526-23.735,29.384-29.039c3.58-1.352,7.682-2.204,12.914-2.69
				c3.667-0.345,7.473-0.039,11.11,0.26l1.59,0.128c2.654,0.21,4.301-0.627,5.69-3.034c8.123-13.802,19.798-23.808,34.71-29.744
				c7.021-2.851,14.828-4.24,23.862-4.24c1.541,0,3.086,0.041,4.634,0.113c19.717,0.964,36.368,9.521,49.504,25.433
				c6.355,7.651,10.776,16.604,13.138,26.606c1.492,6.151,2.05,12.366,1.66,18.461c-0.152,2.604,0.699,3.918,3.377,5.203
				l2.514,1.213c3.424,1.641,6.969,3.335,10.092,5.6c12.297,8.947,19.156,20.921,20.395,35.59
				c1.647,19.797-5.968,35.616-22.626,47.016c-7.675,5.252-16.098,7.915-25.042,7.915c-10.42,0.021-20.846,0.029-31.27,0.029
				l-60.954-0.029l-1.582,0.26L312.509,172.854z M264.031,75.364c-10.669,0-20.439,3.659-29.036,10.874
				c-16.882,14.143-21.724,37.788-11.774,57.501c6.224,12.319,16.082,20.41,29.301,24.044c5.691,1.526,11.956,1.77,16.172,1.819
				c14.589,0.065,29.201,0.082,43.815,0.082l42.235-0.017l1.585-0.26l62.536,0.029c10.42,0,20.844-0.008,31.267-0.029
				c8.294,0,16.116-2.477,23.255-7.36c15.649-10.709,22.801-25.56,21.259-44.136c-1.158-13.709-7.581-24.91-19.098-33.29
				c-2.892-2.094-6.303-3.726-9.6-5.305l-2.532-1.223c-3.839-1.842-5.384-4.311-5.154-8.247c0.371-5.786-0.161-11.68-1.579-17.531
				c-2.251-9.528-6.454-18.045-12.497-25.321c-12.544-15.198-28.429-23.37-47.213-24.288c-1.498-0.071-2.994-0.11-4.482-0.11
				c-8.616,0-16.036,1.311-22.68,4.011c-14.253,5.674-25.403,15.228-33.153,28.4c-1.972,3.41-4.768,4.901-8.676,4.597l-1.602-0.13
				c-3.508-0.288-7.117-0.587-10.555-0.263c-4.945,0.46-8.784,1.252-12.085,2.497c-12.994,4.975-22.274,14.151-27.574,27.269
				c-1.896,4.644-3.797,6.736-10.097,6.43C265.394,75.377,264.711,75.364,264.031,75.364z M311.458,166.25
				c-15.028,0-30.066-0.016-45.119-0.081c-16.745-0.068-29.61-7.137-38.24-21.009c-7.413-11.931-8.657-24.705-3.7-37.969
				c4.401-11.714,12.315-20.056,23.524-24.794c4.919-2.06,10.464-3.074,15.725-3.863c2.464-0.359,5.063,0.033,7.529,0.419
				c0.81,0.127,1.616,0.255,2.415,0.353c1.594,0.189,2.562,0.18,2.571,0.173c0.172-0.19,0.546-1.427,0.771-2.166
				c3.199-10.386,7.515-17.828,13.584-23.428c8.109-7.455,17.929-11.406,29.187-11.75l0.736-0.011c3.434,0,6.86,0.718,10.176,1.413
				l2.642,0.542c0.841,0.172,1.505,0.306,1.87,0.306c0.33-0.155,0.913-1.232,1.228-1.811c3.173-5.687,6.988-12.185,12.234-17.569
				c6.769-6.908,14.177-11.837,22.644-15.07c8.207-3.128,16.343-4.506,24.41-4.051c13.593,0.812,25.654,5.348,35.86,13.483
				c12.628,9.975,20.339,23.379,22.915,39.84c0.572,3.543,0.461,7.15,0.353,10.637c-0.031,1.012-0.062,2.021-0.077,3.029
				c-0.108,6.03-0.108,6.03,5.628,7.852c8.618,2.738,15.751,7.482,21.199,14.1c7.715,9.411,11.036,19.802,9.869,30.886
				c-1.823,17.722-11.033,30.227-27.369,37.161c-5.411,2.261-11.284,3.36-17.968,3.36L311.458,166.25z M265.76,81.557
				c-0.556,0-1.104,0.033-1.644,0.113c-5.843,0.876-10.625,1.833-14.962,3.649c-10.374,4.384-17.704,12.118-21.786,22.984
				c-4.595,12.293-3.444,24.131,3.422,35.183c8.015,12.883,19.98,19.449,35.561,19.513c15.048,0.065,30.081,0.081,45.106,0.081
				l134.597-0.016c6.254,0,11.73-1.019,16.735-3.113c15.188-6.445,23.751-18.076,25.45-34.567
				c1.074-10.214-2.009-19.817-9.166-28.545c-5.124-6.223-11.572-10.505-19.711-13.09c-7.467-2.372-7.978-3.074-7.841-10.724
				c0.019-1.221,0.049-2.249,0.08-3.277c0.105-3.339,0.211-6.791-0.313-10.042c-2.449-15.653-9.771-28.386-21.754-37.853
				c-9.692-7.727-21.153-12.031-34.074-12.804c-7.538-0.415-15.309,0.881-23.098,3.85c-8.03,3.066-15.066,7.751-21.507,14.324
				c-4.972,5.104-8.659,11.389-11.723,16.881c-1.082,1.997-1.87,3.454-4.004,3.454c-0.684,0-1.447-0.155-2.501-0.37l-2.661-0.546
				c-3.156-0.661-6.42-1.345-9.526-1.345l-0.639,0.011c-10.476,0.317-19.605,3.991-27.137,10.913
				c-5.715,5.273-9.632,12.065-12.699,22.021c-0.754,2.479-1.35,4.442-4.178,4.442c-0.604,0-1.385-0.087-2.429-0.212
				c-0.986-0.119-1.83-0.252-2.675-0.385C268.958,81.813,267.329,81.557,265.76,81.557z"/>
		</g>
	</g>
	<g>
		<g>
			<g>
				<path fill="#0074DE" d="M356.264,171.964c0.517,0,0.842,0.325,0.842,0.842c0,0.452-0.325,0.777-0.842,0.777
					s-0.839-0.325-0.839-0.842C355.425,172.354,355.812,171.964,356.264,171.964z"/>
			</g>
			<g>
				<path fill="#0074DE" d="M356.264,174.812c0.517,0,0.842,0.325,0.842,0.842c0,0.455-0.325,0.777-0.842,0.777
					s-0.839-0.322-0.839-0.842C355.425,175.137,355.812,174.812,356.264,174.812z"/>
			</g>
			<g>
				<path fill="#0074DE" d="M356.264,177.595c0.517,0,0.842,0.325,0.842,0.842c0,0.455-0.325,0.777-0.842,0.777
					s-0.839-0.322-0.839-0.842C355.425,177.92,355.812,177.595,356.264,177.595z"/>
			</g>
			<g>
				<path fill="#0074DE" d="M356.264,180.446c0.517,0,0.842,0.322,0.842,0.839c0,0.455-0.325,0.777-0.842,0.777
					s-0.839-0.322-0.839-0.839C355.425,180.768,355.812,180.446,356.264,180.446z"/>
			</g>
			<g>
				<path fill="#0074DE" d="M356.264,183.229c0.517,0,0.842,0.322,0.842,0.842c0,0.452-0.325,0.777-0.842,0.777
					s-0.839-0.325-0.839-0.842C355.425,183.551,355.812,183.229,356.264,183.229z"/>
			</g>
			<g>
				<path fill="#0074DE" d="M356.264,186.078c0.517,0,0.842,0.322,0.842,0.842c0,0.452-0.325,0.777-0.842,0.777
					s-0.839-0.325-0.839-0.842C355.425,186.399,355.812,186.078,356.264,186.078z"/>
			</g>
			<g>
				<path fill="#0074DE" d="M356.264,188.86c0.517,0,0.842,0.325,0.842,0.842c0,0.452-0.325,0.777-0.842,0.777
					s-0.839-0.325-0.839-0.842C355.425,189.186,355.812,188.86,356.264,188.86z"/>
			</g>
			<g>
				<path fill="#0074DE" d="M356.264,191.708c0.517,0,0.842,0.325,0.842,0.842c0,0.452-0.325,0.777-0.842,0.777
					s-0.839-0.325-0.839-0.842C355.425,192.034,355.812,191.708,356.264,191.708z"/>
			</g>
			<g>
				<path fill="#0074DE" d="M356.264,194.492c0.517,0,0.842,0.325,0.842,0.842c0,0.455-0.325,0.777-0.842,0.777
					s-0.839-0.322-0.839-0.842C355.425,194.816,355.812,194.492,356.264,194.492z"/>
			</g>
			<g>
				<path fill="#0074DE" d="M356.264,197.343c0.517,0,0.842,0.322,0.842,0.839c0,0.455-0.325,0.777-0.842,0.777
					s-0.839-0.322-0.839-0.839C355.425,197.665,355.812,197.343,356.264,197.343z"/>
			</g>
			<g>
				<path fill="#0074DE" d="M356.264,200.126c0.517,0,0.842,0.322,0.842,0.842c0,0.452-0.325,0.777-0.842,0.777
					s-0.839-0.325-0.839-0.842C355.425,200.448,355.812,200.126,356.264,200.126z"/>
			</g>
			<g>
				<path fill="#0074DE" d="M356.264,202.974c0.517,0,0.842,0.322,0.842,0.842c0,0.452-0.325,0.777-0.842,0.777
					s-0.839-0.325-0.839-0.842C355.425,203.296,355.812,202.974,356.264,202.974z"/>
			</g>
			<g>
				<path fill="#0074DE" d="M356.264,205.757c0.517,0,0.842,0.325,0.842,0.842c0,0.452-0.325,0.777-0.842,0.777
					s-0.839-0.325-0.839-0.842C355.425,206.082,355.812,205.757,356.264,205.757z"/>
			</g>
			<g>
				<path fill="#0074DE" d="M356.264,208.605c0.517,0,0.842,0.325,0.842,0.842c0,0.452-0.325,0.777-0.842,0.777
					s-0.839-0.325-0.839-0.842C355.425,208.93,355.812,208.605,356.264,208.605z"/>
			</g>
			<g>
				<path fill="#0074DE" d="M356.264,211.388c0.517,0,0.842,0.325,0.842,0.842c0,0.455-0.325,0.777-0.842,0.777
					s-0.839-0.322-0.839-0.842C355.425,211.713,355.812,211.388,356.264,211.388z"/>
			</g>
			<g>
				<path fill="#0074DE" d="M356.264,214.239c0.517,0,0.842,0.322,0.842,0.839c0,0.455-0.325,0.777-0.842,0.777
					s-0.839-0.322-0.839-0.842C355.425,214.561,355.812,214.239,356.264,214.239z"/>
			</g>
			<g>
				<path fill="#0074DE" d="M356.264,217.022c0.517,0,0.842,0.322,0.842,0.842c0,0.452-0.325,0.777-0.842,0.777
					s-0.839-0.325-0.839-0.842C355.425,217.344,355.812,217.022,356.264,217.022z"/>
			</g>
			<g>
				<path fill="#0074DE" d="M356.264,219.87c0.517,0,0.842,0.322,0.842,0.842c0,0.452-0.325,0.777-0.842,0.777
					s-0.839-0.325-0.839-0.842C355.425,220.192,355.812,219.87,356.264,219.87z"/>
			</g>
			<g>
				<path fill="#0074DE" d="M356.264,222.653c0.517,0,0.842,0.325,0.842,0.842c0,0.452-0.325,0.777-0.842,0.777
					s-0.839-0.325-0.839-0.842C355.425,222.979,355.812,222.653,356.264,222.653z"/>
			</g>
			<g>
				<path fill="#0074DE" d="M356.264,225.501c0.517,0,0.842,0.325,0.842,0.842c0,0.452-0.325,0.777-0.842,0.777
					s-0.839-0.325-0.839-0.842C355.425,225.827,355.812,225.501,356.264,225.501z"/>
			</g>
			<g>
				<path fill="#0074DE" d="M356.264,228.285c0.517,0,0.842,0.325,0.842,0.842c0,0.455-0.325,0.777-0.842,0.777
					s-0.839-0.322-0.839-0.842C355.425,228.609,355.812,228.285,356.264,228.285z"/>
			</g>
			<g>
				<path fill="#0074DE" d="M356.264,231.136c0.517,0,0.842,0.322,0.842,0.839c0,0.455-0.325,0.777-0.842,0.777
					s-0.839-0.322-0.839-0.842C355.425,231.458,355.812,231.136,356.264,231.136z"/>
			</g>
			<g>
				<path fill="#0074DE" d="M356.264,233.918c0.517,0,0.842,0.322,0.842,0.842c0,0.452-0.325,0.777-0.842,0.777
					s-0.839-0.325-0.839-0.842C355.425,234.241,355.812,233.918,356.264,233.918z"/>
			</g>
			<g>
				<path fill="#0074DE" d="M356.264,236.767c0.517,0,0.842,0.322,0.842,0.842c0,0.452-0.325,0.777-0.842,0.777
					s-0.839-0.325-0.839-0.842C355.425,237.089,355.812,236.767,356.264,236.767z"/>
			</g>
		</g>
	</g>
	<g>
		<g>
			<g>
				<path fill="#0074DD" d="M186.459,241.299c0-0.52,0.323-0.842,0.842-0.842c0.454,0,0.777,0.322,0.777,0.842
					c0,0.517-0.324,0.842-0.842,0.842C186.782,242.141,186.459,241.816,186.459,241.299z"/>
			</g>
			<g>
				<path fill="#0074DD" d="M189.309,241.299c0-0.52,0.323-0.842,0.84-0.842c0.454,0,0.777,0.322,0.777,0.842
					c0,0.517-0.324,0.842-0.842,0.842C189.632,242.141,189.309,241.816,189.309,241.299z"/>
			</g>
			<g>
				<path fill="#0074DD" d="M192.092,241.299c0-0.52,0.323-0.842,0.842-0.842c0.452,0,0.777,0.322,0.777,0.842
					c0,0.517-0.325,0.842-0.842,0.842C192.415,242.141,192.092,241.816,192.092,241.299z"/>
			</g>
			<g>
				<path fill="#0074DD" d="M194.939,241.299c0-0.52,0.324-0.842,0.842-0.842c0.454,0,0.777,0.322,0.777,0.842
					c0,0.517-0.323,0.842-0.842,0.842C195.263,242.141,194.939,241.816,194.939,241.299z"/>
			</g>
			<g>
				<path fill="#0074DD" d="M197.724,241.299c0-0.52,0.324-0.842,0.841-0.842c0.453,0,0.777,0.322,0.777,0.842
					c0,0.517-0.324,0.842-0.842,0.842C198.048,242.141,197.724,241.816,197.724,241.299z"/>
			</g>
			<g>
				<path fill="#0074DD" d="M200.572,241.299c0-0.52,0.324-0.842,0.842-0.842c0.452,0,0.775,0.322,0.775,0.842
					c0,0.517-0.324,0.842-0.841,0.842C200.896,242.141,200.572,241.816,200.572,241.299z"/>
			</g>
			<g>
				<path fill="#0074DD" d="M203.355,241.299c0-0.52,0.323-0.842,0.842-0.842c0.454,0,0.777,0.322,0.777,0.842
					c0,0.517-0.324,0.842-0.842,0.842C203.679,242.141,203.355,241.816,203.355,241.299z"/>
			</g>
			<g>
				<path fill="#0074DD" d="M206.204,241.299c0-0.52,0.325-0.842,0.842-0.842c0.454,0,0.777,0.322,0.777,0.842
					c0,0.517-0.323,0.842-0.842,0.842C206.528,242.141,206.204,241.816,206.204,241.299z"/>
			</g>
			<g>
				<path fill="#0074DD" d="M208.988,241.299c0-0.52,0.323-0.842,0.842-0.842c0.452,0,0.775,0.322,0.775,0.842
					c0,0.517-0.323,0.842-0.84,0.842C209.312,242.141,208.988,241.816,208.988,241.299z"/>
			</g>
			<g>
				<path fill="#0074DD" d="M211.836,241.299c0-0.52,0.324-0.842,0.842-0.842c0.454,0,0.777,0.322,0.777,0.842
					c0,0.517-0.323,0.842-0.842,0.842C212.16,242.141,211.836,241.816,211.836,241.299z"/>
			</g>
			<g>
				<path fill="#0074DD" d="M214.621,241.299c0-0.52,0.324-0.842,0.84-0.842c0.454,0,0.777,0.322,0.777,0.842
					c0,0.517-0.324,0.842-0.842,0.842C214.944,242.141,214.621,241.816,214.621,241.299z"/>
			</g>
			<g>
				<path fill="#0074DD" d="M217.469,241.299c0-0.52,0.324-0.842,0.84-0.842c0.454,0,0.777,0.322,0.777,0.842
					c0,0.517-0.324,0.842-0.841,0.842C217.792,242.141,217.469,241.816,217.469,241.299z"/>
			</g>
			<g>
				<path fill="#0074DD" d="M220.252,241.299c0-0.52,0.323-0.842,0.842-0.842c0.454,0,0.777,0.322,0.777,0.842
					c0,0.517-0.324,0.842-0.842,0.842C220.575,242.141,220.252,241.816,220.252,241.299z"/>
			</g>
			<g>
				<path fill="#0074DD" d="M223.1,241.299c0-0.52,0.325-0.842,0.842-0.842c0.454,0,0.777,0.322,0.777,0.842
					c0,0.517-0.323,0.842-0.842,0.842C223.425,242.141,223.1,241.816,223.1,241.299z"/>
			</g>
			<g>
				<path fill="#0074DD" d="M225.884,241.299c0-0.52,0.324-0.842,0.842-0.842c0.452,0,0.775,0.322,0.775,0.842
					c0,0.517-0.323,0.842-0.84,0.842C226.208,242.141,225.884,241.816,225.884,241.299z"/>
			</g>
			<g>
				<path fill="#0074DD" d="M228.732,241.299c0-0.52,0.324-0.842,0.842-0.842c0.454,0,0.777,0.322,0.777,0.842
					c0,0.517-0.323,0.842-0.842,0.842C229.056,242.141,228.732,241.816,228.732,241.299z"/>
			</g>
			<g>
				<path fill="#0074DD" d="M231.516,241.299c0-0.52,0.325-0.842,0.842-0.842c0.454,0,0.777,0.322,0.777,0.842
					c0,0.517-0.324,0.842-0.842,0.842C231.841,242.141,231.516,241.816,231.516,241.299z"/>
			</g>
			<g>
				<path fill="#0074DD" d="M234.365,241.299c0-0.52,0.323-0.842,0.84-0.842c0.454,0,0.777,0.322,0.777,0.842
					c0,0.517-0.324,0.842-0.841,0.842C234.688,242.141,234.365,241.816,234.365,241.299z"/>
			</g>
			<g>
				<path fill="#0074DD" d="M237.148,241.299c0-0.52,0.323-0.842,0.842-0.842c0.454,0,0.777,0.322,0.777,0.842
					c0,0.517-0.323,0.842-0.842,0.842C237.472,242.141,237.148,241.816,237.148,241.299z"/>
			</g>
			<g>
				<path fill="#0074DD" d="M239.996,241.299c0-0.52,0.324-0.842,0.842-0.842c0.454,0,0.777,0.322,0.777,0.842
					c0,0.517-0.323,0.842-0.842,0.842C240.32,242.141,239.996,241.816,239.996,241.299z"/>
			</g>
			<g>
				<path fill="#0074DD" d="M242.781,241.299c0-0.52,0.324-0.842,0.841-0.842c0.453,0,0.777,0.322,0.777,0.842
					c0,0.517-0.324,0.842-0.84,0.842C243.104,242.141,242.781,241.816,242.781,241.299z"/>
			</g>
			<g>
				<path fill="#0074DD" d="M245.629,241.299c0-0.52,0.324-0.842,0.842-0.842c0.452,0,0.777,0.322,0.777,0.842
					c0,0.517-0.325,0.842-0.842,0.842C245.953,242.141,245.629,241.816,245.629,241.299z"/>
			</g>
			<g>
				<path fill="#0074DD" d="M248.412,241.299c0-0.52,0.325-0.842,0.842-0.842c0.454,0,0.777,0.322,0.777,0.842
					c0,0.517-0.324,0.842-0.842,0.842C248.737,242.141,248.412,241.816,248.412,241.299z"/>
			</g>
			<g>
				<path fill="#0074DD" d="M251.262,241.299c0-0.52,0.323-0.842,0.84-0.842c0.454,0,0.777,0.322,0.777,0.842
					c0,0.517-0.323,0.842-0.84,0.842C251.585,242.141,251.262,241.816,251.262,241.299z"/>
			</g>
			<g>
				<path fill="#0074DD" d="M254.044,241.299c0-0.52,0.324-0.842,0.842-0.842c0.454,0,0.777,0.322,0.777,0.842
					c0,0.517-0.323,0.842-0.842,0.842C254.368,242.141,254.044,241.816,254.044,241.299z"/>
			</g>
			<g>
				<path fill="#0074DD" d="M256.893,241.299c0-0.52,0.324-0.842,0.842-0.842c0.454,0,0.777,0.322,0.777,0.842
					c0,0.517-0.323,0.842-0.842,0.842C257.216,242.141,256.893,241.816,256.893,241.299z"/>
			</g>
			<g>
				<path fill="#0074DD" d="M259.677,241.299c0-0.52,0.324-0.842,0.84-0.842c0.454,0,0.777,0.322,0.777,0.842
					c0,0.517-0.324,0.842-0.841,0.842C260.001,242.141,259.677,241.816,259.677,241.299z"/>
			</g>
			<g>
				<path fill="#0074DD" d="M262.525,241.299c0-0.52,0.324-0.842,0.842-0.842c0.452,0,0.777,0.322,0.777,0.842
					c0,0.517-0.325,0.842-0.842,0.842C262.849,242.141,262.525,241.816,262.525,241.299z"/>
			</g>
			<g>
				<path fill="#0074DD" d="M265.309,241.299c0-0.52,0.323-0.842,0.842-0.842c0.454,0,0.777,0.322,0.777,0.842
					c0,0.517-0.324,0.842-0.842,0.842C265.632,242.141,265.309,241.816,265.309,241.299z"/>
			</g>
			<g>
				<path fill="#0074DD" d="M268.093,241.299c0-0.52,0.323-0.842,0.84-0.842c0.454,0,0.777,0.322,0.777,0.842
					c0,0.517-0.323,0.842-0.84,0.842C268.481,242.141,268.093,241.816,268.093,241.299z"/>
			</g>
			<g>
				<path fill="#0074DD" d="M270.941,241.299c0-0.52,0.324-0.842,0.842-0.842c0.452,0,0.777,0.322,0.777,0.842
					c0,0.517-0.325,0.842-0.842,0.842C271.265,242.141,270.941,241.816,270.941,241.299z"/>
			</g>
			<g>
				<path fill="#0074DD" d="M273.724,241.299c0-0.52,0.325-0.842,0.842-0.842c0.453,0,0.777,0.322,0.777,0.842
					c0,0.517-0.324,0.842-0.842,0.842C274.049,242.141,273.724,241.816,273.724,241.299z"/>
			</g>
			<g>
				<path fill="#0074DD" d="M276.574,241.299c0-0.52,0.324-0.842,0.84-0.842c0.454,0,0.777,0.322,0.777,0.842
					c0,0.517-0.324,0.842-0.841,0.842C276.897,242.141,276.574,241.816,276.574,241.299z"/>
			</g>
			<g>
				<path fill="#0074DD" d="M279.357,241.299c0-0.52,0.323-0.842,0.842-0.842c0.454,0,0.777,0.322,0.777,0.842
					c0,0.517-0.324,0.842-0.842,0.842C279.68,242.141,279.357,241.816,279.357,241.299z"/>
			</g>
			<g>
				<path fill="#0074DD" d="M282.205,241.299c0-0.52,0.323-0.842,0.842-0.842c0.454,0,0.777,0.322,0.777,0.842
					c0,0.517-0.323,0.842-0.842,0.842C282.528,242.141,282.205,241.816,282.205,241.299z"/>
			</g>
			<g>
				<path fill="#0074DD" d="M284.989,241.299c0-0.52,0.324-0.842,0.841-0.842c0.454,0,0.777,0.322,0.777,0.842
					c0,0.517-0.323,0.842-0.84,0.842C285.313,242.141,284.989,241.816,284.989,241.299z"/>
			</g>
			<g>
				<path fill="#0074DD" d="M287.837,241.299c0-0.52,0.324-0.842,0.842-0.842c0.452,0,0.777,0.322,0.777,0.842
					c0,0.517-0.325,0.842-0.842,0.842C288.161,242.141,287.837,241.816,287.837,241.299z"/>
			</g>
			<g>
				<path fill="#0074DD" d="M290.621,241.299c0-0.52,0.323-0.842,0.842-0.842c0.454,0,0.777,0.322,0.777,0.842
					c0,0.517-0.324,0.842-0.842,0.842C290.944,242.141,290.621,241.816,290.621,241.299z"/>
			</g>
			<g>
				<path fill="#0074DD" d="M293.47,241.299c0-0.52,0.323-0.842,0.84-0.842c0.454,0,0.777,0.322,0.777,0.842
					c0,0.517-0.324,0.842-0.842,0.842C293.793,242.141,293.47,241.816,293.47,241.299z"/>
			</g>
			<g>
				<path fill="#0074DD" d="M296.253,241.299c0-0.52,0.323-0.842,0.842-0.842c0.452,0,0.777,0.322,0.777,0.842
					c0,0.517-0.325,0.842-0.842,0.842C296.577,242.141,296.253,241.816,296.253,241.299z"/>
			</g>
			<g>
				<path fill="#0074DD" d="M299.101,241.299c0-0.52,0.324-0.842,0.842-0.842c0.454,0,0.777,0.322,0.777,0.842
					c0,0.517-0.323,0.842-0.842,0.842C299.425,242.141,299.101,241.816,299.101,241.299z"/>
			</g>
			<g>
				<path fill="#0074DD" d="M301.886,241.299c0-0.52,0.324-0.842,0.841-0.842c0.453,0,0.777,0.322,0.777,0.842
					c0,0.517-0.324,0.842-0.84,0.842C302.209,242.141,301.886,241.816,301.886,241.299z"/>
			</g>
			<g>
				<path fill="#0074DD" d="M304.734,241.299c0-0.52,0.324-0.842,0.842-0.842c0.452,0,0.775,0.322,0.775,0.842
					c0,0.517-0.324,0.842-0.841,0.842C305.058,242.141,304.734,241.816,304.734,241.299z"/>
			</g>
			<g>
				<path fill="#0074DD" d="M307.517,241.299c0-0.52,0.323-0.842,0.842-0.842c0.454,0,0.777,0.322,0.777,0.842
					c0,0.517-0.324,0.842-0.842,0.842C307.84,242.141,307.517,241.816,307.517,241.299z"/>
			</g>
			<g>
				<path fill="#0074DD" d="M310.367,241.299c0-0.52,0.323-0.842,0.84-0.842c0.454,0,0.777,0.322,0.777,0.842
					c0,0.517-0.324,0.842-0.842,0.842C310.69,242.141,310.367,241.816,310.367,241.299z"/>
			</g>
			<g>
				<path fill="#0074DD" d="M313.15,241.299c0-0.52,0.323-0.842,0.842-0.842c0.452,0,0.777,0.322,0.777,0.842
					c0,0.517-0.325,0.842-0.842,0.842C313.473,242.141,313.15,241.816,313.15,241.299z"/>
			</g>
			<g>
				<path fill="#0074DD" d="M315.998,241.299c0-0.52,0.324-0.842,0.842-0.842c0.454,0,0.777,0.322,0.777,0.842
					c0,0.517-0.323,0.842-0.842,0.842C316.321,242.141,315.998,241.816,315.998,241.299z"/>
			</g>
			<g>
				<path fill="#0074DD" d="M318.782,241.299c0-0.52,0.324-0.842,0.841-0.842c0.453,0,0.777,0.322,0.777,0.842
					c0,0.517-0.324,0.842-0.842,0.842C319.106,242.141,318.782,241.816,318.782,241.299z"/>
			</g>
			<g>
				<path fill="#0074DD" d="M321.63,241.299c0-0.52,0.324-0.842,0.842-0.842c0.452,0,0.775,0.322,0.775,0.842
					c0,0.517-0.324,0.842-0.841,0.842C321.954,242.141,321.63,241.816,321.63,241.299z"/>
			</g>
			<g>
				<path fill="#0074DD" d="M324.414,241.299c0-0.52,0.323-0.842,0.842-0.842c0.454,0,0.777,0.322,0.777,0.842
					c0,0.517-0.324,0.842-0.842,0.842C324.737,242.141,324.414,241.816,324.414,241.299z"/>
			</g>
			<g>
				<path fill="#0074DD" d="M327.262,241.299c0-0.52,0.325-0.842,0.842-0.842c0.454,0,0.777,0.322,0.777,0.842
					c0,0.517-0.323,0.842-0.842,0.842C327.586,242.141,327.262,241.816,327.262,241.299z"/>
			</g>
			<g>
				<path fill="#0074DD" d="M330.046,241.299c0-0.52,0.324-0.842,0.842-0.842c0.452,0,0.775,0.322,0.775,0.842
					c0,0.517-0.323,0.842-0.84,0.842C330.37,242.141,330.046,241.816,330.046,241.299z"/>
			</g>
			<g>
				<path fill="#0074DD" d="M332.894,241.299c0-0.52,0.324-0.842,0.842-0.842c0.454,0,0.777,0.322,0.777,0.842
					c0,0.517-0.323,0.842-0.842,0.842C333.218,242.141,332.894,241.816,332.894,241.299z"/>
			</g>
			<g>
				<path fill="#0074DD" d="M335.679,241.299c0-0.52,0.324-0.842,0.84-0.842c0.454,0,0.777,0.322,0.777,0.842
					c0,0.517-0.324,0.842-0.842,0.842C336.002,242.141,335.679,241.816,335.679,241.299z"/>
			</g>
			<g>
				<path fill="#0074DD" d="M338.527,241.299c0-0.52,0.323-0.842,0.84-0.842c0.454,0,0.777,0.322,0.777,0.842
					c0,0.517-0.324,0.842-0.841,0.842C338.85,242.141,338.527,241.816,338.527,241.299z"/>
			</g>
			<g>
				<path fill="#0074DD" d="M341.31,241.299c0-0.52,0.323-0.842,0.842-0.842c0.454,0,0.777,0.322,0.777,0.842
					c0,0.517-0.323,0.842-0.842,0.842C341.633,242.141,341.31,241.816,341.31,241.299z"/>
			</g>
			<g>
				<path fill="#0074DD" d="M344.158,241.299c0-0.52,0.325-0.842,0.842-0.842c0.454,0,0.777,0.322,0.777,0.842
					c0,0.517-0.323,0.842-0.842,0.842C344.483,242.141,344.158,241.816,344.158,241.299z"/>
			</g>
			<g>
				<path fill="#0074DD" d="M346.942,241.299c0-0.52,0.324-0.842,0.842-0.842c0.452,0,0.775,0.322,0.775,0.842
					c0,0.517-0.324,0.842-0.84,0.842C347.266,242.141,346.942,241.816,346.942,241.299z"/>
			</g>
			<g>
				<path fill="#0074DD" d="M349.791,241.299c0-0.52,0.324-0.842,0.842-0.842c0.453,0,0.777,0.322,0.777,0.842
					c0,0.517-0.324,0.842-0.842,0.842C350.114,242.141,349.791,241.816,349.791,241.299z"/>
			</g>
			<g>
				<path fill="#0074DD" d="M352.574,241.299c0-0.52,0.325-0.842,0.842-0.842c0.454,0,0.777,0.322,0.777,0.842
					c0,0.517-0.324,0.842-0.842,0.842C352.899,242.141,352.574,241.816,352.574,241.299z"/>
			</g>
			<g>
				<path fill="#0074DD" d="M355.425,241.299c0-0.52,0.322-0.842,0.839-0.842c0.455,0,0.777,0.322,0.777,0.842
					c0,0.517-0.322,0.842-0.842,0.842C355.747,242.141,355.425,241.816,355.425,241.299z"/>
			</g>
			<g>
				<path fill="#0074DD" d="M358.205,241.299c0-0.52,0.325-0.842,0.842-0.842c0.455,0,0.78,0.322,0.78,0.842
					c0,0.517-0.325,0.842-0.842,0.842C358.53,242.141,358.205,241.816,358.205,241.299z"/>
			</g>
			<g>
				<path fill="#0074DD" d="M360.991,241.299c0-0.52,0.321-0.842,0.842-0.842c0.452,0,0.773,0.322,0.773,0.842
					c0,0.517-0.321,0.842-0.842,0.842C361.378,242.141,360.991,241.816,360.991,241.299z"/>
			</g>
			<g>
				<path fill="#0074DD" d="M363.839,241.299c0-0.52,0.322-0.842,0.842-0.842c0.452,0,0.774,0.322,0.774,0.842
					c0,0.517-0.322,0.842-0.839,0.842C364.161,242.141,363.839,241.816,363.839,241.299z"/>
			</g>
			<g>
				<path fill="#0074DD" d="M366.622,241.299c0-0.52,0.325-0.842,0.842-0.842c0.455,0,0.777,0.322,0.777,0.842
					c0,0.517-0.322,0.842-0.842,0.842C366.947,242.141,366.622,241.816,366.622,241.299z"/>
			</g>
			<g>
				<path fill="#0074DD" d="M369.47,241.299c0-0.52,0.325-0.842,0.843-0.842c0.455,0,0.776,0.322,0.776,0.842
					c0,0.517-0.321,0.842-0.842,0.842C369.795,242.141,369.47,241.816,369.47,241.299z"/>
			</g>
			<g>
				<path fill="#0074DD" d="M372.253,241.299c0-0.52,0.325-0.842,0.842-0.842c0.452,0,0.777,0.322,0.777,0.842
					c0,0.517-0.325,0.842-0.839,0.842C372.578,242.141,372.253,241.816,372.253,241.299z"/>
			</g>
			<g>
				<path fill="#0074DD" d="M375.102,241.299c0-0.52,0.324-0.842,0.842-0.842c0.455,0,0.78,0.322,0.78,0.842
					c0,0.517-0.325,0.842-0.843,0.842C375.426,242.141,375.102,241.816,375.102,241.299z"/>
			</g>
			<g>
				<path fill="#0074DD" d="M377.888,241.299c0-0.52,0.321-0.842,0.842-0.842c0.452,0,0.773,0.322,0.773,0.842
					c0,0.517-0.321,0.842-0.842,0.842C378.209,242.141,377.888,241.816,377.888,241.299z"/>
			</g>
			<g>
				<path fill="#0074DD" d="M380.735,241.299c0-0.52,0.322-0.842,0.842-0.842c0.452,0,0.774,0.322,0.774,0.842
					c0,0.517-0.322,0.842-0.839,0.842C381.058,242.141,380.735,241.816,380.735,241.299z"/>
			</g>
			<g>
				<path fill="#0074DD" d="M383.519,241.299c0-0.52,0.325-0.842,0.842-0.842c0.455,0,0.777,0.322,0.777,0.842
					c0,0.517-0.322,0.842-0.842,0.842C383.844,242.141,383.519,241.816,383.519,241.299z"/>
			</g>
			<g>
				<path fill="#0074DD" d="M386.366,241.299c0-0.52,0.325-0.842,0.843-0.842c0.455,0,0.776,0.322,0.776,0.842
					c0,0.517-0.321,0.842-0.842,0.842C386.691,242.141,386.366,241.816,386.366,241.299z"/>
			</g>
			<g>
				<path fill="#0074DD" d="M389.149,241.299c0-0.52,0.325-0.842,0.842-0.842c0.452,0,0.777,0.322,0.777,0.842
					c0,0.517-0.325,0.842-0.839,0.842C389.475,242.141,389.149,241.816,389.149,241.299z"/>
			</g>
			<g>
				<path fill="#0074DD" d="M391.998,241.299c0-0.52,0.324-0.842,0.842-0.842c0.452,0,0.78,0.322,0.78,0.842
					c0,0.517-0.328,0.842-0.843,0.842C392.322,242.141,391.998,241.816,391.998,241.299z"/>
			</g>
			<g>
				<path fill="#0074DD" d="M394.784,241.299c0-0.52,0.321-0.842,0.842-0.842c0.452,0,0.773,0.322,0.773,0.842
					c0,0.517-0.321,0.842-0.842,0.842C395.105,242.141,394.784,241.816,394.784,241.299z"/>
			</g>
			<g>
				<path fill="#0074DD" d="M397.632,241.299c0-0.52,0.322-0.842,0.842-0.842c0.452,0,0.774,0.322,0.774,0.842
					c0,0.517-0.322,0.842-0.839,0.842C397.954,242.141,397.632,241.816,397.632,241.299z"/>
			</g>
			<g>
				<path fill="#0074DD" d="M400.415,241.299c0-0.52,0.325-0.842,0.842-0.842c0.455,0,0.777,0.322,0.777,0.842
					c0,0.517-0.322,0.842-0.843,0.842C400.74,242.141,400.415,241.816,400.415,241.299z"/>
			</g>
			<g>
				<path fill="#0074DD" d="M403.263,241.299c0-0.52,0.325-0.842,0.843-0.842c0.454,0,0.776,0.322,0.776,0.842
					c0,0.517-0.322,0.842-0.842,0.842C403.588,242.141,403.263,241.816,403.263,241.299z"/>
			</g>
			<g>
				<path fill="#0074DD" d="M406.046,241.299c0-0.52,0.325-0.842,0.842-0.842c0.452,0,0.777,0.322,0.777,0.842
					c0,0.517-0.325,0.842-0.839,0.842C406.371,242.141,406.046,241.816,406.046,241.299z"/>
			</g>
			<g>
				<path fill="#0074DD" d="M408.895,241.299c0-0.52,0.324-0.842,0.842-0.842c0.452,0,0.78,0.322,0.78,0.842
					c0,0.517-0.328,0.842-0.843,0.842C409.219,242.141,408.895,241.816,408.895,241.299z"/>
			</g>
			<g>
				<path fill="#0074DD" d="M411.681,241.299c0-0.52,0.321-0.842,0.842-0.842c0.452,0,0.773,0.322,0.773,0.842
					c0,0.517-0.321,0.842-0.842,0.842C412.002,242.141,411.681,241.816,411.681,241.299z"/>
			</g>
			<g>
				<path fill="#0074DD" d="M414.528,241.299c0-0.52,0.322-0.842,0.842-0.842c0.452,0,0.774,0.322,0.774,0.842
					c0,0.517-0.322,0.842-0.843,0.842C414.851,242.141,414.528,241.816,414.528,241.299z"/>
			</g>
			<g>
				<path fill="#0074DD" d="M417.312,241.299c0-0.52,0.325-0.842,0.842-0.842c0.452,0,0.777,0.322,0.777,0.842
					c0,0.517-0.325,0.842-0.843,0.842C417.637,242.141,417.312,241.816,417.312,241.299z"/>
			</g>
			<g>
				<path fill="#0074DD" d="M420.159,241.299c0-0.52,0.325-0.842,0.842-0.842c0.455,0,0.777,0.322,0.777,0.842
					c0,0.517-0.322,0.842-0.842,0.842C420.484,242.141,420.159,241.816,420.159,241.299z"/>
			</g>
			<g>
				<path fill="#0074DD" d="M422.942,241.299c0-0.52,0.325-0.842,0.842-0.842c0.452,0,0.777,0.322,0.777,0.842
					c0,0.517-0.325,0.842-0.839,0.842C423.268,242.141,422.942,241.816,422.942,241.299z"/>
			</g>
			<g>
				<path fill="#0074DD" d="M425.79,241.299c0-0.52,0.325-0.842,0.843-0.842c0.451,0,0.776,0.322,0.776,0.842
					c0,0.517-0.325,0.842-0.839,0.842C426.115,242.141,425.79,241.816,425.79,241.299z"/>
			</g>
			<g>
				<path fill="#0074DD" d="M428.576,241.299c0-0.52,0.322-0.842,0.843-0.842c0.452,0,0.773,0.322,0.773,0.842
					c0,0.517-0.321,0.842-0.842,0.842C428.898,242.141,428.576,241.816,428.576,241.299z"/>
			</g>
			<g>
				<path fill="#0074DD" d="M431.425,241.299c0-0.52,0.322-0.842,0.842-0.842c0.452,0,0.774,0.322,0.774,0.842
					c0,0.517-0.322,0.842-0.843,0.842C431.747,242.141,431.425,241.816,431.425,241.299z"/>
			</g>
			<g>
				<path fill="#0074DD" d="M434.208,241.299c0-0.52,0.325-0.842,0.842-0.842c0.452,0,0.777,0.322,0.777,0.842
					c0,0.517-0.325,0.842-0.843,0.842C434.533,242.141,434.208,241.816,434.208,241.299z"/>
			</g>
			<g>
				<path fill="#0074DD" d="M437.056,241.299c0-0.52,0.325-0.842,0.842-0.842c0.455,0,0.777,0.322,0.777,0.842
					c0,0.517-0.322,0.842-0.842,0.842C437.381,242.141,437.056,241.816,437.056,241.299z"/>
			</g>
			<g>
				<path fill="#0074DD" d="M439.839,241.299c0-0.52,0.325-0.842,0.842-0.842c0.452,0,0.777,0.322,0.777,0.842
					c0,0.517-0.325,0.842-0.842,0.842C440.164,242.141,439.839,241.816,439.839,241.299z"/>
			</g>
			<g>
				<path fill="#0074DD" d="M442.687,241.299c0-0.52,0.325-0.842,0.843-0.842c0.451,0,0.776,0.322,0.776,0.842
					c0,0.517-0.325,0.842-0.839,0.842C443.012,242.141,442.687,241.816,442.687,241.299z"/>
			</g>
			<g>
				<path fill="#0074DD" d="M445.473,241.299c0-0.52,0.322-0.842,0.843-0.842c0.451,0,0.773,0.322,0.773,0.842
					c0,0.517-0.322,0.842-0.842,0.842C445.795,242.141,445.473,241.816,445.473,241.299z"/>
			</g>
			<g>
				<path fill="#0074DD" d="M448.321,241.299c0-0.52,0.321-0.842,0.842-0.842c0.452,0,0.774,0.322,0.774,0.842
					c0,0.517-0.322,0.842-0.843,0.842C448.643,242.141,448.321,241.816,448.321,241.299z"/>
			</g>
			<g>
				<path fill="#0074DD" d="M451.104,241.299c0-0.52,0.325-0.842,0.842-0.842c0.452,0,0.777,0.322,0.777,0.842
					c0,0.517-0.325,0.842-0.843,0.842C451.43,242.141,451.104,241.816,451.104,241.299z"/>
			</g>
			<g>
				<path fill="#0074DD" d="M453.952,241.299c0-0.52,0.325-0.842,0.842-0.842c0.455,0,0.777,0.322,0.777,0.842
					c0,0.517-0.322,0.842-0.842,0.842C454.277,242.141,453.952,241.816,453.952,241.299z"/>
			</g>
			<g>
				<path fill="#0074DD" d="M456.735,241.299c0-0.52,0.325-0.842,0.842-0.842c0.452,0,0.777,0.322,0.777,0.842
					c0,0.517-0.325,0.842-0.842,0.842C457.061,242.141,456.735,241.816,456.735,241.299z"/>
			</g>
			<g>
				<path fill="#0074DD" d="M459.521,241.299c0-0.52,0.322-0.842,0.842-0.842c0.452,0,0.774,0.322,0.774,0.842
					c0,0.517-0.322,0.842-0.843,0.842C459.908,242.141,459.521,241.816,459.521,241.299z"/>
			</g>
			<g>
				<path fill="#0074DD" d="M462.369,241.299c0-0.52,0.322-0.842,0.843-0.842c0.451,0,0.773,0.322,0.773,0.842
					c0,0.517-0.322,0.842-0.842,0.842C462.691,242.141,462.369,241.816,462.369,241.299z"/>
			</g>
			<g>
				<path fill="#0074DD" d="M465.152,241.299c0-0.52,0.325-0.842,0.839-0.842c0.455,0,0.78,0.322,0.78,0.842
					c0,0.517-0.325,0.842-0.842,0.842C465.478,242.141,465.152,241.816,465.152,241.299z"/>
			</g>
			<g>
				<path fill="#0074DD" d="M468.001,241.299c0-0.52,0.324-0.842,0.842-0.842c0.452,0,0.777,0.322,0.777,0.842
					c0,0.517-0.325,0.842-0.843,0.842C468.325,242.141,468.001,241.816,468.001,241.299z"/>
			</g>
			<g>
				<path fill="#0074DD" d="M470.783,241.299c0-0.52,0.322-0.842,0.843-0.842c0.452,0,0.776,0.322,0.776,0.842
					c0,0.517-0.324,0.842-0.842,0.842C471.105,242.141,470.783,241.816,470.783,241.299z"/>
			</g>
			<g>
				<path fill="#0074DD" d="M473.632,241.299c0-0.52,0.325-0.842,0.842-0.842c0.452,0,0.777,0.322,0.777,0.842
					c0,0.517-0.325,0.842-0.842,0.842C473.957,242.141,473.632,241.816,473.632,241.299z"/>
			</g>
			<g>
				<path fill="#0074DD" d="M476.418,241.299c0-0.52,0.322-0.842,0.842-0.842c0.452,0,0.774,0.322,0.774,0.842
					c0,0.517-0.322,0.842-0.843,0.842C476.74,242.141,476.418,241.816,476.418,241.299z"/>
			</g>
			<g>
				<path fill="#0074DD" d="M479.266,241.299c0-0.52,0.322-0.842,0.843-0.842c0.451,0,0.773,0.322,0.773,0.842
					c0,0.517-0.322,0.842-0.842,0.842C479.588,242.141,479.266,241.816,479.266,241.299z"/>
			</g>
			<g>
				<path fill="#0074DD" d="M482.049,241.299c0-0.52,0.325-0.842,0.839-0.842c0.455,0,0.78,0.322,0.78,0.842
					c0,0.517-0.325,0.842-0.842,0.842C482.374,242.141,482.049,241.816,482.049,241.299z"/>
			</g>
			<g>
				<path fill="#0074DD" d="M484.897,241.299c0-0.52,0.324-0.842,0.839-0.842c0.455,0,0.779,0.322,0.779,0.842
					c0,0.517-0.324,0.842-0.842,0.842C485.222,242.141,484.897,241.816,484.897,241.299z"/>
			</g>
			<g>
				<path fill="#0074DD" d="M487.68,241.299c0-0.52,0.322-0.842,0.843-0.842c0.451,0,0.776,0.322,0.776,0.842
					c0,0.517-0.325,0.842-0.842,0.842C488.002,242.141,487.68,241.816,487.68,241.299z"/>
			</g>
			<g>
				<path fill="#0074DD" d="M490.528,241.299c0-0.52,0.325-0.842,0.842-0.842c0.452,0,0.777,0.322,0.777,0.842
					c0,0.517-0.325,0.842-0.843,0.842C490.854,242.141,490.528,241.816,490.528,241.299z"/>
			</g>
			<g>
				<path fill="#0074DD" d="M493.314,241.299c0-0.52,0.322-0.842,0.842-0.842c0.452,0,0.774,0.322,0.774,0.842
					c0,0.517-0.322,0.842-0.843,0.842C493.637,242.141,493.314,241.816,493.314,241.299z"/>
			</g>
			<g>
				<path fill="#0074DD" d="M496.162,241.299c0-0.52,0.322-0.842,0.842-0.842c0.452,0,0.774,0.322,0.774,0.842
					c0,0.517-0.322,0.842-0.842,0.842C496.484,242.141,496.162,241.816,496.162,241.299z"/>
			</g>
			<g>
				<path fill="#0074DD" d="M498.942,241.299c0-0.52,0.328-0.842,0.842-0.842c0.455,0,0.78,0.322,0.78,0.842
					c0,0.517-0.325,0.842-0.842,0.842C499.271,242.141,498.942,241.816,498.942,241.299z"/>
			</g>
			<g>
				<path fill="#0074DD" d="M501.793,241.299c0-0.52,0.325-0.842,0.84-0.842c0.455,0,0.779,0.322,0.779,0.842
					c0,0.517-0.324,0.842-0.842,0.842C502.118,242.141,501.793,241.816,501.793,241.299z"/>
			</g>
			<g>
				<path fill="#0074DD" d="M504.576,241.299c0-0.52,0.322-0.842,0.843-0.842c0.451,0,0.776,0.322,0.776,0.842
					c0,0.517-0.325,0.842-0.842,0.842C504.898,242.141,504.576,241.816,504.576,241.299z"/>
			</g>
			<g>
				<path fill="#0074DD" d="M507.425,241.299c0-0.52,0.321-0.842,0.842-0.842c0.452,0,0.777,0.322,0.777,0.842
					c0,0.517-0.325,0.842-0.843,0.842C507.746,242.141,507.425,241.816,507.425,241.299z"/>
			</g>
			<g>
				<path fill="#0074DD" d="M510.211,241.299c0-0.52,0.321-0.842,0.839-0.842c0.455,0,0.777,0.322,0.777,0.842
					c0,0.517-0.322,0.842-0.843,0.842C510.532,242.141,510.211,241.816,510.211,241.299z"/>
			</g>
			<g>
				<path fill="#0074DD" d="M513.059,241.299c0-0.52,0.322-0.842,0.842-0.842c0.452,0,0.774,0.322,0.774,0.842
					c0,0.517-0.322,0.842-0.842,0.842C513.381,242.141,513.059,241.816,513.059,241.299z"/>
			</g>
			<g>
				<path fill="#0074DD" d="M515.839,241.299c0-0.52,0.328-0.842,0.842-0.842c0.455,0,0.78,0.322,0.78,0.842
					c0,0.517-0.325,0.842-0.842,0.842C516.167,242.141,515.839,241.816,515.839,241.299z"/>
			</g>
		</g>
	</g>
	<g>
		<g>
			<g>
				<path fill="#0074DE" d="M187.236,243.11c0.519,0,0.842,0.325,0.842,0.842c0,0.452-0.324,0.777-0.842,0.777
					c-0.517,0-0.842-0.325-0.842-0.842C186.394,243.435,186.782,243.11,187.236,243.11z"/>
			</g>
			<g>
				<path fill="#0074DE" d="M187.236,245.958c0.519,0,0.842,0.325,0.842,0.842c0,0.455-0.324,0.777-0.842,0.777
					c-0.517,0-0.842-0.322-0.842-0.842C186.394,246.283,186.782,245.958,187.236,245.958z"/>
			</g>
			<g>
				<path fill="#0074DE" d="M187.236,248.744c0.519,0,0.842,0.322,0.842,0.839c0,0.455-0.324,0.777-0.842,0.777
					c-0.517,0-0.842-0.322-0.842-0.842C186.394,249.066,186.782,248.744,187.236,248.744z"/>
			</g>
			<g>
				<path fill="#0074DE" d="M187.236,251.592c0.519,0,0.842,0.322,0.842,0.839c0,0.455-0.324,0.777-0.842,0.777
					c-0.517,0-0.842-0.322-0.842-0.839C186.394,251.914,186.782,251.592,187.236,251.592z"/>
			</g>
			<g>
				<path fill="#0074DE" d="M187.236,254.375c0.519,0,0.842,0.322,0.842,0.842c0,0.452-0.324,0.777-0.842,0.777
					c-0.517,0-0.842-0.325-0.842-0.842C186.394,254.697,186.782,254.375,187.236,254.375z"/>
			</g>
			<g>
				<path fill="#0074DE" d="M187.236,257.158c0.519,0,0.842,0.325,0.842,0.842c0,0.452-0.324,0.777-0.842,0.777
					c-0.517,0-0.842-0.325-0.842-0.842C186.394,257.548,186.782,257.158,187.236,257.158z"/>
			</g>
			<g>
				<path fill="#0074DE" d="M187.236,260.006c0.519,0,0.842,0.325,0.842,0.842c0,0.452-0.324,0.776-0.842,0.776
					c-0.517,0-0.842-0.324-0.842-0.842C186.394,260.331,186.782,260.006,187.236,260.006z"/>
			</g>
			<g>
				<path fill="#0074DE" d="M187.236,262.789c0.519,0,0.842,0.325,0.842,0.843c0,0.455-0.324,0.776-0.842,0.776
					c-0.517,0-0.842-0.321-0.842-0.842C186.394,263.114,186.782,262.789,187.236,262.789z"/>
			</g>
			<g>
				<path fill="#0074DE" d="M187.236,265.638c0.519,0,0.842,0.325,0.842,0.842c0,0.455-0.324,0.777-0.842,0.777
					c-0.517,0-0.842-0.322-0.842-0.843C186.394,265.963,186.782,265.638,187.236,265.638z"/>
			</g>
			<g>
				<path fill="#0074DE" d="M187.236,268.424c0.519,0,0.842,0.321,0.842,0.842c0,0.452-0.324,0.773-0.842,0.773
					c-0.517,0-0.842-0.321-0.842-0.839C186.394,268.745,186.782,268.424,187.236,268.424z"/>
			</g>
			<g>
				<path fill="#0074DE" d="M187.236,271.271c0.519,0,0.842,0.322,0.842,0.842c0,0.452-0.324,0.777-0.842,0.777
					c-0.517,0-0.842-0.325-0.842-0.842C186.394,271.594,186.782,271.271,187.236,271.271z"/>
			</g>
			<g>
				<path fill="#0074DE" d="M187.236,274.055c0.519,0,0.842,0.325,0.842,0.842c0,0.452-0.324,0.777-0.842,0.777
					c-0.517,0-0.842-0.325-0.842-0.842C186.394,274.38,186.782,274.055,187.236,274.055z"/>
			</g>
			<g>
				<path fill="#0074DE" d="M187.236,276.902c0.519,0,0.842,0.325,0.842,0.843c0,0.451-0.324,0.776-0.842,0.776
					c-0.517,0-0.842-0.325-0.842-0.842C186.394,277.228,186.782,276.902,187.236,276.902z"/>
			</g>
			<g>
				<path fill="#0074DE" d="M187.236,279.686c0.519,0,0.842,0.325,0.842,0.842c0,0.455-0.324,0.777-0.842,0.777
					c-0.517,0-0.842-0.322-0.842-0.842C186.394,280.011,186.782,279.686,187.236,279.686z"/>
			</g>
			<g>
				<path fill="#0074DE" d="M187.236,282.534c0.519,0,0.842,0.325,0.842,0.842c0,0.455-0.324,0.777-0.842,0.777
					c-0.517,0-0.842-0.322-0.842-0.843C186.394,282.859,186.782,282.534,187.236,282.534z"/>
			</g>
			<g>
				<path fill="#0074DE" d="M187.236,285.32c0.519,0,0.842,0.321,0.842,0.842c0,0.452-0.324,0.773-0.842,0.773
					c-0.517,0-0.842-0.321-0.842-0.839C186.394,285.642,186.782,285.32,187.236,285.32z"/>
			</g>
			<g>
				<path fill="#0074DE" d="M187.236,288.168c0.519,0,0.842,0.322,0.842,0.842c0,0.452-0.324,0.777-0.842,0.777
					c-0.517,0-0.842-0.325-0.842-0.842C186.394,288.49,186.782,288.168,187.236,288.168z"/>
			</g>
			<g>
				<path fill="#0074DE" d="M187.236,290.951c0.519,0,0.842,0.325,0.842,0.842c0,0.452-0.324,0.777-0.842,0.777
					c-0.517,0-0.842-0.325-0.842-0.842C186.394,291.276,186.782,290.951,187.236,290.951z"/>
			</g>
			<g>
				<path fill="#0074DE" d="M187.236,293.799c0.519,0,0.842,0.325,0.842,0.843c0,0.451-0.324,0.776-0.842,0.776
					c-0.517,0-0.842-0.325-0.842-0.842C186.394,294.124,186.782,293.799,187.236,293.799z"/>
			</g>
			<g>
				<path fill="#0074DE" d="M187.236,296.582c0.519,0,0.842,0.325,0.842,0.842c0,0.455-0.324,0.777-0.842,0.777
					c-0.517,0-0.842-0.322-0.842-0.842C186.394,296.907,186.782,296.582,187.236,296.582z"/>
			</g>
			<g>
				<path fill="#0074DE" d="M187.236,299.431c0.519,0,0.842,0.324,0.842,0.842c0,0.455-0.324,0.776-0.842,0.776
					c-0.517,0-0.842-0.321-0.842-0.842C186.394,299.755,186.782,299.431,187.236,299.431z"/>
			</g>
			<g>
				<path fill="#0074DE" d="M187.236,302.217c0.519,0,0.842,0.321,0.842,0.839c0,0.455-0.324,0.776-0.842,0.776
					c-0.517,0-0.842-0.321-0.842-0.839C186.394,302.538,186.782,302.217,187.236,302.217z"/>
			</g>
			<g>
				<path fill="#0074DE" d="M187.236,305.064c0.519,0,0.842,0.322,0.842,0.842c0,0.452-0.324,0.777-0.842,0.777
					c-0.517,0-0.842-0.325-0.842-0.842C186.394,305.387,186.782,305.064,187.236,305.064z"/>
			</g>
			<g>
				<path fill="#0074DE" d="M187.236,307.848c0.519,0,0.842,0.325,0.842,0.842c0,0.452-0.324,0.777-0.842,0.777
					c-0.517,0-0.842-0.325-0.842-0.842C186.394,308.173,186.782,307.848,187.236,307.848z"/>
			</g>
			<g>
				<path fill="#0074DE" d="M187.236,310.695c0.519,0,0.842,0.325,0.842,0.843c0,0.451-0.324,0.776-0.842,0.776
					c-0.517,0-0.842-0.325-0.842-0.842C186.394,311.021,186.782,310.695,187.236,310.695z"/>
			</g>
			<g>
				<path fill="#0074DE" d="M187.236,313.479c0.519,0,0.842,0.325,0.842,0.842c0,0.455-0.324,0.777-0.842,0.777
					c-0.517,0-0.842-0.322-0.842-0.842C186.394,313.804,186.782,313.479,187.236,313.479z"/>
			</g>
			<g>
				<path fill="#0074DE" d="M187.236,316.327c0.519,0,0.842,0.324,0.842,0.842c0,0.455-0.324,0.776-0.842,0.776
					c-0.517,0-0.842-0.321-0.842-0.842C186.394,316.651,186.782,316.327,187.236,316.327z"/>
			</g>
			<g>
				<path fill="#0074DE" d="M187.236,319.113c0.519,0,0.842,0.321,0.842,0.839c0,0.455-0.324,0.776-0.842,0.776
					c-0.517,0-0.842-0.321-0.842-0.839C186.394,319.435,186.782,319.113,187.236,319.113z"/>
			</g>
			<g>
				<path fill="#0074DE" d="M187.236,321.961c0.519,0,0.842,0.322,0.842,0.842c0,0.452-0.324,0.777-0.842,0.777
					c-0.517,0-0.842-0.325-0.842-0.842C186.394,322.283,186.782,321.961,187.236,321.961z"/>
			</g>
			<g>
				<path fill="#0074DE" d="M187.236,324.744c0.519,0,0.842,0.321,0.842,0.842c0,0.452-0.324,0.777-0.842,0.777
					c-0.517,0-0.842-0.325-0.842-0.843C186.394,325.065,186.782,324.744,187.236,324.744z"/>
			</g>
			<g>
				<path fill="#0074DE" d="M187.236,327.592c0.519,0,0.842,0.325,0.842,0.842c0,0.452-0.324,0.777-0.842,0.777
					c-0.517,0-0.842-0.325-0.842-0.842C186.394,327.917,186.782,327.592,187.236,327.592z"/>
			</g>
			<g>
				<path fill="#0074DE" d="M187.236,330.375c0.519,0,0.842,0.325,0.842,0.842c0,0.452-0.324,0.777-0.842,0.777
					c-0.517,0-0.842-0.325-0.842-0.842C186.394,330.7,186.782,330.375,187.236,330.375z"/>
			</g>
			<g>
				<path fill="#0074DE" d="M187.236,333.223c0.519,0,0.842,0.325,0.842,0.843c0,0.455-0.324,0.776-0.842,0.776
					c-0.517,0-0.842-0.321-0.842-0.842C186.394,333.548,186.782,333.223,187.236,333.223z"/>
			</g>
			<g>
				<path fill="#0074DE" d="M187.236,336.009c0.519,0,0.842,0.322,0.842,0.84c0,0.455-0.324,0.776-0.842,0.776
					c-0.517,0-0.842-0.321-0.842-0.839C186.394,336.331,186.782,336.009,187.236,336.009z"/>
			</g>
			<g>
				<path fill="#0074DE" d="M187.236,338.857c0.519,0,0.842,0.322,0.842,0.842c0,0.452-0.324,0.774-0.842,0.774
					c-0.517,0-0.842-0.322-0.842-0.839C186.394,339.18,186.782,338.857,187.236,338.857z"/>
			</g>
			<g>
				<path fill="#0074DE" d="M187.236,341.641c0.519,0,0.842,0.321,0.842,0.842c0,0.452-0.324,0.777-0.842,0.777
					c-0.517,0-0.842-0.325-0.842-0.843C186.394,341.962,186.782,341.641,187.236,341.641z"/>
			</g>
			<g>
				<path fill="#0074DE" d="M187.236,344.488c0.519,0,0.842,0.325,0.842,0.842c0,0.452-0.324,0.777-0.842,0.777
					c-0.517,0-0.842-0.325-0.842-0.842C186.394,344.813,186.782,344.488,187.236,344.488z"/>
			</g>
			<g>
				<path fill="#0074DE" d="M187.236,347.271c0.519,0,0.842,0.325,0.842,0.842c0,0.452-0.324,0.777-0.842,0.777
					c-0.517,0-0.842-0.325-0.842-0.842C186.394,347.597,186.782,347.271,187.236,347.271z"/>
			</g>
		</g>
	</g>
	<g>
		<g>
			<g>
				<path fill="#0074DE" d="M516.749,243.11c0.517,0,0.842,0.325,0.842,0.842c0,0.452-0.325,0.777-0.842,0.777
					c-0.521,0-0.842-0.325-0.842-0.842C515.839,243.435,516.229,243.11,516.749,243.11z"/>
			</g>
			<g>
				<path fill="#0074DE" d="M516.749,245.958c0.517,0,0.842,0.325,0.842,0.842c0,0.455-0.325,0.777-0.842,0.777
					c-0.521,0-0.842-0.322-0.842-0.842C515.839,246.283,516.229,245.958,516.749,245.958z"/>
			</g>
			<g>
				<path fill="#0074DE" d="M516.749,248.744c0.517,0,0.842,0.322,0.842,0.839c0,0.455-0.325,0.777-0.842,0.777
					c-0.521,0-0.842-0.322-0.842-0.842C515.839,249.066,516.229,248.744,516.749,248.744z"/>
			</g>
			<g>
				<path fill="#0074DE" d="M516.749,251.592c0.517,0,0.842,0.322,0.842,0.839c0,0.455-0.325,0.777-0.842,0.777
					c-0.521,0-0.842-0.322-0.842-0.839C515.839,251.914,516.229,251.592,516.749,251.592z"/>
			</g>
			<g>
				<path fill="#0074DE" d="M516.749,254.375c0.517,0,0.842,0.322,0.842,0.842c0,0.452-0.325,0.777-0.842,0.777
					c-0.521,0-0.842-0.325-0.842-0.842C515.839,254.697,516.229,254.375,516.749,254.375z"/>
			</g>
			<g>
				<path fill="#0074DE" d="M516.749,257.158c0.517,0,0.842,0.325,0.842,0.842c0,0.452-0.325,0.777-0.842,0.777
					c-0.521,0-0.842-0.325-0.842-0.842C515.839,257.548,516.229,257.158,516.749,257.158z"/>
			</g>
			<g>
				<path fill="#0074DE" d="M516.749,260.006c0.517,0,0.842,0.325,0.842,0.842c0,0.452-0.325,0.776-0.842,0.776
					c-0.521,0-0.842-0.324-0.842-0.842C515.839,260.331,516.229,260.006,516.749,260.006z"/>
			</g>
			<g>
				<path fill="#0074DE" d="M516.749,262.789c0.517,0,0.842,0.325,0.842,0.843c0,0.455-0.325,0.776-0.842,0.776
					c-0.521,0-0.842-0.321-0.842-0.842C515.839,263.114,516.229,262.789,516.749,262.789z"/>
			</g>
			<g>
				<path fill="#0074DE" d="M516.749,265.638c0.517,0,0.842,0.325,0.842,0.842c0,0.455-0.325,0.777-0.842,0.777
					c-0.521,0-0.842-0.322-0.842-0.843C515.839,265.963,516.229,265.638,516.749,265.638z"/>
			</g>
			<g>
				<path fill="#0074DE" d="M516.749,268.424c0.517,0,0.842,0.321,0.842,0.842c0,0.452-0.325,0.773-0.842,0.773
					c-0.521,0-0.842-0.321-0.842-0.839C515.839,268.745,516.229,268.424,516.749,268.424z"/>
			</g>
			<g>
				<path fill="#0074DE" d="M516.749,271.271c0.517,0,0.842,0.322,0.842,0.842c0,0.452-0.325,0.777-0.842,0.777
					c-0.521,0-0.842-0.325-0.842-0.842C515.839,271.594,516.229,271.271,516.749,271.271z"/>
			</g>
			<g>
				<path fill="#0074DE" d="M516.749,274.055c0.517,0,0.842,0.325,0.842,0.842c0,0.452-0.325,0.777-0.842,0.777
					c-0.521,0-0.842-0.325-0.842-0.842C515.839,274.38,516.229,274.055,516.749,274.055z"/>
			</g>
			<g>
				<path fill="#0074DE" d="M516.749,276.902c0.517,0,0.842,0.325,0.842,0.843c0,0.451-0.325,0.776-0.842,0.776
					c-0.521,0-0.842-0.325-0.842-0.842C515.839,277.228,516.229,276.902,516.749,276.902z"/>
			</g>
			<g>
				<path fill="#0074DE" d="M516.749,279.686c0.517,0,0.842,0.325,0.842,0.842c0,0.455-0.325,0.777-0.842,0.777
					c-0.521,0-0.842-0.322-0.842-0.842C515.839,280.011,516.229,279.686,516.749,279.686z"/>
			</g>
			<g>
				<path fill="#0074DE" d="M516.749,282.534c0.517,0,0.842,0.325,0.842,0.842c0,0.455-0.325,0.777-0.842,0.777
					c-0.521,0-0.842-0.322-0.842-0.843C515.839,282.859,516.229,282.534,516.749,282.534z"/>
			</g>
			<g>
				<path fill="#0074DE" d="M516.749,285.32c0.517,0,0.842,0.321,0.842,0.842c0,0.452-0.325,0.773-0.842,0.773
					c-0.521,0-0.842-0.321-0.842-0.839C515.839,285.642,516.229,285.32,516.749,285.32z"/>
			</g>
			<g>
				<path fill="#0074DE" d="M516.749,288.168c0.517,0,0.842,0.322,0.842,0.842c0,0.452-0.325,0.777-0.842,0.777
					c-0.521,0-0.842-0.325-0.842-0.842C515.839,288.49,516.229,288.168,516.749,288.168z"/>
			</g>
			<g>
				<path fill="#0074DE" d="M516.749,290.951c0.517,0,0.842,0.325,0.842,0.842c0,0.452-0.325,0.777-0.842,0.777
					c-0.521,0-0.842-0.325-0.842-0.842C515.839,291.276,516.229,290.951,516.749,290.951z"/>
			</g>
			<g>
				<path fill="#0074DE" d="M516.749,293.799c0.517,0,0.842,0.325,0.842,0.843c0,0.451-0.325,0.776-0.842,0.776
					c-0.521,0-0.842-0.325-0.842-0.842C515.839,294.124,516.229,293.799,516.749,293.799z"/>
			</g>
			<g>
				<path fill="#0074DE" d="M516.749,296.582c0.517,0,0.842,0.325,0.842,0.842c0,0.455-0.325,0.777-0.842,0.777
					c-0.521,0-0.842-0.322-0.842-0.842C515.839,296.907,516.229,296.582,516.749,296.582z"/>
			</g>
			<g>
				<path fill="#0074DE" d="M516.749,299.431c0.517,0,0.842,0.324,0.842,0.842c0,0.455-0.325,0.776-0.842,0.776
					c-0.521,0-0.842-0.321-0.842-0.842C515.839,299.755,516.229,299.431,516.749,299.431z"/>
			</g>
			<g>
				<path fill="#0074DE" d="M516.749,302.217c0.517,0,0.842,0.321,0.842,0.839c0,0.455-0.325,0.776-0.842,0.776
					c-0.521,0-0.842-0.321-0.842-0.839C515.839,302.538,516.229,302.217,516.749,302.217z"/>
			</g>
			<g>
				<path fill="#0074DE" d="M516.749,305.064c0.517,0,0.842,0.322,0.842,0.842c0,0.452-0.325,0.777-0.842,0.777
					c-0.521,0-0.842-0.325-0.842-0.842C515.839,305.387,516.229,305.064,516.749,305.064z"/>
			</g>
			<g>
				<path fill="#0074DE" d="M516.749,307.848c0.517,0,0.842,0.325,0.842,0.842c0,0.452-0.325,0.777-0.842,0.777
					c-0.521,0-0.842-0.325-0.842-0.842C515.839,308.173,516.229,307.848,516.749,307.848z"/>
			</g>
			<g>
				<path fill="#0074DE" d="M516.749,310.695c0.517,0,0.842,0.325,0.842,0.843c0,0.451-0.325,0.776-0.842,0.776
					c-0.521,0-0.842-0.325-0.842-0.842C515.839,311.021,516.229,310.695,516.749,310.695z"/>
			</g>
			<g>
				<path fill="#0074DE" d="M516.749,313.479c0.517,0,0.842,0.325,0.842,0.842c0,0.455-0.325,0.777-0.842,0.777
					c-0.521,0-0.842-0.322-0.842-0.842C515.839,313.804,516.229,313.479,516.749,313.479z"/>
			</g>
			<g>
				<path fill="#0074DE" d="M516.749,316.327c0.517,0,0.842,0.324,0.842,0.842c0,0.455-0.325,0.776-0.842,0.776
					c-0.521,0-0.842-0.321-0.842-0.842C515.839,316.651,516.229,316.327,516.749,316.327z"/>
			</g>
			<g>
				<path fill="#0074DE" d="M516.749,319.113c0.517,0,0.842,0.321,0.842,0.839c0,0.455-0.325,0.776-0.842,0.776
					c-0.521,0-0.842-0.321-0.842-0.839C515.839,319.435,516.229,319.113,516.749,319.113z"/>
			</g>
			<g>
				<path fill="#0074DE" d="M516.749,321.961c0.517,0,0.842,0.322,0.842,0.842c0,0.452-0.325,0.777-0.842,0.777
					c-0.521,0-0.842-0.325-0.842-0.842C515.839,322.283,516.229,321.961,516.749,321.961z"/>
			</g>
			<g>
				<path fill="#0074DE" d="M516.749,324.744c0.517,0,0.842,0.321,0.842,0.842c0,0.452-0.325,0.777-0.842,0.777
					c-0.521,0-0.842-0.325-0.842-0.843C515.839,325.065,516.229,324.744,516.749,324.744z"/>
			</g>
			<g>
				<path fill="#0074DE" d="M516.749,327.592c0.517,0,0.842,0.325,0.842,0.842c0,0.452-0.325,0.777-0.842,0.777
					c-0.521,0-0.842-0.325-0.842-0.842C515.839,327.917,516.229,327.592,516.749,327.592z"/>
			</g>
			<g>
				<path fill="#0074DE" d="M516.749,330.375c0.517,0,0.842,0.325,0.842,0.842c0,0.452-0.325,0.777-0.842,0.777
					c-0.521,0-0.842-0.325-0.842-0.842C515.839,330.7,516.229,330.375,516.749,330.375z"/>
			</g>
			<g>
				<path fill="#0074DE" d="M516.749,333.223c0.517,0,0.842,0.325,0.842,0.843c0,0.455-0.325,0.776-0.842,0.776
					c-0.521,0-0.842-0.321-0.842-0.842C515.839,333.548,516.229,333.223,516.749,333.223z"/>
			</g>
			<g>
				<path fill="#0074DE" d="M516.749,336.009c0.517,0,0.842,0.322,0.842,0.84c0,0.455-0.325,0.776-0.842,0.776
					c-0.521,0-0.842-0.321-0.842-0.839C515.839,336.331,516.229,336.009,516.749,336.009z"/>
			</g>
			<g>
				<path fill="#0074DE" d="M516.749,338.857c0.517,0,0.842,0.322,0.842,0.842c0,0.452-0.325,0.774-0.842,0.774
					c-0.521,0-0.842-0.322-0.842-0.839C515.839,339.18,516.229,338.857,516.749,338.857z"/>
			</g>
			<g>
				<path fill="#0074DE" d="M516.749,341.641c0.517,0,0.842,0.321,0.842,0.842c0,0.452-0.325,0.777-0.842,0.777
					c-0.521,0-0.842-0.325-0.842-0.843C515.839,341.962,516.229,341.641,516.749,341.641z"/>
			</g>
			<g>
				<path fill="#0074DE" d="M516.749,344.488c0.517,0,0.842,0.325,0.842,0.842c0,0.452-0.325,0.777-0.842,0.777
					c-0.521,0-0.842-0.325-0.842-0.842C515.839,344.813,516.229,344.488,516.749,344.488z"/>
			</g>
			<g>
				<path fill="#0074DE" d="M516.749,347.271c0.517,0,0.842,0.325,0.842,0.842c0,0.452-0.325,0.777-0.842,0.777
					c-0.521,0-0.842-0.325-0.842-0.842C515.839,347.597,516.229,347.271,516.749,347.271z"/>
			</g>
		</g>
	</g>
	<g>
		<g>
			<g>
				<path fill="#0074DE" d="M356.264,243.24c0.517,0,0.842,0.325,0.842,0.842c0,0.452-0.325,0.777-0.842,0.777
					s-0.839-0.325-0.839-0.842C355.425,243.565,355.812,243.24,356.264,243.24z"/>
			</g>
			<g>
				<path fill="#0074DE" d="M356.264,246.088c0.517,0,0.842,0.325,0.842,0.842c0,0.452-0.325,0.777-0.842,0.777
					s-0.839-0.325-0.839-0.842C355.425,246.413,355.812,246.088,356.264,246.088z"/>
			</g>
			<g>
				<path fill="#0074DE" d="M356.264,248.871c0.517,0,0.842,0.325,0.842,0.842c0,0.455-0.325,0.777-0.842,0.777
					s-0.839-0.322-0.839-0.842C355.425,249.196,355.812,248.871,356.264,248.871z"/>
			</g>
			<g>
				<path fill="#0074DE" d="M356.264,251.719c0.517,0,0.842,0.325,0.842,0.842c0,0.455-0.325,0.777-0.842,0.777
					s-0.839-0.322-0.839-0.842C355.425,252.044,355.812,251.719,356.264,251.719z"/>
			</g>
			<g>
				<path fill="#0074DE" d="M356.264,254.505c0.517,0,0.842,0.322,0.842,0.842c0,0.452-0.325,0.774-0.842,0.774
					s-0.839-0.322-0.839-0.839C355.425,254.827,355.812,254.505,356.264,254.505z"/>
			</g>
			<g>
				<path fill="#0074DE" d="M356.264,257.353c0.517,0,0.842,0.322,0.842,0.842c0,0.452-0.325,0.777-0.842,0.777
					s-0.839-0.325-0.839-0.842C355.425,257.675,355.812,257.353,356.264,257.353z"/>
			</g>
			<g>
				<path fill="#0074DE" d="M356.264,260.137c0.517,0,0.842,0.324,0.842,0.842c0,0.452-0.325,0.777-0.842,0.777
					s-0.839-0.325-0.839-0.843C355.425,260.461,355.812,260.137,356.264,260.137z"/>
			</g>
			<g>
				<path fill="#0074DE" d="M356.264,262.984c0.517,0,0.842,0.325,0.842,0.842c0,0.452-0.325,0.777-0.842,0.777
					s-0.839-0.325-0.839-0.842C355.425,263.31,355.812,262.984,356.264,262.984z"/>
			</g>
			<g>
				<path fill="#0074DE" d="M356.264,265.768c0.517,0,0.842,0.325,0.842,0.842c0,0.455-0.325,0.777-0.842,0.777
					s-0.839-0.322-0.839-0.842C355.425,266.093,355.812,265.768,356.264,265.768z"/>
			</g>
			<g>
				<path fill="#0074DE" d="M356.264,268.615c0.517,0,0.842,0.325,0.842,0.842c0,0.455-0.325,0.777-0.842,0.777
					s-0.839-0.322-0.839-0.842C355.425,268.94,355.812,268.615,356.264,268.615z"/>
			</g>
			<g>
				<path fill="#0074DE" d="M356.264,271.401c0.517,0,0.842,0.322,0.842,0.839c0,0.455-0.325,0.777-0.842,0.777
					s-0.839-0.322-0.839-0.839C355.425,271.724,355.812,271.401,356.264,271.401z"/>
			</g>
			<g>
				<path fill="#0074DE" d="M356.264,274.25c0.517,0,0.842,0.321,0.842,0.842c0,0.452-0.325,0.777-0.842,0.777
					s-0.839-0.325-0.839-0.843C355.425,274.571,355.812,274.25,356.264,274.25z"/>
			</g>
		</g>
	</g>
	<g>
		<g>
			<path fill="#FFFFFF" d="M525.229,442.759H509.82c-3.56,0-6.408-2.913-6.408-6.408v-1.424c0-3.561,2.91-6.411,6.408-6.411h15.408
				c3.56,0,6.407,2.916,6.407,6.411v1.424C531.636,439.846,528.788,442.759,525.229,442.759z"/>
		</g>
		<g>
			<path fill="#EEF4FB" d="M572.81,426.77H459.323c-3.56,0-6.408-2.913-6.408-6.408v-73.347c0-3.563,2.916-6.411,6.408-6.411
				h113.551c3.561,0,6.408,2.913,6.408,6.411v73.282C579.282,423.856,576.369,426.77,572.81,426.77z"/>
		</g>
		<g>
			<path fill="#0070E2" d="M516.099,337.238c18.581,0,37.161,0,55.674,0c4.271,0,8.16,2.718,9.386,7.055
				c0.198,0.777,0.325,1.555,0.325,2.331c0,24.729,0,49.461,0,74.189c0,4.662-3.56,8.674-8.157,9.256
				c-0.452,0.065-0.842,0.065-1.294,0.065c-12.364,0-24.729,0-37.093,0c-0.13,0-0.325,0-0.452,0c-1.04,0.064-1.492,0.52-1.362,1.554
				c0.26,2.461,0.521,4.984,0.777,7.445c0.064,0.777,0.195,1.554,0.26,2.396c0.065,1.099-0.646,1.811-1.749,1.811
				c-10.033,0-20.135,0-30.165,0c-1.167,0-1.879-0.777-1.752-1.94c0.198-2.071,0.455-4.143,0.65-6.281
				c0.13-1.164,0.26-2.394,0.387-3.561c0.065-0.712-0.325-1.294-1.099-1.424c-0.195-0.065-0.452-0.065-0.712-0.065
				c-13.145,0-26.351,0-39.489,0c-4.015,0-8.092-2.718-9.259-7.315c-0.195-0.712-0.258-1.424-0.258-2.136c0-24.663,0-49.33,0-73.994
				c0-4.597,3.301-8.544,7.833-9.32c0.581-0.131,1.163-0.131,1.813-0.131C478.876,337.238,497.519,337.238,516.099,337.238z
				 M516.037,412.981c20.131,0,40.263,0,60.397,0c1.231,0,1.684-0.455,1.684-1.619c0-21.494,0-42.987,0-64.543
				c0-3.495-2.718-6.216-6.216-6.216c-37.158,0-74.384,0-111.539,0c-0.78,0-1.554,0.13-2.266,0.39
				c-2.461,0.777-4.016,3.17-4.016,5.892c0,21.49,0,42.919,0,64.412c0,0.195,0,0.388,0,0.582c0.065,0.582,0.387,0.907,0.969,1.037
				c0.261,0.065,0.521,0.065,0.78,0.065C475.897,412.981,495.968,412.981,516.037,412.981z M516.099,416.347
				c-20.005,0-39.94,0-59.945,0c-0.192,0-0.452,0-0.647,0c-1.037,0-1.424,0.451-1.488,1.488c0,0.843,0,1.749,0,2.592
				c0,3.625,2.656,6.343,6.346,6.343c37.155,0,74.316,0,111.409,0c0.325,0,0.649,0,1.037-0.065c2.591-0.387,4.467-2.136,5.114-4.662
				c0.324-1.358,0.194-2.718,0.194-4.142c0-1.103-0.452-1.554-1.619-1.554c-0.064,0-0.194,0-0.257,0
				C556.173,416.347,536.104,416.347,516.099,416.347z M517.201,439.976c3.882,0,7.702,0,11.587,0c1.167,0,1.685-0.582,1.554-1.749
				c-0.13-0.969-0.194-2.006-0.324-2.978c-0.131-1.359-0.322-2.719-0.452-4.077c-0.065-0.582-0.452-0.973-1.034-1.037
				c-0.198,0-0.455-0.065-0.712-0.065c-7.059,0-14.179,0-21.237,0c-0.191,0-0.451,0-0.646,0.065c-0.647,0.13-0.969,0.39-1.037,1.102
				c-0.062,0.452-0.127,0.843-0.127,1.294c-0.195,2.007-0.455,4.016-0.646,5.957c-0.065,0.842,0.321,1.294,1.163,1.424
				c0.195,0,0.391,0,0.521,0C509.626,439.976,513.381,439.976,517.201,439.976z"/>
		</g>
	</g>
	<g>
		<path fill="#EEF4FB" d="M522.962,476.422h-54.444c-1.746,0-3.238-1.424-3.238-3.235V394.4c0-1.749,1.424-3.238,3.238-3.238h54.444
			c1.749,0,3.235,1.425,3.235,3.238v78.786C526.197,474.998,524.711,476.422,522.962,476.422z"/>
	</g>
	<g>
		<g>
			<g>
				<path fill="#0070E2" d="M498.36,394.141h-1.486c-0.78,0-1.492,0.647-1.492,1.489s0.65,1.489,1.492,1.489h1.486
					c0.78,0,1.492-0.647,1.492-1.489S499.202,394.141,498.36,394.141z"/>
			</g>
			<g>
				<path fill="#0070E2" d="M521.863,389.738h-52.825c-3.108,0-5.696,2.592-5.696,5.762v2.978v67.069v5.891
					c0,3.173,2.522,5.762,5.696,5.762h52.825c3.107,0,5.696-2.589,5.696-5.762v-5.891v-67.069V395.5
					C527.56,392.33,525.033,389.738,521.863,389.738z M496.937,472.861c-1.616,0-2.91-1.294-2.91-2.913s1.294-2.913,2.91-2.913
					c1.622,0,2.916,1.294,2.916,2.913S498.559,472.861,496.937,472.861z M466.316,401.391h58.326v61.243h-58.326V401.391z
					 M466.316,471.503v-5.892h26.8c-1.226,1.1-2.006,2.653-2.006,4.402s0.78,3.3,2.006,4.402H469.1
					C467.546,474.351,466.316,473.057,466.316,471.503z M524.643,471.503c0,1.554-1.226,2.848-2.779,2.848h-21.106
					c1.231-1.099,2.006-2.653,2.006-4.402s-0.774-3.3-2.006-4.401h23.886V471.503L524.643,471.503z M466.316,398.478V395.5
					c0-1.551,1.229-2.849,2.783-2.849h52.825c1.554,0,2.786,1.298,2.786,2.849v2.978H466.316z"/>
			</g>
		</g>
	</g>
	<g>
		<g>
			<path fill="#D3E8FF" d="M626.993,516.817h17.157c0.26-3.946,2.136-10.55,10.163-16.961c-0.195,0.064-0.325,0.064-0.518,0.13
				c-7.444-17.219-29.521-34.827-58.329-31.396C614.178,468.72,627.318,494.742,626.993,516.817z"/>
		</g>
	</g>
	<g id="_x32_">
		<rect x="296.577" y="278.521" fill="#EEF4FB" width="119.635" height="202.819"/>
	</g>
	<g>
		<g>
			<path fill="#D3E8FF" d="M682.085,516.817l0.13-0.387c-2.656-8.804-9.838-15.473-18.643-16.961
				c3.752,4.724,4.077,11.974,4.465,17.348H682.085z"/>
		</g>
	</g>
	<g>
		<g>
			<path fill="#D3E8FF" d="M378.534,526.269h24.017c3.365-11.196,9.064-20.843,25.831-27.381c-0.257,0.064-0.518,0.127-0.777,0.191
				c-11.135-25.636-46.739-63.7-101.507-51.271c32.433,0.777,53.926,32.499,53.926,64.803
				C380.023,517.335,379.503,522.062,378.534,526.269z"/>
		</g>
	</g>
	<g>
		<g>
			<rect x="147.617" y="314.19" fill="#EEF4FB" width="70.369" height="121.644"/>
		</g>
		<g>
			<path fill="#0070E2" d="M217.986,437.385h-70.369c-0.842,0-1.554-0.712-1.554-1.551V314.19c0-0.842,0.712-1.554,1.554-1.554
				h70.369c0.842,0,1.554,0.712,1.554,1.554v121.644C219.54,436.673,218.828,437.385,217.986,437.385z M149.171,434.279h67.262
				V315.745h-67.262V434.279z"/>
		</g>
	</g>
	<g>
		<g>
			<rect x="156.875" y="314.19" fill="#B1D3E9" width="51.855" height="121.644"/>
		</g>
	</g>
	<g>
		<g>
			<path fill="#0070E2" d="M417.506,275.414H295.022c-0.84,0-1.552,0.712-1.552,1.554v184.047c0.905-0.518,2.006-0.843,3.042-0.843
				v-181.65h119.44v202.046c0,0.839,0.712,1.551,1.554,1.551c0.843,0,1.555-0.712,1.555-1.551v-203.6
				C419.061,276.126,418.349,275.414,417.506,275.414z"/>
		</g>
	</g>
	<g>
		<g>
			<rect x="306.028" y="293.994" fill="#EEF4FB" width="100.539" height="18.643"/>
		</g>
		<g>
			<path fill="#0070E2" d="M406.566,314.19H306.028c-0.84,0-1.552-0.712-1.552-1.554v-18.643c0-0.842,0.712-1.554,1.552-1.554
				h100.539c0.842,0,1.554,0.712,1.554,1.554v18.643C408.12,313.479,407.408,314.19,406.566,314.19z M307.517,311.086h97.495
				v-15.603h-97.495V311.086z"/>
		</g>
	</g>
	<g>
		<g>
			<line fill="none" x1="318.457" y1="297.359" x2="318.457" y2="304.739"/>
		</g>
	</g>
	<g>
		<g>
			<line fill="none" x1="333.089" y1="297.359" x2="333.089" y2="304.739"/>
		</g>
	</g>
	<g>
		<g>
			<rect x="306.028" y="326.168" fill="#EEF4FB" width="100.539" height="18.646"/>
		</g>
		<g>
			<path fill="#0070E2" d="M406.566,346.364H306.028c-0.84,0-1.552-0.712-1.552-1.551v-18.646c0-0.842,0.712-1.554,1.552-1.554
				h100.539c0.842,0,1.554,0.712,1.554,1.554v18.646C408.12,345.652,407.408,346.364,406.566,346.364z M307.517,343.26h97.495
				v-15.603h-97.495V343.26z"/>
		</g>
	</g>
	<g>
		<g>
			<rect x="306.028" y="359.509" fill="#EEF4FB" width="100.539" height="18.643"/>
		</g>
		<g>
			<path fill="#0070E2" d="M406.566,379.641H306.028c-0.84,0-1.552-0.712-1.552-1.555v-18.642c0-0.843,0.712-1.555,1.552-1.555
				h100.539c0.842,0,1.554,0.712,1.554,1.555v18.642C408.12,378.993,407.408,379.641,406.566,379.641z M307.517,376.598h97.495
				v-15.6h-97.495V376.598z"/>
		</g>
	</g>
	<g>
		<g>
			<path fill="#0070E2" d="M406.566,406.248H306.028c-0.84,0-1.552-0.712-1.552-1.554c0-0.843,0.712-1.555,1.552-1.555h100.539
				c0.842,0,1.554,0.712,1.554,1.555C408.12,405.536,407.408,406.248,406.566,406.248z"/>
		</g>
	</g>
	<g>
		<g>
			<path fill="#EEF4FB" d="M387.855,404.694c0,3.56-2.848,6.408-6.408,6.408h-50.366c-3.56,0-6.408-2.849-6.408-6.408l0,0
				c0-3.561,2.848-6.408,6.408-6.408h50.366C385.008,398.351,387.855,401.199,387.855,404.694L387.855,404.694z"/>
		</g>
		<g>
			<path fill="#0070E2" d="M381.447,412.656h-50.366c-4.337,0-7.897-3.561-7.897-7.897s3.56-7.897,7.897-7.897h50.366
				c4.337,0,7.897,3.561,7.897,7.897C389.409,409.096,385.85,412.656,381.447,412.656z M331.082,399.901
				c-2.654,0-4.855,2.201-4.855,4.857c0,2.653,2.201,4.854,4.855,4.854h50.366c2.656,0,4.854-2.201,4.854-4.854
				c0-2.656-2.198-4.857-4.854-4.857H331.082z"/>
		</g>
	</g>
	<g>
		<g>
			<path fill="#0070E2" d="M406.566,426.704H306.028c-0.84,0-1.552-0.712-1.552-1.554s0.712-1.554,1.552-1.554h100.539
				c0.842,0,1.554,0.712,1.554,1.554S407.408,426.704,406.566,426.704z"/>
		</g>
	</g>
	<g>
		<g>
			<path fill="#EEF4FB" d="M387.855,425.216c0,3.56-2.848,6.408-6.408,6.408h-50.366c-3.56,0-6.408-2.849-6.408-6.408l0,0
				c0-3.561,2.848-6.408,6.408-6.408h50.366C385.008,418.808,387.855,421.655,387.855,425.216L387.855,425.216z"/>
		</g>
		<g>
			<path fill="#0070E2" d="M381.447,433.112h-50.366c-4.337,0-7.897-3.56-7.897-7.896c0-4.338,3.56-7.897,7.897-7.897h50.366
				c4.337,0,7.897,3.56,7.897,7.897C389.409,429.553,385.85,433.112,381.447,433.112z M331.082,420.361
				c-2.654,0-4.855,2.201-4.855,4.854c0,2.652,2.201,4.854,4.855,4.854h50.366c2.656,0,4.854-2.201,4.854-4.854
				c0-2.653-2.198-4.854-4.854-4.854H331.082z"/>
		</g>
	</g>
	<g>
		<g>
			<rect x="128.326" y="392.717" fill="#EEF4FB" width="108.887" height="12.107"/>
		</g>
		<g>
			<path fill="#0070E2" d="M237.278,406.378H128.326c-0.842,0-1.554-0.712-1.554-1.554v-12.107c0-0.842,0.712-1.555,1.554-1.555
				h108.887c0.842,0,1.554,0.713,1.554,1.555v12.107C238.767,405.666,238.119,406.378,237.278,406.378z M129.88,403.27h105.779
				v-9.063H129.88V403.27z"/>
		</g>
	</g>
	<g>
		<g>
			<rect x="128.326" y="370.059" fill="#EEF4FB" width="108.887" height="12.107"/>
		</g>
		<g>
			<path fill="#0070E2" d="M237.278,383.721H128.326c-0.842,0-1.554-0.712-1.554-1.555v-12.107c0-0.842,0.712-1.554,1.554-1.554
				h108.887c0.842,0,1.554,0.712,1.554,1.554v12.107C238.767,383.009,238.119,383.721,237.278,383.721z M129.88,380.612h105.779
				v-9.064H129.88V380.612z"/>
		</g>
	</g>
	<g>
		<g>
			<rect x="128.326" y="347.401" fill="#EEF4FB" width="108.887" height="12.107"/>
		</g>
		<g>
			<path fill="#0070E2" d="M237.278,361.06H128.326c-0.842,0-1.554-0.712-1.554-1.551v-12.107c0-0.842,0.712-1.554,1.554-1.554
				h108.887c0.842,0,1.554,0.712,1.554,1.554v12.107C238.767,360.348,238.119,361.06,237.278,361.06z M129.88,357.955h105.779
				v-9.064H129.88V357.955z"/>
		</g>
	</g>
	<g>
		<g>
			<rect x="128.326" y="324.744" fill="#EEF4FB" width="108.887" height="12.104"/>
		</g>
		<g>
			<path fill="#0070E2" d="M237.278,338.402H128.326c-0.842,0-1.554-0.712-1.554-1.554v-12.104c0-0.842,0.712-1.555,1.554-1.555
				h108.887c0.842,0,1.554,0.713,1.554,1.555v12.104C238.767,337.69,238.119,338.402,237.278,338.402z M129.88,335.297h105.779
				v-9.063H129.88V335.297z"/>
		</g>
	</g>
	<g>
		<g>
			<path fill="#EEF4FB" d="M128.326,314.19c0.388-6.733,5.956-12.104,12.818-12.104h83.251c6.861,0,12.429,5.371,12.818,12.104
				H128.326z"/>
		</g>
		<g>
			<path fill="#0070E2" d="M237.278,315.745L237.278,315.745H128.326c-0.454,0-0.842-0.195-1.101-0.452
				c-0.324-0.325-0.454-0.712-0.389-1.167c0.454-7.638,6.731-13.594,14.372-13.594h83.251c7.574,0,13.854,5.892,14.372,13.467
				c0,0.062,0,0.127,0,0.191C238.767,315.032,238.119,315.745,237.278,315.745z M130.139,312.637h105.392
				c-1.037-5.18-5.633-9.062-11.07-9.062h-83.251C135.77,303.575,131.174,307.457,130.139,312.637z"/>
		</g>
	</g>
	<g>
		<g>
			<path fill="#0070E2" d="M156.098,232.04h-31.462c-0.842,0-1.554-0.517-1.813-1.359c-1.23-4.012-4.726-6.733-8.676-6.733
				c-0.775,0-1.552,0.13-2.264,0.325c-0.907,0.26-1.878-0.195-2.266-1.102c-3.949-9.061-12.883-14.953-22.788-14.953
				c-12.689,0-23.306,9.517-24.666,22.141c-0.13,0.969-0.905,1.681-1.877,1.681h-30.75c-1.036,0-1.877-0.842-1.877-1.876
				c0-1.037,0.842-1.879,1.877-1.879h29.002c2.331-13.724,14.177-23.822,28.226-23.822c10.875,0,20.78,6.148,25.635,15.859
				c0.583-0.065,1.101-0.13,1.684-0.13c5.178,0,9.84,3.238,11.846,8.092h30.103c1.036,0,1.877,0.842,1.877,1.879
				C157.91,231.198,157.133,232.04,156.098,232.04z"/>
		</g>
	</g>
	<g>
		<g>
			<path fill="#0070E2" d="M110.783,402.818H92.137c-0.841,0-1.553-0.521-1.813-1.362c-0.647-2.071-2.395-3.495-4.402-3.495
				c-0.389,0-0.777,0.064-1.166,0.13c-0.905,0.26-1.876-0.195-2.265-1.103c-2.201-5.113-7.251-8.414-12.818-8.414
				c-7.122,0-13.143,5.375-13.918,12.43c-0.13,0.972-0.907,1.684-1.878,1.684H40.284c-1.036,0-1.877-0.842-1.877-1.879
				c0-1.034,0.842-1.876,1.877-1.876H52.26c1.682-8.157,8.869-14.178,17.415-14.178c6.604,0,12.558,3.625,15.666,9.386
				c0.193,0,0.389,0,0.582,0c3.237,0,6.086,1.879,7.575,4.792h17.349c1.037,0,1.877,0.842,1.877,1.876
				C112.724,401.846,111.818,402.818,110.783,402.818z"/>
		</g>
	</g>
	<g>
		<g>
			<g>
				<path fill="#0070E2" d="M255.792,205.045h-43.114c-1.036,0-1.877-0.842-1.877-1.876v-0.065c0-11.782-9.582-21.364-21.364-21.364
					c-0.065,0-0.128,0-0.193,0h-0.195c-0.517,0-1.035-0.195-1.424-0.582c-5.244-5.569-12.299-8.612-19.875-8.612
					c-10.81,0-20.65,6.412-24.989,16.314c-0.323,0.777-1.164,1.229-2.006,1.102c-0.777-0.13-1.489-0.13-2.201-0.13
					c-7.833,0-14.63,5.826-15.731,13.593c-0.13,0.907-0.972,1.619-1.877,1.619h-10.163c-1.037,0-1.878-0.842-1.878-1.876
					c0-1.037,0.841-1.879,1.878-1.879h8.609c2.071-8.805,10.035-15.212,19.228-15.212c0.452,0,0.906,0,1.359,0.065
					c5.244-10.553,16.054-17.287,27.901-17.287c8.416,0,16.185,3.238,22.076,9.194c13.076,0.195,23.758,10.423,24.665,23.305h41.302
					c1.035,0,1.877,0.842,1.877,1.879C257.67,204.203,256.828,205.045,255.792,205.045z"/>
			</g>
		</g>
	</g>
	<g>
		<g>
			<path fill="#0070E2" d="M64.754,460.433c-1.166,0-2.136-0.973-2.136-2.137c0-11.135,9.517-25.184,9.905-25.766
				c0.647-0.972,2.006-1.229,2.978-0.582c0.971,0.647,1.229,2.007,0.582,2.979l0,0c-0.065,0.13-9.192,13.528-9.192,23.305
				C66.89,459.46,65.984,460.433,64.754,460.433z"/>
		</g>
	</g>
	<g>
		<g>
			<path fill="#0070E2" d="M32.969,402.818h-21.04c-1.036,0-1.878-0.843-1.878-1.88s0.842-1.876,1.878-1.876h21.04
				c1.035,0,1.877,0.839,1.877,1.876S34.004,402.818,32.969,402.818z"/>
		</g>
	</g>
	<g>
		<g>
			<g>
				<path fill="#0070E2" d="M650.559,231.91H629.52c-0.842,0-1.619-0.582-1.813-1.359c-0.713-2.458-2.849-4.077-5.177-4.077
					c-0.455,0-0.91,0.065-1.362,0.195c-0.903,0.257-1.876-0.195-2.266-1.102c-2.526-5.826-8.284-9.646-14.63-9.646
					c-8.154,0-15.021,6.151-15.859,14.244c-0.131,0.972-0.907,1.746-1.941,1.746h-12.819c-1.037,0-1.941-0.839-1.941-1.941
					c0-1.034,0.843-1.941,1.941-1.941h11.135c1.814-9.194,9.903-15.927,19.423-15.927c7.377,0,14.11,4.08,17.54,10.553
					c0.261,0,0.521,0,0.78,0c3.622,0,6.795,2.136,8.35,5.439h19.744c1.037,0,1.941,0.842,1.941,1.941
					C652.502,231.071,651.592,231.91,650.559,231.91z"/>
			</g>
		</g>
	</g>
	<g>
		<g>
			<g>
				<path fill="#0070E2" d="M562.581,231.91h-26.218c-1.037,0-1.944-0.839-1.944-1.941c0-1.034,0.843-1.941,1.944-1.941h26.218
					c1.037,0,1.941,0.842,1.941,1.941C564.522,231.071,563.618,231.91,562.581,231.91z"/>
			</g>
		</g>
	</g>
	<g>
		<g>
			<g>
				<g>
					<path fill="#0070E2" d="M637.872,196.241h-15.28c-1.034,0-1.941-0.842-1.941-1.941v-0.065c0-12.238-9.972-22.206-22.205-22.206
						c-0.065,0-0.131,0-0.192,0h-0.198c-0.582,0-1.034-0.195-1.424-0.582c-5.437-5.761-12.816-8.935-20.714-8.935
						c-11.265,0-21.493,6.668-26.025,16.961c-0.322,0.777-1.164,1.229-2.006,1.099c-0.777-0.127-1.554-0.192-2.331-0.192
						c-8.157,0-15.213,6.083-16.38,14.175c-0.13,0.972-0.969,1.619-1.876,1.619h-20.326c-1.037,0-1.944-0.842-1.944-1.941
						c0-1.102,0.842-1.944,1.944-1.944h18.711c2.136-9.126,10.354-15.794,19.871-15.794c0.455,0,0.972,0,1.427,0.065
						c5.437-11.005,16.637-17.999,28.936-17.999c8.675,0,16.832,3.368,22.918,9.582c13.528,0.195,24.663,10.813,25.57,24.211h13.467
						c1.034,0,1.94,0.842,1.94,1.944C639.813,195.398,638.971,196.241,637.872,196.241z"/>
				</g>
			</g>
		</g>
		<g>
			<g>
				<g>
					<path fill="#0070E2" d="M603.042,184.914c-1.037,0-1.941-0.842-1.941-1.944c0-4.077-3.368-9.903-4.662-11.782
						c-0.582-0.907-0.39-2.071,0.518-2.653s2.071-0.39,2.652,0.517c0.198,0.325,5.375,7.897,5.375,13.983
						C604.983,184.071,604.141,184.914,603.042,184.914z"/>
				</g>
			</g>
		</g>
	</g>
	<g>
		<g>
			<g>
				<path fill="#0070E2" d="M496.549,196.241h-20.391c-1.037,0-1.944-0.842-1.944-1.941c0-1.102,0.842-1.944,1.944-1.944h20.391
					c1.037,0,1.941,0.842,1.941,1.944C498.49,195.398,497.648,196.241,496.549,196.241z"/>
			</g>
		</g>
	</g>
	<g>
		<g>
			<path fill="#0070E2" d="M694.258,456.678h-25.444c-0.839,0-1.551-0.518-1.811-1.359c-0.973-3.108-3.629-5.244-6.733-5.244
				c-0.585,0-1.167,0.064-1.749,0.26c-0.904,0.257-1.876-0.195-2.267-1.102c-3.107-7.251-10.228-11.909-18.125-11.909
				c-10.099,0-18.516,7.571-19.614,17.608c-0.13,0.969-0.907,1.681-1.879,1.681h-18.513c-1.037,0-1.879-0.842-1.879-1.876
				c0-1.037,0.842-1.879,1.879-1.879h16.896c2.006-11.136,11.652-19.29,23.175-19.29c8.869,0,16.961,4.984,20.908,12.816
				c0.39-0.064,0.78-0.064,1.167-0.064c4.272,0,8.092,2.591,9.841,6.538h24.147c1.033,0,1.876,0.842,1.876,1.879
				C696.134,455.771,695.356,456.678,694.258,456.678z"/>
		</g>
	</g>
	<g>
		<g>
			<path fill="#0070E2" d="M707.464,518.047h-25.571c-0.842,0-1.622-0.582-1.879-1.359c-2.783-9.061-10.615-15.147-19.549-15.147
				c-1.749,0-3.498,0.261-5.183,0.712c-0.904,0.261-1.938-0.194-2.328-1.102c-8.353-19.225-27.255-31.589-48.163-31.589
				c-26.867,0-49.333,20.132-52.182,46.805c-0.127,0.969-0.969,1.745-1.94,1.745H504.06c-1.099,0-1.941-0.839-1.941-1.94
				c0-1.099,0.843-1.941,1.941-1.941h44.928c1.812-13.079,8.154-25.118,18.061-33.987c10.358-9.387,23.825-14.565,37.806-14.565
				c21.948,0,41.822,12.689,51.079,32.499c1.489-0.325,3.04-0.455,4.532-0.455c10.228,0,19.224,6.603,22.853,16.509h24.208
				c1.103,0,1.944,0.843,1.944,1.941C709.404,517.208,708.498,518.047,707.464,518.047z"/>
		</g>
	</g>
	<g>
		<g>
			<g>
				<path fill="#0070E2" d="M644.667,416.863h-16.441c-0.842-6.538-6.281-11.587-12.949-11.845
					c-3.105-3.043-7.186-4.727-11.587-4.727c-6.148,0-11.783,3.43-14.695,8.804c-4.92-0.13-9.26,3.174-10.615,7.768h-0.325
					c0.194,0.585,0.257,1.232,0.325,1.944c0,0.452-0.068,0.969-0.131,1.424v0.065c0,0,0,0,0,0.064h1.555
					c0.842,0,1.615-0.65,1.746-1.489c0.52-3.563,3.625-6.281,7.25-6.281c0.325,0,0.65,0,1.037,0.065
					c0.776,0.13,1.489-0.322,1.811-1.034c2.137-4.792,6.863-7.835,12.043-7.835c3.689,0,7.058,1.489,9.581,4.145
					c0.325,0.388,0.842,0.582,1.294,0.518h0.064h0.065c5.569,0,10.099,4.532,10.099,10.098l0,0c0,0.973,0.776,1.75,1.749,1.75h18.06
					c0.973,0,1.75-0.777,1.75-1.75C646.416,417.641,645.639,416.863,644.667,416.863z"/>
			</g>
		</g>
	</g>
	<g>
		<g>
			<path fill="#0070E2" d="M671.535,420.361h-12.95c-0.969,0-1.749-0.777-1.749-1.749s0.78-1.749,1.749-1.749h12.95
				c0.969,0,1.746,0.777,1.746,1.749S672.504,420.361,671.535,420.361z"/>
		</g>
	</g>
	<g>
		<g>
			<path fill="#EEF4FB" d="M140.237,435.834c2.266,2.783,4.144,5.888,5.633,9.256c1.166-0.13,2.331-0.26,3.495-0.26
				c4.402,0,8.546,1.167,12.171,3.108h62.86c6.861,0,12.429-5.375,12.818-12.104H140.237z"/>
		</g>
		<g>
			<path fill="#0070E2" d="M224.396,449.492h-62.86c-0.258,0-0.517-0.065-0.777-0.195c-3.495-1.94-7.444-2.913-11.457-2.913
				c-1.101,0-2.201,0.065-3.302,0.261c-0.713,0.064-1.361-0.261-1.619-0.907c-1.424-3.174-3.236-6.151-5.438-8.935
				c-0.389-0.452-0.454-1.099-0.195-1.619c0.26-0.517,0.777-0.904,1.361-0.904h97.04c0.453,0,0.842,0.192,1.1,0.452
				c0.324,0.325,0.454,0.712,0.389,1.164C238.379,443.536,232.034,449.492,224.396,449.492z M161.989,446.384h62.472
				c5.438,0,10.033-3.885,11.07-9.064h-92.186c1.359,1.944,2.525,3.95,3.495,6.021c0.842-0.064,1.749-0.13,2.59-0.13
				C153.767,443.276,158.105,444.378,161.989,446.384z"/>
		</g>
	</g>
	<g>
		<g>
			<path fill="#EEF4FB" d="M128.326,415.374v10.358c0.97,0.585,1.941,1.167,2.848,1.814h106.04v-12.107H128.326V415.374z"/>
		</g>
		<g>
			<path fill="#0070E2" d="M237.278,429.035H131.239c-0.324,0-0.583-0.064-0.842-0.26c-0.905-0.646-1.877-1.229-2.783-1.746
				c-0.453-0.26-0.777-0.776-0.777-1.362V415.31c0-0.839,0.712-1.552,1.554-1.552h108.887c0.84,0,1.554,0.713,1.554,1.552v12.107
				C238.767,428.389,238.119,429.035,237.278,429.035z M131.692,425.992h104.032v-9.063H129.88v7.899
				C130.462,425.216,131.109,425.541,131.692,425.992z"/>
		</g>
	</g>
	<g>
		<g>
			<path fill="#0070E2" d="M410.386,511.057c-0.585,0-1.102-0.195-1.554-0.646c-0.842-0.843-0.842-2.201,0-3.044
				c4.984-4.919,11.2-8.544,17.931-10.488c1.164-0.321,2.331,0.325,2.718,1.489c0.325,1.167-0.322,2.331-1.486,2.722
				c-6.023,1.745-11.59,4.983-16.122,9.451C411.485,510.861,410.9,511.057,410.386,511.057z"/>
		</g>
	</g>
	<g>
		<g>
			<path fill="#D3E8FF" d="M134.669,475.453c1.296-13.08,11.07-23.63,23.695-26.156c-0.065-1.099-0.065-2.201-0.065-3.3
				c-6.927-13.918-23.888-29.391-51.078-27.58c14.437,13.015,23.5,31.853,23.5,52.761c0,1.424-0.065,2.848-0.128,4.275H134.669z"/>
		</g>
	</g>
	<g>
		<g>
			<path fill="#D3E8FF" d="M164.644,447.161c7.185,7.38,11.717,17.349,12.105,28.354h17.932l0.065-0.777
				C193.062,462.764,181.733,449.492,164.644,447.161z"/>
		</g>
	</g>
	<g>
		<g>
			<path fill="#0070E2" d="M228.279,476.617h-33.468c-0.972,0-1.749-0.713-1.877-1.619c-2.073-14.371-14.63-25.246-29.197-25.246
				c-1.359,0-2.718,0.127-4.142,0.322c-0.842,0.13-1.684-0.322-2.007-1.099c-7.962-17.999-25.831-29.651-45.445-29.651
				c-13.854,0-26.671,5.566-36.189,15.668c-0.387,0.387-0.905,0.646-1.487,0.582H74.27c-0.13,0-0.258,0-0.388,0
				c-21.557,0-39.101,17.543-39.101,39.102v0.065c0,1.033-0.842,1.94-1.943,1.94H2.412c-1.035,0-1.942-0.842-1.942-1.94
				c0-1.103,0.842-1.944,1.942-1.944h28.42c0.971-22.788,19.81-41.108,42.791-41.173c4.855-4.984,10.487-8.935,16.767-11.718
				c6.798-3.043,14.113-4.532,21.622-4.532c20.716,0,39.554,11.978,48.423,30.623c1.101-0.13,2.136-0.13,3.237-0.13
				c8.092,0,15.861,2.913,21.947,8.222c5.566,4.854,9.386,11.458,10.81,18.708h31.85c1.036,0,1.943,0.842,1.943,1.944
				C230.222,475.84,229.314,476.617,228.279,476.617z"/>
		</g>
	</g>
	<g>
		<g>
			<path fill="#0070E2" d="M263.756,476.617h-20.198c-1.037,0-1.943-0.843-1.943-1.941c0-1.103,0.842-1.944,1.943-1.944h20.198
				c1.036,0,1.941,0.842,1.941,1.944C265.697,475.774,264.792,476.617,263.756,476.617z"/>
		</g>
	</g>
	<g>
		<g>
			<path fill="#0070E2" d="M405.399,447.096H304.864c-0.842,0-1.554-0.712-1.554-1.554s0.712-1.554,1.554-1.554h100.536
				c0.842,0,1.554,0.712,1.554,1.554C406.953,446.449,406.306,447.096,405.399,447.096z"/>
		</g>
	</g>
	<g>
		<g>
			<path fill="#EEF4FB" d="M380.346,439.199h-50.365c-3.56,0-6.408,2.848-6.408,6.408c0,0.194,0,0.39,0,0.582
				c0.259-0.127,0.582-0.192,0.906-0.322c8.416-2.071,17.35,0.387,25.894,0.842c4.079,0.192,8.222,0.192,12.302,0.582
				c2.653,0.26,5.244,1.037,7.832,1.489c1.555,0.064,3.108,0.321,4.725,0.582c1.813,0.26,2.978,1.294,3.56,2.653h1.555
				c3.498,0,6.408-2.849,6.408-6.408C386.754,442.047,383.844,439.199,380.346,439.199z"/>
		</g>
		<g>
			<path fill="#0070E2" d="M380.346,437.645h-50.365c-4.337,0-7.897,3.561-7.897,7.897c0,0.521,0.063,0.972,0.128,1.424
				c0.583-0.517,1.36-0.969,2.331-1.164c0.193-0.064,0.389-0.064,0.582-0.13c0-0.064,0-0.064,0-0.13
				c0-2.653,2.201-4.854,4.855-4.854h50.365c2.655,0,4.856,2.201,4.856,4.854c0,2.656-2.201,4.857-4.856,4.857h-2.653
				c0.907,0.776,1.424,1.876,1.619,3.043h1.102c4.334,0,7.895-3.563,7.895-7.9S384.686,437.645,380.346,437.645z"/>
		</g>
	</g>
	<g>
		<g>
			<path fill="#D3E8FF" d="M472.338,526.269l0.321-0.969c-4.203-13.918-18.707-25.184-32.69-27.579
				c7.12,7.444,11.522,17.738,11.652,28.548H472.338z"/>
		</g>
	</g>
	<g>
		<g>
			<path fill="#0070E2" d="M579.091,527.306H472.659c-0.842,0-1.554-0.582-1.811-1.358c-4.728-15.603-18.32-26.091-33.793-26.091
				c-3.043,0-6.021,0.39-8.931,1.232c-0.91,0.257-1.88-0.195-2.267-1.103c-14.048-32.434-45.965-53.342-81.247-53.342
				c-45.315,0-83.187,33.984-88.042,78.978c-0.128,0.972-0.906,1.684-1.877,1.684h-77.554c-1.036,0-1.942-0.842-1.942-1.94
				c0-1.037,0.842-1.944,1.942-1.944h75.807c2.783-21.881,13.271-42.015,29.714-56.837c17.027-15.343,38.972-23.825,61.953-23.825
				c36.316,0,69.14,21.233,84.096,54.185c2.718-0.647,5.501-0.907,8.349-0.907c8.479,0,16.64,2.852,23.435,8.157
				c6.281,4.922,10.943,11.591,13.594,19.293h105.007c1.033,0,1.94,0.842,1.94,1.94
				C580.967,526.399,580.124,527.306,579.091,527.306z"/>
		</g>
	</g>
</g>
</svg>
