<?xml version="1.0" encoding="utf-8"?>
<!-- Generator: Adobe Illustrator 16.0.3, SVG Export Plug-In . SVG Version: 6.00 Build 0)  -->
<!DOCTYPE svg PUBLIC "-//W3C//DTD SVG 1.1//EN" "http://www.w3.org/Graphics/SVG/1.1/DTD/svg11.dtd">
<svg version="1.1" id="Layer_1" xmlns="http://www.w3.org/2000/svg" xmlns:xlink="http://www.w3.org/1999/xlink" x="0px" y="0px"
	 width="116px" height="64px" viewBox="0 0 116 64" enable-background="new 0 0 116 64" xml:space="preserve">
<g>
	<g>
		<g>
			<path fill="#385DAA" d="M103.676,16.62c-1.428-2.275-3.535-4.186-6.096-5.506c-2.492-1.3-5.324-1.971-8.201-1.971l0,0
				c-3.24,0-6.389,0.853-9.084,2.458c-0.387,0.224-0.635,0.569-0.727,0.976c-0.09,0.406,0,0.813,0.25,1.138
				c0.316,0.427,0.838,0.691,1.428,0.691c0.34,0,0.656-0.082,0.928-0.264c2.152-1.28,4.645-1.951,7.229-1.951
				c2.266,0,4.531,0.549,6.502,1.564c4.01,2.072,6.525,5.953,6.525,10.139c0,2.031-0.611,4.043-1.744,5.831
				c-2.313,3.596-6.639,5.852-11.307,5.852c-2.266,0-4.508-0.549-6.502-1.564c-4.033-2.093-6.525-5.974-6.525-10.159
				c0-2.032,0.611-4.043,1.744-5.831l0,0c0.477-0.731,0.182-1.666-0.611-2.072c-0.248-0.142-0.543-0.203-0.861-0.203
				c-0.611,0-1.154,0.284-1.473,0.752l0,0c-1.449,2.235-2.197,4.774-2.197,7.354c0,2.54,0.748,5.059,2.131,7.274
				c1.426,2.276,3.533,4.185,6.094,5.506c2.492,1.3,5.324,1.971,8.201,1.971l0,0c2.832,0,5.643-0.671,8.111-1.91
				c2.537-1.28,4.668-3.17,6.141-5.445c1.449-2.235,2.197-4.774,2.197-7.354C105.805,21.354,105.08,18.834,103.676,16.62z"/>
		</g>
	</g>
	<g>
		<g>
			<path fill="#385DAA" d="M89.379,0C74.697,0,62.758,10.708,62.758,23.873v2.54h-3.512c-0.588-4.104-3.579-7.538-7.657-9.163
				c0.113,1.057-0.068,2.154-0.453,3.21c2.9,1.483,4.848,4.287,4.848,7.477V44.19c0,4.754-4.327,8.635-9.629,8.635H13.05
				c-5.324,0-9.651-3.881-9.651-8.635V27.937c0-2.905,1.608-5.486,4.078-7.05c-0.521-0.935-0.929-1.93-1.155-2.966
				C2.538,19.972,0,23.69,0,27.937V44.19c0,6.44,5.845,11.683,13.027,11.683h33.305c6.616,0,12.076-4.43,12.914-10.159h3.512v10.667
				c0,4.206,3.807,7.619,8.496,7.619h36.25c4.689,0,8.496-3.413,8.496-7.619V23.873C116,10.708,104.061,0,89.379,0z M62.758,42.667
				h-3.398V29.46h3.398V42.667z M112.602,56.381c0,2.52-2.287,4.571-5.098,4.571h-36.25c-2.809,0-5.098-2.052-5.098-4.571V23.873
				c0-11.479,10.422-20.825,23.223-20.825s23.223,9.346,23.223,20.825V56.381z"/>
		</g>
	</g>
	<g>
		<g>
			<ellipse fill="#385DAA" cx="75.785" cy="49.473" rx="1.699" ry="1.524"/>
		</g>
	</g>
	<g>
		<g>
			<ellipse fill="#385DAA" cx="84.848" cy="49.473" rx="1.699" ry="1.524"/>
		</g>
	</g>
	<g>
		<g>
			<ellipse fill="#385DAA" cx="93.91" cy="49.473" rx="1.699" ry="1.524"/>
		</g>
	</g>
	<g>
		<g>
			<ellipse fill="#385DAA" cx="102.973" cy="49.473" rx="1.699" ry="1.524"/>
		</g>
	</g>
	<g>
		<g>
			<ellipse fill="#385DAA" cx="80.316" cy="53.537" rx="1.699" ry="1.524"/>
		</g>
	</g>
	<g>
		<g>
			<ellipse fill="#385DAA" cx="89.379" cy="53.537" rx="1.699" ry="1.524"/>
		</g>
	</g>
	<g>
		<g>
			<ellipse fill="#385DAA" cx="98.441" cy="53.537" rx="1.699" ry="1.524"/>
		</g>
	</g>
	<g>
		<g>
			<ellipse fill="#385DAA" cx="80.316" cy="45.41" rx="1.699" ry="1.524"/>
		</g>
	</g>
	<g>
		<g>
			<ellipse fill="#385DAA" cx="89.379" cy="45.41" rx="1.699" ry="1.524"/>
		</g>
	</g>
	<g>
		<g>
			<ellipse fill="#385DAA" cx="98.441" cy="45.41" rx="1.699" ry="1.524"/>
		</g>
	</g>
	<g>
		<g>
			<path fill="#385DAA" d="M12.416,29.867c-0.612-0.528-1.246-1.057-1.745-1.666c-0.113-0.142-0.249-0.406-0.408-0.65
				c-0.022,0.122-0.045,0.264-0.045,0.407V39.7c0,0.833,0.771,1.524,1.699,1.524c0.929,0,1.699-0.691,1.699-1.524v-8.878
				C13.187,30.517,12.801,30.192,12.416,29.867z"/>
			<path fill="#385DAA" d="M48.326,26.148c-0.022-0.02-0.022-0.02-0.045-0.041c-0.634,1.138-1.473,2.194-2.515,3.027v14.568H13.028
				c-0.929,0-1.699,0.69-1.699,1.523s0.771,1.523,1.699,1.523l0,0h33.305c0.748,0,1.473-0.264,1.994-0.751
				c0.544-0.488,0.838-1.118,0.838-1.788V27.957C49.165,27.266,48.87,26.616,48.326,26.148z"/>
		</g>
	</g>
	<g id="Слой_2">
		<g>
			<path fill="#385DAA" d="M32.83,14.649l-5.664,5.059l-1.971-1.788c-0.363-0.325-0.974-0.325-1.337,0
				c-0.362,0.325-0.362,0.874,0,1.199l2.651,2.397c0.181,0.163,0.431,0.244,0.68,0.244s0.476-0.081,0.657-0.244l6.344-5.648
				c0.362-0.325,0.362-0.874,0-1.199C33.804,14.324,33.192,14.324,32.83,14.649z"/>
			<path fill="#385DAA" d="M45.313,20.439V7.7c0-0.345-0.227-0.65-0.589-0.792l-15.361-5.75c-0.227-0.082-0.498-0.082-0.725,0
				l-15.361,5.75C12.915,7.03,12.688,7.355,12.688,7.7v12.739c0,8.066,7.318,14.629,16.313,14.629S45.313,28.505,45.313,20.439z
				 M29,33.361c-7.952,0-14.409-5.791-14.409-12.922V8.269L29,2.885L43.41,8.269v12.17C43.41,27.571,36.953,33.361,29,33.361z"/>
		</g>
	</g>
</g>
</svg>
