<?xml version="1.0" encoding="utf-8"?>
<!-- Generator: Adobe Illustrator 16.0.3, SVG Export Plug-In . SVG Version: 6.00 Build 0)  -->
<!DOCTYPE svg PUBLIC "-//W3C//DTD SVG 1.1//EN" "http://www.w3.org/Graphics/SVG/1.1/DTD/svg11.dtd">
<svg version="1.1" id="Layer_1" xmlns="http://www.w3.org/2000/svg" xmlns:xlink="http://www.w3.org/1999/xlink" x="0px" y="0px"
	 width="490px" height="100px" viewBox="0 0 490 100" enable-background="new 0 0 490 100" xml:space="preserve">
<g>
	<g>
		<g>
			<g>
				<path fill="#C8C7C7" d="M63.857,23.421h-58.8c-2.87,0-5.166,2.336-5.166,5.155v37.357v5.153c0,2.864,2.339,5.155,5.166,5.155
					h20.571c0.177,2.025-0.706,4.008-2.34,5.153l-2.075,1.454c-0.132,0.088-0.264,0.22-0.353,0.308
					c-1.457,0.132-2.561,1.366-2.561,2.864c0,1.587,1.28,2.861,2.87,2.861h26.486c1.589,0,2.87-1.274,2.87-2.861
					c0-1.498-1.148-2.688-2.561-2.864c-0.088-0.132-0.221-0.22-0.309-0.308l-2.074-1.454c-1.633-1.146-2.516-3.128-2.339-5.153
					h20.571c2.869,0,5.165-2.336,5.165-5.155v-5.153V28.577C69.023,25.713,66.682,23.421,63.857,23.421z M2.188,28.577
					c0-1.587,1.28-2.864,2.87-2.864h58.756c1.589,0,2.869,1.277,2.869,2.864v35.066H2.188V28.577z M47.701,86.639H21.214
					c-0.309,0-0.574-0.266-0.574-0.573c0-0.309,0.265-0.573,0.574-0.573h0.839h24.81h0.839c0.309,0,0.573,0.265,0.573,0.573
					C48.274,86.373,48.01,86.639,47.701,86.639z M40.947,76.285c-0.132,2.688,1.015,5.33,3.134,6.916H24.79
					c2.119-1.586,3.311-4.229,3.135-6.916H40.947z M66.727,71.132c0,1.585-1.28,2.862-2.87,2.862H43.772H25.187H5.058
					c-1.59,0-2.87-1.277-2.87-2.862v-5.155h64.539V71.132z"/>
				<path fill="#C8C7C7" d="M5.675,34.919c0.309,0,0.574-0.132,0.794-0.352l4.592-4.583c0.441-0.439,0.441-1.189,0-1.63
					c-0.442-0.44-1.193-0.44-1.634,0l-4.591,4.582c-0.441,0.44-0.441,1.189,0,1.63C5.058,34.788,5.367,34.919,5.675,34.919z"/>
				<path fill="#C8C7C7" d="M5.675,40.647c0.309,0,0.574-0.133,0.794-0.353l2.296-2.291c0.441-0.44,0.441-1.189,0-1.63
					c-0.442-0.44-1.191-0.44-1.634,0l-2.295,2.291c-0.441,0.441-0.441,1.189,0,1.63C5.058,40.559,5.367,40.647,5.675,40.647z"/>
				<path fill="#C8C7C7" d="M9.428,34.083c-0.221,0.22-0.354,0.528-0.354,0.836s0.132,0.618,0.354,0.837
					c0.221,0.22,0.486,0.353,0.838,0.353c0.31,0,0.619-0.133,0.839-0.353c0.221-0.22,0.354-0.529,0.354-0.837
					s-0.133-0.616-0.354-0.836C10.663,33.687,9.869,33.687,9.428,34.083z"/>
				<path fill="#C8C7C7" d="M11.768,33.422c0.22,0.22,0.529,0.352,0.794,0.352c0.309,0,0.574-0.132,0.794-0.352l3.443-3.437
					c0.441-0.439,0.441-1.189,0-1.63c-0.442-0.44-1.192-0.44-1.633,0l-3.444,3.437C11.282,32.233,11.282,32.981,11.768,33.422z"/>
				<path fill="#C8C7C7" d="M15.21,34.083L4.836,44.436c-0.441,0.44-0.441,1.189,0,1.629c0.221,0.221,0.53,0.353,0.795,0.353
					c0.264,0,0.573-0.132,0.794-0.353L16.8,35.712c0.441-0.44,0.441-1.189,0-1.629C16.403,33.642,15.652,33.642,15.21,34.083z"/>
				<path fill="#C8C7C7" d="M17.506,31.792c-0.22,0.22-0.354,0.485-0.354,0.837c0,0.352,0.133,0.616,0.354,0.836
					c0.221,0.221,0.486,0.353,0.839,0.353c0.309,0,0.618-0.131,0.838-0.353c0.222-0.22,0.354-0.484,0.354-0.836
					c0-0.353-0.132-0.617-0.354-0.837C18.698,31.351,17.948,31.351,17.506,31.792z"/>
				<path fill="#C8C7C7" d="M20.95,28.355l-1.148,1.146c-0.442,0.441-0.442,1.19,0,1.63c0.221,0.22,0.529,0.353,0.794,0.353
					s0.574-0.133,0.794-0.353l1.148-1.146c0.442-0.439,0.442-1.189,0-1.63C22.141,27.916,21.436,27.916,20.95,28.355z"/>
			</g>
		</g>
	</g>
	<g>
		<g>
			<g>
				<path fill="#C8C7C7" d="M484.729,22.409h-58.757c-2.869,0-5.164,2.335-5.164,5.154V64.92v5.154c0,2.863,2.338,5.154,5.164,5.154
					h20.571c0.177,2.026-0.707,4.008-2.339,5.153l-2.074,1.454c-0.134,0.088-0.266,0.221-0.354,0.308
					c-1.457,0.133-2.563,1.367-2.563,2.864c0,1.586,1.28,2.863,2.869,2.863h26.487c1.591,0,2.869-1.277,2.869-2.863
					c0-1.497-1.146-2.688-2.561-2.864c-0.087-0.132-0.221-0.22-0.309-0.308l-2.074-1.454c-1.634-1.146-2.516-3.127-2.341-5.153
					h20.573c2.869,0,5.163-2.335,5.163-5.154V64.92V27.563C489.893,24.744,487.554,22.409,484.729,22.409z M423.06,27.563
					c0-1.585,1.279-2.862,2.868-2.862h58.757c1.589,0,2.869,1.277,2.869,2.862v35.066h-64.539V27.563H423.06z M468.571,85.625
					h-26.487c-0.307,0-0.573-0.265-0.573-0.572c0-0.31,0.267-0.573,0.573-0.573h0.839h24.812h0.837c0.309,0,0.573,0.264,0.573,0.573
					C469.145,85.36,468.88,85.625,468.571,85.625z M461.818,75.316c-0.133,2.688,1.014,5.33,3.135,6.916h-19.291
					c2.117-1.586,3.31-4.229,3.133-6.916H461.818z M487.599,70.118c0,1.586-1.28,2.863-2.869,2.863h-20.087h-18.584h-20.086
					c-1.589,0-2.869-1.277-2.869-2.863v-5.154h64.539v5.154H487.599z"/>
				<path fill="#C8C7C7" d="M426.503,33.907c0.309,0,0.573-0.133,0.795-0.353l4.589-4.582c0.443-0.441,0.443-1.19,0-1.63
					c-0.44-0.441-1.19-0.441-1.631,0l-4.592,4.581c-0.443,0.441-0.443,1.19,0,1.63C425.928,33.774,426.239,33.907,426.503,33.907z"
					/>
				<path fill="#C8C7C7" d="M426.503,39.633c0.309,0,0.573-0.132,0.795-0.353l2.293-2.29c0.443-0.441,0.443-1.19,0-1.63
					c-0.438-0.441-1.19-0.441-1.631,0l-2.296,2.291c-0.443,0.44-0.443,1.189,0,1.629C425.928,39.545,426.239,39.633,426.503,39.633z
					"/>
				<path fill="#C8C7C7" d="M430.298,33.069c-0.221,0.22-0.354,0.529-0.354,0.837s0.133,0.616,0.354,0.836
					c0.222,0.221,0.486,0.353,0.84,0.353c0.309,0,0.617-0.131,0.839-0.353c0.222-0.22,0.354-0.528,0.354-0.836
					s-0.132-0.617-0.354-0.837C431.491,32.673,430.741,32.673,430.298,33.069z"/>
				<path fill="#C8C7C7" d="M432.639,32.408c0.22,0.221,0.53,0.353,0.795,0.353c0.309,0,0.574-0.132,0.794-0.353l3.443-3.436
					c0.441-0.441,0.441-1.19,0-1.63c-0.442-0.441-1.192-0.441-1.633,0l-3.444,3.437C432.153,31.219,432.153,31.969,432.639,32.408z"
					/>
				<path fill="#C8C7C7" d="M436.082,33.069l-10.375,10.353c-0.439,0.441-0.439,1.189,0,1.63c0.221,0.22,0.532,0.353,0.796,0.353
					c0.265,0,0.573-0.133,0.795-0.353L437.671,34.7c0.441-0.441,0.441-1.189,0-1.63C437.273,32.629,436.523,32.629,436.082,33.069z"
					/>
				<path fill="#C8C7C7" d="M438.378,30.779c-0.221,0.22-0.354,0.485-0.354,0.836c0,0.308,0.133,0.617,0.354,0.837
					c0.22,0.22,0.486,0.352,0.84,0.352c0.307,0,0.617-0.132,0.837-0.352c0.219-0.22,0.354-0.484,0.354-0.837
					c0-0.308-0.135-0.616-0.354-0.836C439.569,30.382,438.817,30.382,438.378,30.779z"/>
				<path fill="#C8C7C7" d="M441.82,27.343l-1.146,1.146c-0.442,0.44-0.442,1.189,0,1.63c0.22,0.22,0.528,0.352,0.793,0.352
					c0.266,0,0.574-0.132,0.796-0.352l1.146-1.146c0.442-0.441,0.442-1.19,0-1.63C443.013,26.902,442.306,26.902,441.82,27.343z"/>
			</g>
		</g>
	</g>
	<g>
		<g>
			<g>
				<path fill="#4162A9" d="M318.526,15.757L318.526,15.757L318.526,15.757v-4.361c0-5.903-4.856-10.704-10.772-10.704
					l-117.732,0.22c-2.87,0-5.563,1.146-7.594,3.172c-2.03,2.025-3.134,4.757-3.134,7.577v4.361l0,0l0,0l0.132,73.965
					c0,5.902,4.856,10.705,10.772,10.705l0,0l117.732-0.221c5.914,0,10.771-4.846,10.728-10.75L318.526,15.757z M307.886,96.417
					l-73.764,0.132c-0.839,0.354-1.722,0.529-2.738,0.572c-6.753,0.047-15.494,2.47-22.071,0.75
					c-0.883-0.219-1.766-0.661-2.561-1.234l-16.553,0.046v2.025v-2.025c-3.664,0-6.666-2.996-6.666-6.651l-0.133-71.94l26.399-0.043
					c0.397-0.088,0.838-0.177,1.236-0.177c0.75-0.22,1.457-0.308,2.118-0.264c0.31,0.044,0.619,0.044,0.928,0.044
					c0.617,0,1.236,0.088,1.854,0.264c3.267-0.352,6.622-0.22,9.845,0.176l75.486-0.132c1.148,0,2.029-0.925,2.029-2.026
					c0-1.146-0.924-2.026-2.029-2.026l0,0l-117.865,0.22v-2.29c0-1.763,0.707-3.437,1.942-4.714
					c1.281-1.277,2.958-1.983,4.724-1.983l117.778-0.22c3.663,0,6.666,2.996,6.666,6.652v2.291h-4.503
					c-1.149,0-2.031,0.925-2.031,2.027c0,1.145,0.927,2.025,2.031,2.025l0,0h4.503l0.132,71.938
					C314.597,93.423,311.596,96.417,307.886,96.417z"/>
			</g>
		</g>
		<rect x="204.943" y="96.549" fill="#4162A9" width="34.034" height="4.011"/>
		<rect x="195.54" y="15.625" fill="#4162A9" width="33.593" height="2.378"/>
	</g>
	<g>
		<path fill="#4162A9" d="M258.313,44.436c-0.22,0.705-0.352,1.542-0.662,2.29c-3.046,7.666-6.136,15.331-9.182,22.996
			c-0.707,1.807-2.119,2.688-4.019,2.775c-1.764,0.044-3.22-0.706-4.059-2.335c-0.707-1.365-0.53-2.775,0-4.141
			c1.543-3.877,3.088-7.754,4.679-11.63c1.501-3.79,3.045-7.533,4.547-11.366c0.749-1.938,2.163-2.863,4.105-3.084
			c1.764-0.22,3.84,1.277,4.238,2.996C258.093,43.378,258.181,43.863,258.313,44.436z M253.855,42.233
			c-1.017,0-1.679,0.484-2.122,1.542c-1.984,5.022-4.017,10.044-6.001,15.066c-1.104,2.774-2.253,5.55-3.356,8.326
			c-0.528,1.32,0,2.555,1.237,2.951c1.147,0.396,2.206-0.132,2.691-1.321c2.563-6.389,5.122-12.775,7.683-19.164
			c0.617-1.585,1.324-3.127,1.853-4.757C256.325,43.51,255.312,42.233,253.855,42.233z"/>
		<path fill="#4162A9" d="M267.892,56.33c-1.765-1.058-3.398-2.071-5.075-2.996c-1.988-1.102-3.002-3.304-2.208-5.595
			c0.398-1.146,1.19-1.938,2.296-2.379c1.501-0.616,3.001-0.484,4.37,0.353c3.663,2.203,7.283,4.405,10.991,6.564
			c1.502,0.881,2.473,2.07,2.604,3.788c0.088,1.542-0.397,2.907-1.723,3.788c-1.544,1.058-3.22,1.982-4.809,2.952
			c-2.428,1.454-4.858,2.907-7.286,4.361c-1.501,0.925-3.486,0.836-4.943-0.265c-1.501-1.146-1.986-2.643-1.633-4.494
			c0.219-1.145,0.794-2.025,1.808-2.643c1.679-1.058,3.356-2.027,5.035-3.084C267.451,56.639,267.626,56.506,267.892,56.33z
			 M272.35,56.33c-0.22,0.131-0.354,0.22-0.485,0.309c-2.735,1.629-5.429,3.215-8.166,4.889c-1.103,0.661-1.456,1.895-0.839,2.952
			c0.618,1.013,1.899,1.409,2.958,0.749c3.885-2.291,7.77-4.626,11.654-6.961c1.456-0.881,1.501-2.688,0.087-3.701
			c-0.528-0.352-1.059-0.659-1.589-0.969c-3.31-1.982-6.621-3.965-9.933-5.946c-1.19-0.705-2.56-0.396-3.178,0.616
			c-0.617,1.057-0.222,2.291,0.929,2.996c0.971,0.617,1.985,1.189,3.001,1.762C268.597,54.127,270.452,55.229,272.35,56.33z"/>
		<path fill="#4162A9" d="M229.972,56.373c0.883,0.529,1.677,0.97,2.428,1.454c1.148,0.704,2.296,1.366,3.399,2.114
			c1.325,0.926,1.853,2.291,1.721,3.789c-0.175,1.938-1.19,3.304-3.177,3.876c-1.325,0.396-2.56,0.177-3.708-0.528
			c-3.709-2.203-7.417-4.449-11.125-6.652c-1.722-1.012-2.648-2.51-2.428-4.537c0.132-1.541,1.015-2.643,2.296-3.436
			c3.796-2.291,7.548-4.582,11.389-6.829c2.208-1.277,5.033-0.661,6.268,1.63c1.016,1.85,0.53,4.316-1.192,5.507
			c-1.589,1.057-3.266,1.981-4.855,2.995C230.678,55.933,230.413,56.109,229.972,56.373z M225.469,56.373
			c0.485-0.308,0.884-0.527,1.325-0.793c2.472-1.453,4.944-2.906,7.372-4.405c0.883-0.528,1.236-1.321,1.06-2.334
			c-0.132-0.748-0.794-1.498-1.677-1.542c-0.574-0.043-1.28,0.088-1.766,0.396c-1.634,0.882-3.224,1.895-4.812,2.864
			c-2.119,1.277-4.282,2.555-6.401,3.877c-1.634,1.012-1.722,2.907-0.132,3.832c3.885,2.335,7.77,4.67,11.654,6.961
			c0.397,0.22,0.971,0.309,1.457,0.264c0.882-0.132,1.5-0.705,1.722-1.586c0.22-1.014-0.133-1.807-1.016-2.334
			c-1.5-0.926-3.045-1.807-4.547-2.731C228.295,58.004,226.926,57.211,225.469,56.373z"/>
	</g>
	<g>
		<g>
			<g>
				<path fill="#4162A9" d="M151.704,42.145L151.704,42.145L151.704,42.145v-1.366c0-1.895-1.544-3.437-3.443-3.437l-37.522,0.088
					c-0.927,0-1.766,0.353-2.428,1.014c-0.663,0.661-1.016,1.497-1.016,2.423v1.366l0,0l0,0l0.045,23.568
					c0,1.895,1.545,3.437,3.442,3.437l0,0l37.523-0.089c1.898,0,3.443-1.542,3.443-3.436L151.704,42.145z M148.305,67.871
					l-23.485,0.044c-0.265,0.088-0.529,0.177-0.883,0.177c-2.163,0-4.944,0.792-7.018,0.221c-0.265-0.088-0.574-0.221-0.839-0.397
					h-5.298v0.661v-0.661c-1.191,0-2.119-0.97-2.119-2.114l-0.044-22.907h8.432c0.132-0.044,0.265-0.044,0.397-0.044
					c0.221-0.088,0.486-0.088,0.663-0.088c0.088,0,0.177,0,0.309,0c0.221,0,0.397,0.045,0.574,0.088
					c1.015-0.132,2.119-0.088,3.134,0.044l24.06-0.044c0.353,0,0.661-0.308,0.661-0.661c0-0.352-0.309-0.66-0.661-0.66l0,0
					l-37.567,0.088v-0.749c0-0.573,0.221-1.102,0.618-1.499c0.397-0.396,0.928-0.616,1.501-0.616l37.522-0.088
					c1.192,0,2.119,0.969,2.119,2.115v0.75h-1.413c-0.353,0-0.662,0.308-0.662,0.66c0,0.353,0.31,0.661,0.662,0.661l0,0h1.413
					l0.043,22.908C150.424,66.902,149.498,67.871,148.305,67.871z"/>
			</g>
		</g>
		<rect x="115.506" y="67.915" fill="#4162A9" width="10.859" height="1.278"/>
		<rect x="112.504" y="42.101" fill="#4162A9" width="10.728" height="0.748"/>
	</g>
	<g>
		<path fill="#4162A9" d="M132.501,51.308c-0.044,0.22-0.132,0.485-0.221,0.748c-0.971,2.423-1.942,4.891-2.913,7.313
			c-0.221,0.572-0.663,0.838-1.28,0.881c-0.574,0-1.016-0.221-1.28-0.749c-0.222-0.44-0.177-0.881,0-1.321
			c0.485-1.233,0.971-2.467,1.5-3.701c0.485-1.189,0.971-2.423,1.457-3.612c0.22-0.616,0.706-0.924,1.325-0.969
			c0.574-0.043,1.236,0.396,1.368,0.969C132.458,50.955,132.458,51.087,132.501,51.308z M131.089,50.602
			c-0.309,0-0.53,0.133-0.663,0.485c-0.617,1.587-1.28,3.216-1.898,4.802c-0.353,0.881-0.706,1.762-1.06,2.643
			c-0.176,0.441,0,0.795,0.398,0.926c0.353,0.132,0.706-0.043,0.838-0.441c0.839-2.025,1.634-4.053,2.428-6.123
			c0.222-0.484,0.397-1.012,0.574-1.496C131.884,51,131.53,50.602,131.089,50.602z"/>
		<path fill="#4162A9" d="M135.548,55.096c-0.574-0.353-1.06-0.66-1.633-0.969c-0.618-0.353-0.971-1.057-0.706-1.762
			c0.132-0.354,0.397-0.617,0.706-0.75c0.485-0.176,0.971-0.176,1.413,0.133c1.147,0.705,2.339,1.41,3.486,2.114
			c0.485,0.265,0.795,0.661,0.839,1.188c0.045,0.485-0.132,0.926-0.574,1.191c-0.486,0.352-1.015,0.615-1.545,0.924
			c-0.75,0.484-1.545,0.926-2.294,1.365c-0.486,0.31-1.104,0.266-1.59-0.088c-0.486-0.352-0.618-0.836-0.529-1.453
			c0.088-0.352,0.264-0.66,0.574-0.837c0.529-0.353,1.06-0.661,1.589-0.97C135.415,55.184,135.459,55.14,135.548,55.096z
			 M137.005,55.096c-0.089,0.044-0.133,0.088-0.177,0.088c-0.883,0.529-1.722,1.014-2.605,1.543
			c-0.353,0.22-0.441,0.616-0.265,0.924c0.177,0.31,0.619,0.441,0.928,0.266c1.236-0.75,2.471-1.455,3.708-2.203
			c0.486-0.266,0.486-0.837,0.045-1.189c-0.177-0.132-0.354-0.221-0.53-0.309c-1.06-0.617-2.119-1.277-3.179-1.895
			c-0.353-0.22-0.794-0.132-1.015,0.177c-0.221,0.353-0.088,0.749,0.309,0.969c0.309,0.177,0.619,0.396,0.971,0.573
			C135.813,54.392,136.386,54.699,137.005,55.096z"/>
		<path fill="#4162A9" d="M123.496,55.096c0.265,0.177,0.531,0.309,0.796,0.484c0.352,0.221,0.75,0.44,1.103,0.662
			c0.442,0.308,0.574,0.748,0.53,1.232c-0.045,0.617-0.398,1.057-1.016,1.233c-0.44,0.133-0.839,0.045-1.191-0.177
			c-1.192-0.704-2.384-1.408-3.532-2.114c-0.529-0.308-0.838-0.793-0.794-1.454c0.045-0.484,0.309-0.836,0.751-1.101
			c1.191-0.704,2.428-1.454,3.619-2.158c0.708-0.396,1.59-0.22,1.987,0.528c0.309,0.572,0.177,1.365-0.397,1.762
			c-0.485,0.354-1.016,0.617-1.545,0.969C123.717,54.963,123.629,55.008,123.496,55.096z M122.039,55.096
			c0.133-0.088,0.265-0.176,0.398-0.264c0.794-0.484,1.589-0.925,2.339-1.41c0.264-0.176,0.397-0.44,0.353-0.748
			c-0.044-0.221-0.264-0.485-0.529-0.485c-0.177,0-0.397,0.044-0.574,0.132c-0.531,0.265-1.016,0.617-1.545,0.926
			c-0.662,0.396-1.368,0.836-2.031,1.232c-0.529,0.31-0.529,0.926-0.043,1.234c1.235,0.748,2.472,1.498,3.708,2.203
			c0.132,0.088,0.309,0.088,0.441,0.088c0.265-0.044,0.486-0.221,0.53-0.529c0.088-0.309-0.044-0.572-0.309-0.748
			c-0.485-0.31-0.971-0.573-1.457-0.881C122.923,55.624,122.525,55.361,122.039,55.096z"/>
	</g>
	<g>
		<g>
			<g>
				<path fill="#4162A9" d="M397.765,42.145L397.765,42.145L397.765,42.145v-1.366c0-1.895-1.546-3.437-3.444-3.437l-37.523,0.088
					c-0.924,0-1.763,0.353-2.428,1.014c-0.66,0.661-1.014,1.497-1.014,2.423v1.366l0,0l0,0l0.043,23.568
					c0,1.895,1.546,3.437,3.445,3.437l0,0l37.521-0.089c1.897,0,3.442-1.542,3.442-3.436L397.765,42.145z M394.408,67.871
					l-23.482,0.044c-0.267,0.088-0.53,0.177-0.884,0.177c-2.162,0-4.943,0.792-7.02,0.221c-0.264-0.088-0.573-0.221-0.837-0.397
					h-5.299v0.661v-0.661c-1.192,0-2.119-0.97-2.119-2.114l-0.045-22.907h8.434c0.133-0.044,0.265-0.044,0.396-0.044
					c0.222-0.088,0.485-0.088,0.662-0.088c0.088,0,0.177,0,0.309,0c0.222,0,0.396,0.045,0.575,0.088
					c1.014-0.132,2.117-0.088,3.133,0.044l24.06-0.044c0.354,0,0.66-0.308,0.66-0.661c0-0.352-0.307-0.66-0.66-0.66l0,0
					l-37.568,0.088v-0.749c0-0.573,0.222-1.102,0.618-1.499c0.397-0.396,0.929-0.616,1.503-0.616l37.521-0.088
					c1.193,0,2.119,0.969,2.119,2.115v0.75h-1.412c-0.354,0-0.664,0.308-0.664,0.66c0,0.353,0.311,0.661,0.664,0.661l0,0h1.412
					l0.045,22.908C396.529,66.902,395.559,67.871,394.408,67.871z"/>
			</g>
		</g>
		<rect x="361.61" y="67.915" fill="#4162A9" width="10.859" height="1.278"/>
		<rect x="358.607" y="42.101" fill="#4162A9" width="10.729" height="0.748"/>
	</g>
	<g>
		<path fill="#4162A9" d="M378.605,51.308c-0.043,0.22-0.132,0.485-0.222,0.748c-0.971,2.423-1.942,4.891-2.913,7.313
			c-0.22,0.572-0.66,0.838-1.278,0.881c-0.574,0-1.018-0.221-1.281-0.749c-0.222-0.44-0.175-0.881,0-1.321
			c0.485-1.233,0.971-2.467,1.501-3.701c0.485-1.189,0.972-2.423,1.457-3.612c0.219-0.616,0.705-0.924,1.324-0.969
			c0.573-0.043,1.235,0.396,1.369,0.969C378.517,50.955,378.563,51.087,378.605,51.308z M377.193,50.602
			c-0.309,0-0.53,0.133-0.662,0.485c-0.617,1.587-1.28,3.216-1.899,4.802c-0.352,0.881-0.705,1.762-1.059,2.643
			c-0.177,0.441,0,0.795,0.398,0.926c0.354,0.132,0.707-0.043,0.839-0.441c0.839-2.025,1.631-4.053,2.428-6.123
			c0.22-0.484,0.396-1.012,0.573-1.496C377.988,51,377.635,50.602,377.193,50.602z"/>
		<path fill="#4162A9" d="M381.651,55.096c-0.573-0.353-1.059-0.66-1.632-0.969c-0.619-0.353-0.971-1.057-0.707-1.762
			c0.132-0.354,0.396-0.617,0.707-0.75c0.485-0.176,0.972-0.176,1.41,0.133c1.15,0.705,2.341,1.41,3.488,2.114
			c0.485,0.265,0.797,0.661,0.839,1.188c0.043,0.485-0.132,0.926-0.574,1.191c-0.486,0.352-1.015,0.615-1.545,0.924
			c-0.751,0.484-1.544,0.926-2.296,1.365c-0.485,0.31-1.103,0.266-1.588-0.088c-0.486-0.352-0.618-0.836-0.53-1.453
			c0.089-0.352,0.264-0.66,0.574-0.837c0.528-0.353,1.059-0.661,1.589-0.97C381.52,55.184,381.563,55.14,381.651,55.096z
			 M383.065,55.096c-0.09,0.044-0.132,0.088-0.179,0.088c-0.882,0.529-1.721,1.014-2.603,1.543c-0.354,0.22-0.443,0.616-0.265,0.924
			c0.175,0.31,0.618,0.441,0.925,0.266c1.237-0.75,2.475-1.455,3.71-2.203c0.485-0.266,0.485-0.837,0.042-1.189
			c-0.175-0.132-0.354-0.221-0.528-0.309c-1.061-0.617-2.118-1.277-3.177-1.895c-0.354-0.22-0.797-0.132-1.019,0.177
			c-0.219,0.353-0.087,0.749,0.312,0.969c0.309,0.177,0.617,0.396,0.971,0.573C381.873,54.392,382.49,54.699,383.065,55.096z"/>
		<path fill="#4162A9" d="M369.557,55.096c0.266,0.177,0.53,0.309,0.794,0.484c0.354,0.221,0.75,0.44,1.104,0.662
			c0.442,0.308,0.575,0.748,0.53,1.232c-0.045,0.617-0.398,1.057-1.016,1.233c-0.441,0.133-0.84,0.045-1.193-0.177
			c-1.19-0.704-2.381-1.408-3.53-2.114c-0.528-0.308-0.84-0.793-0.793-1.454c0.043-0.484,0.307-0.836,0.75-1.101
			c1.192-0.704,2.428-1.454,3.62-2.158c0.705-0.396,1.589-0.22,1.985,0.528c0.309,0.572,0.177,1.365-0.396,1.762
			c-0.485,0.354-1.016,0.617-1.546,0.969C369.822,54.963,369.688,55.008,369.557,55.096z M368.145,55.096
			c0.132-0.088,0.264-0.176,0.396-0.264c0.796-0.484,1.588-0.925,2.34-1.41c0.265-0.176,0.398-0.44,0.352-0.748
			c-0.043-0.221-0.264-0.485-0.528-0.485c-0.177,0-0.396,0.044-0.575,0.132c-0.527,0.265-1.014,0.617-1.544,0.926
			c-0.662,0.396-1.369,0.836-2.029,1.232c-0.532,0.31-0.532,0.926-0.045,1.234c1.235,0.748,2.473,1.498,3.708,2.203
			c0.132,0.088,0.309,0.088,0.44,0.088c0.267-0.044,0.486-0.221,0.53-0.529c0.09-0.309-0.044-0.572-0.309-0.748
			c-0.485-0.31-0.971-0.573-1.456-0.881C369.026,55.624,368.585,55.361,368.145,55.096z"/>
	</g>
	<rect x="338.081" y="49.237" fill="#3A5EAB" width="18.851" height="1.938"/>
	<rect x="338.831" y="54.92" fill="#3A5EAB" width="18.101" height="2.026"/>
	<rect x="338.081" y="60.207" fill="#3A5EAB" width="18.851" height="1.805"/>
	<rect x="359.183" y="54.92" fill="#3A5EAB" width="2.164" height="2.026"/>
	<rect x="333.933" y="49.237" fill="#3A5EAB" width="1.942" height="1.938"/>
	<rect x="333.933" y="60.207" fill="#3A5EAB" width="1.942" height="1.938"/>
	<rect x="92.993" y="48.224" fill="#3A5EAB" width="18.849" height="1.938"/>
	<rect x="93.744" y="53.907" fill="#3A5EAB" width="18.098" height="2.025"/>
	<rect x="92.993" y="59.237" fill="#3A5EAB" width="18.849" height="1.806"/>
	<rect x="114.093" y="53.907" fill="#3A5EAB" width="2.164" height="2.025"/>
	<rect x="88.843" y="48.224" fill="#3A5EAB" width="1.942" height="1.938"/>
	<rect x="88.843" y="59.237" fill="#3A5EAB" width="1.942" height="1.938"/>
</g>
</svg>
