<?xml version="1.0" encoding="utf-8"?>
<!-- Generator: Adobe Illustrator 16.0.3, SVG Export Plug-In . SVG Version: 6.00 Build 0)  -->
<!DOCTYPE svg PUBLIC "-//W3C//DTD SVG 1.1//EN" "http://www.w3.org/Graphics/SVG/1.1/DTD/svg11.dtd">
<svg version="1.1" id="Layer_1" xmlns="http://www.w3.org/2000/svg" xmlns:xlink="http://www.w3.org/1999/xlink" x="0px" y="0px"
	 width="93px" height="70px" viewBox="0 0 93 70" enable-background="new 0 0 93 70" xml:space="preserve">
<g transform="translate(1 1)">
	<g>
		<g>
			<path fill="#3156A7" d="M68.727,25.476c-0.779,0-1.396-0.584-1.547-1.186c-0.146-0.743,0.465-1.627,1.25-1.627
				c4.02-0.583,8.059,0,8.211,0c0.781,0.142,1.395,0.884,1.246,1.627c-0.15,0.743-0.93,1.327-1.713,1.186c0,0-3.725-0.443-7.281,0
				H68.727z"/>
			<path fill="#3156A7" d="M36.2,22.54c-0.931,0-1.546-0.584-1.546-1.468c0-5.747-4.803-10.311-10.854-10.311
				c-6.052,0-10.854,4.563-10.854,10.311c0,0.884-0.615,1.468-1.545,1.468c-0.931,0-1.546-0.584-1.546-1.468
				c0-7.356,6.2-13.247,13.946-13.247c7.746,0,13.945,5.891,13.945,13.247C37.745,21.956,37.13,22.54,36.2,22.54z"/>
			<path fill="#3156A7" d="M78.035,22.84C77.107,9.594,65.637-1,51.689-1c-8.359,0-16.42,3.98-21.541,10.311
				c-1.862-1.025-4.021-1.468-6.349-1.468c-7.951,0-14.261,6.191-13.927,13.813c0,0,0,0.018-0.019,0.018
				C3.506,25.051-1,31.983-1,39.041c0,9.516,7.671,17.527,17.389,18.693c-0.055-0.299-0.055-0.617,0.038-0.955
				c-0.112-0.424-0.13-0.85-0.092-1.291c0.019-0.23,0.073-0.477,0.167-0.707C8.44,53.684,2.108,46.98,2.108,39.041
				c0-6.192,4.189-12.504,9.925-15.157c0.613-0.302,0.93-0.743,0.93-1.327v-1.255c0-5.589,4.599-10.329,10.482-10.505
				c2.309-0.071,4.449,0.513,6.405,1.769c0.782,0.441,1.713,0.3,2.178-0.443C36.367,5.933,44.113,1.971,51.857,1.971
				c12.549,0,22.939,9.869,23.088,22.072c0,0.743,0.465,1.325,1.25,1.467c7.279,1.327,12.693,7.659,12.693,14.714
				c0,7.34-5.732,13.459-13.162,14.541c0.018,0.938-0.428,1.891-1.34,2.352c0.018,0,0.035,0.018,0.057,0.018
				c0.314,0.141,0.578,0.389,0.781,0.65C84.607,56.902,92,49.354,92,40.225C91.982,32.108,86.078,24.892,78.035,22.84z"/>
		</g>
		<ellipse fill="#3A5EAB" cx="75.67" cy="56.25" rx="1.584" ry="1.504"/>
		<ellipse fill="#3156A7" cx="16.557" cy="56.23" rx="1.564" ry="1.484"/>
	</g>
</g>
<g>
	<path fill="#3156A7" d="M42.617,53.941v-0.053c0-0.018,0-0.018-0.019-0.055v-0.051c0-0.02-0.017-0.02-0.017-0.053
		c0,0,0-0.02-0.019-0.02L32.75,38.307c-0.019-0.018-0.057-0.07-0.076-0.105h-0.019c-0.019-0.018-0.056-0.055-0.073-0.055
		c0,0-0.019,0-0.019-0.018c-0.019-0.016-0.056-0.016-0.075-0.016H32.47c-0.055-0.055-0.073-0.055-0.13-0.055
		c-0.056,0-0.075,0-0.13,0.02h-0.019c-0.019,0-0.056,0.02-0.075,0.02c0,0-0.019,0-0.019,0.016c-0.019,0.016-0.056,0.016-0.074,0.053
		h-0.019c-0.019,0.018-0.057,0.051-0.075,0.105l-9.775,15.439c0,0,0,0.02-0.019,0.02c0,0.018-0.019,0.018-0.019,0.053v0.051
		c0,0.02,0,0.02-0.019,0.055v0.193c0,0.018,0,0.018,0.019,0.055v0.016c0.019,0.055,0.056,0.072,0.075,0.107l0.019,0.02l0.073,0.07
		c0,0,0.019,0,0.019,0.018l9.812,5.445h0.019c0.019,0.018,0.056,0.018,0.075,0.018h0.017c0.057,0,0.075,0.02,0.132,0.02
		c0.056,0,0.073,0,0.13-0.02h0.019c0.019,0,0.056-0.018,0.075-0.018H32.6l9.776-5.43c0.017,0,0.017-0.016,0.055-0.016l0.019-0.018
		l0.056-0.055l0.019-0.016c0-0.02,0.019-0.02,0.019-0.055c0-0.033,0.019-0.018,0.019-0.053c0-0.02,0-0.02,0.018-0.053
		c0-0.02,0-0.02,0.019-0.055v-0.016v-0.055v-0.053H42.617z M31.782,49.447l-7.913,3.434l7.913-12.521
		C31.782,40.34,31.782,49.447,31.782,49.447z M31.782,50.545v7.994l-8.099-4.49L31.782,50.545z M32.843,50.545l8.099,3.504
		l-8.099,4.49V50.545z M32.843,49.447v-9.088l7.913,12.521L32.843,49.447z"/>
	<path fill="#3156A7" d="M41.799,56.043l-9.497,5.434l-9.495-5.434c-0.205-0.119-0.503-0.066-0.652,0.111
		c-0.148,0.176-0.186,0.422-0.056,0.617l9.775,13.033l0.019,0.02c0.019,0.016,0.019,0.053,0.056,0.053l0.019,0.018
		c0.019,0.018,0.056,0.018,0.056,0.053c0,0,0.018,0,0.018,0.018c0.018,0,0.056,0.02,0.074,0.02h0.019
		c0.019,0,0.075,0.016,0.11,0.016c0.057,0,0.076,0,0.113-0.016h0.019c0.019,0,0.054-0.02,0.073-0.02c0,0,0.019,0,0.019-0.018
		c0.019,0,0.057-0.018,0.057-0.053l0.019-0.018l0.055-0.053l0.019-0.02l9.774-13.033c0.131-0.195,0.131-0.441-0.055-0.617
		C42.226,55.957,42.04,55.939,41.799,56.043z M31.782,62.307v5.643l-7.373-9.814C24.428,58.135,31.782,62.307,31.782,62.307z
		 M32.843,67.949v-5.643l7.373-4.189C40.197,58.117,32.843,67.949,32.843,67.949z"/>
</g>
<g>
	<path fill="#445CAA" d="M62.486,41.102c1.189,0,2.158-0.922,2.158-2.051c0-1.133-0.969-2.051-2.158-2.051
		c-1.195,0-2.162,0.918-2.162,2.051C60.324,40.199,61.291,41.102,62.486,41.102z"/>
	<path fill="#445CAA" d="M70.861,36.184c1.193,0,2.16-0.919,2.16-2.049c0-1.133-0.967-2.053-2.16-2.053
		c-1.191,0-2.158,0.92-2.158,2.053C68.721,35.264,69.689,36.184,70.861,36.184z"/>
	<path fill="#445CAA" d="M70.861,48.033c-1.191,0-2.158,0.92-2.158,2.053s0.967,2.051,2.158,2.051c1.193,0,2.16-0.918,2.16-2.051
		S72.055,48.033,70.861,48.033z"/>
	<path fill="#445CAA" d="M54.104,32.099c-1.189,0-2.158,0.92-2.158,2.053v4.915c0,1.133,0.969,2.053,2.158,2.053
		c1.195,0,2.162-0.92,2.162-2.053v-4.915C56.246,33.019,55.279,32.099,54.104,32.099z"/>
	<path fill="#445CAA" d="M54.104,43.119c-1.189,0-2.158,0.916-2.158,2.051v4.916c0,1.133,0.969,2.051,2.158,2.051
		c1.195,0,2.162-0.918,2.162-2.051V45.17C56.246,44.02,55.279,43.119,54.104,43.119z"/>
	<path fill="#445CAA" d="M62.52,43.119c-1.188,0-2.158,0.916-2.158,2.051v4.916c0,1.133,0.971,2.051,2.158,2.051
		c1.193,0,2.16-0.918,2.16-2.051V45.17C64.662,44.02,63.691,43.119,62.52,43.119z"/>
	<path fill="#445CAA" d="M70.861,37.602c-1.191,0-2.158,0.918-2.158,2.051v4.914c0,1.133,0.967,2.053,2.158,2.053
		c1.193,0,2.16-0.92,2.16-2.053v-4.914C73.021,38.52,72.055,37.602,70.861,37.602z"/>
</g>
<g>
	<g>
		<path fill="#3156A7" d="M49.025,30.915l-2.611-2.476c-0.127-0.125-0.315-0.159-0.463-0.089c-0.15,0.072-0.261,0.212-0.261,0.39
			v1.238h-0.447c-5.027,0-9.123,3.872-9.123,8.667v0.828c0,0.23,0.186,0.408,0.429,0.408h1.73c0.242,0,0.429-0.178,0.429-0.408
			v-0.828c0-3.415,2.924-6.192,6.516-6.192h0.429v1.238c0,0.158,0.113,0.319,0.261,0.389c0.167,0.072,0.354,0.037,0.466-0.087
			l2.603-2.476C49.191,31.338,49.191,31.074,49.025,30.915z"/>
	</g>
</g>
<g>
	<g>
		<path fill="#3156A7" d="M55.742,57.514l-3.48,1.59c-0.166,0.072-0.26,0.25-0.26,0.408c0.018,0.18,0.131,0.338,0.299,0.391
			l1.283,0.424l-0.15,0.406c-1.246,3.395-5.154,5.182-8.711,3.998l-0.856-0.285c-0.243-0.068-0.504,0.039-0.577,0.268l-0.596,1.646
			c-0.075,0.227,0.038,0.477,0.279,0.545l0.857,0.283c4.988,1.664,10.463-0.848,12.215-5.588l0.148-0.406l1.283,0.422
			c0.168,0.055,0.373,0.02,0.484-0.121c0.131-0.125,0.15-0.318,0.076-0.479l-1.678-3.307C56.246,57.498,55.969,57.41,55.742,57.514z
			"/>
	</g>
</g>
</svg>
