<?xml version="1.0" encoding="utf-8"?>
<!-- Generator: Adobe Illustrator 22.1.0, SVG Export Plug-In . SVG Version: 6.00 Build 0)  -->
<svg version="1.1" id="Layer_1" xmlns="http://www.w3.org/2000/svg" xmlns:xlink="http://www.w3.org/1999/xlink" x="0px" y="0px"
	 viewBox="0 0 445 243.1" style="enable-background:new 0 0 445 243.1;" xml:space="preserve">
<style type="text/css">
	.st0{fill:#285BC0;}
	.st1{fill:#2859BE;}
	.st2{fill:#DAD9DB;}
	.st3{fill:#D8D8DC;}
	.st4{fill:#CDCDCE;}
</style>
<g>
	<g>
		<g>
			<path class="st0" d="M288.9,64.6c-0.7,2.4-1.2,4.9-2.3,7.2c-4.3,8.6-11.3,13.4-21,13.5c-29.1,0.2-58.3,0.1-87.4,0
				c-12.7,0-23.7-9.6-25.6-22.2c0-0.3-0.2-0.6-0.3-0.9c0-2.1,0-4.3,0-6.4c0.1-0.2,0.2-0.3,0.2-0.4c1.9-10.8,8.1-17.9,18.4-21.4
				c0.5-0.2,1-0.7,1.1-1.2c2.8-9.7,12.5-15.6,22.4-13.4c1.2,0.3,1.7,0,2.4-0.9c6.2-9.1,14.6-14.9,25.3-17.3c1.7-0.4,3.5-0.7,5.2-1
				c2.7,0,5.3,0,8,0c0.2,0.1,0.5,0.2,0.7,0.2c15.8,2.3,26.9,10.8,33.3,25.3c1.9,4.3,2.7,8.9,3.1,13.6c0.4,0.2,0.7,0.2,1.1,0.4
				c7.3,2.9,12.2,8,14.6,15.6c0.4,1.2,0.6,2.4,0.9,3.6C288.9,60.7,288.9,62.6,288.9,64.6z M221.9,80.8c14.6,0,29.2,0.1,43.9,0
				c9.5-0.1,17.4-7.3,18.6-16.5c1.2-9.7-4.7-18.5-14.1-21c-1.8-0.5-2.1-1-2.3-2.9c-0.2-2.2-0.3-4.4-0.8-6.6
				C263.9,18.8,251.7,7.2,236.9,5c-15.1-2.4-29.9,4.6-37.7,17.9c-1.1,1.9-1.8,2.2-3.9,1.4c-8.4-3.1-17.9,2.3-19.2,11.1
				c-0.2,1.6-1,2.3-2.5,2.7c-4.7,1.1-8.8,3.5-11.8,7.3c-5.5,6.9-6.8,14.6-3.2,22.7c3.6,8.2,10.3,12.8,19.2,12.9
				C192.6,81,207.2,80.8,221.9,80.8z"/>
		</g>
	</g>
	<g>
		<g>
			<path class="st1" d="M224,45.7c2.1,0,3.8-1.7,3.8-3.8S226.1,38,224,38c-2.1,0-3.8,1.7-3.8,3.8S221.8,45.7,224,45.7z"/>
		</g>
		<g>
			<path class="st1" d="M239,36.4c2.1,0,3.8-1.7,3.8-3.8s-1.7-3.8-3.8-3.8c-2.1,0-3.8,1.7-3.8,3.8S236.9,36.4,239,36.4z"/>
		</g>
		<g>
			<path class="st1" d="M239,58.8c-2.1,0-3.8,1.7-3.8,3.8s1.7,3.8,3.8,3.8c2.1,0,3.8-1.7,3.8-3.8C242.9,60.5,241.1,58.8,239,58.8z"
				/>
		</g>
		<g>
			<path class="st1" d="M208.9,28.7c-2.1,0-3.8,1.7-3.8,3.8v9.3c0,2.1,1.7,3.8,3.8,3.8s3.8-1.7,3.8-3.8v-9.3
				C212.8,30.4,211,28.7,208.9,28.7z"/>
		</g>
		<g>
			<path class="st1" d="M208.9,49.5c-2.1,0-3.8,1.7-3.8,3.8v9.3c0,2.1,1.7,3.8,3.8,3.8s3.8-1.7,3.8-3.8v-9.3
				C212.8,51.2,211,49.5,208.9,49.5z"/>
		</g>
		<g>
			<path class="st1" d="M224,49.5c-2.1,0-3.8,1.7-3.8,3.8v9.3c0,2.1,1.7,3.8,3.8,3.8c2.1,0,3.8-1.7,3.8-3.8v-9.3
				C227.9,51.2,226.2,49.5,224,49.5z"/>
		</g>
		<g>
			<path class="st1" d="M239,39.1c-2.1,0-3.8,1.7-3.8,3.8v9.3c0,2.1,1.7,3.8,3.8,3.8c2.1,0,3.8-1.7,3.8-3.8v-9.3
				C242.9,40.8,241.1,39.1,239,39.1z"/>
		</g>
	</g>
	<g>
		<path class="st2" d="M33.2,243.3c-18.4,0-33.3-15-33.3-33.3c0-18.4,15-33.3,33.3-33.3c18.4,0,33.3,15,33.3,33.3
			C66.6,228.3,51.6,243.3,33.2,243.3z M33.2,180.2c-16.4,0-29.7,13.3-29.7,29.7c0,16.4,13.3,29.7,29.7,29.7
			c16.4,0,29.7-13.3,29.7-29.7C63,193.5,49.6,180.2,33.2,180.2z"/>
	</g>
	<g>
		<g>
			<g>
				<path class="st3" d="M47.2,212.1c-1-1.3-2.5-2.2-4.5-2.6c2.5-1.3,3.6-3.5,3.3-6.6c-0.1-1.1-0.4-2.1-0.9-2.9
					c-0.5-0.8-1.2-1.5-2.1-2c-0.9-0.5-1.8-0.9-2.9-1.1c-1-0.3-2.2-0.5-3.6-0.6v-6.4h-3.9v6.2c-0.7,0-1.7,0-3.1,0v-6.3h-3.9v6.4
					c-0.5,0-1.4,0-2.5,0l-5.4,0v4.2h2.8c1.3,0,2,0.6,2.3,1.7v7.3c0.2,0,0.3,0,0.4,0h-0.4v10.2c-0.1,0.9-0.6,1.3-1.5,1.3h-2.8
					l-0.8,4.7h5.1c0.3,0,0.8,0,1.4,0s1.1,0,1.4,0v6.5h3.9v-6.4c0.7,0,1.8,0,3.1,0v6.4h3.9v-6.5c1.4-0.1,2.6-0.2,3.7-0.4
					c1.1-0.2,2.1-0.5,3.1-0.9c1-0.4,1.8-0.9,2.5-1.5c0.7-0.6,1.2-1.3,1.6-2.3c0.4-0.9,0.7-2,0.8-3.2
					C48.6,215.2,48.2,213.4,47.2,212.1z M29.7,200.7c0.1,0,0.5,0,1,0s1,0,1.4,0c0.4,0,0.9,0,1.5,0.1c0.6,0,1.1,0.1,1.6,0.2
					s0.9,0.2,1.4,0.4c0.5,0.2,0.9,0.4,1.2,0.7c0.3,0.3,0.5,0.6,0.8,1.1c0.2,0.4,0.3,0.9,0.3,1.5c0,0.5-0.1,0.9-0.2,1.3
					s-0.4,0.7-0.7,1c-0.3,0.3-0.6,0.5-0.9,0.7c-0.3,0.2-0.7,0.4-1.2,0.5c-0.5,0.1-0.9,0.2-1.3,0.3c-0.4,0.1-0.8,0.1-1.4,0.2
					c-0.5,0-1,0-1.3,0c-0.3,0-0.7,0-1.2,0s-0.8,0-0.9,0L29.7,200.7L29.7,200.7L29.7,200.7z M40.4,218.1c-0.2,0.4-0.4,0.7-0.6,1
					c-0.2,0.3-0.6,0.5-1,0.7c-0.4,0.2-0.8,0.4-1.2,0.5c-0.4,0.1-0.9,0.2-1.4,0.4c-0.5,0.1-1,0.2-1.5,0.2c-0.4,0-0.9,0.1-1.5,0.1
					c-0.6,0-1,0-1.3,0s-0.7,0-1.2,0c-0.5,0-0.8,0-0.9,0v-8.6c0.1,0,0.5,0,1.2,0c0.7,0,1.2,0,1.6,0c0.4,0,1,0,1.8,0.1
					c0.7,0,1.4,0.1,1.9,0.2s1.1,0.3,1.7,0.5c0.6,0.2,1.1,0.5,1.5,0.8c0.4,0.3,0.7,0.7,0.9,1.2c0.3,0.5,0.4,1,0.4,1.6
					C40.6,217.3,40.5,217.7,40.4,218.1z"/>
			</g>
		</g>
	</g>
	<g>
		<path class="st3" d="M173.1,209.7L173.1,209.7c0-0.1,0-0.1,0-0.2v-0.1c0,0,0,0,0-0.1c0,0,0,0,0,0l-12-19.9c0,0-0.1-0.1-0.1-0.1h0
			c0,0-0.1-0.1-0.1-0.1s0,0,0,0c0,0-0.1,0-0.1,0h0c-0.1-0.1-0.1-0.1-0.2-0.1s-0.1,0-0.2,0h0c0,0-0.1,0-0.1,0s0,0,0,0
			c0,0-0.1,0-0.1,0.1h0c0,0-0.1,0.1-0.1,0.1l-12,19.9c0,0,0,0,0,0c0,0,0,0,0,0.1v0.1c0,0,0,0,0,0.1v0.3c0,0,0,0,0,0.1v0
			c0,0.1,0.1,0.1,0.1,0.1l0,0l0.1,0.1c0,0,0,0,0,0l12,7h0c0,0,0.1,0,0.1,0h0c0.1,0,0.1,0,0.2,0s0.1,0,0.2,0h0c0,0,0.1,0,0.1,0h0
			l12-7c0,0,0,0,0.1,0l0,0l0.1-0.1l0,0c0,0,0,0,0-0.1s0,0,0-0.1s0,0,0-0.1c0,0,0,0,0-0.1l0,0L173.1,209.7L173.1,209.7L173.1,209.7z
			 M159.8,203.8l-9.7,4.4l9.7-16.1V203.8z M159.8,205.3v10.3l-9.9-5.8L159.8,205.3z M161.1,205.3l9.9,4.5l-9.9,5.8V205.3z
			 M161.1,203.8v-11.7l9.7,16.1L161.1,203.8z"/>
	</g>
	<g>
		<path class="st3" d="M172.1,212.3l-11.6,7l-11.6-7c-0.3-0.2-0.6-0.1-0.8,0.1c-0.2,0.2-0.2,0.5-0.1,0.8l12,16.8l0,0
			c0,0,0,0.1,0.1,0.1l0,0c0,0,0.1,0,0.1,0.1c0,0,0,0,0,0c0,0,0.1,0,0.1,0h0c0,0,0.1,0,0.1,0c0.1,0,0.1,0,0.1,0h0c0,0,0.1,0,0.1,0
			s0,0,0,0c0,0,0.1,0,0.1-0.1l0,0l0.1-0.1l0,0l12-16.8c0.2-0.3,0.2-0.6-0.1-0.8C172.6,212.2,172.4,212.2,172.1,212.3z M159.8,220.4
			v7.3l-9-12.6L159.8,220.4z M161.1,227.7v-7.3l9-5.4L161.1,227.7z"/>
	</g>
	<g>
		<path class="st2" d="M160.4,243.3c-18.4,0-33.3-15-33.3-33.3c0-18.4,15-33.3,33.3-33.3c18.4,0,33.3,15,33.3,33.3
			C193.7,228.3,178.7,243.3,160.4,243.3z M160.4,180.2c-16.4,0-29.7,13.3-29.7,29.7c0,16.4,13.3,29.7,29.7,29.7s29.7-13.3,29.7-29.7
			C190.1,193.5,176.8,180.2,160.4,180.2z"/>
	</g>
	<g>
		<path class="st2" d="M283.4,243.3c-18.4,0-33.3-15-33.3-33.3c0-18.4,15-33.3,33.3-33.3s33.3,15,33.3,33.3
			C316.8,228.3,301.8,243.3,283.4,243.3z M283.4,180.2c-16.4,0-29.7,13.3-29.7,29.7c0,16.4,13.3,29.7,29.7,29.7s29.7-13.3,29.7-29.7
			S299.8,180.2,283.4,180.2z"/>
	</g>
	<g>
		<path class="st3" d="M281.7,219.1l2.2-8.3l5.3-1.9l1.3-4.9l0-0.1l-5.2,1.9l3.7-14h-10.5l-4.9,18.2l-4,1.5l-1.4,5l4.1-1.5
			l-2.9,10.8h28.1l1.8-6.7L281.7,219.1L281.7,219.1L281.7,219.1z"/>
	</g>
	<g>
		<path class="st3" d="M411.4,212.2c-4.3-4.3-8.6-8.5-12.8-12.8v16.5c-0.2,0-0.3,0-0.4,0h-5.2c-0.2,0-0.4-0.1-0.4-0.3
			c-0.7-2.4-1-4.7-0.8-7.3c0.3-4.2,1.8-7.9,4.5-11.1c3-3.6,6.7-5.9,11.4-6.8c6.1-1.2,11.6,0.2,16.4,4.2c3.6,3,5.9,6.9,6.7,11.6
			c0.6,3.2,0.4,6.3-0.6,9.3c-0.1,0.2-0.2,0.4-0.5,0.4h-5.5v-16.5C419.9,203.7,415.7,207.9,411.4,212.2z"/>
	</g>
	<g>
		<path class="st3" d="M394.6,219.9h8.2v-10.4l8.5,8.5c2.9-2.9,5.7-5.6,8.6-8.5v10.4h8.3c-1.6,2.6-3.6,4.7-6.2,6.4
			c-2.5,1.6-5.3,2.6-8.3,3C404.6,230.3,397.6,225.1,394.6,219.9z"/>
	</g>
	<g>
		<path class="st2" d="M411.5,243.3c-18.4,0-33.3-15-33.3-33.3c0-18.4,15-33.3,33.3-33.3c18.4,0,33.3,15,33.3,33.3
			C444.9,228.3,429.9,243.3,411.5,243.3z M411.5,180.2c-16.4,0-29.7,13.3-29.7,29.7c0,16.4,13.3,29.7,29.7,29.7
			c16.4,0,29.7-13.3,29.7-29.7S427.9,180.2,411.5,180.2z"/>
	</g>
	<g>
		<g>
			<g>
				<path class="st4" d="M33.3,132c0-0.4,0.3-0.7,0.7-0.7s0.7,0.3,0.7,0.7s-0.3,0.7-0.7,0.7C33.6,132.8,33.3,132.5,33.3,132z"/>
			</g>
			<g>
				<path class="st4" d="M35.8,132c0-0.4,0.3-0.7,0.7-0.7s0.7,0.3,0.7,0.7s-0.3,0.7-0.7,0.7C36.1,132.8,35.8,132.5,35.8,132z"/>
			</g>
			<g>
				<path class="st4" d="M38.3,132c0-0.4,0.3-0.7,0.7-0.7s0.7,0.3,0.7,0.7s-0.3,0.7-0.7,0.7C38.6,132.8,38.3,132.5,38.3,132z"/>
			</g>
			<g>
				<path class="st4" d="M40.8,132c0-0.4,0.3-0.7,0.7-0.7c0.4,0,0.7,0.3,0.7,0.7s-0.3,0.7-0.7,0.7C41.1,132.8,40.8,132.5,40.8,132z"
					/>
			</g>
			<g>
				<path class="st4" d="M43.3,132c0-0.4,0.3-0.7,0.7-0.7c0.4,0,0.7,0.3,0.7,0.7s-0.3,0.7-0.7,0.7C43.6,132.8,43.3,132.5,43.3,132z"
					/>
			</g>
			<g>
				<path class="st4" d="M45.8,132c0-0.4,0.3-0.7,0.7-0.7s0.7,0.3,0.7,0.7s-0.3,0.7-0.7,0.7C46.1,132.8,45.8,132.5,45.8,132z"/>
			</g>
			<g>
				<path class="st4" d="M48.3,132c0-0.4,0.3-0.7,0.7-0.7s0.7,0.3,0.7,0.7s-0.3,0.7-0.7,0.7C48.6,132.8,48.3,132.5,48.3,132z"/>
			</g>
			<g>
				<path class="st4" d="M50.9,132c0-0.4,0.3-0.7,0.7-0.7c0.4,0,0.7,0.3,0.7,0.7s-0.3,0.7-0.7,0.7C51.1,132.8,50.9,132.5,50.9,132z"
					/>
			</g>
			<g>
				<path class="st4" d="M53.4,132c0-0.4,0.3-0.7,0.7-0.7s0.7,0.3,0.7,0.7s-0.3,0.7-0.7,0.7C53.6,132.8,53.4,132.5,53.4,132z"/>
			</g>
			<g>
				<path class="st4" d="M55.8,132c0-0.4,0.3-0.7,0.7-0.7s0.7,0.3,0.7,0.7s-0.3,0.7-0.7,0.7C56.1,132.8,55.8,132.5,55.8,132z"/>
			</g>
			<g>
				<path class="st4" d="M58.3,132c0-0.4,0.3-0.7,0.7-0.7s0.7,0.3,0.7,0.7s-0.3,0.7-0.7,0.7C58.7,132.8,58.3,132.5,58.3,132z"/>
			</g>
			<g>
				<path class="st4" d="M60.9,132c0-0.4,0.3-0.7,0.7-0.7c0.4,0,0.7,0.3,0.7,0.7s-0.3,0.7-0.7,0.7C61.2,132.8,60.9,132.5,60.9,132z"
					/>
			</g>
			<g>
				<path class="st4" d="M63.4,132c0-0.4,0.3-0.7,0.7-0.7s0.7,0.3,0.7,0.7s-0.3,0.7-0.7,0.7C63.6,132.8,63.4,132.5,63.4,132z"/>
			</g>
			<g>
				<path class="st4" d="M65.9,132c0-0.4,0.3-0.7,0.7-0.7s0.7,0.3,0.7,0.7s-0.3,0.7-0.7,0.7C66.2,132.8,65.9,132.5,65.9,132z"/>
			</g>
			<g>
				<path class="st4" d="M68.4,132c0-0.4,0.3-0.7,0.7-0.7c0.4,0,0.7,0.3,0.7,0.7s-0.3,0.7-0.7,0.7C68.7,132.8,68.4,132.5,68.4,132z"
					/>
			</g>
			<g>
				<path class="st4" d="M70.9,132c0-0.4,0.3-0.7,0.7-0.7s0.7,0.3,0.7,0.7s-0.3,0.7-0.7,0.7C71.2,132.8,70.9,132.5,70.9,132z"/>
			</g>
			<g>
				<path class="st4" d="M73.4,132c0-0.4,0.3-0.7,0.7-0.7c0.4,0,0.7,0.3,0.7,0.7s-0.3,0.7-0.7,0.7C73.7,132.8,73.4,132.5,73.4,132z"
					/>
			</g>
			<g>
				<path class="st4" d="M75.9,132c0-0.4,0.3-0.7,0.7-0.7s0.7,0.3,0.7,0.7s-0.3,0.7-0.7,0.7C76.2,132.8,75.9,132.5,75.9,132z"/>
			</g>
			<g>
				<path class="st4" d="M78.4,132c0-0.4,0.3-0.7,0.7-0.7s0.7,0.3,0.7,0.7s-0.3,0.7-0.7,0.7C78.7,132.8,78.4,132.5,78.4,132z"/>
			</g>
			<g>
				<path class="st4" d="M80.9,132c0-0.4,0.3-0.7,0.7-0.7s0.7,0.3,0.7,0.7s-0.3,0.7-0.7,0.7C81.2,132.8,80.9,132.5,80.9,132z"/>
			</g>
			<g>
				<path class="st4" d="M83.4,132c0-0.4,0.3-0.7,0.7-0.7s0.7,0.3,0.7,0.7s-0.3,0.7-0.7,0.7C83.7,132.8,83.4,132.5,83.4,132z"/>
			</g>
			<g>
				<path class="st4" d="M85.9,132c0-0.4,0.3-0.7,0.7-0.7c0.4,0,0.7,0.3,0.7,0.7s-0.3,0.7-0.7,0.7C86.2,132.8,85.9,132.5,85.9,132z"
					/>
			</g>
			<g>
				<path class="st4" d="M88.4,132c0-0.4,0.3-0.7,0.7-0.7s0.7,0.3,0.7,0.7s-0.3,0.7-0.7,0.7C88.7,132.8,88.4,132.5,88.4,132z"/>
			</g>
			<g>
				<path class="st4" d="M90.9,132c0-0.4,0.3-0.7,0.7-0.7s0.7,0.3,0.7,0.7s-0.3,0.7-0.7,0.7C91.2,132.8,90.9,132.5,90.9,132z"/>
			</g>
			<g>
				<path class="st4" d="M93.4,132c0-0.4,0.3-0.7,0.7-0.7s0.7,0.3,0.7,0.7s-0.3,0.7-0.7,0.7C93.7,132.8,93.4,132.5,93.4,132z"/>
			</g>
			<g>
				<path class="st4" d="M95.9,132c0-0.4,0.3-0.7,0.7-0.7s0.7,0.3,0.7,0.7s-0.3,0.7-0.7,0.7C96.2,132.8,95.9,132.5,95.9,132z"/>
			</g>
			<g>
				<path class="st4" d="M98.4,132c0-0.4,0.3-0.7,0.7-0.7c0.4,0,0.7,0.3,0.7,0.7s-0.3,0.7-0.7,0.7C98.8,132.8,98.4,132.5,98.4,132z"
					/>
			</g>
			<g>
				<path class="st4" d="M101,132c0-0.4,0.3-0.7,0.7-0.7s0.7,0.3,0.7,0.7s-0.3,0.7-0.7,0.7C101.2,132.8,101,132.5,101,132z"/>
			</g>
			<g>
				<path class="st4" d="M103.5,132c0-0.4,0.3-0.7,0.7-0.7s0.7,0.3,0.7,0.7s-0.3,0.7-0.7,0.7C103.7,132.8,103.5,132.5,103.5,132z"/>
			</g>
			<g>
				<path class="st4" d="M106,132c0-0.4,0.3-0.7,0.7-0.7c0.4,0,0.7,0.3,0.7,0.7s-0.3,0.7-0.7,0.7C106.3,132.8,106,132.5,106,132z"/>
			</g>
			<g>
				<path class="st4" d="M108.5,132c0-0.4,0.3-0.7,0.7-0.7s0.7,0.3,0.7,0.7s-0.3,0.7-0.7,0.7C108.8,132.8,108.5,132.5,108.5,132z"/>
			</g>
			<g>
				<path class="st4" d="M111,132c0-0.4,0.3-0.7,0.7-0.7s0.7,0.3,0.7,0.7s-0.3,0.7-0.7,0.7C111.3,132.8,111,132.5,111,132z"/>
			</g>
			<g>
				<path class="st4" d="M113.5,132c0-0.4,0.3-0.7,0.7-0.7s0.7,0.3,0.7,0.7s-0.3,0.7-0.7,0.7C113.8,132.8,113.5,132.5,113.5,132z"/>
			</g>
			<g>
				<path class="st4" d="M116,132c0-0.4,0.3-0.7,0.7-0.7c0.4,0,0.7,0.3,0.7,0.7s-0.3,0.7-0.7,0.7C116.3,132.8,116,132.5,116,132z"/>
			</g>
			<g>
				<path class="st4" d="M118.5,132c0-0.4,0.3-0.7,0.7-0.7s0.7,0.3,0.7,0.7s-0.3,0.7-0.7,0.7C118.8,132.8,118.5,132.5,118.5,132z"/>
			</g>
			<g>
				<path class="st4" d="M121,132c0-0.4,0.3-0.7,0.7-0.7s0.7,0.3,0.7,0.7s-0.3,0.7-0.7,0.7C121.3,132.8,121,132.5,121,132z"/>
			</g>
			<g>
				<path class="st4" d="M123.5,132c0-0.4,0.3-0.7,0.7-0.7c0.4,0,0.7,0.3,0.7,0.7s-0.3,0.7-0.7,0.7
					C123.8,132.8,123.5,132.5,123.5,132z"/>
			</g>
			<g>
				<path class="st4" d="M126,132c0-0.4,0.3-0.7,0.7-0.7s0.7,0.3,0.7,0.7s-0.3,0.7-0.7,0.7C126.3,132.8,126,132.5,126,132z"/>
			</g>
			<g>
				<path class="st4" d="M128.5,132c0-0.4,0.3-0.7,0.7-0.7s0.7,0.3,0.7,0.7s-0.3,0.7-0.7,0.7C128.8,132.8,128.5,132.5,128.5,132z"/>
			</g>
			<g>
				<path class="st4" d="M131,132c0-0.4,0.3-0.7,0.7-0.7s0.7,0.3,0.7,0.7s-0.3,0.7-0.7,0.7C131.3,132.8,131,132.5,131,132z"/>
			</g>
			<g>
				<path class="st4" d="M133.5,132c0-0.4,0.3-0.7,0.7-0.7s0.7,0.3,0.7,0.7s-0.3,0.7-0.7,0.7C133.8,132.8,133.5,132.5,133.5,132z"/>
			</g>
			<g>
				<path class="st4" d="M136,132c0-0.4,0.3-0.7,0.7-0.7s0.7,0.3,0.7,0.7s-0.3,0.7-0.7,0.7C136.3,132.8,136,132.5,136,132z"/>
			</g>
			<g>
				<path class="st4" d="M138.5,132c0-0.4,0.3-0.7,0.7-0.7c0.4,0,0.7,0.3,0.7,0.7s-0.3,0.7-0.7,0.7
					C138.8,132.8,138.5,132.5,138.5,132z"/>
			</g>
			<g>
				<path class="st4" d="M141.1,132c0-0.4,0.3-0.7,0.7-0.7c0.4,0,0.7,0.3,0.7,0.7s-0.3,0.7-0.7,0.7
					C141.3,132.8,141.1,132.5,141.1,132z"/>
			</g>
			<g>
				<path class="st4" d="M143.6,132c0-0.4,0.3-0.7,0.7-0.7s0.7,0.3,0.7,0.7s-0.3,0.7-0.7,0.7C143.8,132.8,143.6,132.5,143.6,132z"/>
			</g>
			<g>
				<path class="st4" d="M146.1,132c0-0.4,0.3-0.7,0.7-0.7s0.7,0.3,0.7,0.7s-0.3,0.7-0.7,0.7C146.4,132.8,146.1,132.5,146.1,132z"/>
			</g>
			<g>
				<path class="st4" d="M148.5,132c0-0.4,0.3-0.7,0.7-0.7s0.7,0.3,0.7,0.7s-0.3,0.7-0.7,0.7C148.9,132.8,148.5,132.5,148.5,132z"/>
			</g>
			<g>
				<path class="st4" d="M151.1,132c0-0.4,0.3-0.7,0.7-0.7s0.7,0.3,0.7,0.7s-0.3,0.7-0.7,0.7C151.4,132.8,151.1,132.5,151.1,132z"/>
			</g>
			<g>
				<path class="st4" d="M153.6,132c0-0.4,0.3-0.7,0.7-0.7s0.7,0.3,0.7,0.7s-0.3,0.7-0.7,0.7C153.9,132.8,153.6,132.5,153.6,132z"/>
			</g>
			<g>
				<path class="st4" d="M156.1,132c0-0.4,0.3-0.7,0.7-0.7c0.4,0,0.7,0.3,0.7,0.7s-0.3,0.7-0.7,0.7
					C156.4,132.8,156.1,132.5,156.1,132z"/>
			</g>
			<g>
				<path class="st4" d="M158.6,132c0-0.4,0.3-0.7,0.7-0.7c0.4,0,0.7,0.3,0.7,0.7s-0.3,0.7-0.7,0.7
					C158.9,132.8,158.6,132.5,158.6,132z"/>
			</g>
			<g>
				<path class="st4" d="M161.1,132c0-0.4,0.3-0.7,0.7-0.7s0.7,0.3,0.7,0.7s-0.3,0.7-0.7,0.7C161.4,132.8,161.1,132.5,161.1,132z"/>
			</g>
			<g>
				<path class="st4" d="M163.6,132c0-0.4,0.3-0.7,0.7-0.7s0.7,0.3,0.7,0.7s-0.3,0.7-0.7,0.7C163.9,132.8,163.6,132.5,163.6,132z"/>
			</g>
			<g>
				<path class="st4" d="M166.1,132c0-0.4,0.3-0.7,0.7-0.7c0.4,0,0.7,0.3,0.7,0.7s-0.3,0.7-0.7,0.7
					C166.4,132.8,166.1,132.5,166.1,132z"/>
			</g>
			<g>
				<path class="st4" d="M168.6,132c0-0.4,0.3-0.7,0.7-0.7s0.7,0.3,0.7,0.7s-0.3,0.7-0.7,0.7C168.9,132.8,168.6,132.5,168.6,132z"/>
			</g>
			<g>
				<path class="st4" d="M171.1,132c0-0.4,0.3-0.7,0.7-0.7c0.4,0,0.7,0.3,0.7,0.7s-0.3,0.7-0.7,0.7
					C171.4,132.8,171.1,132.5,171.1,132z"/>
			</g>
			<g>
				<path class="st4" d="M173.6,132c0-0.4,0.3-0.7,0.7-0.7c0.4,0,0.7,0.3,0.7,0.7s-0.3,0.7-0.7,0.7
					C173.9,132.8,173.6,132.5,173.6,132z"/>
			</g>
			<g>
				<path class="st4" d="M176.1,132c0-0.4,0.3-0.7,0.7-0.7c0.4,0,0.7,0.3,0.7,0.7s-0.3,0.7-0.7,0.7
					C176.4,132.8,176.1,132.5,176.1,132z"/>
			</g>
			<g>
				<path class="st4" d="M178.6,132c0-0.4,0.3-0.7,0.7-0.7s0.7,0.3,0.7,0.7s-0.3,0.7-0.7,0.7C178.9,132.8,178.6,132.5,178.6,132z"/>
			</g>
			<g>
				<path class="st4" d="M181.2,132c0-0.4,0.3-0.7,0.7-0.7s0.7,0.3,0.7,0.7s-0.3,0.7-0.7,0.7C181.4,132.8,181.2,132.5,181.2,132z"/>
			</g>
			<g>
				<path class="st4" d="M183.7,132c0-0.4,0.3-0.7,0.7-0.7s0.7,0.3,0.7,0.7s-0.3,0.7-0.7,0.7C183.9,132.8,183.7,132.5,183.7,132z"/>
			</g>
			<g>
				<path class="st4" d="M186.1,132c0-0.4,0.3-0.7,0.7-0.7s0.7,0.3,0.7,0.7s-0.3,0.7-0.7,0.7C186.4,132.8,186.1,132.5,186.1,132z"/>
			</g>
			<g>
				<path class="st4" d="M188.6,132c0-0.4,0.3-0.7,0.7-0.7s0.7,0.3,0.7,0.7s-0.3,0.7-0.7,0.7C189,132.8,188.6,132.5,188.6,132z"/>
			</g>
			<g>
				<path class="st4" d="M191.2,132c0-0.4,0.3-0.7,0.7-0.7s0.7,0.3,0.7,0.7s-0.3,0.7-0.7,0.7C191.5,132.8,191.2,132.5,191.2,132z"/>
			</g>
			<g>
				<path class="st4" d="M193.7,132c0-0.4,0.3-0.7,0.7-0.7c0.4,0,0.7,0.3,0.7,0.7s-0.3,0.7-0.7,0.7
					C193.9,132.8,193.7,132.5,193.7,132z"/>
			</g>
			<g>
				<path class="st4" d="M196.2,132c0-0.4,0.3-0.7,0.7-0.7s0.7,0.3,0.7,0.7s-0.3,0.7-0.7,0.7C196.5,132.8,196.2,132.5,196.2,132z"/>
			</g>
			<g>
				<path class="st4" d="M198.7,132c0-0.4,0.3-0.7,0.7-0.7s0.7,0.3,0.7,0.7s-0.3,0.7-0.7,0.7C199,132.8,198.7,132.5,198.7,132z"/>
			</g>
			<g>
				<path class="st4" d="M201.2,132c0-0.4,0.3-0.7,0.7-0.7s0.7,0.3,0.7,0.7s-0.3,0.7-0.7,0.7C201.5,132.8,201.2,132.5,201.2,132z"/>
			</g>
			<g>
				<path class="st4" d="M203.7,132c0-0.4,0.3-0.7,0.7-0.7c0.4,0,0.7,0.3,0.7,0.7s-0.3,0.7-0.7,0.7C204,132.8,203.7,132.5,203.7,132
					z"/>
			</g>
			<g>
				<path class="st4" d="M206.2,132c0-0.4,0.3-0.7,0.7-0.7s0.7,0.3,0.7,0.7s-0.3,0.7-0.7,0.7C206.5,132.8,206.2,132.5,206.2,132z"/>
			</g>
			<g>
				<path class="st4" d="M208.7,132c0-0.4,0.3-0.7,0.7-0.7s0.7,0.3,0.7,0.7s-0.3,0.7-0.7,0.7C209,132.8,208.7,132.5,208.7,132z"/>
			</g>
			<g>
				<path class="st4" d="M211.2,132c0-0.4,0.3-0.7,0.7-0.7c0.4,0,0.7,0.3,0.7,0.7s-0.3,0.7-0.7,0.7
					C211.5,132.8,211.2,132.5,211.2,132z"/>
			</g>
			<g>
				<path class="st4" d="M213.7,132c0-0.4,0.3-0.7,0.7-0.7s0.7,0.3,0.7,0.7s-0.3,0.7-0.7,0.7C214,132.8,213.7,132.5,213.7,132z"/>
			</g>
			<g>
				<path class="st4" d="M216.2,132c0-0.4,0.3-0.7,0.7-0.7c0.4,0,0.7,0.3,0.7,0.7s-0.3,0.7-0.7,0.7
					C216.5,132.8,216.2,132.5,216.2,132z"/>
			</g>
			<g>
				<path class="st4" d="M218.7,132c0-0.4,0.3-0.7,0.7-0.7c0.4,0,0.7,0.3,0.7,0.7s-0.3,0.7-0.7,0.7C219,132.8,218.7,132.5,218.7,132
					z"/>
			</g>
			<g>
				<path class="st4" d="M221.2,132c0-0.4,0.3-0.7,0.7-0.7s0.7,0.3,0.7,0.7s-0.3,0.7-0.7,0.7C221.5,132.8,221.2,132.5,221.2,132z"/>
			</g>
			<g>
				<path class="st4" d="M223.7,132c0-0.4,0.3-0.7,0.7-0.7s0.7,0.3,0.7,0.7s-0.3,0.7-0.7,0.7C224,132.8,223.7,132.5,223.7,132z"/>
			</g>
			<g>
				<path class="st4" d="M226.2,132c0-0.4,0.3-0.7,0.7-0.7c0.4,0,0.7,0.3,0.7,0.7s-0.3,0.7-0.7,0.7
					C226.5,132.8,226.2,132.5,226.2,132z"/>
			</g>
			<g>
				<path class="st4" d="M228.7,132c0-0.4,0.3-0.7,0.7-0.7s0.7,0.3,0.7,0.7s-0.3,0.7-0.7,0.7C229.1,132.8,228.7,132.5,228.7,132z"/>
			</g>
			<g>
				<path class="st4" d="M231.3,132c0-0.4,0.3-0.7,0.7-0.7s0.7,0.3,0.7,0.7s-0.3,0.7-0.7,0.7C231.5,132.8,231.3,132.5,231.3,132z"/>
			</g>
			<g>
				<path class="st4" d="M233.8,132c0-0.4,0.3-0.7,0.7-0.7c0.4,0,0.7,0.3,0.7,0.7s-0.3,0.7-0.7,0.7C234,132.8,233.8,132.5,233.8,132
					z"/>
			</g>
			<g>
				<path class="st4" d="M236.3,132c0-0.4,0.3-0.7,0.7-0.7c0.4,0,0.7,0.3,0.7,0.7s-0.3,0.7-0.7,0.7
					C236.6,132.8,236.3,132.5,236.3,132z"/>
			</g>
			<g>
				<path class="st4" d="M238.8,132c0-0.4,0.3-0.7,0.7-0.7c0.4,0,0.7,0.3,0.7,0.7s-0.3,0.7-0.7,0.7
					C239.1,132.8,238.8,132.5,238.8,132z"/>
			</g>
			<g>
				<path class="st4" d="M241.3,132c0-0.4,0.3-0.7,0.7-0.7s0.7,0.3,0.7,0.7s-0.3,0.7-0.7,0.7C241.6,132.8,241.3,132.5,241.3,132z"/>
			</g>
			<g>
				<path class="st4" d="M243.8,132c0-0.4,0.3-0.7,0.7-0.7c0.4,0,0.7,0.3,0.7,0.7s-0.3,0.7-0.7,0.7
					C244.1,132.8,243.8,132.5,243.8,132z"/>
			</g>
			<g>
				<path class="st4" d="M246.3,132c0-0.4,0.3-0.7,0.7-0.7c0.4,0,0.7,0.3,0.7,0.7s-0.3,0.7-0.7,0.7
					C246.6,132.8,246.3,132.5,246.3,132z"/>
			</g>
			<g>
				<path class="st4" d="M248.8,132c0-0.4,0.3-0.7,0.7-0.7s0.7,0.3,0.7,0.7s-0.3,0.7-0.7,0.7S248.8,132.5,248.8,132z"/>
			</g>
			<g>
				<path class="st4" d="M251.3,132c0-0.4,0.3-0.7,0.7-0.7s0.7,0.3,0.7,0.7s-0.3,0.7-0.7,0.7C251.6,132.8,251.3,132.5,251.3,132z"/>
			</g>
			<g>
				<path class="st4" d="M253.8,132c0-0.4,0.3-0.7,0.7-0.7c0.4,0,0.7,0.3,0.7,0.7s-0.3,0.7-0.7,0.7
					C254.1,132.8,253.8,132.5,253.8,132z"/>
			</g>
			<g>
				<path class="st4" d="M256.3,132c0-0.4,0.3-0.7,0.7-0.7c0.4,0,0.7,0.3,0.7,0.7s-0.3,0.7-0.7,0.7
					C256.6,132.8,256.3,132.5,256.3,132z"/>
			</g>
			<g>
				<path class="st4" d="M258.8,132c0-0.4,0.3-0.7,0.7-0.7s0.7,0.3,0.7,0.7s-0.3,0.7-0.7,0.7C259.1,132.8,258.8,132.5,258.8,132z"/>
			</g>
			<g>
				<path class="st4" d="M261.3,132c0-0.4,0.3-0.7,0.7-0.7s0.7,0.3,0.7,0.7s-0.3,0.7-0.7,0.7C261.6,132.8,261.3,132.5,261.3,132z"/>
			</g>
			<g>
				<path class="st4" d="M263.8,132c0-0.4,0.3-0.7,0.7-0.7c0.4,0,0.7,0.3,0.7,0.7s-0.3,0.7-0.7,0.7
					C264.1,132.8,263.8,132.5,263.8,132z"/>
			</g>
			<g>
				<path class="st4" d="M266.3,132c0-0.4,0.3-0.7,0.7-0.7s0.7,0.3,0.7,0.7s-0.3,0.7-0.7,0.7S266.3,132.5,266.3,132z"/>
			</g>
			<g>
				<path class="st4" d="M268.8,132c0-0.4,0.3-0.7,0.7-0.7c0.4,0,0.7,0.3,0.7,0.7s-0.3,0.7-0.7,0.7
					C269.1,132.8,268.8,132.5,268.8,132z"/>
			</g>
			<g>
				<path class="st4" d="M271.4,132c0-0.4,0.3-0.7,0.7-0.7s0.7,0.3,0.7,0.7s-0.3,0.7-0.7,0.7C271.6,132.8,271.4,132.5,271.4,132z"/>
			</g>
			<g>
				<path class="st4" d="M273.9,132c0-0.4,0.3-0.7,0.7-0.7c0.4,0,0.7,0.3,0.7,0.7s-0.3,0.7-0.7,0.7
					C274.1,132.8,273.9,132.5,273.9,132z"/>
			</g>
			<g>
				<path class="st4" d="M276.4,132c0-0.4,0.3-0.7,0.7-0.7s0.7,0.3,0.7,0.7s-0.3,0.7-0.7,0.7C276.6,132.8,276.4,132.5,276.4,132z"/>
			</g>
			<g>
				<path class="st4" d="M278.9,132c0-0.4,0.3-0.7,0.7-0.7s0.7,0.3,0.7,0.7s-0.3,0.7-0.7,0.7C279.2,132.8,278.9,132.5,278.9,132z"/>
			</g>
			<g>
				<path class="st4" d="M281.4,132c0-0.4,0.3-0.7,0.7-0.7s0.7,0.3,0.7,0.7s-0.3,0.7-0.7,0.7C281.7,132.8,281.4,132.5,281.4,132z"/>
			</g>
			<g>
				<path class="st4" d="M283.9,132c0-0.4,0.3-0.7,0.7-0.7c0.4,0,0.7,0.3,0.7,0.7s-0.3,0.7-0.7,0.7
					C284.2,132.8,283.9,132.5,283.9,132z"/>
			</g>
			<g>
				<path class="st4" d="M286.4,132c0-0.4,0.3-0.7,0.7-0.7s0.7,0.3,0.7,0.7s-0.3,0.7-0.7,0.7C286.7,132.8,286.4,132.5,286.4,132z"/>
			</g>
			<g>
				<path class="st4" d="M288.9,132c0-0.4,0.3-0.7,0.7-0.7s0.7,0.3,0.7,0.7s-0.3,0.7-0.7,0.7C289.2,132.8,288.9,132.5,288.9,132z"/>
			</g>
			<g>
				<path class="st4" d="M291.4,132c0-0.4,0.3-0.7,0.7-0.7c0.4,0,0.7,0.3,0.7,0.7s-0.3,0.7-0.7,0.7
					C291.7,132.8,291.4,132.5,291.4,132z"/>
			</g>
			<g>
				<path class="st4" d="M293.9,132c0-0.4,0.3-0.7,0.7-0.7s0.7,0.3,0.7,0.7s-0.3,0.7-0.7,0.7C294.2,132.8,293.9,132.5,293.9,132z"/>
			</g>
			<g>
				<path class="st4" d="M296.4,132c0-0.4,0.3-0.7,0.7-0.7s0.7,0.3,0.7,0.7s-0.3,0.7-0.7,0.7C296.7,132.8,296.4,132.5,296.4,132z"/>
			</g>
			<g>
				<path class="st4" d="M298.9,132c0-0.4,0.3-0.7,0.7-0.7s0.7,0.3,0.7,0.7s-0.3,0.7-0.7,0.7C299.2,132.8,298.9,132.5,298.9,132z"/>
			</g>
			<g>
				<path class="st4" d="M301.4,132c0-0.4,0.3-0.7,0.7-0.7c0.4,0,0.7,0.3,0.7,0.7s-0.3,0.7-0.7,0.7
					C301.7,132.8,301.4,132.5,301.4,132z"/>
			</g>
			<g>
				<path class="st4" d="M303.9,132c0-0.4,0.3-0.7,0.7-0.7c0.4,0,0.7,0.3,0.7,0.7s-0.3,0.7-0.7,0.7
					C304.2,132.8,303.9,132.5,303.9,132z"/>
			</g>
			<g>
				<path class="st4" d="M306.4,132c0-0.4,0.3-0.7,0.7-0.7s0.7,0.3,0.7,0.7s-0.3,0.7-0.7,0.7C306.7,132.8,306.4,132.5,306.4,132z"/>
			</g>
			<g>
				<path class="st4" d="M308.9,132c0-0.4,0.3-0.7,0.7-0.7c0.4,0,0.7,0.3,0.7,0.7s-0.3,0.7-0.7,0.7
					C309.2,132.8,308.9,132.5,308.9,132z"/>
			</g>
			<g>
				<path class="st4" d="M311.5,132c0-0.4,0.3-0.7,0.7-0.7s0.7,0.3,0.7,0.7s-0.3,0.7-0.7,0.7C311.7,132.8,311.5,132.5,311.5,132z"/>
			</g>
			<g>
				<path class="st4" d="M314,132c0-0.4,0.3-0.7,0.7-0.7s0.7,0.3,0.7,0.7s-0.3,0.7-0.7,0.7C314.2,132.8,314,132.5,314,132z"/>
			</g>
			<g>
				<path class="st4" d="M316.5,132c0-0.4,0.3-0.7,0.7-0.7s0.7,0.3,0.7,0.7s-0.3,0.7-0.7,0.7C316.7,132.8,316.5,132.5,316.5,132z"/>
			</g>
			<g>
				<path class="st4" d="M318.9,132c0-0.4,0.3-0.7,0.7-0.7c0.4,0,0.7,0.3,0.7,0.7s-0.3,0.7-0.7,0.7
					C319.3,132.8,318.9,132.5,318.9,132z"/>
			</g>
			<g>
				<path class="st4" d="M321.5,132c0-0.4,0.3-0.7,0.7-0.7c0.4,0,0.7,0.3,0.7,0.7s-0.3,0.7-0.7,0.7S321.5,132.5,321.5,132z"/>
			</g>
			<g>
				<path class="st4" d="M324,132c0-0.4,0.3-0.7,0.7-0.7s0.7,0.3,0.7,0.7s-0.3,0.7-0.7,0.7C324.3,132.8,324,132.5,324,132z"/>
			</g>
			<g>
				<path class="st4" d="M326.5,132c0-0.4,0.3-0.7,0.7-0.7c0.4,0,0.7,0.3,0.7,0.7s-0.3,0.7-0.7,0.7
					C326.8,132.8,326.5,132.5,326.5,132z"/>
			</g>
			<g>
				<path class="st4" d="M329,132c0-0.4,0.3-0.7,0.7-0.7s0.7,0.3,0.7,0.7s-0.3,0.7-0.7,0.7C329.3,132.8,329,132.5,329,132z"/>
			</g>
			<g>
				<path class="st4" d="M331.5,132c0-0.4,0.3-0.7,0.7-0.7s0.7,0.3,0.7,0.7s-0.3,0.7-0.7,0.7C331.8,132.8,331.5,132.5,331.5,132z"/>
			</g>
			<g>
				<path class="st4" d="M334,132c0-0.4,0.3-0.7,0.7-0.7c0.4,0,0.7,0.3,0.7,0.7s-0.3,0.7-0.7,0.7C334.3,132.8,334,132.5,334,132z"/>
			</g>
			<g>
				<path class="st4" d="M336.5,132c0-0.4,0.3-0.7,0.7-0.7c0.4,0,0.7,0.3,0.7,0.7s-0.3,0.7-0.7,0.7
					C336.8,132.8,336.5,132.5,336.5,132z"/>
			</g>
			<g>
				<path class="st4" d="M339,132c0-0.4,0.3-0.7,0.7-0.7s0.7,0.3,0.7,0.7s-0.3,0.7-0.7,0.7S339,132.5,339,132z"/>
			</g>
			<g>
				<path class="st4" d="M341.5,132c0-0.4,0.3-0.7,0.7-0.7s0.7,0.3,0.7,0.7s-0.3,0.7-0.7,0.7C341.8,132.8,341.5,132.5,341.5,132z"/>
			</g>
			<g>
				<path class="st4" d="M344,132c0-0.4,0.3-0.7,0.7-0.7c0.4,0,0.7,0.3,0.7,0.7s-0.3,0.7-0.7,0.7C344.3,132.8,344,132.5,344,132z"/>
			</g>
			<g>
				<path class="st4" d="M346.5,132c0-0.4,0.3-0.7,0.7-0.7s0.7,0.3,0.7,0.7s-0.3,0.7-0.7,0.7C346.8,132.8,346.5,132.5,346.5,132z"/>
			</g>
			<g>
				<path class="st4" d="M349,132c0-0.4,0.3-0.7,0.7-0.7s0.7,0.3,0.7,0.7s-0.3,0.7-0.7,0.7C349.3,132.8,349,132.5,349,132z"/>
			</g>
			<g>
				<path class="st4" d="M351.5,132c0-0.4,0.3-0.7,0.7-0.7s0.7,0.3,0.7,0.7s-0.3,0.7-0.7,0.7C351.8,132.8,351.5,132.5,351.5,132z"/>
			</g>
			<g>
				<path class="st4" d="M354.1,132c0-0.4,0.3-0.7,0.7-0.7c0.4,0,0.7,0.3,0.7,0.7s-0.3,0.7-0.7,0.7
					C354.3,132.8,354.1,132.5,354.1,132z"/>
			</g>
			<g>
				<path class="st4" d="M356.5,132c0-0.4,0.3-0.7,0.7-0.7s0.7,0.3,0.7,0.7s-0.3,0.7-0.7,0.7S356.5,132.5,356.5,132z"/>
			</g>
			<g>
				<path class="st4" d="M359,132c0-0.4,0.3-0.7,0.7-0.7s0.7,0.3,0.7,0.7s-0.3,0.7-0.7,0.7C359.4,132.8,359,132.5,359,132z"/>
			</g>
			<g>
				<path class="st4" d="M361.6,132c0-0.4,0.3-0.7,0.7-0.7s0.7,0.3,0.7,0.7s-0.3,0.7-0.7,0.7C361.9,132.8,361.6,132.5,361.6,132z"/>
			</g>
			<g>
				<path class="st4" d="M364.1,132c0-0.4,0.3-0.7,0.7-0.7c0.4,0,0.7,0.3,0.7,0.7s-0.3,0.7-0.7,0.7
					C364.3,132.8,364.1,132.5,364.1,132z"/>
			</g>
			<g>
				<path class="st4" d="M366.6,132c0-0.4,0.3-0.7,0.7-0.7c0.4,0,0.7,0.3,0.7,0.7s-0.3,0.7-0.7,0.7
					C366.9,132.8,366.6,132.5,366.6,132z"/>
			</g>
			<g>
				<path class="st4" d="M369.1,132c0-0.4,0.3-0.7,0.7-0.7c0.4,0,0.7,0.3,0.7,0.7s-0.3,0.7-0.7,0.7
					C369.4,132.8,369.1,132.5,369.1,132z"/>
			</g>
			<g>
				<path class="st4" d="M371.6,132c0-0.4,0.3-0.7,0.7-0.7s0.7,0.3,0.7,0.7s-0.3,0.7-0.7,0.7C371.9,132.8,371.6,132.5,371.6,132z"/>
			</g>
			<g>
				<path class="st4" d="M374.1,132c0-0.4,0.3-0.7,0.7-0.7s0.7,0.3,0.7,0.7s-0.3,0.7-0.7,0.7C374.4,132.8,374.1,132.5,374.1,132z"/>
			</g>
			<g>
				<path class="st4" d="M376.6,132c0-0.4,0.3-0.7,0.7-0.7c0.4,0,0.7,0.3,0.7,0.7s-0.3,0.7-0.7,0.7
					C376.9,132.8,376.6,132.5,376.6,132z"/>
			</g>
			<g>
				<path class="st4" d="M379.1,132c0-0.4,0.3-0.7,0.7-0.7c0.4,0,0.7,0.3,0.7,0.7s-0.3,0.7-0.7,0.7
					C379.4,132.8,379.1,132.5,379.1,132z"/>
			</g>
			<g>
				<path class="st4" d="M381.6,132c0-0.4,0.3-0.7,0.7-0.7s0.7,0.3,0.7,0.7s-0.3,0.7-0.7,0.7C381.9,132.8,381.6,132.5,381.6,132z"/>
			</g>
			<g>
				<path class="st4" d="M384.1,132c0-0.4,0.3-0.7,0.7-0.7c0.4,0,0.7,0.3,0.7,0.7s-0.3,0.7-0.7,0.7
					C384.4,132.8,384.1,132.5,384.1,132z"/>
			</g>
			<g>
				<path class="st4" d="M386.6,132c0-0.4,0.3-0.7,0.7-0.7c0.4,0,0.7,0.3,0.7,0.7s-0.3,0.7-0.7,0.7
					C386.9,132.8,386.6,132.5,386.6,132z"/>
			</g>
			<g>
				<path class="st4" d="M389.1,132c0-0.4,0.3-0.7,0.7-0.7s0.7,0.3,0.7,0.7s-0.3,0.7-0.7,0.7C389.4,132.8,389.1,132.5,389.1,132z"/>
			</g>
			<g>
				<path class="st4" d="M391.6,132c0-0.4,0.3-0.7,0.7-0.7s0.7,0.3,0.7,0.7s-0.3,0.7-0.7,0.7C391.9,132.8,391.6,132.5,391.6,132z"/>
			</g>
			<g>
				<path class="st4" d="M394.1,132c0-0.4,0.3-0.7,0.7-0.7c0.4,0,0.7,0.3,0.7,0.7s-0.3,0.7-0.7,0.7
					C394.4,132.8,394.1,132.5,394.1,132z"/>
			</g>
			<g>
				<path class="st4" d="M396.6,132c0-0.4,0.3-0.7,0.7-0.7s0.7,0.3,0.7,0.7s-0.3,0.7-0.7,0.7C396.9,132.8,396.6,132.5,396.6,132z"/>
			</g>
			<g>
				<path class="st4" d="M399.1,132c0-0.4,0.3-0.7,0.7-0.7s0.7,0.3,0.7,0.7s-0.3,0.7-0.7,0.7C399.5,132.8,399.1,132.5,399.1,132z"/>
			</g>
			<g>
				<path class="st4" d="M401.7,132c0-0.4,0.3-0.7,0.7-0.7c0.4,0,0.7,0.3,0.7,0.7s-0.3,0.7-0.7,0.7
					C401.9,132.8,401.7,132.5,401.7,132z"/>
			</g>
			<g>
				<path class="st4" d="M404.2,132c0-0.4,0.3-0.7,0.7-0.7c0.4,0,0.7,0.3,0.7,0.7s-0.3,0.7-0.7,0.7
					C404.4,132.8,404.2,132.5,404.2,132z"/>
			</g>
			<g>
				<path class="st4" d="M406.7,132c0-0.4,0.3-0.7,0.7-0.7s0.7,0.3,0.7,0.7s-0.3,0.7-0.7,0.7C407,132.8,406.7,132.5,406.7,132z"/>
			</g>
			<g>
				<path class="st4" d="M409.2,132c0-0.4,0.3-0.7,0.7-0.7s0.7,0.3,0.7,0.7s-0.3,0.7-0.7,0.7C409.5,132.8,409.2,132.5,409.2,132z"/>
			</g>
			<g>
				<path class="st4" d="M411.7,132c0-0.4,0.3-0.7,0.7-0.7c0.4,0,0.7,0.3,0.7,0.7s-0.3,0.7-0.7,0.7C412,132.8,411.7,132.5,411.7,132
					z"/>
			</g>
		</g>
	</g>
	<g>
		<g>
			<g>
				<path class="st4" d="M223.5,86.2c0.4,0,0.7,0.3,0.7,0.7c0,0.4-0.3,0.7-0.7,0.7s-0.7-0.3-0.7-0.7
					C222.8,86.5,223.1,86.2,223.5,86.2z"/>
			</g>
			<g>
				<path class="st4" d="M223.5,88.7c0.4,0,0.7,0.3,0.7,0.7s-0.3,0.7-0.7,0.7s-0.7-0.3-0.7-0.7C222.8,89,223.1,88.7,223.5,88.7z"/>
			</g>
			<g>
				<path class="st4" d="M223.5,91.2c0.4,0,0.7,0.3,0.7,0.7c0,0.4-0.3,0.7-0.7,0.7s-0.7-0.3-0.7-0.7
					C222.8,91.5,223.1,91.2,223.5,91.2z"/>
			</g>
			<g>
				<path class="st4" d="M223.5,93.7c0.4,0,0.7,0.3,0.7,0.7s-0.3,0.7-0.7,0.7s-0.7-0.3-0.7-0.7C222.8,94,223.1,93.7,223.5,93.7z"/>
			</g>
			<g>
				<path class="st4" d="M223.5,96.2c0.4,0,0.7,0.3,0.7,0.7s-0.3,0.7-0.7,0.7s-0.7-0.3-0.7-0.7C222.8,96.5,223.1,96.2,223.5,96.2z"
					/>
			</g>
			<g>
				<path class="st4" d="M223.5,98.7c0.4,0,0.7,0.3,0.7,0.7s-0.3,0.7-0.7,0.7s-0.7-0.3-0.7-0.7C222.8,99,223.1,98.7,223.5,98.7z"/>
			</g>
			<g>
				<path class="st4" d="M223.5,101.2c0.4,0,0.7,0.3,0.7,0.7s-0.3,0.7-0.7,0.7s-0.7-0.3-0.7-0.7
					C222.8,101.5,223.1,101.2,223.5,101.2z"/>
			</g>
			<g>
				<path class="st4" d="M223.5,103.7c0.4,0,0.7,0.3,0.7,0.7c0,0.4-0.3,0.7-0.7,0.7s-0.7-0.3-0.7-0.7
					C222.8,104,223.1,103.7,223.5,103.7z"/>
			</g>
			<g>
				<path class="st4" d="M223.5,106.2c0.4,0,0.7,0.3,0.7,0.7s-0.3,0.7-0.7,0.7s-0.7-0.3-0.7-0.7
					C222.8,106.5,223.1,106.2,223.5,106.2z"/>
			</g>
			<g>
				<path class="st4" d="M223.5,108.7c0.4,0,0.7,0.3,0.7,0.7s-0.3,0.7-0.7,0.7s-0.7-0.3-0.7-0.7C222.8,109,223.1,108.7,223.5,108.7z
					"/>
			</g>
			<g>
				<path class="st4" d="M223.5,111.3c0.4,0,0.7,0.3,0.7,0.7s-0.3,0.7-0.7,0.7s-0.7-0.3-0.7-0.7
					C222.8,111.5,223.1,111.3,223.5,111.3z"/>
			</g>
			<g>
				<path class="st4" d="M223.5,113.8c0.4,0,0.7,0.3,0.7,0.7s-0.3,0.7-0.7,0.7s-0.7-0.3-0.7-0.7C222.8,114,223.1,113.8,223.5,113.8z
					"/>
			</g>
			<g>
				<path class="st4" d="M223.5,116.2c0.4,0,0.7,0.3,0.7,0.7s-0.3,0.7-0.7,0.7s-0.7-0.3-0.7-0.7
					C222.8,116.5,223.1,116.2,223.5,116.2z"/>
			</g>
			<g>
				<path class="st4" d="M223.5,118.7c0.4,0,0.7,0.3,0.7,0.7s-0.3,0.7-0.7,0.7s-0.7-0.3-0.7-0.7
					C222.8,119.1,223.1,118.7,223.5,118.7z"/>
			</g>
			<g>
				<path class="st4" d="M223.5,121.3c0.4,0,0.7,0.3,0.7,0.7c0,0.4-0.3,0.7-0.7,0.7s-0.7-0.3-0.7-0.7
					C222.8,121.6,223.1,121.3,223.5,121.3z"/>
			</g>
			<g>
				<path class="st4" d="M223.5,123.8c0.4,0,0.7,0.3,0.7,0.7c0,0.4-0.3,0.7-0.7,0.7s-0.7-0.3-0.7-0.7
					C222.8,124,223.1,123.8,223.5,123.8z"/>
			</g>
			<g>
				<path class="st4" d="M223.5,126.3c0.4,0,0.7,0.3,0.7,0.7s-0.3,0.7-0.7,0.7s-0.7-0.3-0.7-0.7
					C222.8,126.6,223.1,126.3,223.5,126.3z"/>
			</g>
			<g>
				<path class="st4" d="M223.5,128.8c0.4,0,0.7,0.3,0.7,0.7s-0.3,0.7-0.7,0.7s-0.7-0.3-0.7-0.7
					C222.8,129.1,223.1,128.8,223.5,128.8z"/>
			</g>
		</g>
	</g>
	<g>
		<g>
			<g>
				<path class="st4" d="M33.9,131.6c0.4,0,0.7,0.3,0.7,0.7s-0.3,0.7-0.7,0.7c-0.4,0-0.7-0.3-0.7-0.7
					C33.1,131.9,33.4,131.6,33.9,131.6z"/>
			</g>
			<g>
				<path class="st4" d="M33.9,134.1c0.4,0,0.7,0.3,0.7,0.7s-0.3,0.7-0.7,0.7c-0.4,0-0.7-0.3-0.7-0.7
					C33.1,134.4,33.4,134.1,33.9,134.1z"/>
			</g>
			<g>
				<path class="st4" d="M33.9,136.6c0.4,0,0.7,0.3,0.7,0.7s-0.3,0.7-0.7,0.7c-0.4,0-0.7-0.3-0.7-0.7
					C33.1,136.9,33.4,136.6,33.9,136.6z"/>
			</g>
			<g>
				<path class="st4" d="M33.9,139.1c0.4,0,0.7,0.3,0.7,0.7s-0.3,0.7-0.7,0.7c-0.4,0-0.7-0.3-0.7-0.7
					C33.1,139.4,33.4,139.1,33.9,139.1z"/>
			</g>
			<g>
				<path class="st4" d="M33.9,141.6c0.4,0,0.7,0.3,0.7,0.7s-0.3,0.7-0.7,0.7c-0.4,0-0.7-0.3-0.7-0.7
					C33.1,141.9,33.4,141.6,33.9,141.6z"/>
			</g>
			<g>
				<path class="st4" d="M33.9,144.1c0.4,0,0.7,0.3,0.7,0.7s-0.3,0.7-0.7,0.7c-0.4,0-0.7-0.3-0.7-0.7
					C33.1,144.4,33.4,144.1,33.9,144.1z"/>
			</g>
			<g>
				<path class="st4" d="M33.9,146.6c0.4,0,0.7,0.3,0.7,0.7s-0.3,0.7-0.7,0.7c-0.4,0-0.7-0.3-0.7-0.7
					C33.1,146.9,33.4,146.6,33.9,146.6z"/>
			</g>
			<g>
				<path class="st4" d="M33.9,149.1c0.4,0,0.7,0.3,0.7,0.7c0,0.4-0.3,0.7-0.7,0.7c-0.4,0-0.7-0.3-0.7-0.7
					C33.1,149.4,33.4,149.1,33.9,149.1z"/>
			</g>
			<g>
				<path class="st4" d="M33.9,151.6c0.4,0,0.7,0.3,0.7,0.7s-0.3,0.7-0.7,0.7c-0.4,0-0.7-0.3-0.7-0.7
					C33.1,151.9,33.4,151.6,33.9,151.6z"/>
			</g>
			<g>
				<path class="st4" d="M33.9,154.1c0.4,0,0.7,0.3,0.7,0.7s-0.3,0.7-0.7,0.7c-0.4,0-0.7-0.3-0.7-0.7
					C33.1,154.4,33.4,154.1,33.9,154.1z"/>
			</g>
			<g>
				<path class="st4" d="M33.9,156.6c0.4,0,0.7,0.3,0.7,0.7c0,0.4-0.3,0.7-0.7,0.7c-0.4,0-0.7-0.3-0.7-0.7
					C33.1,156.9,33.4,156.6,33.9,156.6z"/>
			</g>
			<g>
				<path class="st4" d="M33.9,159.2c0.4,0,0.7,0.3,0.7,0.7c0,0.4-0.3,0.7-0.7,0.7c-0.4,0-0.7-0.3-0.7-0.7
					C33.1,159.4,33.4,159.2,33.9,159.2z"/>
			</g>
			<g>
				<path class="st4" d="M33.9,161.7c0.4,0,0.7,0.3,0.7,0.7s-0.3,0.7-0.7,0.7c-0.4,0-0.7-0.3-0.7-0.7
					C33.1,161.9,33.4,161.7,33.9,161.7z"/>
			</g>
			<g>
				<path class="st4" d="M33.9,164.1c0.4,0,0.7,0.3,0.7,0.7c0,0.4-0.3,0.7-0.7,0.7c-0.4,0-0.7-0.3-0.7-0.7
					C33.1,164.5,33.4,164.1,33.9,164.1z"/>
			</g>
			<g>
				<path class="st4" d="M33.9,166.7c0.4,0,0.7,0.3,0.7,0.7s-0.3,0.7-0.7,0.7c-0.4,0-0.7-0.3-0.7-0.7
					C33.1,167,33.4,166.7,33.9,166.7z"/>
			</g>
			<g>
				<path class="st4" d="M33.9,169.2c0.4,0,0.7,0.3,0.7,0.7s-0.3,0.7-0.7,0.7c-0.4,0-0.7-0.3-0.7-0.7
					C33.1,169.5,33.4,169.2,33.9,169.2z"/>
			</g>
			<g>
				<path class="st4" d="M33.9,171.7c0.4,0,0.7,0.3,0.7,0.7s-0.3,0.7-0.7,0.7c-0.4,0-0.7-0.3-0.7-0.7
					C33.1,171.9,33.4,171.7,33.9,171.7z"/>
			</g>
			<g>
				<path class="st4" d="M33.9,174.2c0.4,0,0.7,0.3,0.7,0.7s-0.3,0.7-0.7,0.7c-0.4,0-0.7-0.3-0.7-0.7
					C33.1,174.5,33.4,174.2,33.9,174.2z"/>
			</g>
		</g>
	</g>
	<g>
		<g>
			<g>
				<path class="st4" d="M161,133.6c0.4,0,0.7,0.3,0.7,0.7c0,0.4-0.3,0.7-0.7,0.7s-0.7-0.3-0.7-0.7
					C160.2,133.9,160.6,133.6,161,133.6z"/>
			</g>
			<g>
				<path class="st4" d="M161,136.1c0.4,0,0.7,0.3,0.7,0.7c0,0.4-0.3,0.7-0.7,0.7s-0.7-0.3-0.7-0.7
					C160.2,136.4,160.6,136.1,161,136.1z"/>
			</g>
			<g>
				<path class="st4" d="M161,138.6c0.4,0,0.7,0.3,0.7,0.7s-0.3,0.7-0.7,0.7s-0.7-0.3-0.7-0.7C160.2,138.9,160.6,138.6,161,138.6z"
					/>
			</g>
			<g>
				<path class="st4" d="M161,141.1c0.4,0,0.7,0.3,0.7,0.7s-0.3,0.7-0.7,0.7s-0.7-0.3-0.7-0.7C160.2,141.4,160.6,141.1,161,141.1z"
					/>
			</g>
			<g>
				<path class="st4" d="M161,143.6c0.4,0,0.7,0.3,0.7,0.7s-0.3,0.7-0.7,0.7s-0.7-0.3-0.7-0.7C160.2,143.9,160.6,143.6,161,143.6z"
					/>
			</g>
			<g>
				<path class="st4" d="M161,146.1c0.4,0,0.7,0.3,0.7,0.7s-0.3,0.7-0.7,0.7s-0.7-0.3-0.7-0.7C160.2,146.4,160.6,146.1,161,146.1z"
					/>
			</g>
			<g>
				<path class="st4" d="M161,148.6c0.4,0,0.7,0.3,0.7,0.7c0,0.4-0.3,0.7-0.7,0.7s-0.7-0.3-0.7-0.7
					C160.2,148.9,160.6,148.6,161,148.6z"/>
			</g>
			<g>
				<path class="st4" d="M161,151.2c0.4,0,0.7,0.3,0.7,0.7c0,0.4-0.3,0.7-0.7,0.7s-0.7-0.3-0.7-0.7
					C160.2,151.4,160.6,151.2,161,151.2z"/>
			</g>
			<g>
				<path class="st4" d="M161,153.7c0.4,0,0.7,0.3,0.7,0.7s-0.3,0.7-0.7,0.7s-0.7-0.3-0.7-0.7C160.2,153.9,160.6,153.7,161,153.7z"
					/>
			</g>
			<g>
				<path class="st4" d="M161,156.1c0.4,0,0.7,0.3,0.7,0.7s-0.3,0.7-0.7,0.7s-0.7-0.3-0.7-0.7C160.2,156.4,160.6,156.1,161,156.1z"
					/>
			</g>
			<g>
				<path class="st4" d="M161,158.6c0.4,0,0.7,0.3,0.7,0.7s-0.3,0.7-0.7,0.7s-0.7-0.3-0.7-0.7C160.2,159,160.6,158.6,161,158.6z"/>
			</g>
			<g>
				<path class="st4" d="M161,161.2c0.4,0,0.7,0.3,0.7,0.7s-0.3,0.7-0.7,0.7s-0.7-0.3-0.7-0.7C160.2,161.5,160.6,161.2,161,161.2z"
					/>
			</g>
			<g>
				<path class="st4" d="M161,163.7c0.4,0,0.7,0.3,0.7,0.7s-0.3,0.7-0.7,0.7s-0.7-0.3-0.7-0.7C160.2,163.9,160.6,163.7,161,163.7z"
					/>
			</g>
			<g>
				<path class="st4" d="M161,166.2c0.4,0,0.7,0.3,0.7,0.7s-0.3,0.7-0.7,0.7s-0.7-0.3-0.7-0.7C160.2,166.5,160.6,166.2,161,166.2z"
					/>
			</g>
			<g>
				<path class="st4" d="M161,168.7c0.4,0,0.7,0.3,0.7,0.7s-0.3,0.7-0.7,0.7s-0.7-0.3-0.7-0.7C160.2,169,160.6,168.7,161,168.7z"/>
			</g>
			<g>
				<path class="st4" d="M161,171.2c0.4,0,0.7,0.3,0.7,0.7s-0.3,0.7-0.7,0.7s-0.7-0.3-0.7-0.7C160.2,171.5,160.6,171.2,161,171.2z"
					/>
			</g>
			<g>
				<path class="st4" d="M161,173.7c0.4,0,0.7,0.3,0.7,0.7s-0.3,0.7-0.7,0.7s-0.7-0.3-0.7-0.7C160.2,174,160.6,173.7,161,173.7z"/>
			</g>
			<g>
				<path class="st4" d="M161,176.2c0.4,0,0.7,0.3,0.7,0.7s-0.3,0.7-0.7,0.7s-0.7-0.3-0.7-0.7C160.2,176.5,160.6,176.2,161,176.2z"
					/>
			</g>
		</g>
	</g>
	<g>
		<g>
			<g>
				<path class="st4" d="M284.1,132.6c0.4,0,0.7,0.3,0.7,0.7c0,0.4-0.3,0.7-0.7,0.7s-0.7-0.3-0.7-0.7
					C283.3,132.9,283.6,132.6,284.1,132.6z"/>
			</g>
			<g>
				<path class="st4" d="M284.1,135.1c0.4,0,0.7,0.3,0.7,0.7s-0.3,0.7-0.7,0.7s-0.7-0.3-0.7-0.7
					C283.3,135.4,283.6,135.1,284.1,135.1z"/>
			</g>
			<g>
				<path class="st4" d="M284.1,137.6c0.4,0,0.7,0.3,0.7,0.7s-0.3,0.7-0.7,0.7s-0.7-0.3-0.7-0.7
					C283.3,137.9,283.6,137.6,284.1,137.6z"/>
			</g>
			<g>
				<path class="st4" d="M284.1,140.1c0.4,0,0.7,0.3,0.7,0.7s-0.3,0.7-0.7,0.7s-0.7-0.3-0.7-0.7
					C283.3,140.4,283.6,140.1,284.1,140.1z"/>
			</g>
			<g>
				<path class="st4" d="M284.1,142.6c0.4,0,0.7,0.3,0.7,0.7s-0.3,0.7-0.7,0.7s-0.7-0.3-0.7-0.7
					C283.3,142.9,283.6,142.6,284.1,142.6z"/>
			</g>
			<g>
				<path class="st4" d="M284.1,145.1c0.4,0,0.7,0.3,0.7,0.7c0,0.4-0.3,0.7-0.7,0.7s-0.7-0.3-0.7-0.7
					C283.3,145.4,283.6,145.1,284.1,145.1z"/>
			</g>
			<g>
				<path class="st4" d="M284.1,147.6c0.4,0,0.7,0.3,0.7,0.7c0,0.4-0.3,0.7-0.7,0.7s-0.7-0.3-0.7-0.7
					C283.3,147.9,283.6,147.6,284.1,147.6z"/>
			</g>
			<g>
				<path class="st4" d="M284.1,150.1c0.4,0,0.7,0.3,0.7,0.7s-0.3,0.7-0.7,0.7s-0.7-0.3-0.7-0.7
					C283.3,150.4,283.6,150.1,284.1,150.1z"/>
			</g>
			<g>
				<path class="st4" d="M284.1,152.6c0.4,0,0.7,0.3,0.7,0.7s-0.3,0.7-0.7,0.7s-0.7-0.3-0.7-0.7
					C283.3,152.9,283.6,152.6,284.1,152.6z"/>
			</g>
			<g>
				<path class="st4" d="M284.1,155.2c0.4,0,0.7,0.3,0.7,0.7s-0.3,0.7-0.7,0.7s-0.7-0.3-0.7-0.7
					C283.3,155.4,283.6,155.2,284.1,155.2z"/>
			</g>
			<g>
				<path class="st4" d="M284.1,157.7c0.4,0,0.7,0.3,0.7,0.7s-0.3,0.7-0.7,0.7s-0.7-0.3-0.7-0.7
					C283.3,157.9,283.6,157.7,284.1,157.7z"/>
			</g>
			<g>
				<path class="st4" d="M284.1,160.1c0.4,0,0.7,0.3,0.7,0.7s-0.3,0.7-0.7,0.7s-0.7-0.3-0.7-0.7
					C283.3,160.5,283.6,160.1,284.1,160.1z"/>
			</g>
			<g>
				<path class="st4" d="M284.1,162.6c0.4,0,0.7,0.3,0.7,0.7s-0.3,0.7-0.7,0.7s-0.7-0.3-0.7-0.7C283.3,163,283.6,162.6,284.1,162.6z
					"/>
			</g>
			<g>
				<path class="st4" d="M284.1,165.2c0.4,0,0.7,0.3,0.7,0.7s-0.3,0.7-0.7,0.7s-0.7-0.3-0.7-0.7
					C283.3,165.5,283.6,165.2,284.1,165.2z"/>
			</g>
			<g>
				<path class="st4" d="M284.1,167.7c0.4,0,0.7,0.3,0.7,0.7c0,0.4-0.3,0.7-0.7,0.7s-0.7-0.3-0.7-0.7
					C283.3,167.9,283.6,167.7,284.1,167.7z"/>
			</g>
			<g>
				<path class="st4" d="M284.1,170.2c0.4,0,0.7,0.3,0.7,0.7s-0.3,0.7-0.7,0.7s-0.7-0.3-0.7-0.7
					C283.3,170.5,283.6,170.2,284.1,170.2z"/>
			</g>
			<g>
				<path class="st4" d="M284.1,172.7c0.4,0,0.7,0.3,0.7,0.7s-0.3,0.7-0.7,0.7s-0.7-0.3-0.7-0.7C283.3,173,283.6,172.7,284.1,172.7z
					"/>
			</g>
			<g>
				<path class="st4" d="M284.1,175.2c0.4,0,0.7,0.3,0.7,0.7s-0.3,0.7-0.7,0.7s-0.7-0.3-0.7-0.7
					C283.3,175.5,283.6,175.2,284.1,175.2z"/>
			</g>
		</g>
	</g>
	<g>
		<g>
			<g>
				<path class="st4" d="M412.2,133.6c0.4,0,0.7,0.3,0.7,0.7c0,0.4-0.3,0.7-0.7,0.7c-0.4,0-0.7-0.3-0.7-0.7
					C411.4,133.9,411.7,133.6,412.2,133.6z"/>
			</g>
			<g>
				<path class="st4" d="M412.2,136.1c0.4,0,0.7,0.3,0.7,0.7c0,0.4-0.3,0.7-0.7,0.7c-0.4,0-0.7-0.3-0.7-0.7
					C411.4,136.4,411.7,136.1,412.2,136.1z"/>
			</g>
			<g>
				<path class="st4" d="M412.2,138.6c0.4,0,0.7,0.3,0.7,0.7s-0.3,0.7-0.7,0.7c-0.4,0-0.7-0.3-0.7-0.7
					C411.4,138.9,411.7,138.6,412.2,138.6z"/>
			</g>
			<g>
				<path class="st4" d="M412.2,141.1c0.4,0,0.7,0.3,0.7,0.7s-0.3,0.7-0.7,0.7c-0.4,0-0.7-0.3-0.7-0.7
					C411.4,141.4,411.7,141.1,412.2,141.1z"/>
			</g>
			<g>
				<path class="st4" d="M412.2,143.6c0.4,0,0.7,0.3,0.7,0.7s-0.3,0.7-0.7,0.7c-0.4,0-0.7-0.3-0.7-0.7
					C411.4,143.9,411.7,143.6,412.2,143.6z"/>
			</g>
			<g>
				<path class="st4" d="M412.2,146.1c0.4,0,0.7,0.3,0.7,0.7s-0.3,0.7-0.7,0.7c-0.4,0-0.7-0.3-0.7-0.7
					C411.4,146.4,411.7,146.1,412.2,146.1z"/>
			</g>
			<g>
				<path class="st4" d="M412.2,148.6c0.4,0,0.7,0.3,0.7,0.7c0,0.4-0.3,0.7-0.7,0.7c-0.4,0-0.7-0.3-0.7-0.7
					C411.4,148.9,411.7,148.6,412.2,148.6z"/>
			</g>
			<g>
				<path class="st4" d="M412.2,151.2c0.4,0,0.7,0.3,0.7,0.7c0,0.4-0.3,0.7-0.7,0.7c-0.4,0-0.7-0.3-0.7-0.7
					C411.4,151.4,411.7,151.2,412.2,151.2z"/>
			</g>
			<g>
				<path class="st4" d="M412.2,153.7c0.4,0,0.7,0.3,0.7,0.7s-0.3,0.7-0.7,0.7c-0.4,0-0.7-0.3-0.7-0.7
					C411.4,153.9,411.7,153.7,412.2,153.7z"/>
			</g>
			<g>
				<path class="st4" d="M412.2,156.1c0.4,0,0.7,0.3,0.7,0.7s-0.3,0.7-0.7,0.7c-0.4,0-0.7-0.3-0.7-0.7
					C411.4,156.4,411.7,156.1,412.2,156.1z"/>
			</g>
			<g>
				<path class="st4" d="M412.2,158.6c0.4,0,0.7,0.3,0.7,0.7s-0.3,0.7-0.7,0.7c-0.4,0-0.7-0.3-0.7-0.7
					C411.4,159,411.7,158.6,412.2,158.6z"/>
			</g>
			<g>
				<path class="st4" d="M412.2,161.2c0.4,0,0.7,0.3,0.7,0.7s-0.3,0.7-0.7,0.7c-0.4,0-0.7-0.3-0.7-0.7
					C411.4,161.5,411.7,161.2,412.2,161.2z"/>
			</g>
			<g>
				<path class="st4" d="M412.2,163.7c0.4,0,0.7,0.3,0.7,0.7s-0.3,0.7-0.7,0.7c-0.4,0-0.7-0.3-0.7-0.7
					C411.4,163.9,411.7,163.7,412.2,163.7z"/>
			</g>
			<g>
				<path class="st4" d="M412.2,166.2c0.4,0,0.7,0.3,0.7,0.7s-0.3,0.7-0.7,0.7c-0.4,0-0.7-0.3-0.7-0.7
					C411.4,166.5,411.7,166.2,412.2,166.2z"/>
			</g>
			<g>
				<path class="st4" d="M412.2,168.7c0.4,0,0.7,0.3,0.7,0.7s-0.3,0.7-0.7,0.7c-0.4,0-0.7-0.3-0.7-0.7
					C411.4,169,411.7,168.7,412.2,168.7z"/>
			</g>
			<g>
				<path class="st4" d="M412.2,171.2c0.4,0,0.7,0.3,0.7,0.7s-0.3,0.7-0.7,0.7c-0.4,0-0.7-0.3-0.7-0.7
					C411.4,171.5,411.7,171.2,412.2,171.2z"/>
			</g>
			<g>
				<path class="st4" d="M412.2,173.7c0.4,0,0.7,0.3,0.7,0.7s-0.3,0.7-0.7,0.7c-0.4,0-0.7-0.3-0.7-0.7
					C411.4,174,411.7,173.7,412.2,173.7z"/>
			</g>
			<g>
				<path class="st4" d="M412.2,176.2c0.4,0,0.7,0.3,0.7,0.7s-0.3,0.7-0.7,0.7c-0.4,0-0.7-0.3-0.7-0.7
					C411.4,176.5,411.7,176.2,412.2,176.2z"/>
			</g>
		</g>
	</g>
</g>
</svg>
