<?xml version="1.0" encoding="utf-8"?>
<!-- Generator: Adobe Illustrator 16.0.0, SVG Export Plug-In . SVG Version: 6.00 Build 0)  -->
<!DOCTYPE svg PUBLIC "-//W3C//DTD SVG 1.1//EN" "http://www.w3.org/Graphics/SVG/1.1/DTD/svg11.dtd">
<svg version="1.1" id="Layer_1" xmlns="http://www.w3.org/2000/svg" xmlns:xlink="http://www.w3.org/1999/xlink" x="0px" y="0px"
	 width="185px" height="37.37px" viewBox="0 0 185 37.37" enable-background="new 0 0 185 37.37" xml:space="preserve">
<g>
	<g>
		<g>
			<path fill="#231F20" d="M148.799,9.45c-5.235,0-9.494,4.261-9.494,9.497c0,5.234,4.259,9.493,9.494,9.493
				s9.495-4.259,9.495-9.493C158.294,13.71,154.034,9.45,148.799,9.45z M148.799,25.592c-3.665,0-6.648-2.979-6.648-6.646
				s2.983-6.648,6.648-6.648c3.666,0,6.646,2.982,6.646,6.648S152.465,25.592,148.799,25.592z"/>
		</g>
		<path fill="#231F20" d="M97.545,9.45c-5.237,0-9.495,4.261-9.495,9.497c0,5.234,4.258,9.493,9.495,9.493
			c1.087,0,2.131-0.191,3.101-0.53c0.077-0.026,0.224-0.096,0.224-0.369c0-0.662,0-2.414,0-2.605c0-0.237-0.167-0.148-0.251-0.103
			c-0.92,0.482-1.963,0.76-3.073,0.76c-3.664,0-6.646-2.979-6.646-6.646s2.982-6.648,6.646-6.648s6.646,2.982,6.646,6.648
			c0,0.007,0,0.014,0,0.023v6.746c0,0,0,0,0-0.002v2.192c0,0.133,0.107,0.236,0.238,0.236h2.371c0.135,0,0.239-0.104,0.239-0.236
			v-8.959C107.04,13.71,102.779,9.45,97.545,9.45z"/>
		<path fill="#231F20" d="M169.826,9.449c-4.45,0-8.07,3.621-8.07,8.07c0,5.542,0,6.694,0,6.694v3.691
			c0,0.131,0.104,0.236,0.236,0.236h2.373c0.135,0,0.235-0.105,0.235-0.236v-3.96c0,0,0-1,0-6.426c0-2.88,2.347-5.223,5.226-5.223
			c2.883,0,5.225,2.343,5.225,5.223c0,5.76,0,7.066,0,7.066v3.319c0,0.131,0.104,0.236,0.235,0.236h2.374
			c0.132,0,0.235-0.105,0.235-0.236v-0.594c0,0,0-2.71,0-9.792h0.004C177.899,13.07,174.275,9.449,169.826,9.449z"/>
		<path fill="#231F20" d="M119.503,9.449c-4.449,0-8.069,3.621-8.069,8.07l0,0c0,7.082,0,9.792,0,9.792v0.594
			c0,0.131,0.105,0.236,0.236,0.236h2.375c0.131,0,0.236-0.105,0.236-0.236v-3.319c0,0,0-1.307,0-7.066
			c0-2.88,2.343-5.223,5.222-5.223c0.132,0,0.239-0.104,0.239-0.237V9.687C119.742,9.555,119.635,9.449,119.503,9.449z"/>
		<path fill="#231F20" d="M76.992,9.449c-2.459,0-4.742,1.183-6.173,3.181c-1.43-1.998-3.712-3.181-6.171-3.181
			c-4.188,0-7.595,3.408-7.595,7.596v10.86c0,0.131,0.104,0.236,0.235,0.236h2.375c0.132,0,0.236-0.105,0.236-0.236v-10.86
			c0-2.617,2.133-4.749,4.749-4.749c2.617,0,4.75,2.132,4.75,4.749v10.86c0,0.131,0.104,0.236,0.236,0.236h2.373
			c0.132,0,0.236-0.105,0.236-0.236v-10.86c0-2.617,2.132-4.749,4.749-4.749c2.616,0,4.747,2.132,4.747,4.749v10.86
			c0,0.131,0.107,0.236,0.24,0.236h2.372c0.135,0,0.239-0.105,0.239-0.236v-10.86C84.589,12.857,81.181,9.449,76.992,9.449z"/>
		<path fill="#231F20" d="M184.9,9.746h-2.37c-0.132,0-0.239,0.108-0.239,0.239v17.92c0,0.131,0.107,0.236,0.239,0.236h2.37
			c0.135,0,0.24-0.105,0.24-0.236V9.985C185.141,9.854,185.035,9.746,184.9,9.746z"/>
		<path fill="#231F20" d="M135.824,23.801c-0.128-0.117-0.274-0.045-0.335,0.012c-1.186,1.104-2.775,1.779-4.52,1.779
			c-3.667,0-6.647-2.982-6.647-6.647s2.98-6.646,6.647-6.646c1.744,0,3.334,0.676,4.52,1.778c0.061,0.056,0.207,0.128,0.335,0.013
			c0,0,1.528-1.529,1.672-1.673c0.145-0.146,0.051-0.311-0.013-0.374c-1.701-1.608-3.995-2.594-6.514-2.594
			c-5.238,0-9.497,4.261-9.497,9.496c0,5.236,4.259,9.495,9.497,9.495c2.519,0,4.813-0.985,6.514-2.593
			c0.063-0.063,0.157-0.229,0.013-0.373C137.353,25.328,135.824,23.801,135.824,23.801z"/>
	</g>
	<g>
		<path fill="#2859BE" d="M18.827,17.078c2.104,0,3.814-1.711,3.814-3.815c0-2.103-1.711-3.814-3.814-3.814
			s-3.815,1.711-3.815,3.814C15.012,15.366,16.724,17.078,18.827,17.078z"/>
		<path fill="#2859BE" d="M33.699,7.887c2.104,0,3.814-1.711,3.814-3.814c0-2.104-1.711-3.815-3.814-3.815s-3.815,1.711-3.815,3.815
			C29.884,6.177,31.596,7.887,33.699,7.887z"/>
		<path fill="#2859BE" d="M33.699,30.002c-2.104,0-3.815,1.712-3.815,3.815s1.712,3.813,3.815,3.813s3.814-1.71,3.814-3.814
			C37.514,31.713,35.803,30.002,33.699,30.002z"/>
		<path fill="#2859BE" d="M3.956,0.258c-2.104,0-3.815,1.711-3.815,3.815v9.189c0,2.104,1.711,3.815,3.815,3.815
			c2.103,0,3.814-1.711,3.814-3.815v-9.19C7.77,1.969,6.058,0.258,3.956,0.258z"/>
		<path fill="#2859BE" d="M3.956,20.811c-2.104,0-3.815,1.712-3.815,3.815v9.191c0,2.104,1.711,3.813,3.815,3.813
			c2.103,0,3.814-1.71,3.814-3.814v-9.19C7.77,22.522,6.058,20.811,3.956,20.811z"/>
		<path fill="#2859BE" d="M18.883,20.811c-2.103,0-3.814,1.712-3.814,3.815v9.191c0,2.104,1.711,3.813,3.814,3.813
			c2.104,0,3.815-1.71,3.815-3.814v-9.19C22.699,22.522,20.987,20.811,18.883,20.811z"/>
		<path fill="#2859BE" d="M33.699,10.535c-2.104,0-3.815,1.711-3.815,3.814v9.19c0,2.104,1.712,3.815,3.815,3.815
			s3.815-1.712,3.815-3.815v-9.191C37.515,12.246,35.803,10.535,33.699,10.535z"/>
	</g>
</g>
</svg>
