<?xml version="1.0" encoding="utf-8"?>
<!-- Generator: Adobe Illustrator 16.0.3, SVG Export Plug-In . SVG Version: 6.00 Build 0)  -->
<!DOCTYPE svg PUBLIC "-//W3C//DTD SVG 1.1//EN" "http://www.w3.org/Graphics/SVG/1.1/DTD/svg11.dtd">
<svg version="1.1" id="Layer_1" xmlns="http://www.w3.org/2000/svg" xmlns:xlink="http://www.w3.org/1999/xlink" x="0px" y="0px"
	 width="48px" height="63px" viewBox="0 0 48 63" enable-background="new 0 0 48 63" xml:space="preserve">
<g>
	<g>
		<g>
			<path fill="#385DAA" d="M16.779,58.815h1.92c1.199,0,2.177-0.984,2.177-2.191v-1.932c0-1.206-0.978-2.191-2.177-2.191h-1.92
				c-1.198,0-2.177,0.985-2.177,2.191v1.932C14.602,57.831,15.581,58.815,16.779,58.815z M16.693,54.692
				c0-0.049,0.037-0.086,0.086-0.086h1.92c0.049,0,0.085,0.037,0.085,0.086v1.932c0,0.05-0.037,0.087-0.085,0.087h-1.92
				c-0.049,0-0.086-0.037-0.086-0.087V54.692L16.693,54.692z"/>
			<path fill="#385DAA" d="M46.948,14.707c-3.607,0-6.592-0.923-8.977-2.461c-0.831-0.529-1.516-1.095-2.091-1.662
				c-0.171-0.172-0.318-0.333-0.416-0.443V4.8c0-2.659-2.14-4.8-4.77-4.8H4.77C2.128,0,0,2.154,0,4.8v44.552v9.488l0,0
				C0,61.142,1.847,63,4.134,63h27.21c2.287,0,4.134-1.858,4.134-4.16l0,0v-9.488v-4.492c1.871-0.665,3.607-1.662,5.21-2.942
				C45.334,38.201,48,32.367,48,26.189V15.753C48,15.174,47.523,14.707,46.948,14.707z M33.386,58.853
				c0,1.132-0.917,2.056-2.042,2.056H4.122c-1.125,0-2.042-0.924-2.042-2.056v-7.397h31.307V58.853z M2.079,49.363V8.406H9.38
				c0.575,0,1.04-0.468,1.04-1.046c0-0.578-0.464-1.046-1.04-1.046H2.079V4.8c0-1.489,1.199-2.708,2.69-2.708h25.938
				c1.479,0,2.69,1.206,2.69,2.708v5.329c-0.11,0.123-0.244,0.271-0.416,0.443c-0.563,0.566-1.26,1.132-2.091,1.661
				c-2.385,1.539-5.357,2.461-8.977,2.461c-0.575,0-1.04,0.468-1.04,1.046l0,0v10.437l0,0c0,6.19,2.678,12.011,7.313,15.728
				c0.11,0.087,0.22,0.173,0.33,0.258c0.025,0.014,0.037,0.038,0.062,0.05c0.086,0.062,0.172,0.135,0.257,0.196
				c0.037,0.025,0.073,0.063,0.122,0.087c0.073,0.05,0.135,0.099,0.208,0.147c0.049,0.037,0.086,0.062,0.135,0.099
				c0.062,0.05,0.135,0.086,0.195,0.136c0.05,0.037,0.098,0.062,0.147,0.099c0.061,0.036,0.134,0.086,0.195,0.123
				c0.049,0.036,0.098,0.062,0.146,0.098c0.073,0.05,0.134,0.087,0.208,0.123c0.049,0.025,0.086,0.062,0.135,0.087
				c0.085,0.049,0.158,0.098,0.244,0.147c0.036,0.024,0.062,0.037,0.098,0.062c0.122,0.062,0.232,0.136,0.355,0.197
				c0.012,0.012,0.036,0.024,0.061,0.024c0.098,0.049,0.195,0.11,0.306,0.16c0.037,0.012,0.073,0.036,0.11,0.049
				c0.085,0.037,0.171,0.086,0.257,0.123c0.036,0.024,0.073,0.037,0.122,0.062c0.086,0.037,0.172,0.074,0.257,0.11
				c0.037,0.013,0.073,0.037,0.122,0.05c0.086,0.037,0.172,0.073,0.257,0.11c0.037,0.013,0.073,0.037,0.11,0.05
				c0.099,0.036,0.184,0.073,0.281,0.11c0.037,0.013,0.062,0.024,0.098,0.037c0.11,0.037,0.221,0.086,0.331,0.123
				c0.012,0,0.036,0.012,0.048,0.012c0.013,0,0.037,0.013,0.05,0.013v4.492L2.079,49.363L2.079,49.363z M45.909,26.189
				c0,5.563-2.397,10.782-6.531,14.091c-1.528,1.219-3.166,2.143-4.952,2.721h-0.012c-0.086-0.024-0.159-0.05-0.245-0.086
				c-0.036-0.013-0.074-0.025-0.098-0.037c-0.074-0.024-0.146-0.05-0.221-0.086c-0.036-0.013-0.085-0.025-0.122-0.05
				c-0.073-0.024-0.135-0.049-0.207-0.086c-0.05-0.013-0.086-0.037-0.136-0.049c-0.061-0.025-0.134-0.05-0.195-0.087
				c-0.049-0.024-0.098-0.036-0.135-0.062c-0.062-0.024-0.122-0.05-0.184-0.086c-0.048-0.025-0.098-0.049-0.146-0.073
				c-0.062-0.025-0.111-0.05-0.172-0.087c-0.05-0.024-0.11-0.05-0.159-0.073c-0.049-0.024-0.11-0.05-0.158-0.086
				c-0.05-0.025-0.11-0.062-0.16-0.087c-0.048-0.024-0.098-0.05-0.158-0.086c-0.062-0.037-0.11-0.062-0.171-0.099
				c-0.05-0.024-0.099-0.05-0.147-0.086c-0.061-0.037-0.11-0.062-0.171-0.099c-0.049-0.024-0.098-0.05-0.135-0.086
				c-0.061-0.037-0.122-0.074-0.184-0.11c-0.049-0.025-0.085-0.062-0.135-0.087c-0.062-0.036-0.122-0.074-0.184-0.11
				c-0.048-0.025-0.085-0.062-0.134-0.087c-0.062-0.036-0.122-0.085-0.184-0.123c-0.049-0.023-0.086-0.062-0.134-0.085
				c-0.062-0.038-0.11-0.074-0.172-0.123c-0.05-0.038-0.098-0.062-0.134-0.1c-0.05-0.036-0.086-0.062-0.136-0.098
				c-0.061-0.037-0.109-0.087-0.171-0.124l-0.013-0.012c-0.085-0.074-0.183-0.136-0.269-0.209c-4.134-3.312-6.53-8.528-6.53-14.092
				v-9.415c3.559-0.16,6.579-1.169,9.05-2.77c0.122-0.074,0.244-0.16,0.354-0.233c0.013-0.013,0.037-0.025,0.049-0.037
				c0.098-0.062,0.195-0.135,0.281-0.197c0.024-0.012,0.049-0.037,0.061-0.05c0.086-0.062,0.184-0.135,0.27-0.196
				c0.012-0.012,0.037-0.025,0.05-0.037c0.207-0.16,0.403-0.308,0.587-0.468c0.012-0.012,0.024-0.024,0.036-0.024
				c0.073-0.062,0.146-0.136,0.22-0.197c0.013-0.012,0.037-0.024,0.05-0.049c0.072-0.062,0.134-0.123,0.208-0.185
				c0.012-0.012,0.023-0.024,0.036-0.037c0.073-0.074,0.147-0.148,0.22-0.209c0.587,0.591,1.395,1.256,2.422,1.92
				c2.47,1.588,5.491,2.597,9.05,2.77L45.909,26.189L45.909,26.189z"/>
		</g>
	</g>
</g>
</svg>
