<?xml version="1.0" encoding="utf-8"?>
<!-- Generator: Adobe Illustrator 16.0.0, SVG Export Plug-In . SVG Version: 6.00 Build 0)  -->
<!DOCTYPE svg PUBLIC "-//W3C//DTD SVG 1.1//EN" "http://www.w3.org/Graphics/SVG/1.1/DTD/svg11.dtd">
<svg version="1.1" id="Layer_1" xmlns="http://www.w3.org/2000/svg" xmlns:xlink="http://www.w3.org/1999/xlink" x="0px" y="0px"
	 width="445px" height="243.14px" viewBox="0 0 445 243.14" enable-background="new 0 0 445 243.14" xml:space="preserve">
<g>
	<g>
		<g>
			<path fill="#285BC0" d="M288.853,64.601c-0.746,2.394-1.178,4.944-2.276,7.18c-4.276,8.631-11.339,13.379-20.991,13.458
				c-29.112,0.157-58.264,0.079-87.376,0.039c-12.712,0-23.737-9.612-25.621-22.207c-0.039-0.274-0.157-0.588-0.274-0.863
				c0-2.119,0-4.276,0-6.396c0.078-0.157,0.196-0.274,0.235-0.431c1.922-10.79,8.083-17.891,18.401-21.422
				c0.471-0.157,0.981-0.746,1.099-1.216c2.825-9.73,12.516-15.577,22.364-13.379c1.177,0.274,1.687,0.039,2.354-0.902
				c6.16-9.063,14.596-14.87,25.268-17.342c1.727-0.393,3.453-0.667,5.18-0.981c2.667,0,5.335,0,8.004,0
				c0.235,0.079,0.471,0.196,0.706,0.236c15.812,2.275,26.876,10.79,33.35,25.346c1.923,4.276,2.747,8.867,3.061,13.575
				c0.393,0.157,0.745,0.235,1.06,0.392c7.337,2.864,12.202,8.043,14.556,15.577c0.354,1.177,0.589,2.393,0.903,3.57
				C288.853,60.677,288.853,62.639,288.853,64.601z M221.877,80.844c14.635,0,29.23,0.118,43.865-0.04
				c9.456-0.078,17.421-7.337,18.559-16.479c1.216-9.73-4.669-18.48-14.125-21.03c-1.766-0.471-2.118-1.02-2.275-2.943
				c-0.157-2.197-0.313-4.434-0.785-6.591c-3.217-14.949-15.38-26.523-30.172-28.799c-15.145-2.354-29.857,4.63-37.705,17.892
				c-1.138,1.922-1.765,2.158-3.923,1.373c-8.436-3.1-17.853,2.275-19.226,11.064c-0.235,1.569-1.02,2.315-2.472,2.668
				c-4.748,1.059-8.75,3.453-11.81,7.258c-5.532,6.905-6.788,14.635-3.178,22.717c3.649,8.161,10.28,12.751,19.226,12.909
				C192.568,81.001,207.243,80.805,221.877,80.844z"/>
		</g>
	</g>
	<g>
		<g>
			<path fill="#3D59B9" d="M223.957,45.689c2.118,0,3.845-1.727,3.845-3.845s-1.727-3.845-3.845-3.845
				c-2.119,0-3.846,1.727-3.846,3.845S221.838,45.689,223.957,45.689z"/>
		</g>
		<g>
			<path fill="#3D59B9" d="M238.984,36.391c2.118,0,3.845-1.727,3.845-3.845s-1.727-3.845-3.845-3.845
				c-2.119,0-3.846,1.727-3.846,3.845S236.865,36.391,238.984,36.391z"/>
		</g>
		<g>
			<path fill="#3D59B9" d="M238.984,58.754c-2.119,0-3.846,1.727-3.846,3.845s1.727,3.845,3.846,3.845
				c2.118,0,3.845-1.726,3.845-3.845C242.868,60.481,241.142,58.754,238.984,58.754z"/>
		</g>
		<g>
			<path fill="#3D59B9" d="M208.93,28.7c-2.119,0-3.845,1.727-3.845,3.845v9.299c0,2.119,1.726,3.845,3.845,3.845
				c2.119,0,3.845-1.727,3.845-3.845v-9.299C212.775,30.427,211.048,28.7,208.93,28.7z"/>
		</g>
		<g>
			<path fill="#3D59B9" d="M208.93,49.456c-2.119,0-3.845,1.727-3.845,3.845v9.338c0,2.119,1.726,3.845,3.845,3.845
				c2.119,0,3.845-1.726,3.845-3.845V53.34C212.775,51.221,211.048,49.456,208.93,49.456z"/>
		</g>
		<g>
			<path fill="#3D59B9" d="M223.996,49.456c-2.119,0-3.846,1.727-3.846,3.845v9.338c0,2.119,1.727,3.845,3.846,3.845
				c2.118,0,3.845-1.726,3.845-3.845V53.34C227.881,51.221,226.154,49.456,223.996,49.456z"/>
		</g>
		<g>
			<path fill="#3D59B9" d="M238.984,39.058c-2.119,0-3.846,1.727-3.846,3.845v9.299c0,2.119,1.727,3.845,3.846,3.845
				c2.118,0,3.845-1.727,3.845-3.845v-9.299C242.868,40.824,241.142,39.058,238.984,39.058z"/>
		</g>
	</g>
	<g>
		<path fill="#DAD9DB" d="M33.234,243.275c-18.388,0-33.347-14.96-33.347-33.348c0-18.387,14.959-33.348,33.347-33.348
			c18.387,0,33.347,14.961,33.347,33.348C66.581,228.315,51.622,243.275,33.234,243.275z M33.234,180.185
			c-16.401,0-29.744,13.343-29.744,29.743c0,16.401,13.343,29.743,29.744,29.743c16.4,0,29.743-13.342,29.743-29.743
			C62.978,193.527,49.635,180.185,33.234,180.185z"/>
	</g>
	<g>
		<g>
			<g>
				<path fill="#D8D8DC" d="M47.202,212.086c-0.981-1.256-2.472-2.158-4.473-2.629c2.511-1.295,3.648-3.492,3.335-6.553
					c-0.118-1.138-0.393-2.079-0.942-2.902c-0.51-0.824-1.216-1.491-2.119-2.002c-0.902-0.51-1.844-0.902-2.864-1.137
					c-1.02-0.275-2.236-0.471-3.57-0.589v-6.435h-3.924v6.238c-0.667,0-1.726,0-3.099,0.039v-6.277h-3.924v6.435
					c-0.549,0-1.373,0.039-2.472,0.039l-5.375-0.039v4.158h2.825c1.295,0,2.04,0.589,2.275,1.728v7.297c0.157,0,0.314,0,0.393,0.039
					h-0.393v10.241c-0.118,0.862-0.627,1.294-1.491,1.294h-2.825l-0.785,4.669h5.1c0.314,0,0.785,0,1.413,0c0.628,0,1.059,0,1.373,0
					v6.514h3.924v-6.435c0.706,0,1.766,0.039,3.1,0.039v6.396h3.923V225.7c1.374-0.078,2.629-0.195,3.688-0.392
					c1.059-0.196,2.118-0.471,3.1-0.864c0.98-0.392,1.804-0.902,2.472-1.49c0.667-0.589,1.216-1.334,1.647-2.275
					c0.432-0.902,0.707-1.962,0.824-3.179C48.575,215.186,48.183,213.381,47.202,212.086z M29.664,200.746c0.118,0,0.471,0,1.02,0
					s1.02,0,1.373-0.039c0.353,0,0.863,0,1.491,0.079c0.628,0.039,1.138,0.118,1.57,0.196s0.902,0.234,1.412,0.432
					c0.51,0.195,0.903,0.432,1.217,0.706c0.313,0.274,0.549,0.628,0.785,1.06c0.196,0.432,0.313,0.941,0.313,1.49
					c0,0.471-0.078,0.902-0.235,1.295c-0.157,0.393-0.392,0.707-0.706,0.98c-0.314,0.275-0.628,0.512-0.942,0.707
					c-0.314,0.196-0.745,0.354-1.216,0.471c-0.51,0.118-0.941,0.196-1.294,0.275c-0.393,0.078-0.824,0.117-1.413,0.156
					c-0.549,0.039-0.981,0.039-1.255,0.039c-0.275,0-0.667,0-1.177,0c-0.51,0-0.785,0-0.863,0L29.664,200.746L29.664,200.746
					L29.664,200.746z M40.375,218.089c-0.157,0.393-0.353,0.746-0.627,1.021c-0.236,0.274-0.589,0.549-1.021,0.745
					c-0.432,0.235-0.824,0.393-1.216,0.549c-0.393,0.118-0.863,0.236-1.412,0.354c-0.549,0.118-1.021,0.157-1.452,0.235
					c-0.432,0.039-0.903,0.078-1.491,0.118c-0.588,0.039-1.02,0.039-1.334,0.039s-0.746,0-1.216,0c-0.51,0-0.824,0-0.941,0v-8.593
					c0.118,0,0.549,0,1.216-0.039c0.667,0,1.217-0.039,1.648-0.039c0.432,0,1.02,0.039,1.766,0.078
					c0.745,0.039,1.373,0.117,1.883,0.235c0.51,0.118,1.06,0.274,1.688,0.472c0.588,0.195,1.098,0.471,1.451,0.784
					c0.393,0.313,0.707,0.706,0.942,1.177c0.275,0.471,0.393,1.021,0.393,1.647C40.61,217.265,40.532,217.696,40.375,218.089z"/>
			</g>
		</g>
	</g>
	<g>
		<path fill="#D8D8DC" d="M173.108,209.653v-0.079c0-0.039,0-0.039-0.039-0.078v-0.078c0-0.039-0.039-0.039-0.039-0.078
			c0,0,0-0.039-0.04-0.039l-11.967-19.854c-0.039-0.039-0.078-0.078-0.078-0.118h-0.04c-0.039-0.039-0.079-0.078-0.079-0.078
			s-0.04,0-0.04-0.04c-0.039-0.039-0.078-0.039-0.078-0.039h-0.04c-0.078-0.078-0.078-0.078-0.157-0.078s-0.079,0-0.157,0.039h-0.04
			c-0.039,0-0.078,0.039-0.078,0.039s-0.04,0-0.04,0.039c-0.039,0.04-0.078,0.04-0.078,0.079h-0.04
			c-0.039,0.039-0.079,0.079-0.079,0.118l-11.966,19.893c0,0,0,0.039-0.04,0.039c0,0.039-0.039,0.039-0.039,0.078v0.078
			c0,0.039,0,0.039-0.039,0.078v0.275c0,0.039,0,0.039,0.039,0.078v0.039c0.039,0.078,0.079,0.078,0.079,0.118l0.039,0.039
			l0.079,0.079c0,0,0.039,0,0.039,0.039l12.006,7.022h0.04c0.039,0.039,0.078,0.039,0.078,0.039h0.04
			c0.078,0,0.078,0.039,0.157,0.039s0.079,0,0.157-0.039h0.04c0.039,0,0.078-0.039,0.078-0.039h0.04l11.967-6.983
			c0.04,0,0.04-0.039,0.079-0.039l0.04-0.039l0.078-0.079l0.04-0.039c0-0.04,0.039-0.04,0.039-0.079s0.039-0.039,0.039-0.078
			s0-0.039,0.04-0.078c0-0.039,0-0.039,0.039-0.078l0,0v-0.079v-0.039H173.108z M159.846,203.847l-9.691,4.395l9.691-16.126V203.847
			z M159.846,205.259v10.28l-9.926-5.768L159.846,205.259z M161.142,205.259l9.887,4.513l-9.887,5.807V205.259z M161.142,203.847
			v-11.692l9.69,16.126L161.142,203.847z"/>
	</g>
	<g>
		<path fill="#D8D8DC" d="M172.088,212.321l-11.614,6.984l-11.614-6.984c-0.274-0.157-0.628-0.079-0.785,0.118
			c-0.196,0.234-0.235,0.549-0.079,0.784l11.967,16.793l0.039,0.039c0.04,0.039,0.04,0.078,0.079,0.078l0.04,0.04
			c0.039,0.039,0.078,0.039,0.078,0.078c0,0,0.04,0,0.04,0.039c0.039,0,0.078,0.039,0.078,0.039h0.04c0.039,0,0.079,0.04,0.118,0.04
			c0.079,0,0.079,0,0.118-0.04h0.04c0.039,0,0.079-0.039,0.079-0.039s0.039,0,0.039-0.039c0.039,0,0.079-0.039,0.079-0.078
			l0.039-0.04l0.079-0.078l0.039-0.039l11.967-16.793c0.157-0.274,0.157-0.589-0.079-0.784
			C172.598,212.242,172.363,212.203,172.088,212.321z M159.846,220.403v7.259l-8.984-12.634L159.846,220.403z M161.142,227.662
			v-7.259l8.984-5.414L161.142,227.662z"/>
	</g>
	<g>
		<path fill="#DAD9DB" d="M160.356,243.275c-18.388,0-33.347-14.96-33.347-33.348c0-18.387,14.959-33.348,33.347-33.348
			c18.387,0,33.347,14.961,33.347,33.348C193.703,228.315,178.744,243.275,160.356,243.275z M160.356,180.185
			c-16.4,0-29.743,13.343-29.743,29.743c0,16.401,13.343,29.743,29.743,29.743s29.743-13.342,29.743-29.743
			C190.1,193.527,176.757,180.185,160.356,180.185z"/>
	</g>
	<g>
		<path fill="#DAD9DB" d="M283.438,243.275c-18.388,0-33.347-14.96-33.347-33.348c0-18.387,14.959-33.348,33.347-33.348
			s33.347,14.961,33.347,33.348C316.784,228.315,301.825,243.275,283.438,243.275z M283.438,180.185
			c-16.4,0-29.743,13.343-29.743,29.743c0,16.401,13.343,29.743,29.743,29.743s29.743-13.342,29.743-29.743
			C313.181,193.527,299.838,180.185,283.438,180.185z"/>
	</g>
	<g>
		<path fill="#D8D8DC" d="M281.672,219.109l2.197-8.318l5.258-1.922l1.295-4.904l-0.04-0.118l-5.179,1.883l3.727-14.007h-10.515
			l-4.865,18.244l-4.041,1.491l-1.373,5.022l4.081-1.452l-2.865,10.751h28.054l1.766-6.709h-17.499V219.109z"/>
	</g>
	<g>
		<path fill="#D8D8DC" d="M411.423,212.164c-4.315-4.315-8.554-8.514-12.83-12.83v16.519c-0.157,0-0.274,0.039-0.354,0.039h-5.179
			c-0.235,0-0.354-0.079-0.432-0.313c-0.706-2.354-1.02-4.748-0.824-7.259c0.314-4.198,1.767-7.926,4.474-11.143
			c2.981-3.61,6.748-5.886,11.378-6.788c6.081-1.178,11.613,0.235,16.4,4.198c3.649,3.021,5.885,6.905,6.748,11.574
			c0.589,3.179,0.354,6.278-0.588,9.339c-0.079,0.234-0.196,0.353-0.471,0.353h-5.532v-16.479
			C419.937,203.689,415.699,207.888,411.423,212.164z"/>
	</g>
	<g>
		<path fill="#D8D8DC" d="M394.591,219.854h8.239v-10.397l8.514,8.514c2.864-2.863,5.689-5.649,8.554-8.514v10.358h8.318
			c-1.648,2.629-3.649,4.747-6.2,6.355c-2.511,1.648-5.296,2.629-8.278,2.982C404.635,230.252,397.612,225.112,394.591,219.854z"/>
	</g>
	<g>
		<path fill="#DAD9DB" d="M411.541,243.275c-18.388,0-33.348-14.96-33.348-33.348c0-18.387,14.96-33.348,33.348-33.348
			c18.387,0,33.347,14.961,33.347,33.348C444.888,228.315,429.928,243.275,411.541,243.275z M411.541,180.185
			c-16.401,0-29.744,13.343-29.744,29.743c0,16.401,13.343,29.743,29.744,29.743c16.4,0,29.742-13.342,29.742-29.743
			C441.283,193.527,427.941,180.185,411.541,180.185z"/>
	</g>
	<g>
		<g>
			<g>
				<path fill="#CDCDCE" d="M33.313,132.046c0-0.432,0.314-0.745,0.746-0.745s0.707,0.313,0.707,0.745s-0.275,0.745-0.746,0.745
					C33.587,132.791,33.313,132.478,33.313,132.046z"/>
			</g>
			<g>
				<path fill="#CDCDCE" d="M35.824,132.046c0-0.432,0.314-0.745,0.746-0.745s0.706,0.313,0.706,0.745s-0.274,0.745-0.746,0.745
					C36.099,132.791,35.824,132.478,35.824,132.046z"/>
			</g>
			<g>
				<path fill="#CDCDCE" d="M38.295,132.046c0-0.432,0.314-0.745,0.746-0.745s0.707,0.313,0.707,0.745s-0.275,0.745-0.746,0.745
					C38.609,132.791,38.295,132.478,38.295,132.046z"/>
			</g>
			<g>
				<path fill="#CDCDCE" d="M40.807,132.046c0-0.432,0.314-0.745,0.746-0.745c0.431,0,0.706,0.313,0.706,0.745
					s-0.275,0.745-0.746,0.745C41.121,132.791,40.807,132.478,40.807,132.046z"/>
			</g>
			<g>
				<path fill="#CDCDCE" d="M43.318,132.046c0-0.432,0.314-0.745,0.745-0.745c0.432,0,0.707,0.313,0.707,0.745
					s-0.275,0.745-0.746,0.745C43.632,132.791,43.318,132.478,43.318,132.046z"/>
			</g>
			<g>
				<path fill="#CDCDCE" d="M45.829,132.046c0-0.432,0.314-0.745,0.746-0.745s0.706,0.313,0.706,0.745s-0.274,0.745-0.745,0.745
					C46.104,132.791,45.829,132.478,45.829,132.046z"/>
			</g>
			<g>
				<path fill="#CDCDCE" d="M48.34,132.046c0-0.432,0.314-0.745,0.746-0.745s0.706,0.313,0.706,0.745s-0.274,0.745-0.746,0.745
					C48.615,132.791,48.34,132.478,48.34,132.046z"/>
			</g>
			<g>
				<path fill="#CDCDCE" d="M50.851,132.046c0-0.432,0.314-0.745,0.745-0.745c0.432,0,0.707,0.313,0.707,0.745
					s-0.275,0.745-0.746,0.745C51.125,132.791,50.851,132.478,50.851,132.046z"/>
			</g>
			<g>
				<path fill="#CDCDCE" d="M53.362,132.046c0-0.432,0.314-0.745,0.746-0.745s0.706,0.313,0.706,0.745s-0.274,0.745-0.745,0.745
					C53.637,132.791,53.362,132.478,53.362,132.046z"/>
			</g>
			<g>
				<path fill="#CDCDCE" d="M55.833,132.046c0-0.432,0.314-0.745,0.746-0.745s0.707,0.313,0.707,0.745s-0.275,0.745-0.746,0.745
					C56.147,132.791,55.833,132.478,55.833,132.046z"/>
			</g>
			<g>
				<path fill="#CDCDCE" d="M58.345,132.046c0-0.432,0.314-0.745,0.746-0.745s0.706,0.313,0.706,0.745s-0.274,0.745-0.746,0.745
					C58.659,132.791,58.345,132.478,58.345,132.046z"/>
			</g>
			<g>
				<path fill="#CDCDCE" d="M60.856,132.046c0-0.432,0.314-0.745,0.745-0.745c0.432,0,0.707,0.313,0.707,0.745
					s-0.274,0.745-0.746,0.745C61.17,132.791,60.856,132.478,60.856,132.046z"/>
			</g>
			<g>
				<path fill="#CDCDCE" d="M63.367,132.046c0-0.432,0.314-0.745,0.746-0.745s0.706,0.313,0.706,0.745s-0.274,0.745-0.745,0.745
					C63.642,132.791,63.367,132.478,63.367,132.046z"/>
			</g>
			<g>
				<path fill="#CDCDCE" d="M65.878,132.046c0-0.432,0.314-0.745,0.746-0.745s0.706,0.313,0.706,0.745s-0.274,0.745-0.746,0.745
					C66.153,132.791,65.878,132.478,65.878,132.046z"/>
			</g>
			<g>
				<path fill="#CDCDCE" d="M68.389,132.046c0-0.432,0.314-0.745,0.745-0.745c0.432,0,0.707,0.313,0.707,0.745
					s-0.275,0.745-0.746,0.745C68.664,132.791,68.389,132.478,68.389,132.046z"/>
			</g>
			<g>
				<path fill="#CDCDCE" d="M70.9,132.046c0-0.432,0.313-0.745,0.745-0.745s0.706,0.313,0.706,0.745s-0.274,0.745-0.745,0.745
					C71.175,132.791,70.9,132.478,70.9,132.046z"/>
			</g>
			<g>
				<path fill="#CDCDCE" d="M73.372,132.046c0-0.432,0.314-0.745,0.745-0.745c0.432,0,0.707,0.313,0.707,0.745
					s-0.275,0.745-0.746,0.745C73.686,132.791,73.372,132.478,73.372,132.046z"/>
			</g>
			<g>
				<path fill="#CDCDCE" d="M75.883,132.046c0-0.432,0.314-0.745,0.746-0.745s0.706,0.313,0.706,0.745s-0.274,0.745-0.745,0.745
					C76.197,132.791,75.883,132.478,75.883,132.046z"/>
			</g>
			<g>
				<path fill="#CDCDCE" d="M78.394,132.046c0-0.432,0.314-0.745,0.746-0.745s0.706,0.313,0.706,0.745s-0.274,0.745-0.745,0.745
					C78.708,132.791,78.394,132.478,78.394,132.046z"/>
			</g>
			<g>
				<path fill="#CDCDCE" d="M80.905,132.046c0-0.432,0.314-0.745,0.746-0.745s0.707,0.313,0.707,0.745s-0.275,0.745-0.746,0.745
					C81.219,132.791,80.905,132.478,80.905,132.046z"/>
			</g>
			<g>
				<path fill="#CDCDCE" d="M83.416,132.046c0-0.432,0.314-0.745,0.746-0.745s0.706,0.313,0.706,0.745s-0.274,0.745-0.746,0.745
					C83.691,132.791,83.416,132.478,83.416,132.046z"/>
			</g>
			<g>
				<path fill="#CDCDCE" d="M85.927,132.046c0-0.432,0.314-0.745,0.745-0.745c0.432,0,0.707,0.313,0.707,0.745
					s-0.275,0.745-0.746,0.745C86.202,132.791,85.927,132.478,85.927,132.046z"/>
			</g>
			<g>
				<path fill="#CDCDCE" d="M88.438,132.046c0-0.432,0.313-0.745,0.745-0.745s0.707,0.313,0.707,0.745s-0.275,0.745-0.746,0.745
					C88.713,132.791,88.438,132.478,88.438,132.046z"/>
			</g>
			<g>
				<path fill="#CDCDCE" d="M90.949,132.046c0-0.432,0.314-0.745,0.746-0.745s0.706,0.313,0.706,0.745s-0.274,0.745-0.746,0.745
					C91.224,132.791,90.949,132.478,90.949,132.046z"/>
			</g>
			<g>
				<path fill="#CDCDCE" d="M93.421,132.046c0-0.432,0.313-0.745,0.745-0.745s0.706,0.313,0.706,0.745s-0.274,0.745-0.745,0.745
					C93.735,132.791,93.421,132.478,93.421,132.046z"/>
			</g>
			<g>
				<path fill="#CDCDCE" d="M95.932,132.046c0-0.432,0.314-0.745,0.746-0.745s0.706,0.313,0.706,0.745s-0.274,0.745-0.745,0.745
					C96.246,132.791,95.932,132.478,95.932,132.046z"/>
			</g>
			<g>
				<path fill="#CDCDCE" d="M98.443,132.046c0-0.432,0.314-0.745,0.745-0.745c0.432,0,0.707,0.313,0.707,0.745
					s-0.275,0.745-0.746,0.745C98.757,132.791,98.443,132.478,98.443,132.046z"/>
			</g>
			<g>
				<path fill="#CDCDCE" d="M100.955,132.046c0-0.432,0.313-0.745,0.745-0.745s0.706,0.313,0.706,0.745s-0.274,0.745-0.745,0.745
					C101.229,132.791,100.955,132.478,100.955,132.046z"/>
			</g>
			<g>
				<path fill="#CDCDCE" d="M103.465,132.046c0-0.432,0.314-0.745,0.746-0.745s0.706,0.313,0.706,0.745s-0.274,0.745-0.745,0.745
					C103.74,132.791,103.465,132.478,103.465,132.046z"/>
			</g>
			<g>
				<path fill="#CDCDCE" d="M105.977,132.046c0-0.432,0.313-0.745,0.746-0.745c0.431,0,0.706,0.313,0.706,0.745
					s-0.275,0.745-0.746,0.745C106.251,132.791,105.977,132.478,105.977,132.046z"/>
			</g>
			<g>
				<path fill="#CDCDCE" d="M108.487,132.046c0-0.432,0.314-0.745,0.746-0.745s0.707,0.313,0.707,0.745s-0.275,0.745-0.746,0.745
					C108.762,132.791,108.487,132.478,108.487,132.046z"/>
			</g>
			<g>
				<path fill="#CDCDCE" d="M110.959,132.046c0-0.432,0.313-0.745,0.745-0.745s0.707,0.313,0.707,0.745s-0.275,0.745-0.746,0.745
					C111.273,132.791,110.959,132.478,110.959,132.046z"/>
			</g>
			<g>
				<path fill="#CDCDCE" d="M113.47,132.046c0-0.432,0.314-0.745,0.746-0.745s0.706,0.313,0.706,0.745s-0.274,0.745-0.745,0.745
					C113.784,132.791,113.47,132.478,113.47,132.046z"/>
			</g>
			<g>
				<path fill="#CDCDCE" d="M115.981,132.046c0-0.432,0.314-0.745,0.745-0.745c0.432,0,0.707,0.313,0.707,0.745
					s-0.275,0.745-0.746,0.745C116.295,132.791,115.981,132.478,115.981,132.046z"/>
			</g>
			<g>
				<path fill="#CDCDCE" d="M118.493,132.046c0-0.432,0.313-0.745,0.745-0.745s0.706,0.313,0.706,0.745s-0.274,0.745-0.745,0.745
					C118.806,132.791,118.493,132.478,118.493,132.046z"/>
			</g>
			<g>
				<path fill="#CDCDCE" d="M121.003,132.046c0-0.432,0.314-0.745,0.746-0.745s0.706,0.313,0.706,0.745s-0.274,0.745-0.745,0.745
					C121.278,132.791,121.003,132.478,121.003,132.046z"/>
			</g>
			<g>
				<path fill="#CDCDCE" d="M123.515,132.046c0-0.432,0.314-0.745,0.746-0.745c0.431,0,0.706,0.313,0.706,0.745
					s-0.275,0.745-0.746,0.745C123.789,132.791,123.515,132.478,123.515,132.046z"/>
			</g>
			<g>
				<path fill="#CDCDCE" d="M126.025,132.046c0-0.432,0.314-0.745,0.746-0.745s0.707,0.313,0.707,0.745s-0.275,0.745-0.746,0.745
					C126.3,132.791,126.025,132.478,126.025,132.046z"/>
			</g>
			<g>
				<path fill="#CDCDCE" d="M128.537,132.046c0-0.432,0.314-0.745,0.746-0.745s0.706,0.313,0.706,0.745s-0.274,0.745-0.745,0.745
					C128.812,132.791,128.537,132.478,128.537,132.046z"/>
			</g>
			<g>
				<path fill="#CDCDCE" d="M131.008,132.046c0-0.432,0.314-0.745,0.746-0.745s0.706,0.313,0.706,0.745s-0.274,0.745-0.745,0.745
					C131.322,132.791,131.008,132.478,131.008,132.046z"/>
			</g>
			<g>
				<path fill="#CDCDCE" d="M133.52,132.046c0-0.432,0.314-0.745,0.746-0.745s0.706,0.313,0.706,0.745s-0.274,0.745-0.745,0.745
					C133.833,132.791,133.52,132.478,133.52,132.046z"/>
			</g>
			<g>
				<path fill="#CDCDCE" d="M136.031,132.046c0-0.432,0.313-0.745,0.745-0.745s0.706,0.313,0.706,0.745s-0.274,0.745-0.745,0.745
					C136.344,132.791,136.031,132.478,136.031,132.046z"/>
			</g>
			<g>
				<path fill="#CDCDCE" d="M138.542,132.046c0-0.432,0.314-0.745,0.745-0.745c0.432,0,0.707,0.313,0.707,0.745
					s-0.275,0.745-0.746,0.745C138.816,132.791,138.542,132.478,138.542,132.046z"/>
			</g>
			<g>
				<path fill="#CDCDCE" d="M141.053,132.046c0-0.432,0.314-0.745,0.746-0.745c0.431,0,0.706,0.313,0.706,0.745
					s-0.275,0.745-0.746,0.745C141.327,132.791,141.053,132.478,141.053,132.046z"/>
			</g>
			<g>
				<path fill="#CDCDCE" d="M143.563,132.046c0-0.432,0.314-0.745,0.746-0.745c0.432,0,0.706,0.313,0.706,0.745
					s-0.274,0.745-0.746,0.745C143.838,132.791,143.563,132.478,143.563,132.046z"/>
			</g>
			<g>
				<path fill="#CDCDCE" d="M146.075,132.046c0-0.432,0.314-0.745,0.746-0.745s0.706,0.313,0.706,0.745s-0.274,0.745-0.745,0.745
					C146.35,132.791,146.075,132.478,146.075,132.046z"/>
			</g>
			<g>
				<path fill="#CDCDCE" d="M148.546,132.046c0-0.432,0.314-0.745,0.746-0.745c0.432,0,0.707,0.313,0.707,0.745
					s-0.274,0.745-0.746,0.745C148.86,132.791,148.546,132.478,148.546,132.046z"/>
			</g>
			<g>
				<path fill="#CDCDCE" d="M151.058,132.046c0-0.432,0.314-0.745,0.746-0.745s0.706,0.313,0.706,0.745s-0.274,0.745-0.745,0.745
					C151.372,132.791,151.058,132.478,151.058,132.046z"/>
			</g>
			<g>
				<path fill="#CDCDCE" d="M153.569,132.046c0-0.432,0.313-0.745,0.745-0.745s0.706,0.313,0.706,0.745s-0.274,0.745-0.745,0.745
					C153.882,132.791,153.569,132.478,153.569,132.046z"/>
			</g>
			<g>
				<path fill="#CDCDCE" d="M156.08,132.046c0-0.432,0.314-0.745,0.745-0.745c0.432,0,0.707,0.313,0.707,0.745
					s-0.275,0.745-0.746,0.745C156.354,132.791,156.08,132.478,156.08,132.046z"/>
			</g>
			<g>
				<path fill="#CDCDCE" d="M158.591,132.046c0-0.432,0.314-0.745,0.746-0.745c0.431,0,0.706,0.313,0.706,0.745
					s-0.275,0.745-0.746,0.745C158.865,132.791,158.591,132.478,158.591,132.046z"/>
			</g>
			<g>
				<path fill="#CDCDCE" d="M161.102,132.046c0-0.432,0.314-0.745,0.746-0.745s0.706,0.313,0.706,0.745s-0.274,0.745-0.746,0.745
					C161.377,132.791,161.102,132.478,161.102,132.046z"/>
			</g>
			<g>
				<path fill="#CDCDCE" d="M163.613,132.046c0-0.432,0.314-0.745,0.746-0.745s0.706,0.313,0.706,0.745s-0.274,0.745-0.745,0.745
					C163.888,132.791,163.613,132.478,163.613,132.046z"/>
			</g>
			<g>
				<path fill="#CDCDCE" d="M166.124,132.046c0-0.432,0.313-0.745,0.746-0.745c0.432,0,0.706,0.313,0.706,0.745
					s-0.274,0.745-0.745,0.745C166.398,132.791,166.124,132.478,166.124,132.046z"/>
			</g>
			<g>
				<path fill="#CDCDCE" d="M168.596,132.046c0-0.432,0.314-0.745,0.746-0.745s0.706,0.313,0.706,0.745s-0.274,0.745-0.745,0.745
					C168.91,132.791,168.596,132.478,168.596,132.046z"/>
			</g>
			<g>
				<path fill="#CDCDCE" d="M171.107,132.046c0-0.432,0.313-0.745,0.746-0.745c0.432,0,0.706,0.313,0.706,0.745
					s-0.274,0.745-0.746,0.745C171.42,132.791,171.107,132.478,171.107,132.046z"/>
			</g>
			<g>
				<path fill="#CDCDCE" d="M173.618,132.046c0-0.432,0.314-0.745,0.745-0.745c0.432,0,0.707,0.313,0.707,0.745
					s-0.275,0.745-0.746,0.745C173.932,132.791,173.618,132.478,173.618,132.046z"/>
			</g>
			<g>
				<path fill="#CDCDCE" d="M176.129,132.046c0-0.432,0.314-0.745,0.746-0.745c0.431,0,0.706,0.313,0.706,0.745
					s-0.275,0.745-0.746,0.745C176.403,132.791,176.129,132.478,176.129,132.046z"/>
			</g>
			<g>
				<path fill="#CDCDCE" d="M178.64,132.046c0-0.432,0.314-0.745,0.746-0.745s0.706,0.313,0.706,0.745s-0.274,0.745-0.746,0.745
					C178.915,132.791,178.64,132.478,178.64,132.046z"/>
			</g>
			<g>
				<path fill="#CDCDCE" d="M181.151,132.046c0-0.432,0.314-0.745,0.746-0.745s0.706,0.313,0.706,0.745s-0.274,0.745-0.745,0.745
					C181.426,132.791,181.151,132.478,181.151,132.046z"/>
			</g>
			<g>
				<path fill="#CDCDCE" d="M183.662,132.046c0-0.432,0.314-0.745,0.746-0.745s0.706,0.313,0.706,0.745s-0.274,0.745-0.745,0.745
					C183.937,132.791,183.662,132.478,183.662,132.046z"/>
			</g>
			<g>
				<path fill="#CDCDCE" d="M186.134,132.046c0-0.432,0.314-0.745,0.746-0.745s0.706,0.313,0.706,0.745s-0.274,0.745-0.745,0.745
					C186.448,132.791,186.134,132.478,186.134,132.046z"/>
			</g>
			<g>
				<path fill="#CDCDCE" d="M188.645,132.046c0-0.432,0.314-0.745,0.746-0.745s0.706,0.313,0.706,0.745s-0.274,0.745-0.745,0.745
					C188.959,132.791,188.645,132.478,188.645,132.046z"/>
			</g>
			<g>
				<path fill="#CDCDCE" d="M191.156,132.046c0-0.432,0.313-0.745,0.745-0.745s0.707,0.313,0.707,0.745s-0.275,0.745-0.746,0.745
					C191.47,132.791,191.156,132.478,191.156,132.046z"/>
			</g>
			<g>
				<path fill="#CDCDCE" d="M193.667,132.046c0-0.432,0.314-0.745,0.746-0.745c0.431,0,0.706,0.313,0.706,0.745
					s-0.275,0.745-0.746,0.745C193.941,132.791,193.667,132.478,193.667,132.046z"/>
			</g>
			<g>
				<path fill="#CDCDCE" d="M196.178,132.046c0-0.432,0.314-0.745,0.746-0.745s0.706,0.313,0.706,0.745s-0.274,0.745-0.746,0.745
					C196.453,132.791,196.178,132.478,196.178,132.046z"/>
			</g>
			<g>
				<path fill="#CDCDCE" d="M198.689,132.046c0-0.432,0.314-0.745,0.746-0.745s0.707,0.313,0.707,0.745s-0.275,0.745-0.746,0.745
					C198.964,132.791,198.689,132.478,198.689,132.046z"/>
			</g>
			<g>
				<path fill="#CDCDCE" d="M201.2,132.046c0-0.432,0.314-0.745,0.746-0.745s0.706,0.313,0.706,0.745s-0.274,0.745-0.745,0.745
					C201.475,132.791,201.2,132.478,201.2,132.046z"/>
			</g>
			<g>
				<path fill="#CDCDCE" d="M203.711,132.046c0-0.432,0.314-0.745,0.745-0.745c0.432,0,0.707,0.313,0.707,0.745
					s-0.275,0.745-0.746,0.745C203.986,132.791,203.711,132.478,203.711,132.046z"/>
			</g>
			<g>
				<path fill="#CDCDCE" d="M206.184,132.046c0-0.432,0.313-0.745,0.745-0.745s0.706,0.313,0.706,0.745s-0.274,0.745-0.745,0.745
					C206.497,132.791,206.184,132.478,206.184,132.046z"/>
			</g>
			<g>
				<path fill="#CDCDCE" d="M208.694,132.046c0-0.432,0.313-0.745,0.745-0.745s0.707,0.313,0.707,0.745s-0.275,0.745-0.746,0.745
					C209.008,132.791,208.694,132.478,208.694,132.046z"/>
			</g>
			<g>
				<path fill="#CDCDCE" d="M211.206,132.046c0-0.432,0.314-0.745,0.746-0.745c0.431,0,0.706,0.313,0.706,0.745
					s-0.275,0.745-0.746,0.745C211.52,132.791,211.206,132.478,211.206,132.046z"/>
			</g>
			<g>
				<path fill="#CDCDCE" d="M213.716,132.046c0-0.432,0.314-0.745,0.746-0.745s0.706,0.313,0.706,0.745s-0.274,0.745-0.746,0.745
					C213.991,132.791,213.716,132.478,213.716,132.046z"/>
			</g>
			<g>
				<path fill="#CDCDCE" d="M216.228,132.046c0-0.432,0.314-0.745,0.745-0.745c0.432,0,0.707,0.313,0.707,0.745
					s-0.275,0.745-0.746,0.745C216.502,132.791,216.228,132.478,216.228,132.046z"/>
			</g>
			<g>
				<path fill="#CDCDCE" d="M218.738,132.046c0-0.432,0.314-0.745,0.746-0.745c0.431,0,0.706,0.313,0.706,0.745
					s-0.275,0.745-0.746,0.745C219.013,132.791,218.738,132.478,218.738,132.046z"/>
			</g>
			<g>
				<path fill="#CDCDCE" d="M221.249,132.046c0-0.432,0.314-0.745,0.746-0.745s0.706,0.313,0.706,0.745s-0.274,0.745-0.746,0.745
					C221.524,132.791,221.249,132.478,221.249,132.046z"/>
			</g>
			<g>
				<path fill="#CDCDCE" d="M223.722,132.046c0-0.432,0.313-0.745,0.745-0.745s0.706,0.313,0.706,0.745s-0.274,0.745-0.745,0.745
					C224.035,132.791,223.722,132.478,223.722,132.046z"/>
			</g>
			<g>
				<path fill="#CDCDCE" d="M226.232,132.046c0-0.432,0.313-0.745,0.745-0.745c0.433,0,0.707,0.313,0.707,0.745
					s-0.274,0.745-0.746,0.745C226.546,132.791,226.232,132.478,226.232,132.046z"/>
			</g>
			<g>
				<path fill="#CDCDCE" d="M228.743,132.046c0-0.432,0.314-0.745,0.746-0.745s0.706,0.313,0.706,0.745s-0.274,0.745-0.745,0.745
					C229.058,132.791,228.743,132.478,228.743,132.046z"/>
			</g>
			<g>
				<path fill="#CDCDCE" d="M231.255,132.046c0-0.432,0.313-0.745,0.745-0.745s0.706,0.313,0.706,0.745s-0.274,0.745-0.745,0.745
					C231.529,132.791,231.255,132.478,231.255,132.046z"/>
			</g>
			<g>
				<path fill="#CDCDCE" d="M233.766,132.046c0-0.432,0.314-0.745,0.745-0.745c0.432,0,0.707,0.313,0.707,0.745
					s-0.275,0.745-0.746,0.745C234.04,132.791,233.766,132.478,233.766,132.046z"/>
			</g>
			<g>
				<path fill="#CDCDCE" d="M236.276,132.046c0-0.432,0.314-0.745,0.746-0.745c0.431,0,0.706,0.313,0.706,0.745
					s-0.275,0.745-0.746,0.745C236.551,132.791,236.276,132.478,236.276,132.046z"/>
			</g>
			<g>
				<path fill="#CDCDCE" d="M238.788,132.046c0-0.432,0.313-0.745,0.706-0.745c0.432,0,0.706,0.313,0.706,0.745
					s-0.274,0.745-0.745,0.745C239.063,132.791,238.788,132.478,238.788,132.046z"/>
			</g>
			<g>
				<path fill="#CDCDCE" d="M241.299,132.046c0-0.432,0.313-0.745,0.745-0.745s0.706,0.313,0.706,0.745s-0.274,0.745-0.706,0.745
					C241.573,132.791,241.299,132.478,241.299,132.046z"/>
			</g>
			<g>
				<path fill="#CDCDCE" d="M243.771,132.046c0-0.432,0.313-0.745,0.746-0.745c0.432,0,0.706,0.313,0.706,0.745
					s-0.274,0.745-0.746,0.745C244.084,132.791,243.771,132.478,243.771,132.046z"/>
			</g>
			<g>
				<path fill="#CDCDCE" d="M246.281,132.046c0-0.432,0.314-0.745,0.707-0.745c0.432,0,0.706,0.313,0.706,0.745
					s-0.274,0.745-0.746,0.745C246.596,132.791,246.281,132.478,246.281,132.046z"/>
			</g>
			<g>
				<path fill="#CDCDCE" d="M248.793,132.046c0-0.432,0.313-0.745,0.745-0.745s0.706,0.313,0.706,0.745s-0.274,0.745-0.706,0.745
					S248.793,132.478,248.793,132.046z"/>
			</g>
			<g>
				<path fill="#CDCDCE" d="M251.304,132.046c0-0.432,0.313-0.745,0.745-0.745s0.707,0.313,0.707,0.745s-0.275,0.745-0.746,0.745
					C251.578,132.791,251.304,132.478,251.304,132.046z"/>
			</g>
			<g>
				<path fill="#CDCDCE" d="M253.814,132.046c0-0.432,0.314-0.745,0.746-0.745c0.431,0,0.706,0.313,0.706,0.745
					s-0.275,0.745-0.746,0.745C254.089,132.791,253.814,132.478,253.814,132.046z"/>
			</g>
			<g>
				<path fill="#CDCDCE" d="M256.326,132.046c0-0.432,0.313-0.745,0.706-0.745c0.432,0,0.706,0.313,0.706,0.745
					s-0.274,0.745-0.745,0.745C256.601,132.791,256.326,132.478,256.326,132.046z"/>
			</g>
			<g>
				<path fill="#CDCDCE" d="M258.837,132.046c0-0.432,0.313-0.745,0.745-0.745s0.706,0.313,0.706,0.745s-0.274,0.745-0.706,0.745
					C259.111,132.791,258.837,132.478,258.837,132.046z"/>
			</g>
			<g>
				<path fill="#CDCDCE" d="M261.309,132.046c0-0.432,0.314-0.745,0.746-0.745s0.706,0.313,0.706,0.745s-0.274,0.745-0.746,0.745
					C261.623,132.791,261.309,132.478,261.309,132.046z"/>
			</g>
			<g>
				<path fill="#CDCDCE" d="M263.819,132.046c0-0.432,0.314-0.745,0.707-0.745c0.431,0,0.706,0.313,0.706,0.745
					s-0.275,0.745-0.746,0.745C264.134,132.791,263.819,132.478,263.819,132.046z"/>
			</g>
			<g>
				<path fill="#CDCDCE" d="M266.331,132.046c0-0.432,0.313-0.745,0.745-0.745s0.706,0.313,0.706,0.745s-0.274,0.745-0.706,0.745
					S266.331,132.478,266.331,132.046z"/>
			</g>
			<g>
				<path fill="#CDCDCE" d="M268.842,132.046c0-0.432,0.314-0.745,0.745-0.745c0.432,0,0.707,0.313,0.707,0.745
					s-0.275,0.745-0.746,0.745C269.116,132.791,268.842,132.478,268.842,132.046z"/>
			</g>
			<g>
				<path fill="#CDCDCE" d="M271.353,132.046c0-0.432,0.314-0.745,0.746-0.745s0.706,0.313,0.706,0.745s-0.274,0.745-0.745,0.745
					C271.627,132.791,271.353,132.478,271.353,132.046z"/>
			</g>
			<g>
				<path fill="#CDCDCE" d="M273.864,132.046c0-0.432,0.313-0.745,0.706-0.745c0.432,0,0.706,0.313,0.706,0.745
					s-0.274,0.745-0.745,0.745C274.139,132.791,273.864,132.478,273.864,132.046z"/>
			</g>
			<g>
				<path fill="#CDCDCE" d="M276.375,132.046c0-0.432,0.313-0.745,0.745-0.745s0.707,0.313,0.707,0.745s-0.275,0.745-0.707,0.745
					C276.649,132.791,276.375,132.478,276.375,132.046z"/>
			</g>
			<g>
				<path fill="#CDCDCE" d="M278.887,132.046c0-0.432,0.313-0.745,0.745-0.745s0.706,0.313,0.706,0.745s-0.274,0.745-0.745,0.745
					C279.161,132.791,278.887,132.478,278.887,132.046z"/>
			</g>
			<g>
				<path fill="#CDCDCE" d="M281.357,132.046c0-0.432,0.314-0.745,0.746-0.745s0.706,0.313,0.706,0.745s-0.274,0.745-0.745,0.745
					C281.672,132.791,281.357,132.478,281.357,132.046z"/>
			</g>
			<g>
				<path fill="#CDCDCE" d="M283.869,132.046c0-0.432,0.313-0.745,0.706-0.745c0.432,0,0.706,0.313,0.706,0.745
					s-0.274,0.745-0.745,0.745C284.183,132.791,283.869,132.478,283.869,132.046z"/>
			</g>
			<g>
				<path fill="#CDCDCE" d="M286.38,132.046c0-0.432,0.313-0.745,0.745-0.745s0.707,0.313,0.707,0.745s-0.275,0.745-0.746,0.745
					C286.693,132.791,286.38,132.478,286.38,132.046z"/>
			</g>
			<g>
				<path fill="#CDCDCE" d="M288.892,132.046c0-0.432,0.313-0.745,0.745-0.745s0.706,0.313,0.706,0.745s-0.274,0.745-0.745,0.745
					C289.166,132.791,288.892,132.478,288.892,132.046z"/>
			</g>
			<g>
				<path fill="#CDCDCE" d="M291.402,132.046c0-0.432,0.313-0.745,0.706-0.745c0.432,0,0.706,0.313,0.706,0.745
					s-0.274,0.745-0.745,0.745C291.677,132.791,291.402,132.478,291.402,132.046z"/>
			</g>
			<g>
				<path fill="#CDCDCE" d="M293.913,132.046c0-0.432,0.314-0.745,0.746-0.745s0.706,0.313,0.706,0.745s-0.274,0.745-0.706,0.745
					C294.188,132.791,293.913,132.478,293.913,132.046z"/>
			</g>
			<g>
				<path fill="#CDCDCE" d="M296.424,132.046c0-0.432,0.314-0.745,0.746-0.745s0.706,0.313,0.706,0.745s-0.274,0.745-0.745,0.745
					C296.699,132.791,296.424,132.478,296.424,132.046z"/>
			</g>
			<g>
				<path fill="#CDCDCE" d="M298.896,132.046c0-0.432,0.314-0.745,0.746-0.745s0.706,0.313,0.706,0.745s-0.274,0.745-0.745,0.745
					C299.21,132.791,298.896,132.478,298.896,132.046z"/>
			</g>
			<g>
				<path fill="#CDCDCE" d="M301.407,132.046c0-0.432,0.313-0.745,0.706-0.745c0.432,0,0.706,0.313,0.706,0.745
					s-0.274,0.745-0.745,0.745C301.721,132.791,301.407,132.478,301.407,132.046z"/>
			</g>
			<g>
				<path fill="#CDCDCE" d="M303.918,132.046c0-0.432,0.314-0.745,0.745-0.745c0.432,0,0.707,0.313,0.707,0.745
					s-0.275,0.745-0.746,0.745C304.232,132.791,303.918,132.478,303.918,132.046z"/>
			</g>
			<g>
				<path fill="#CDCDCE" d="M306.43,132.046c0-0.432,0.313-0.745,0.745-0.745s0.706,0.313,0.706,0.745s-0.274,0.745-0.745,0.745
					C306.704,132.791,306.43,132.478,306.43,132.046z"/>
			</g>
			<g>
				<path fill="#CDCDCE" d="M308.94,132.046c0-0.432,0.313-0.745,0.706-0.745c0.432,0,0.706,0.313,0.706,0.745
					s-0.274,0.745-0.745,0.745C309.215,132.791,308.94,132.478,308.94,132.046z"/>
			</g>
			<g>
				<path fill="#CDCDCE" d="M311.451,132.046c0-0.432,0.314-0.745,0.746-0.745s0.706,0.313,0.706,0.745s-0.274,0.745-0.706,0.745
					C311.727,132.791,311.451,132.478,311.451,132.046z"/>
			</g>
			<g>
				<path fill="#CDCDCE" d="M313.963,132.046c0-0.432,0.313-0.745,0.745-0.745s0.706,0.313,0.706,0.745s-0.274,0.745-0.745,0.745
					C314.237,132.791,313.963,132.478,313.963,132.046z"/>
			</g>
			<g>
				<path fill="#CDCDCE" d="M316.474,132.046c0-0.432,0.313-0.745,0.745-0.745s0.707,0.313,0.707,0.745s-0.275,0.745-0.746,0.745
					C316.748,132.791,316.474,132.478,316.474,132.046z"/>
			</g>
			<g>
				<path fill="#CDCDCE" d="M318.945,132.046c0-0.432,0.313-0.745,0.706-0.745c0.432,0,0.706,0.313,0.706,0.745
					s-0.274,0.745-0.745,0.745C319.259,132.791,318.945,132.478,318.945,132.046z"/>
			</g>
			<g>
				<path fill="#CDCDCE" d="M321.456,132.046c0-0.432,0.313-0.745,0.746-0.745c0.432,0,0.706,0.313,0.706,0.745
					s-0.274,0.745-0.706,0.745C321.77,132.791,321.456,132.478,321.456,132.046z"/>
			</g>
			<g>
				<path fill="#CDCDCE" d="M323.968,132.046c0-0.432,0.313-0.745,0.745-0.745s0.706,0.313,0.706,0.745s-0.274,0.745-0.745,0.745
					C324.281,132.791,323.968,132.478,323.968,132.046z"/>
			</g>
			<g>
				<path fill="#CDCDCE" d="M326.479,132.046c0-0.432,0.313-0.745,0.706-0.745c0.432,0,0.707,0.313,0.707,0.745
					s-0.275,0.745-0.746,0.745C326.753,132.791,326.479,132.478,326.479,132.046z"/>
			</g>
			<g>
				<path fill="#CDCDCE" d="M328.989,132.046c0-0.432,0.314-0.745,0.746-0.745s0.706,0.313,0.706,0.745s-0.274,0.745-0.706,0.745
					C329.265,132.791,328.989,132.478,328.989,132.046z"/>
			</g>
			<g>
				<path fill="#CDCDCE" d="M331.5,132.046c0-0.432,0.314-0.745,0.746-0.745s0.706,0.313,0.706,0.745s-0.274,0.745-0.745,0.745
					C331.775,132.791,331.5,132.478,331.5,132.046z"/>
			</g>
			<g>
				<path fill="#CDCDCE" d="M334.012,132.046c0-0.432,0.314-0.745,0.745-0.745c0.432,0,0.706,0.313,0.706,0.745
					s-0.274,0.745-0.745,0.745C334.286,132.791,334.012,132.478,334.012,132.046z"/>
			</g>
			<g>
				<path fill="#CDCDCE" d="M336.483,132.046c0-0.432,0.313-0.745,0.706-0.745c0.432,0,0.706,0.313,0.706,0.745
					s-0.274,0.745-0.745,0.745C336.797,132.791,336.483,132.478,336.483,132.046z"/>
			</g>
			<g>
				<path fill="#CDCDCE" d="M338.995,132.046c0-0.432,0.313-0.745,0.745-0.745s0.706,0.313,0.706,0.745s-0.274,0.745-0.706,0.745
					S338.995,132.478,338.995,132.046z"/>
			</g>
			<g>
				<path fill="#CDCDCE" d="M341.506,132.046c0-0.432,0.313-0.745,0.745-0.745s0.706,0.313,0.706,0.745s-0.274,0.745-0.745,0.745
					C341.819,132.791,341.506,132.478,341.506,132.046z"/>
			</g>
			<g>
				<path fill="#CDCDCE" d="M344.017,132.046c0-0.432,0.313-0.745,0.706-0.745c0.432,0,0.707,0.313,0.707,0.745
					s-0.275,0.745-0.746,0.745C344.291,132.791,344.017,132.478,344.017,132.046z"/>
			</g>
			<g>
				<path fill="#CDCDCE" d="M346.527,132.046c0-0.432,0.314-0.745,0.746-0.745s0.706,0.313,0.706,0.745s-0.274,0.745-0.706,0.745
					C346.803,132.791,346.527,132.478,346.527,132.046z"/>
			</g>
			<g>
				<path fill="#CDCDCE" d="M349.039,132.046c0-0.432,0.313-0.745,0.745-0.745s0.706,0.313,0.706,0.745s-0.274,0.745-0.745,0.745
					C349.313,132.791,349.039,132.478,349.039,132.046z"/>
			</g>
			<g>
				<path fill="#CDCDCE" d="M351.55,132.046c0-0.432,0.313-0.745,0.745-0.745s0.707,0.313,0.707,0.745s-0.275,0.745-0.746,0.745
					C351.824,132.791,351.55,132.478,351.55,132.046z"/>
			</g>
			<g>
				<path fill="#CDCDCE" d="M354.061,132.046c0-0.432,0.314-0.745,0.706-0.745c0.432,0,0.706,0.313,0.706,0.745
					s-0.274,0.745-0.745,0.745C354.335,132.791,354.061,132.478,354.061,132.046z"/>
			</g>
			<g>
				<path fill="#CDCDCE" d="M356.533,132.046c0-0.432,0.313-0.745,0.745-0.745s0.706,0.313,0.706,0.745s-0.274,0.745-0.706,0.745
					S356.533,132.478,356.533,132.046z"/>
			</g>
			<g>
				<path fill="#CDCDCE" d="M359.044,132.046c0-0.432,0.313-0.745,0.745-0.745s0.706,0.313,0.706,0.745s-0.274,0.745-0.745,0.745
					C359.357,132.791,359.044,132.478,359.044,132.046z"/>
			</g>
			<g>
				<path fill="#CDCDCE" d="M361.555,132.046c0-0.432,0.314-0.745,0.746-0.745s0.706,0.313,0.706,0.745s-0.274,0.745-0.746,0.745
					C361.869,132.791,361.555,132.478,361.555,132.046z"/>
			</g>
			<g>
				<path fill="#CDCDCE" d="M364.065,132.046c0-0.432,0.314-0.745,0.706-0.745c0.432,0,0.707,0.313,0.707,0.745
					s-0.275,0.745-0.746,0.745C364.341,132.791,364.065,132.478,364.065,132.046z"/>
			</g>
			<g>
				<path fill="#CDCDCE" d="M366.576,132.046c0-0.432,0.314-0.745,0.707-0.745c0.432,0,0.706,0.313,0.706,0.745
					s-0.274,0.745-0.745,0.745C366.852,132.791,366.576,132.478,366.576,132.046z"/>
			</g>
			<g>
				<path fill="#CDCDCE" d="M369.088,132.046c0-0.432,0.314-0.745,0.706-0.745c0.432,0,0.706,0.313,0.706,0.745
					s-0.274,0.745-0.745,0.745C369.362,132.791,369.088,132.478,369.088,132.046z"/>
			</g>
			<g>
				<path fill="#CDCDCE" d="M371.599,132.046c0-0.432,0.314-0.745,0.746-0.745s0.706,0.313,0.706,0.745s-0.274,0.745-0.745,0.745
					C371.873,132.791,371.599,132.478,371.599,132.046z"/>
			</g>
			<g>
				<path fill="#CDCDCE" d="M374.071,132.046c0-0.432,0.313-0.745,0.745-0.745s0.706,0.313,0.706,0.745s-0.274,0.745-0.745,0.745
					C374.385,132.791,374.071,132.478,374.071,132.046z"/>
			</g>
			<g>
				<path fill="#CDCDCE" d="M376.582,132.046c0-0.432,0.313-0.745,0.706-0.745c0.432,0,0.706,0.313,0.706,0.745
					s-0.274,0.745-0.745,0.745C376.896,132.791,376.582,132.478,376.582,132.046z"/>
			</g>
			<g>
				<path fill="#CDCDCE" d="M379.093,132.046c0-0.432,0.314-0.745,0.746-0.745c0.431,0,0.706,0.313,0.706,0.745
					s-0.275,0.745-0.746,0.745C379.407,132.791,379.093,132.478,379.093,132.046z"/>
			</g>
			<g>
				<path fill="#CDCDCE" d="M381.604,132.046c0-0.432,0.314-0.745,0.746-0.745s0.706,0.313,0.706,0.745s-0.274,0.745-0.745,0.745
					C381.879,132.791,381.604,132.478,381.604,132.046z"/>
			</g>
			<g>
				<path fill="#CDCDCE" d="M384.115,132.046c0-0.432,0.313-0.745,0.706-0.745c0.432,0,0.706,0.313,0.706,0.745
					s-0.274,0.745-0.745,0.745C384.39,132.791,384.115,132.478,384.115,132.046z"/>
			</g>
			<g>
				<path fill="#CDCDCE" d="M386.626,132.046c0-0.432,0.313-0.745,0.706-0.745c0.432,0,0.706,0.313,0.706,0.745
					s-0.274,0.745-0.745,0.745C386.9,132.791,386.626,132.478,386.626,132.046z"/>
			</g>
			<g>
				<path fill="#CDCDCE" d="M389.138,132.046c0-0.432,0.313-0.745,0.745-0.745s0.706,0.313,0.706,0.745s-0.274,0.745-0.745,0.745
					C389.412,132.791,389.138,132.478,389.138,132.046z"/>
			</g>
			<g>
				<path fill="#CDCDCE" d="M391.648,132.046c0-0.432,0.313-0.745,0.745-0.745s0.706,0.313,0.706,0.745s-0.274,0.745-0.745,0.745
					C391.923,132.791,391.648,132.478,391.648,132.046z"/>
			</g>
			<g>
				<path fill="#CDCDCE" d="M394.12,132.046c0-0.432,0.314-0.745,0.706-0.745c0.432,0,0.706,0.313,0.706,0.745
					s-0.274,0.745-0.745,0.745C394.435,132.791,394.12,132.478,394.12,132.046z"/>
			</g>
			<g>
				<path fill="#CDCDCE" d="M396.631,132.046c0-0.432,0.314-0.745,0.746-0.745s0.706,0.313,0.706,0.745s-0.274,0.745-0.746,0.745
					C396.945,132.791,396.631,132.478,396.631,132.046z"/>
			</g>
			<g>
				<path fill="#CDCDCE" d="M399.142,132.046c0-0.432,0.314-0.745,0.746-0.745s0.706,0.313,0.706,0.745s-0.274,0.745-0.746,0.745
					C399.456,132.791,399.142,132.478,399.142,132.046z"/>
			</g>
			<g>
				<path fill="#CDCDCE" d="M401.653,132.046c0-0.432,0.313-0.745,0.706-0.745c0.432,0,0.706,0.313,0.706,0.745
					s-0.274,0.745-0.745,0.745C401.928,132.791,401.653,132.478,401.653,132.046z"/>
			</g>
			<g>
				<path fill="#CDCDCE" d="M404.164,132.046c0-0.432,0.313-0.745,0.707-0.745c0.432,0,0.706,0.313,0.706,0.745
					s-0.274,0.745-0.745,0.745C404.438,132.791,404.164,132.478,404.164,132.046z"/>
			</g>
			<g>
				<path fill="#CDCDCE" d="M406.676,132.046c0-0.432,0.313-0.745,0.745-0.745s0.706,0.313,0.706,0.745s-0.274,0.745-0.745,0.745
					C406.95,132.791,406.676,132.478,406.676,132.046z"/>
			</g>
			<g>
				<path fill="#CDCDCE" d="M409.187,132.046c0-0.432,0.313-0.745,0.745-0.745s0.706,0.313,0.706,0.745s-0.274,0.745-0.745,0.745
					C409.461,132.791,409.187,132.478,409.187,132.046z"/>
			</g>
			<g>
				<path fill="#CDCDCE" d="M411.658,132.046c0-0.432,0.314-0.745,0.706-0.745c0.432,0,0.706,0.313,0.706,0.745
					s-0.274,0.745-0.745,0.745C411.973,132.791,411.658,132.478,411.658,132.046z"/>
			</g>
		</g>
	</g>
	<g>
		<g>
			<g>
				<path fill="#CDCDCE" d="M223.525,86.18c0.432,0,0.745,0.314,0.745,0.745c0,0.432-0.313,0.707-0.745,0.707
					s-0.745-0.275-0.745-0.746C222.78,86.455,223.094,86.18,223.525,86.18z"/>
			</g>
			<g>
				<path fill="#CDCDCE" d="M223.525,88.691c0.432,0,0.745,0.314,0.745,0.746s-0.313,0.706-0.745,0.706s-0.745-0.274-0.745-0.745
					C222.78,88.965,223.094,88.691,223.525,88.691z"/>
			</g>
			<g>
				<path fill="#CDCDCE" d="M223.525,91.202c0.432,0,0.745,0.313,0.745,0.746c0,0.432-0.313,0.706-0.745,0.706
					s-0.745-0.274-0.745-0.746C222.78,91.477,223.094,91.202,223.525,91.202z"/>
			</g>
			<g>
				<path fill="#CDCDCE" d="M223.525,93.713c0.432,0,0.745,0.314,0.745,0.746s-0.313,0.707-0.745,0.707s-0.745-0.275-0.745-0.746
					C222.78,93.988,223.094,93.713,223.525,93.713z"/>
			</g>
			<g>
				<path fill="#CDCDCE" d="M223.525,96.224c0.432,0,0.745,0.314,0.745,0.746s-0.313,0.706-0.745,0.706s-0.745-0.274-0.745-0.746
					C222.78,96.499,223.094,96.224,223.525,96.224z"/>
			</g>
			<g>
				<path fill="#CDCDCE" d="M223.525,98.696c0.432,0,0.745,0.314,0.745,0.746s-0.313,0.706-0.745,0.706s-0.745-0.274-0.745-0.745
					C222.78,99.01,223.094,98.696,223.525,98.696z"/>
			</g>
			<g>
				<path fill="#CDCDCE" d="M223.525,101.207c0.432,0,0.745,0.314,0.745,0.746s-0.313,0.706-0.745,0.706s-0.745-0.274-0.745-0.746
					C222.78,101.521,223.094,101.207,223.525,101.207z"/>
			</g>
			<g>
				<path fill="#CDCDCE" d="M223.525,103.718c0.432,0,0.745,0.314,0.745,0.745c0,0.432-0.313,0.707-0.745,0.707
					s-0.745-0.275-0.745-0.746C222.78,104.032,223.094,103.718,223.525,103.718z"/>
			</g>
			<g>
				<path fill="#CDCDCE" d="M223.525,106.229c0.432,0,0.745,0.313,0.745,0.745s-0.313,0.706-0.745,0.706s-0.745-0.274-0.745-0.745
					C222.78,106.504,223.094,106.229,223.525,106.229z"/>
			</g>
			<g>
				<path fill="#CDCDCE" d="M223.525,108.74c0.432,0,0.745,0.314,0.745,0.746s-0.313,0.706-0.745,0.706s-0.745-0.274-0.745-0.746
					C222.78,109.015,223.094,108.74,223.525,108.74z"/>
			</g>
			<g>
				<path fill="#CDCDCE" d="M223.525,111.251c0.432,0,0.745,0.314,0.745,0.746c0,0.432-0.313,0.707-0.745,0.707
					s-0.745-0.275-0.745-0.746C222.78,111.526,223.094,111.251,223.525,111.251z"/>
			</g>
			<g>
				<path fill="#CDCDCE" d="M223.525,113.762c0.432,0,0.745,0.314,0.745,0.746s-0.313,0.706-0.745,0.706s-0.745-0.274-0.745-0.745
					C222.78,114.037,223.094,113.762,223.525,113.762z"/>
			</g>
			<g>
				<path fill="#CDCDCE" d="M223.525,116.234c0.432,0,0.745,0.314,0.745,0.746s-0.313,0.706-0.745,0.706s-0.745-0.274-0.745-0.745
					C222.78,116.548,223.094,116.234,223.525,116.234z"/>
			</g>
			<g>
				<path fill="#CDCDCE" d="M223.525,118.746c0.432,0,0.745,0.313,0.745,0.745s-0.313,0.706-0.745,0.706s-0.745-0.274-0.745-0.745
					C222.78,119.059,223.094,118.746,223.525,118.746z"/>
			</g>
			<g>
				<path fill="#CDCDCE" d="M223.525,121.256c0.432,0,0.745,0.314,0.745,0.745c0,0.432-0.313,0.707-0.745,0.707
					s-0.745-0.275-0.745-0.746C222.78,121.57,223.094,121.256,223.525,121.256z"/>
			</g>
			<g>
				<path fill="#CDCDCE" d="M223.525,123.768c0.432,0,0.745,0.314,0.745,0.746c0,0.431-0.313,0.705-0.745,0.705
					s-0.745-0.274-0.745-0.745C222.78,124.042,223.094,123.768,223.525,123.768z"/>
			</g>
			<g>
				<path fill="#CDCDCE" d="M223.525,126.278c0.432,0,0.745,0.313,0.745,0.745s-0.313,0.707-0.745,0.707s-0.745-0.275-0.745-0.746
					C222.78,126.553,223.094,126.278,223.525,126.278z"/>
			</g>
			<g>
				<path fill="#CDCDCE" d="M223.525,128.789c0.432,0,0.745,0.314,0.745,0.746s-0.313,0.706-0.745,0.706s-0.745-0.274-0.745-0.745
					C222.78,129.064,223.094,128.789,223.525,128.789z"/>
			</g>
		</g>
	</g>
	<g>
		<g>
			<g>
				<path fill="#CDCDCE" d="M33.862,131.575c0.432,0,0.746,0.313,0.746,0.745s-0.313,0.707-0.746,0.707
					c-0.432,0-0.745-0.275-0.745-0.746C33.117,131.889,33.43,131.575,33.862,131.575z"/>
			</g>
			<g>
				<path fill="#CDCDCE" d="M33.862,134.086c0.432,0,0.746,0.314,0.746,0.746s-0.313,0.706-0.746,0.706
					c-0.432,0-0.745-0.274-0.745-0.746C33.117,134.361,33.43,134.086,33.862,134.086z"/>
			</g>
			<g>
				<path fill="#CDCDCE" d="M33.862,136.598c0.432,0,0.746,0.313,0.746,0.745s-0.313,0.706-0.746,0.706
					c-0.432,0-0.745-0.274-0.745-0.745C33.117,136.872,33.43,136.598,33.862,136.598z"/>
			</g>
			<g>
				<path fill="#CDCDCE" d="M33.862,139.108c0.432,0,0.746,0.313,0.746,0.745s-0.313,0.707-0.746,0.707
					c-0.432,0-0.745-0.275-0.745-0.746C33.117,139.383,33.43,139.108,33.862,139.108z"/>
			</g>
			<g>
				<path fill="#CDCDCE" d="M33.862,141.619c0.432,0,0.746,0.314,0.746,0.746s-0.313,0.706-0.746,0.706
					c-0.432,0-0.745-0.274-0.745-0.745C33.117,141.895,33.43,141.619,33.862,141.619z"/>
			</g>
			<g>
				<path fill="#CDCDCE" d="M33.862,144.092c0.432,0,0.746,0.313,0.746,0.744s-0.313,0.707-0.746,0.707
					c-0.432,0-0.745-0.275-0.745-0.746C33.117,144.404,33.43,144.092,33.862,144.092z"/>
			</g>
			<g>
				<path fill="#CDCDCE" d="M33.862,146.603c0.432,0,0.746,0.313,0.746,0.745s-0.313,0.707-0.746,0.707
					c-0.432,0-0.745-0.275-0.745-0.746C33.117,146.916,33.43,146.603,33.862,146.603z"/>
			</g>
			<g>
				<path fill="#CDCDCE" d="M33.862,149.113c0.432,0,0.746,0.314,0.746,0.746c0,0.431-0.313,0.705-0.746,0.705
					c-0.432,0-0.745-0.274-0.745-0.745C33.117,149.428,33.43,149.113,33.862,149.113z"/>
			</g>
			<g>
				<path fill="#CDCDCE" d="M33.862,151.625c0.432,0,0.746,0.313,0.746,0.745s-0.313,0.706-0.746,0.706
					c-0.432,0-0.745-0.274-0.745-0.746C33.117,151.899,33.43,151.625,33.862,151.625z"/>
			</g>
			<g>
				<path fill="#CDCDCE" d="M33.862,154.135c0.432,0,0.746,0.314,0.746,0.746s-0.313,0.706-0.746,0.706
					c-0.432,0-0.745-0.274-0.745-0.745C33.117,154.41,33.43,154.135,33.862,154.135z"/>
			</g>
			<g>
				<path fill="#CDCDCE" d="M33.862,156.646c0.432,0,0.746,0.313,0.746,0.746c0,0.432-0.313,0.705-0.746,0.705
					c-0.432,0-0.745-0.273-0.745-0.745C33.117,156.921,33.43,156.646,33.862,156.646z"/>
			</g>
			<g>
				<path fill="#CDCDCE" d="M33.862,159.158c0.432,0,0.746,0.313,0.746,0.744c0,0.432-0.313,0.707-0.746,0.707
					c-0.432,0-0.745-0.275-0.745-0.746C33.117,159.432,33.43,159.158,33.862,159.158z"/>
			</g>
			<g>
				<path fill="#CDCDCE" d="M33.862,161.668c0.432,0,0.746,0.314,0.746,0.746s-0.313,0.707-0.746,0.707
					c-0.432,0-0.745-0.275-0.745-0.746C33.117,161.943,33.43,161.668,33.862,161.668z"/>
			</g>
			<g>
				<path fill="#CDCDCE" d="M33.862,164.141c0.432,0,0.746,0.314,0.746,0.745c0,0.432-0.313,0.706-0.746,0.706
					c-0.432,0-0.745-0.274-0.745-0.745C33.117,164.455,33.43,164.141,33.862,164.141z"/>
			</g>
			<g>
				<path fill="#CDCDCE" d="M33.862,166.651c0.432,0,0.746,0.313,0.746,0.745s-0.313,0.707-0.746,0.707
					c-0.432,0-0.745-0.275-0.745-0.746C33.117,166.965,33.43,166.651,33.862,166.651z"/>
			</g>
			<g>
				<path fill="#CDCDCE" d="M33.862,169.162c0.432,0,0.746,0.314,0.746,0.746s-0.313,0.706-0.746,0.706
					c-0.432,0-0.745-0.274-0.745-0.745C33.117,169.477,33.43,169.162,33.862,169.162z"/>
			</g>
			<g>
				<path fill="#CDCDCE" d="M33.862,171.674c0.432,0,0.746,0.313,0.746,0.745s-0.313,0.706-0.746,0.706
					c-0.432,0-0.745-0.274-0.745-0.745C33.117,171.948,33.43,171.674,33.862,171.674z"/>
			</g>
			<g>
				<path fill="#CDCDCE" d="M33.862,174.185c0.432,0,0.746,0.313,0.746,0.745s-0.313,0.707-0.746,0.707
					c-0.432,0-0.745-0.275-0.745-0.746C33.117,174.459,33.43,174.185,33.862,174.185z"/>
			</g>
		</g>
	</g>
	<g>
		<g>
			<g>
				<path fill="#CDCDCE" d="M160.984,133.615c0.432,0,0.746,0.314,0.746,0.746c0,0.431-0.314,0.706-0.746,0.706
					c-0.432,0-0.746-0.275-0.746-0.746C160.239,133.89,160.552,133.615,160.984,133.615z"/>
			</g>
			<g>
				<path fill="#CDCDCE" d="M160.984,136.088c0.432,0,0.746,0.313,0.746,0.744c0,0.432-0.314,0.707-0.746,0.707
					c-0.432,0-0.746-0.275-0.746-0.746C160.239,136.401,160.552,136.088,160.984,136.088z"/>
			</g>
			<g>
				<path fill="#CDCDCE" d="M160.984,138.598c0.432,0,0.746,0.314,0.746,0.746s-0.314,0.706-0.746,0.706
					c-0.432,0-0.746-0.274-0.746-0.745C160.239,138.912,160.552,138.598,160.984,138.598z"/>
			</g>
			<g>
				<path fill="#CDCDCE" d="M160.984,141.109c0.432,0,0.746,0.314,0.746,0.746s-0.314,0.705-0.746,0.705
					c-0.432,0-0.746-0.273-0.746-0.745C160.239,141.424,160.552,141.109,160.984,141.109z"/>
			</g>
			<g>
				<path fill="#CDCDCE" d="M160.984,143.62c0.432,0,0.746,0.313,0.746,0.745s-0.314,0.707-0.746,0.707
					c-0.432,0-0.746-0.275-0.746-0.746C160.239,143.895,160.552,143.62,160.984,143.62z"/>
			</g>
			<g>
				<path fill="#CDCDCE" d="M160.984,146.131c0.432,0,0.746,0.314,0.746,0.746s-0.314,0.706-0.746,0.706
					c-0.432,0-0.746-0.274-0.746-0.745C160.239,146.406,160.552,146.131,160.984,146.131z"/>
			</g>
			<g>
				<path fill="#CDCDCE" d="M160.984,148.643c0.432,0,0.746,0.314,0.746,0.745c0,0.432-0.314,0.706-0.746,0.706
					c-0.432,0-0.746-0.274-0.746-0.745C160.239,148.917,160.552,148.643,160.984,148.643z"/>
			</g>
			<g>
				<path fill="#CDCDCE" d="M160.984,151.153c0.432,0,0.746,0.313,0.746,0.746c0,0.431-0.314,0.706-0.746,0.706
					c-0.432,0-0.746-0.275-0.746-0.746C160.239,151.428,160.552,151.153,160.984,151.153z"/>
			</g>
			<g>
				<path fill="#CDCDCE" d="M160.984,153.664c0.432,0,0.746,0.314,0.746,0.746s-0.314,0.706-0.746,0.706
					c-0.432,0-0.746-0.274-0.746-0.745C160.239,153.939,160.552,153.664,160.984,153.664z"/>
			</g>
			<g>
				<path fill="#CDCDCE" d="M160.984,156.137c0.432,0,0.746,0.313,0.746,0.745s-0.314,0.706-0.746,0.706
					c-0.432,0-0.746-0.274-0.746-0.746C160.239,156.45,160.552,156.137,160.984,156.137z"/>
			</g>
			<g>
				<path fill="#CDCDCE" d="M160.984,158.647c0.432,0,0.746,0.313,0.746,0.745s-0.314,0.707-0.746,0.707
					c-0.432,0-0.746-0.275-0.746-0.746C160.239,158.961,160.552,158.647,160.984,158.647z"/>
			</g>
			<g>
				<path fill="#CDCDCE" d="M160.984,161.158c0.432,0,0.746,0.314,0.746,0.746s-0.314,0.705-0.746,0.705
					c-0.432,0-0.746-0.273-0.746-0.744C160.239,161.473,160.552,161.158,160.984,161.158z"/>
			</g>
			<g>
				<path fill="#CDCDCE" d="M160.984,163.67c0.432,0,0.746,0.313,0.746,0.745s-0.314,0.706-0.746,0.706
					c-0.432,0-0.746-0.274-0.746-0.745C160.239,163.944,160.552,163.67,160.984,163.67z"/>
			</g>
			<g>
				<path fill="#CDCDCE" d="M160.984,166.181c0.432,0,0.746,0.313,0.746,0.745s-0.314,0.707-0.746,0.707
					c-0.432,0-0.746-0.275-0.746-0.746C160.239,166.455,160.552,166.181,160.984,166.181z"/>
			</g>
			<g>
				<path fill="#CDCDCE" d="M160.984,168.691c0.432,0,0.746,0.314,0.746,0.746s-0.314,0.706-0.746,0.706
					c-0.432,0-0.746-0.274-0.746-0.745C160.239,168.967,160.552,168.691,160.984,168.691z"/>
			</g>
			<g>
				<path fill="#CDCDCE" d="M160.984,171.203c0.432,0,0.746,0.313,0.746,0.745s-0.314,0.706-0.746,0.706
					c-0.432,0-0.746-0.274-0.746-0.746C160.239,171.478,160.552,171.203,160.984,171.203z"/>
			</g>
			<g>
				<path fill="#CDCDCE" d="M160.984,173.674c0.432,0,0.746,0.314,0.746,0.746s-0.314,0.707-0.746,0.707
					c-0.432,0-0.746-0.275-0.746-0.746C160.239,173.988,160.552,173.674,160.984,173.674z"/>
			</g>
			<g>
				<path fill="#CDCDCE" d="M160.984,176.186c0.432,0,0.746,0.314,0.746,0.746s-0.314,0.705-0.746,0.705
					c-0.432,0-0.746-0.273-0.746-0.745C160.239,176.5,160.552,176.186,160.984,176.186z"/>
			</g>
		</g>
	</g>
	<g>
		<g>
			<g>
				<path fill="#CDCDCE" d="M284.065,132.596c0.432,0,0.745,0.313,0.745,0.745c0,0.431-0.313,0.706-0.745,0.706
					s-0.745-0.275-0.745-0.746C283.32,132.869,283.634,132.596,284.065,132.596z"/>
			</g>
			<g>
				<path fill="#CDCDCE" d="M284.065,135.106c0.432,0,0.745,0.313,0.745,0.745s-0.313,0.707-0.745,0.707s-0.745-0.275-0.745-0.746
					C283.32,135.381,283.634,135.106,284.065,135.106z"/>
			</g>
			<g>
				<path fill="#CDCDCE" d="M284.065,137.617c0.432,0,0.745,0.314,0.745,0.746s-0.313,0.705-0.745,0.705s-0.745-0.273-0.745-0.744
					C283.32,137.893,283.634,137.617,284.065,137.617z"/>
			</g>
			<g>
				<path fill="#CDCDCE" d="M284.065,140.089c0.432,0,0.745,0.314,0.745,0.746s-0.313,0.706-0.745,0.706s-0.745-0.274-0.745-0.746
					C283.32,140.403,283.634,140.089,284.065,140.089z"/>
			</g>
			<g>
				<path fill="#CDCDCE" d="M284.065,142.6c0.432,0,0.745,0.314,0.745,0.746s-0.313,0.706-0.745,0.706s-0.745-0.274-0.745-0.745
					C283.32,142.914,283.634,142.6,284.065,142.6z"/>
			</g>
			<g>
				<path fill="#CDCDCE" d="M284.065,145.111c0.432,0,0.745,0.313,0.745,0.745c0,0.433-0.313,0.706-0.745,0.706
					s-0.745-0.273-0.745-0.745C283.32,145.425,283.634,145.111,284.065,145.111z"/>
			</g>
			<g>
				<path fill="#CDCDCE" d="M284.065,147.623c0.432,0,0.745,0.313,0.745,0.744c0,0.432-0.313,0.707-0.745,0.707
					s-0.745-0.275-0.745-0.746C283.32,147.896,283.634,147.623,284.065,147.623z"/>
			</g>
			<g>
				<path fill="#CDCDCE" d="M284.065,150.133c0.432,0,0.745,0.314,0.745,0.746s-0.313,0.707-0.745,0.707s-0.745-0.275-0.745-0.746
					C283.32,150.408,283.634,150.133,284.065,150.133z"/>
			</g>
			<g>
				<path fill="#CDCDCE" d="M284.065,152.645c0.432,0,0.745,0.314,0.745,0.746s-0.313,0.705-0.745,0.705s-0.745-0.273-0.745-0.745
					C283.32,152.92,283.634,152.645,284.065,152.645z"/>
			</g>
			<g>
				<path fill="#CDCDCE" d="M284.065,155.155c0.432,0,0.745,0.313,0.745,0.745s-0.313,0.707-0.745,0.707s-0.745-0.275-0.745-0.746
					C283.32,155.43,283.634,155.155,284.065,155.155z"/>
			</g>
			<g>
				<path fill="#CDCDCE" d="M284.065,157.667c0.432,0,0.745,0.313,0.745,0.745s-0.313,0.706-0.745,0.706s-0.745-0.274-0.745-0.745
					C283.32,157.941,283.634,157.667,284.065,157.667z"/>
			</g>
			<g>
				<path fill="#CDCDCE" d="M284.065,160.139c0.432,0,0.745,0.313,0.745,0.745s-0.313,0.706-0.745,0.706s-0.745-0.274-0.745-0.745
					C283.32,160.452,283.634,160.139,284.065,160.139z"/>
			</g>
			<g>
				<path fill="#CDCDCE" d="M284.065,162.65c0.432,0,0.745,0.313,0.745,0.744s-0.313,0.707-0.745,0.707s-0.745-0.275-0.745-0.746
					C283.32,162.963,283.634,162.65,284.065,162.65z"/>
			</g>
			<g>
				<path fill="#CDCDCE" d="M284.065,165.16c0.432,0,0.745,0.314,0.745,0.746s-0.313,0.706-0.745,0.706s-0.745-0.274-0.745-0.745
					C283.32,165.475,283.634,165.16,284.065,165.16z"/>
			</g>
			<g>
				<path fill="#CDCDCE" d="M284.065,167.672c0.432,0,0.745,0.313,0.745,0.746c0,0.431-0.313,0.705-0.745,0.705
					s-0.745-0.274-0.745-0.746C283.32,167.945,283.634,167.672,284.065,167.672z"/>
			</g>
			<g>
				<path fill="#CDCDCE" d="M284.065,170.183c0.432,0,0.745,0.313,0.745,0.745s-0.313,0.707-0.745,0.707s-0.745-0.275-0.745-0.746
					C283.32,170.457,283.634,170.183,284.065,170.183z"/>
			</g>
			<g>
				<path fill="#CDCDCE" d="M284.065,172.693c0.432,0,0.745,0.314,0.745,0.746s-0.313,0.706-0.745,0.706s-0.745-0.274-0.745-0.745
					C283.32,172.969,283.634,172.693,284.065,172.693z"/>
			</g>
			<g>
				<path fill="#CDCDCE" d="M284.065,175.205c0.432,0,0.745,0.313,0.745,0.745s-0.313,0.706-0.745,0.706s-0.745-0.274-0.745-0.745
					C283.32,175.479,283.634,175.205,284.065,175.205z"/>
			</g>
		</g>
	</g>
	<g>
		<g>
			<g>
				<path fill="#CDCDCE" d="M412.208,133.615c0.431,0,0.745,0.314,0.745,0.746c0,0.431-0.314,0.706-0.745,0.706
					c-0.432,0-0.746-0.275-0.746-0.746C411.423,133.89,411.736,133.615,412.208,133.615z"/>
			</g>
			<g>
				<path fill="#CDCDCE" d="M412.208,136.088c0.431,0,0.745,0.313,0.745,0.744c0,0.432-0.314,0.707-0.745,0.707
					c-0.432,0-0.746-0.275-0.746-0.746C411.423,136.401,411.736,136.088,412.208,136.088z"/>
			</g>
			<g>
				<path fill="#CDCDCE" d="M412.208,138.598c0.431,0,0.745,0.314,0.745,0.746s-0.314,0.706-0.745,0.706
					c-0.432,0-0.746-0.274-0.746-0.745C411.423,138.912,411.736,138.598,412.208,138.598z"/>
			</g>
			<g>
				<path fill="#CDCDCE" d="M412.208,141.109c0.431,0,0.745,0.314,0.745,0.746s-0.314,0.705-0.745,0.705
					c-0.432,0-0.746-0.273-0.746-0.745C411.423,141.424,411.736,141.109,412.208,141.109z"/>
			</g>
			<g>
				<path fill="#CDCDCE" d="M412.208,143.62c0.431,0,0.745,0.313,0.745,0.745s-0.314,0.707-0.745,0.707
					c-0.432,0-0.746-0.275-0.746-0.746C411.423,143.895,411.736,143.62,412.208,143.62z"/>
			</g>
			<g>
				<path fill="#CDCDCE" d="M412.208,146.131c0.431,0,0.745,0.314,0.745,0.746s-0.314,0.706-0.745,0.706
					c-0.432,0-0.746-0.274-0.746-0.745C411.423,146.406,411.736,146.131,412.208,146.131z"/>
			</g>
			<g>
				<path fill="#CDCDCE" d="M412.208,148.643c0.431,0,0.745,0.314,0.745,0.745c0,0.432-0.314,0.706-0.745,0.706
					c-0.432,0-0.746-0.274-0.746-0.745C411.423,148.917,411.736,148.643,412.208,148.643z"/>
			</g>
			<g>
				<path fill="#CDCDCE" d="M412.208,151.153c0.431,0,0.745,0.313,0.745,0.746c0,0.431-0.314,0.706-0.745,0.706
					c-0.432,0-0.746-0.275-0.746-0.746C411.423,151.428,411.736,151.153,412.208,151.153z"/>
			</g>
			<g>
				<path fill="#CDCDCE" d="M412.208,153.664c0.431,0,0.745,0.314,0.745,0.746s-0.314,0.706-0.745,0.706
					c-0.432,0-0.746-0.274-0.746-0.745C411.423,153.939,411.736,153.664,412.208,153.664z"/>
			</g>
			<g>
				<path fill="#CDCDCE" d="M412.208,156.137c0.431,0,0.745,0.313,0.745,0.745s-0.314,0.706-0.745,0.706
					c-0.432,0-0.746-0.274-0.746-0.746C411.423,156.45,411.736,156.137,412.208,156.137z"/>
			</g>
			<g>
				<path fill="#CDCDCE" d="M412.208,158.647c0.431,0,0.745,0.313,0.745,0.745s-0.314,0.707-0.745,0.707
					c-0.432,0-0.746-0.275-0.746-0.746C411.423,158.961,411.736,158.647,412.208,158.647z"/>
			</g>
			<g>
				<path fill="#CDCDCE" d="M412.208,161.158c0.431,0,0.745,0.314,0.745,0.746s-0.314,0.705-0.745,0.705
					c-0.432,0-0.746-0.273-0.746-0.744C411.423,161.473,411.736,161.158,412.208,161.158z"/>
			</g>
			<g>
				<path fill="#CDCDCE" d="M412.208,163.67c0.431,0,0.745,0.313,0.745,0.745s-0.314,0.706-0.745,0.706
					c-0.432,0-0.746-0.274-0.746-0.745C411.423,163.944,411.736,163.67,412.208,163.67z"/>
			</g>
			<g>
				<path fill="#CDCDCE" d="M412.208,166.181c0.431,0,0.745,0.313,0.745,0.745s-0.314,0.707-0.745,0.707
					c-0.432,0-0.746-0.275-0.746-0.746C411.423,166.455,411.736,166.181,412.208,166.181z"/>
			</g>
			<g>
				<path fill="#CDCDCE" d="M412.208,168.691c0.431,0,0.745,0.314,0.745,0.746s-0.314,0.706-0.745,0.706
					c-0.432,0-0.746-0.274-0.746-0.745C411.423,168.967,411.736,168.691,412.208,168.691z"/>
			</g>
			<g>
				<path fill="#CDCDCE" d="M412.208,171.203c0.431,0,0.745,0.313,0.745,0.745s-0.314,0.706-0.745,0.706
					c-0.432,0-0.746-0.274-0.746-0.746C411.423,171.478,411.736,171.203,412.208,171.203z"/>
			</g>
			<g>
				<path fill="#CDCDCE" d="M412.208,173.674c0.431,0,0.745,0.314,0.745,0.746s-0.314,0.707-0.745,0.707
					c-0.432,0-0.746-0.275-0.746-0.746C411.423,173.988,411.736,173.674,412.208,173.674z"/>
			</g>
			<g>
				<path fill="#CDCDCE" d="M412.208,176.186c0.431,0,0.745,0.314,0.745,0.746s-0.314,0.705-0.745,0.705
					c-0.432,0-0.746-0.273-0.746-0.745C411.423,176.5,411.736,176.186,412.208,176.186z"/>
			</g>
		</g>
	</g>
</g>
</svg>
