<?xml version="1.0" encoding="utf-8"?>
<!-- Generator: Adobe Illustrator 16.0.3, SVG Export Plug-In . SVG Version: 6.00 Build 0)  -->
<!DOCTYPE svg PUBLIC "-//W3C//DTD SVG 1.1//EN" "http://www.w3.org/Graphics/SVG/1.1/DTD/svg11.dtd">
<svg version="1.1" id="Layer_1" xmlns="http://www.w3.org/2000/svg" xmlns:xlink="http://www.w3.org/1999/xlink" x="0px" y="0px"
	 width="72px" height="72px" viewBox="0 0 72 72" enable-background="new 0 0 72 72" xml:space="preserve">
<g>
	<path fill="#3156A7" d="M70.262,34.671c-0.263-4.914-1.475-9.827-3.582-14.313c0.316-0.32,0.475-0.747,0.475-1.228
		c0-1.015-0.842-1.869-1.844-1.869c-0.105,0-0.157,0-0.263,0.053c-1.739-2.991-3.898-5.714-6.479-8.011
		c-0.947-0.854-1.948-1.602-3.002-2.296c0.053-0.214,0.106-0.374,0.106-0.588c0-1.495-1.476-2.616-2.896-2.243
		c-0.37,0.106-0.791,0.32-1.056,0.587c-4.687-2.243-9.901-3.418-15.011-3.738c-0.157-0.267-0.368-0.48-0.632-0.641
		c-0.684-0.587-1.896-0.48-2.528,0.16c-0.105,0.107-0.21,0.267-0.316,0.427c-6.373,0.214-12.588,2.403-17.645,6.301
		c-0.474-0.587-1.159-0.908-1.896-0.908c-1.37,0-2.476,1.122-2.476,2.51c0,0.694,0.263,1.281,0.737,1.762
		c-0.264,0.267-0.527,0.534-0.737,0.801C7.109,15.82,4.212,21.48,2.79,27.462c-0.158,0-0.263-0.054-0.421-0.054
		c-3.002,0-3.16,4.486-0.421,4.913c-0.737,6.729,0.315,13.672,3.371,19.6c-1.264,1.389-0.685,4.326,1.738,4.326
		c0.316,0,0.579-0.055,0.843-0.161c0.053,0.053,0.105,0.161,0.158,0.214c2.528,3.311,5.688,6.088,9.271,8.331
		c-0.105,1.281,0.632,2.617,2.265,2.617c0.632,0,1.106-0.214,1.475-0.534c3.318,1.602,6.847,2.669,10.429,3.258
		C31.654,71.039,32.392,72,33.708,72c1.159,0,1.843-0.694,2.106-1.548c0.949,0.053,1.949,0.053,2.897,0
		c4.846-0.214,9.534-1.549,13.746-3.846c0.422,0.534,1.055,0.854,1.896,0.854c2.056,0,2.845-2.029,2.318-3.578
		c3.108-2.296,5.847-5.18,8.059-8.438c0.843-1.229,1.527-2.456,2.159-3.738c0.053,0,0.053,0,0.105,0c0.475,0,0.896-0.106,1.265-0.32
		c0.368-0.214,0.737-0.533,0.948-0.961c0.157-0.268,0.315-0.534,0.368-0.854c0.053-0.214,0.105-0.427,0.105-0.641
		c0-0.695-0.316-1.336-0.843-1.709c-0.053,0-0.053-0.054-0.104-0.054c0.789-2.51,1.264-5.073,1.475-7.691
		c1-0.319,1.79-1.281,1.79-2.456C71.947,35.953,71.263,34.992,70.262,34.671z M64.205,20.52c-0.896,2.029-1.423,4.272-2.107,6.354
		c-0.842,2.617-1.896,5.288-2.527,8.064c-0.106-0.054-0.211-0.054-0.316-0.054c-0.054-1.869-0.475-3.738-0.737-5.554
		c-0.316-2.029-0.686-4.059-1.317-6.034c0.79-0.161,1.159-0.801,1.212-1.496c0.948-0.106,1.896-0.374,2.634-0.534
		c0.895-0.214,2.054-0.427,3.055-0.801C64.152,20.466,64.152,20.466,64.205,20.52z M64.573,49.838
		c-0.948,0.268-1.948,0.588-2.896,0.854c-2.687,0.801-5.426,1.281-8.111,2.028c-0.105-0.158-0.211-0.267-0.316-0.427
		c1.159-2.188,2.265-4.432,3.424-6.622c1.053-2.029,2.476-4.378,2.949-6.729c0.79,1.281,1.896,2.456,2.738,3.632
		c1.107,1.495,1.792,3.365,2.793,4.966C64.627,48.183,64.416,49.036,64.573,49.838z M49.932,54.11
		c-5.689,1.228-10.799,4.966-16.697,5.874c0-0.053-0.053-0.106-0.053-0.161c2.001-1.548,3.528-3.897,4.898-5.979
		c1.58-2.351,3.371-4.754,4.846-7.264c0.053,0,0.104,0,0.104,0c0.686,0,1.265-0.427,1.581-0.962
		c1.212,1.016,2.265,2.403,3.318,3.472c0.895,0.908,1.686,2.136,2.634,3.151c-0.421,0.374-0.685,0.907-0.685,1.495
		C49.879,53.896,49.932,54.003,49.932,54.11z M15.273,49.678c-0.053,0-0.053,0.053-0.105,0.053
		c-1.633-3.204-3.634-6.248-5.425-9.345c-1.738-2.99-3.582-6.035-5.53-8.972c0.158-0.213,0.263-0.427,0.316-0.641
		c1.896,0.801,3.845,1.602,5.741,2.403c1.317,0.588,2.633,1.175,4.056,1.602c-0.053,0.908,0.369,1.87,1.264,2.243
		C15.168,41.133,14.641,45.672,15.273,49.678z M15.958,20.947c3.371-0.321,7.058-1.335,10.218-2.777
		c0.105,0.107,0.264,0.214,0.369,0.268c-1.475,2.403-2.792,4.913-4.424,7.209c-1.686,2.403-3.213,4.86-4.846,7.263
		c-0.158-0.054-0.369-0.107-0.58-0.161c-0.948-3.204-1.211-6.622-2.265-9.772C15.273,22.762,15.958,21.961,15.958,20.947
		L15.958,20.947z M32.55,36.381c1.843-2.564,3.844-4.967,5.794-7.424c0.315,0.214,0.632,0.321,1.053,0.321h0.053
		c0.211,2.136,1.106,4.539,1.475,6.568c0.421,2.349,0.632,5.073,1.317,7.476c-0.422,0.214-0.737,0.641-0.843,1.122
		c-2.106-0.534-4.372-0.641-6.479-0.962c-2.001-0.32-4.056-0.854-6.11-1.068c-0.105-0.16-0.158-0.319-0.316-0.427
		C30.021,40.278,31.286,38.143,32.55,36.381z M27.651,41.453c-0.474-0.106-1.001-0.054-1.422,0.214
		c-0.158,0.107-0.316,0.214-0.474,0.374c-1.264-1.228-2.686-2.296-3.95-3.472c-1.054-1.015-2.16-1.976-3.424-2.723
		c0.105-0.32,0.158-0.587,0.105-0.908c3.371-0.748,6.689-2.136,9.902-3.418c2.95-1.175,6.321-2.136,9.218-3.685
		c0,0.054,0.052,0.161,0.052,0.213c-1.843,1.923-3.423,4.219-5.003,6.355C31.075,36.594,29.073,38.943,27.651,41.453z
		 M41.978,35.526c-0.422-1.869-0.685-4.54-1.686-6.516c0.315-0.213,0.58-0.48,0.737-0.854c2.897,1.816,5.953,3.579,8.85,5.447
		c1.949,1.229,4.424,2.778,6.898,3.579c0,0.105,0.054,0.214,0.106,0.319c-2.476,0.908-4.741,2.403-7.058,3.525
		c-1.844,0.907-3.846,1.441-5.531,2.51c-0.21-0.214-0.474-0.32-0.737-0.428C43.347,40.6,42.504,37.929,41.978,35.526z
		 M49.983,32.375c-2.423-1.495-4.846-3.524-7.584-4.593c1.949-0.481,3.95-1.175,5.794-1.763c2.476-0.801,5.213-1.815,7.531-3.204
		c0.211,0.214,0.475,0.374,0.842,0.481c0.317,2.083,0.633,4.112,0.948,6.141c0.264,1.816,0.264,3.685,0.527,5.501
		c-0.421,0.213-0.79,0.534-1.001,0.961C54.671,34.778,52.195,33.764,49.983,32.375z M55.303,21.748
		c-2.475,1.015-4.897,2.243-7.426,3.151c-2.213,0.801-4.53,1.389-6.742,2.243c-0.053-0.161-0.053-0.268-0.157-0.374
		c0.842-1.015,1.579-2.189,2.264-3.311c1.107-1.656,2.212-3.364,3.267-5.02c0.842,0,1.527-0.641,1.686-1.442
		c1.212,0.694,2.476,1.335,3.687,1.976c1.159,0.588,2.317,1.389,3.476,1.977C55.355,21.213,55.303,21.48,55.303,21.748z
		 M43.189,21.641c-1.001,1.335-2.16,2.724-3.108,4.166c-0.211-0.107-0.421-0.16-0.685-0.16c-0.158,0-0.315,0-0.421,0.053
		c-1.739-1.762-3.793-3.311-5.583-4.966c-1.37-1.229-2.739-2.403-4.319-3.311c0-0.053,0-0.053,0.053-0.107
		c0.053-0.106,0.053-0.213,0.105-0.267c0.053-0.107,0.053-0.268,0.053-0.374c2.528,0.267,5.162,0.213,7.637,0.267
		c2.634,0.053,5.268,0.214,7.849,0.053c0.157,0.534,0.527,1.015,1.054,1.229C44.927,19.344,44.085,20.466,43.189,21.641z
		 M33.814,22.655c1.316,1.228,2.633,2.67,4.161,3.739c-0.053,0.053-0.105,0.16-0.157,0.213c-3.319,0.641-6.637,2.51-9.692,3.738
		c-3.213,1.335-6.583,2.296-9.85,3.525c-0.105-0.161-0.21-0.321-0.316-0.481c1.686-1.976,3.108-4.272,4.583-6.409
		c1.844-2.563,4.003-5.394,5.267-8.384c0.158-0.053,0.316-0.107,0.474-0.213c0.105-0.053,0.211-0.16,0.316-0.267
		C30.443,19.612,32.128,21.106,33.814,22.655z M16.169,43.75c0.052-2.189,0.105-4.326,0.052-6.516c0.053,0,0.105,0,0.158,0
		c0.632,0,1.106-0.214,1.475-0.587c1.422,1.12,2.739,2.349,4.056,3.631c1.053,1.016,2.106,2.083,3.371,2.83
		c-0.052,0.214,0,0.481,0.053,0.695c0.053,0.159,0.105,0.267,0.158,0.373c-1.422,0.694-2.844,1.389-4.108,2.243
		c-1.422,0.907-2.581,2.136-3.898,3.151c-0.316-0.214-0.632-0.321-1.053-0.321c-0.053,0-0.053,0-0.105,0
		C16.274,47.436,16.116,45.565,16.169,43.75z M21.436,47.862c1.527-1.122,3.476-1.709,4.898-2.884
		c0.263,0.106,0.527,0.16,0.79,0.213l0,0c0.158,0,0.263,0,0.369-0.053c1.106,4.486,2.054,9.133,3.424,13.564
		c-0.211,0.053-0.369,0.106-0.58,0.16c-1.949-1.335-4.003-2.616-6.004-3.898c-1.791-1.229-3.898-2.938-6.11-3.739
		c0-0.319-0.105-0.586-0.211-0.854C19.276,49.625,20.33,48.717,21.436,47.862z M28.178,44.871c0.369-0.268,0.685-0.64,0.79-1.067
		l0,0c0.053-0.107,0.053-0.268,0.053-0.374c1.791,0.641,3.74,0.907,5.583,1.229c2.211,0.373,4.583,0.907,6.9,0.907
		c0.052,0.161,0.211,0.32,0.315,0.48c-1.422,1.816-2.581,4.06-3.739,5.928c-1.633,2.564-3.423,4.913-5.32,7.264
		c-0.105-0.107-0.21-0.161-0.316-0.214c-0.263-0.107-0.421-0.214-0.58-0.214C31.127,54.163,30.021,49.197,28.178,44.871z
		 M47.771,47.436c-0.685-0.695-1.791-2.03-2.949-2.671c0-0.161-0.053-0.32-0.106-0.48c1.845-0.802,3.793-1.442,5.637-2.243
		c2.424-1.015,4.898-2.243,7.269-3.472c0.21,0.107,0.421,0.268,0.631,0.321c0.054,0,0.054,0,0.106,0.053
		c-1.001,2.297-1.844,4.699-3.056,6.997c-1,1.922-2.106,3.897-2.686,6.033c-0.211-0.053-0.422-0.106-0.632-0.159
		C50.563,50.318,49.194,48.823,47.771,47.436z M54.829,8.183c3.739,2.563,6.794,5.875,9.112,9.773
		c-0.263,0.32-0.422,0.694-0.422,1.122c0,0.053,0,0.16,0,0.214c-0.895,0.32-1.843,0.694-2.738,0.96
		c-0.737,0.214-1.686,0.268-2.529,0.481c-0.263-0.427-0.684-0.801-1.368-0.801c-0.053,0-0.106,0-0.158,0
		c-0.737-2.296-1.106-4.539-1.37-6.996c-0.21-1.549-0.421-3.098-0.947-4.486C54.565,8.397,54.725,8.29,54.829,8.183z M51.932,8.397
		c0.37,0.267,0.845,0.427,1.317,0.427c0.157,0,0.264,0,0.421-0.054c0.58,3.365,0.317,7.37,1.581,10.521
		c-0.896-0.481-1.791-0.908-2.634-1.335c-1.37-0.694-2.845-1.335-4.319-1.869c-0.104-0.374-0.368-0.694-0.632-0.908
		c0.369-0.694,0.737-1.441,1.158-2.083C49.721,11.44,50.774,9.892,51.932,8.397z M36.974,2.416V2.362
		c3.267,0.267,6.479,0.908,9.587,1.87c1.58,0.48,3.055,1.068,4.477,1.762c-0.105,0.427-0.054,0.748,0,1.175
		c0.054,0.32,0.21,0.587,0.421,0.801c-1.158,1.228-2.212,2.563-3.265,3.952c-0.474,0.641-1.001,1.335-1.476,2.083
		c-1.054-1.762-2.58-3.364-3.897-4.806c-1.948-2.136-4.055-4.219-6.057-6.302C36.815,2.736,36.921,2.576,36.974,2.416z
		 M35.183,3.804c0.317,0,0.632-0.107,0.948-0.268l0.053-0.053c1.423,1.869,3.003,3.578,4.635,5.287
		c1.845,1.922,3.371,4.166,5.109,6.142c-0.475,0.214-0.842,0.587-1.053,1.121c-2.634-0.16-5.268-0.106-7.901-0.16
		c-2.581-0.054-5.214-0.268-7.795-0.054c-0.053-0.107-0.053-0.16-0.105-0.267c-0.053-0.053-0.105-0.106-0.105-0.213
		c1.211-1.656,2.16-3.631,3.108-5.394c1-1.922,2.054-4.059,2.528-6.248C34.762,3.804,34.973,3.857,35.183,3.804z M28.336,2.843
		c1.58-0.32,3.213-0.534,4.846-0.588c0.105,0.427,0.316,0.801,0.632,1.068c-0.948,1.976-1.686,4.112-2.687,6.035
		c-0.948,1.816-2.16,3.471-3.107,5.287c-0.158-0.053-0.369-0.107-0.58-0.107c-0.263,0-0.527,0.054-0.737,0.16
		c-1.633-1.281-3.371-2.563-5.057-3.738c-1.686-1.175-3.476-2.19-5.478-2.457c0-0.106,0-0.16-0.053-0.267
		C19.75,5.727,23.753,3.804,28.336,2.843z M16.063,9.572c2.001,0.694,3.845,1.762,5.583,2.991c1.422,0.961,2.739,2.083,4.108,3.043
		c-0.263,0.427-0.369,1.015-0.21,1.496c0,0.054,0.053,0.107,0.053,0.16c-3.266,0.908-6.532,2.136-9.797,3.097
		c-0.21-0.641-0.737-1.174-1.422-1.389c-0.053-0.908-0.158-1.762-0.211-2.616c-0.158-1.656-0.263-3.258-0.263-4.914
		C14.957,11.281,15.8,10.533,16.063,9.572z M15.537,32.962c-0.369,0.16-0.632,0.427-0.843,0.748c-1.58-0.641-3.16-1.228-4.688-1.922
		c-1.738-0.748-3.477-1.549-5.32-2.083c0-0.214-0.052-0.427-0.105-0.588c3.055-1.602,6.004-3.792,8.427-6.195
		c0.158,0.054,0.316,0.16,0.527,0.16C14.062,26.34,14.272,29.918,15.537,32.962z M10.954,12.722
		c0.527-0.534,1.106-1.068,1.633-1.548c0.158,0.107,0.369,0.16,0.527,0.213c-0.053,1.335-0.053,2.724,0,4.112
		c0.053,1.122,0.053,2.296,0.105,3.471c-0.896,0.268-1.528,1.068-1.528,2.029c0,0.427,0.158,0.854,0.369,1.229
		c-2.634,2.136-5.057,4.433-7.901,6.249c-0.105-0.16-0.264-0.321-0.369-0.428C5.002,22.442,7.478,17.102,10.954,12.722z
		 M7.004,51.226c-0.158,0-0.264,0-0.421,0.055c-2.423-4.754-3.687-10.2-3.582-16.075c0-0.961,0.052-1.976,0.158-2.937
		c0.158-0.054,0.264-0.106,0.421-0.213c1.738,2.991,3.424,5.981,5.214,8.972c1.896,3.205,3.635,6.622,5.794,9.666
		c-0.052,0.161-0.105,0.374-0.105,0.533l0,0c-0.843,0.161-1.686,0.375-2.476,0.535c-0.948,0.213-2.001,0.374-2.95,0.641
		C8.689,51.761,8.004,51.226,7.004,51.226z M17.749,63.402c-3.477-2.242-6.426-5.02-8.744-8.224
		c0.316-0.481,0.421-1.068,0.369-1.656c0.737-0.16,1.475-0.321,2.212-0.427c1.106-0.214,2.265-0.32,3.371-0.588
		c0.369,0.427,0.843,0.693,1.422,0.693c0.158,0,0.316,0,0.474-0.053c0.474,1.87,1.053,3.738,1.475,5.661
		c0.264,1.228,0.474,2.51,0.843,3.792C18.539,62.655,18.065,62.975,17.749,63.402z M20.435,62.655
		c-0.369-1.656-0.896-3.365-1.317-5.021c-0.369-1.602-0.843-3.363-1.633-4.859c0.211-0.16,0.369-0.321,0.527-0.588
		c2.16,1.282,4.267,2.723,6.321,4.112c1.58,1.067,3.266,2.51,5.056,3.578c-0.158,0.373-0.21,0.747-0.158,1.121
		c-1.211,0.375-2.37,1.015-3.529,1.335c-1.369,0.427-2.792,0.802-4.161,1.282C21.331,63.241,20.962,62.869,20.435,62.655z
		 M31.602,68.743c-3.266-0.534-6.531-1.495-9.586-2.938c-0.105-0.054-0.21-0.107-0.316-0.16c0.105-0.374,0.105-0.748,0.053-1.122
		c1.633-0.267,3.266-0.693,4.846-1.121c1.001-0.267,2.212-0.588,3.161-1.122c0.316,0.321,0.79,0.534,1.264,0.589
		c0.158,0.907,0.369,1.868,0.632,2.723c0.21,0.641,0.369,1.389,0.632,2.19C32.023,67.941,31.76,68.315,31.602,68.743z
		 M35.394,68.102c-0.369-0.48-0.948-0.801-1.738-0.801h-0.053c-0.632-1.495-1.264-2.99-1.738-4.593
		c0.527-0.16,1.001-0.48,1.264-0.962c0.158-0.319,0.264-0.694,0.264-1.067c3.054-0.32,5.846-1.228,8.69-2.403
		c2.212-0.908,4.372-1.709,6.585-2.456c-1.95,1.495-3.741,3.364-5.427,5.02C40.661,63.35,37.922,65.646,35.394,68.102z
		 M51.985,65.592c-5.003,2.617-10.534,3.738-16.118,3.578c0-0.054-0.053-0.16-0.053-0.214c2.529-1.708,4.688-3.951,6.848-6.034
		c2.686-2.563,5.635-4.808,8.32-7.37c0.264,0.16,0.581,0.214,0.896,0.214c0.105,0,0.211,0,0.263-0.054
		c0.423,1.389,0.526,3.364,0.686,4.325c0.157,0.748,0.211,1.656,0.315,2.511C52.091,63.136,51.721,64.47,51.985,65.592z
		 M57.252,62.067c-0.368,0.32-0.737,0.588-1.106,0.854c-0.368-0.374-0.895-0.642-1.527-0.694c-0.264-1.229-0.631-2.457-0.896-3.578
		c-0.157-0.802-0.368-2.189-0.843-3.258c0.58-0.373,1.001-1.015,1.001-1.709c0-0.106,0-0.213-0.053-0.373
		c2.107,0,4.214-0.534,6.269-1.016c1.737-0.427,3.423-0.907,5.161-1.388c0.158,0.16,0.316,0.267,0.474,0.374
		C63.679,55.445,60.834,59.076,57.252,62.067z M67.523,46.74c-0.106,0-0.211,0-0.316,0c-0.368,0-0.685,0-1.001,0.16
		c-0.79-1.388-1.527-2.777-2.423-4.165c-1.001-1.603-2.317-2.99-3.529-4.433c0.316-0.374,0.527-0.907,0.527-1.388c0,0,0,0,0-0.055
		l0,0c1.949,0.535,4.161,1.068,6.32,1.229c0.315,0.748,1.001,1.335,1.844,1.496C68.735,42.041,68.261,44.444,67.523,46.74z
		 M66.943,36.754c-0.579-0.053-1.158-0.106-1.738-0.214c-1.526-0.213-3.001-0.534-4.477-0.64c-0.105-0.214-0.21-0.427-0.369-0.588
		l-0.052-0.053c0.842-2.083,1.475-4.272,2.212-6.355c0.896-2.563,2.107-5.287,2.738-8.01c0.053,0,0.053,0,0.106,0
		c0.052,0,0.104,0,0.157,0c1.422,2.938,2.423,6.142,3.003,9.506c0.263,1.335,0.421,2.724,0.474,4.059
		C67.944,34.725,67.102,35.632,66.943,36.754z"/>
</g>
</svg>
