<?xml version="1.0" encoding="utf-8"?>
<!-- Generator: Adobe Illustrator 16.0.3, SVG Export Plug-In . SVG Version: 6.00 Build 0)  -->
<!DOCTYPE svg PUBLIC "-//W3C//DTD SVG 1.1//EN" "http://www.w3.org/Graphics/SVG/1.1/DTD/svg11.dtd">
<svg version="1.1" id="Layer_1" xmlns="http://www.w3.org/2000/svg" xmlns:xlink="http://www.w3.org/1999/xlink" x="0px" y="0px"
	 width="93px" height="75px" viewBox="0 0 93 75" enable-background="new 0 0 93 75" xml:space="preserve">
<g transform="translate(1 1)">
	<g>
		<g>
			<path fill="#3156A7" d="M68.729,27.712c-0.783,0-1.397-0.614-1.546-1.248c-0.148-0.781,0.465-1.712,1.247-1.712
				c4.022-0.616,8.063,0,8.21,0c0.783,0.148,1.396,0.931,1.248,1.712c-0.149,0.782-0.93,1.396-1.713,1.248c0,0-3.723-0.465-7.278,0
				H68.729z"/>
			<path fill="#3156A7" d="M36.2,24.622c-0.93,0-1.545-0.614-1.545-1.546c0-6.05-4.804-10.854-10.854-10.854
				c-6.052,0-10.855,4.804-10.855,10.854c0,0.933-0.616,1.546-1.545,1.546c-0.931,0-1.545-0.614-1.545-1.546
				C9.855,15.33,16.054,9.13,23.8,9.13c7.745,0,13.946,6.2,13.946,13.945C37.746,24.008,37.131,24.622,36.2,24.622z"/>
			<path fill="#3156A7" d="M78.036,24.938C77.105,10.993,65.635-0.161,51.689-0.161c-8.358,0-16.42,4.189-21.54,10.855
				c-1.862-1.08-4.023-1.545-6.349-1.545c-7.95,0-14.262,6.518-13.928,14.542c0,0,0,0.018-0.018,0.018
				C3.506,27.266-1,34.563-1,41.993c0,10.017,7.67,18.449,17.39,19.681c-0.057-0.316-0.057-0.652,0.037-1.005
				c-0.111-0.446-0.131-0.895-0.094-1.36c0.02-0.242,0.074-0.501,0.168-0.746C8.439,57.409,2.108,50.355,2.108,41.993
				c0-6.517,4.189-13.163,9.924-15.957c0.614-0.317,0.93-0.782,0.93-1.396v-1.323c0-5.884,4.6-10.873,10.484-11.06
				c2.309-0.075,4.449,0.541,6.404,1.862c0.782,0.465,1.714,0.316,2.18-0.465C36.368,7.138,44.113,2.968,51.857,2.968
				c12.55,0,22.94,10.388,23.091,23.237c0,0.782,0.464,1.396,1.246,1.544c7.28,1.397,12.699,8.063,12.699,15.491
				c0,7.729-5.736,14.169-13.165,15.306c0.02,0.985-0.426,1.994-1.341,2.476c0.02,0,0.036,0.021,0.056,0.021
				c0.316,0.147,0.578,0.409,0.781,0.688C84.607,60.798,92,52.85,92,43.24C91.981,34.694,86.082,27.098,78.036,24.938z"/>
		</g>
		<path fill="#3A5EAB" d="M75.672,58.527c0.874,0,1.583,0.707,1.583,1.584c0,0.874-0.709,1.579-1.583,1.579s-1.58-0.705-1.58-1.579
			C74.092,59.234,74.798,58.527,75.672,58.527z"/>
		<circle fill="#3156A7" cx="16.558" cy="60.091" r="1.563"/>
	</g>
</g>
<g>
	<path fill="#3156A7" d="M67.682,35.341H26.141c-0.373,0-0.689,0.299-0.689,0.689v37.442c0,0.371,0.299,0.688,0.689,0.688h41.557
		c0.371,0,0.688-0.297,0.688-0.688V36.03C68.367,35.657,68.069,35.341,67.682,35.341z M67.01,72.784h-40.2V36.719h25.343v4.116
		H28.878c-0.373,0-0.69,0.297-0.69,0.685c0,0.375,0.299,0.693,0.69,0.693h36.083c0.375,0,0.691-0.298,0.691-0.693
		c0-0.368-0.3-0.685-0.691-0.685H53.549v-4.116h13.48v36.065H67.01z"/>
	<circle fill="#3156A7" cx="60.289" cy="38.766" r="0.689"/>
	<path fill="#3156A7" d="M56.548,38.077c0.378,0,0.685,0.309,0.685,0.69c0,0.379-0.307,0.688-0.685,0.688
		c-0.382,0-0.691-0.309-0.691-0.688C55.856,38.386,56.166,38.077,56.548,38.077z"/>
	<circle fill="#3156A7" cx="64.03" cy="38.766" r="0.689"/>
	<path fill="#3156A7" d="M46.899,52.173c-2.792,0-5.081,2.271-5.081,5.082c0,2.792,2.272,5.083,5.081,5.083
		c0.802,0,1.603-0.185,2.33-0.559c0.332-0.168,0.465-0.595,0.297-0.93c-0.168-0.336-0.598-0.466-0.931-0.298
		c-0.521,0.277-1.099,0.406-1.696,0.406c-2.047,0-3.704-1.654-3.704-3.703c0-2.048,1.657-3.706,3.704-3.706
		c2.049,0,3.706,1.658,3.706,3.706c0,0.595-0.129,1.174-0.41,1.693c-0.168,0.336-0.035,0.747,0.297,0.931
		c0.337,0.168,0.747,0.039,0.931-0.297c0.375-0.705,0.563-1.525,0.563-2.327C51.985,54.444,49.711,52.173,46.899,52.173z"/>
	<path fill="#3156A7" d="M58.146,54.723h-2.885c-0.167-0.557-0.392-1.099-0.672-1.619l2.048-2.049
		c0.13-0.129,0.208-0.297,0.208-0.483c0-0.186-0.078-0.354-0.208-0.482l-2.588-2.592c-0.262-0.258-0.708-0.258-0.966,0l-2.049,2.05
		c-0.523-0.278-1.063-0.502-1.622-0.67v-2.885c0-0.375-0.297-0.691-0.688-0.691h-3.649c-0.372,0-0.688,0.297-0.688,0.691v2.885
		c-0.559,0.168-1.099,0.392-1.62,0.67l-2.029-2.05c-0.26-0.258-0.708-0.258-0.968,0l-2.588,2.608
		c-0.131,0.132-0.206,0.3-0.206,0.484c0,0.184,0.075,0.352,0.206,0.484l2.048,2.045c-0.279,0.524-0.504,1.063-0.67,1.622h-2.887
		c-0.372,0-0.688,0.298-0.688,0.688v3.648c0,0.374,0.297,0.691,0.688,0.691h2.867c0.168,0.559,0.391,1.099,0.67,1.618l-2.048,2.032
		c-0.129,0.13-0.204,0.298-0.204,0.481c0,0.188,0.075,0.353,0.204,0.486l2.588,2.587c0.262,0.258,0.708,0.258,0.97,0l2.047-2.028
		c0.521,0.277,1.062,0.503,1.62,0.671v2.882c0,0.376,0.297,0.692,0.688,0.692h3.649c0.372,0,0.688-0.298,0.688-0.692v-2.882
		c0.56-0.168,1.099-0.394,1.622-0.671l2.049,2.028c0.258,0.258,0.704,0.258,0.966,0l2.588-2.587c0.13-0.134,0.208-0.298,0.208-0.486
		c0-0.184-0.078-0.352-0.208-0.481l-2.048-2.032c0.28-0.52,0.505-1.06,0.672-1.618h2.885c0.372,0,0.688-0.298,0.688-0.691V55.43
		C58.835,55.039,58.538,54.723,58.146,54.723z M57.459,58.393h-2.721c-0.316,0-0.595,0.22-0.668,0.521
		c-0.186,0.782-0.485,1.528-0.915,2.213c-0.165,0.282-0.13,0.618,0.097,0.84l1.936,1.92l-1.619,1.619l-1.938-1.936
		c-0.223-0.227-0.575-0.262-0.837-0.098c-0.688,0.43-1.435,0.748-2.217,0.916c-0.316,0.073-0.52,0.351-0.52,0.667v2.74h-2.291v-2.72
		c0-0.317-0.223-0.594-0.522-0.67c-0.782-0.186-1.527-0.483-2.215-0.913c-0.28-0.168-0.616-0.129-0.838,0.094l-1.937,1.935
		l-1.619-1.619l1.936-1.916c0.224-0.226,0.262-0.577,0.094-0.839c-0.428-0.689-0.745-1.436-0.913-2.217
		c-0.074-0.317-0.354-0.521-0.67-0.521h-2.717v-2.29h2.717c0.317,0,0.596-0.221,0.67-0.521c0.188-0.782,0.485-1.527,0.913-2.212
		c0.168-0.282,0.13-0.618-0.094-0.841l-1.936-1.936l1.619-1.619l1.937,1.936c0.223,0.223,0.577,0.262,0.838,0.094
		c0.688-0.43,1.433-0.745,2.215-0.914c0.316-0.075,0.522-0.353,0.522-0.669v-2.721h2.291v2.721c0,0.316,0.223,0.594,0.52,0.669
		c0.782,0.187,1.528,0.484,2.217,0.914c0.278,0.168,0.614,0.129,0.837-0.094l1.938-1.936l1.619,1.619l-1.936,1.896
		c-0.227,0.226-0.262,0.578-0.097,0.841c0.43,0.688,0.746,1.434,0.915,2.217c0.073,0.315,0.352,0.519,0.668,0.519h2.721V58.393
		L57.459,58.393z"/>
</g>
</svg>
